<?xml version="1.0" encoding="utf-8"?>
<!-- Generator: Adobe Illustrator 24.0.2, SVG Export Plug-In . SVG Version: 6.00 Build 0)  -->
<svg version="1.1" id="Camada_1" xmlns="http://www.w3.org/2000/svg" xmlns:xlink="http://www.w3.org/1999/xlink" x="0px" y="0px"
	 viewBox="0 0 674.4 397.3" style="enable-background:new 0 0 674.4 397.3;" xml:space="preserve">
<style type="text/css">
	.st0{fill:#000A2D;}
	.st1{fill:#ACBFE9;}
	.st2{fill:#ACBEE9;}
	.st3{fill:#8B8BF7;}
	.st4{fill:#EDEDF2;}
	.st5{fill:#FFFFFF;}
	.st6{fill:#303072;}
	.st7{fill:#6C63FF;}
	.st8{fill:#D7D7E2;}
	.st9{fill:#282A36;}
	.st10{fill:#4E587B;}
	.st11{fill:#D7F8F2;}
	.st12{fill:#F279BD;}
	.st13{fill:#FFAE91;}
	.st14{fill:#281F17;}
	.st15{fill:#19193A;}
	.st16{fill:#3E3E96;}
</style>
<polygon class="st0" points="416.4,222.1 408.1,301 412,301 426.5,222.1 "/>
<path class="st1" d="M325.9-11.4c0,0-6.9-53.8,56-23.5s94.5,40.1,119.9,23.5s131.1-4.4,151.2,8s49.9,8.1,42.2,75.8
	c-7.6,67.7-12.7,111.8-2.5,131.7c10.2,19.8,39.4,81.5-11,94.2c-50.4,12.7-24,70.5-74.8,83.2C556,394.1,367.2,328.7,372,361.9
	s-112.4,24.4-73.3-97.9s35.7-84.8,17-112.2c-18.7-27.4-23.8-38.1-8.5-83.6C322.5,22.8,329.3,18.8,325.9-11.4z"/>
<polygon class="st0" points="587.1,222.1 595.5,301 591.6,301 577,222.1 "/>
<ellipse class="st2" cx="502.6" cy="346.7" rx="100.5" ry="36.4"/>
<polygon class="st3" points="650.9,239.4 354.3,239.4 372.3,206.4 626.5,206.4 "/>
<polygon class="st3" points="390.1,245.6 381.8,324.5 385.7,324.5 400.2,245.6 "/>
<polygon class="st3" points="611.7,245.6 620.1,324.5 616.2,324.5 601.7,245.6 "/>
<g>
	<polygon class="st4" points="445.9,224.5 446.2,227.5 558.5,227.5 559.3,224.6 	"/>
	<g>
		<path class="st5" d="M558.4,221.3c0.9,2.6-0.6,4.7-3.4,4.7H450.3c-2.8,0-4.4-2.2-3.7-4.8l1.7-6.4c0.7-2.7,3.6-4.8,6.3-4.8l95,0.4
			c2.8,0,5.7,2.2,6.6,4.8L558.4,221.3z"/>
	</g>
</g>
<rect x="354.3" y="239.4" class="st6" width="296.6" height="7.3"/>
<g>
	<g>
		<circle class="st5" cx="502.6" cy="33.1" r="28.5"/>
	</g>
</g>
<path class="st7" d="M502,34.2l-12.6-19.7c-0.3-0.5-0.2-1.2,0.3-1.5c0.5-0.3,1.2-0.2,1.5,0.3l12,18.7l19-0.2c0,0,0,0,0,0
	c0.6,0,1.1,0.5,1.1,1.1c0,0.6-0.5,1.1-1.1,1.1L502,34.2z"/>
<g>
	<g>
		<circle class="st5" cx="435.5" cy="33.1" r="28.5"/>
	</g>
</g>
<path class="st7" d="M421.9,45.6c-0.3,0-0.6-0.1-0.9-0.4c-0.4-0.5-0.3-1.2,0.1-1.6L434,32.9l-11.2-18.4c-0.3-0.5-0.2-1.2,0.4-1.5
	c0.5-0.3,1.2-0.2,1.5,0.4l12.3,20l-14.4,12C422.4,45.5,422.1,45.6,421.9,45.6z"/>
<g>
	<g>
		<circle class="st5" cx="569.8" cy="33.1" r="28.5"/>
	</g>
</g>
<path class="st7" d="M584.1,46.4c-0.3,0-0.5-0.1-0.7-0.3l-14.5-12.2l-0.1-0.1l-13.1-19c-0.3-0.5-0.2-1.2,0.3-1.6
	c0.5-0.4,1.2-0.2,1.6,0.3l13,18.9l14.2,12c0.5,0.4,0.5,1.1,0.1,1.6C584.8,46.2,584.4,46.4,584.1,46.4z"/>
<g>
	<g>
		<path class="st4" d="M417.3,188c0,0,0.4,6.4-1,10.8c-2.3,7.2-8.6,8-8.6,11.8c0,0.1,39.7,0.1,39.7,0c0-3.7-6-4.8-8.1-11.6
			c-1.6-5-0.7-11-0.7-11H417.3z"/>
		<rect x="407.8" y="210.5" class="st8" width="39.7" height="1.8"/>
	</g>
	<g>
		<g>
			<path class="st5" d="M497.6,176.7c0,8.3-6.8,15-15,15H372.7c-8.3,0-15-6.8-15-15V111c0-8.3,6.8-15,15-15h109.9
				c8.3,0,15,6.8,15,15V176.7z"/>
		</g>
		<rect x="363.7" y="102.3" class="st9" width="127.8" height="74.7"/>
	</g>
	<circle class="st7" cx="427.6" cy="184.3" r="3.2"/>
</g>
<g>
	<path class="st10" d="M387.3,114.1h-7.8c-0.3,0-0.5-0.3-0.5-0.6s0.2-0.6,0.5-0.6h7.8c0.3,0,0.5,0.3,0.5,0.6
		S387.6,114.1,387.3,114.1z"/>
	<path class="st11" d="M407.5,114.1h-17.3c-0.3,0-0.5-0.3-0.5-0.6s0.2-0.6,0.5-0.6h17.3c0.3,0,0.5,0.3,0.5,0.6
		S407.8,114.1,407.5,114.1z"/>
	<path class="st11" d="M453.2,114.1h-11.6c-0.3,0-0.5-0.3-0.5-0.6s0.2-0.6,0.5-0.6h11.6c0.3,0,0.5,0.3,0.5,0.6
		S453.5,114.1,453.2,114.1z"/>
	<path class="st12" d="M438.3,114.1h-27c-0.3,0-0.5-0.3-0.5-0.6s0.2-0.6,0.5-0.6h27c0.3,0,0.5,0.3,0.5,0.6S438.6,114.1,438.3,114.1z
		"/>
	<path class="st10" d="M391.9,118h-12.4c-0.3,0-0.5-0.3-0.5-0.6c0-0.3,0.2-0.6,0.5-0.6h12.4c0.3,0,0.5,0.3,0.5,0.6
		C392.4,117.7,392.2,118,391.9,118z"/>
	<path class="st11" d="M413.6,118h-18.8c-0.3,0-0.5-0.3-0.5-0.6c0-0.3,0.2-0.6,0.5-0.6h18.8c0.3,0,0.5,0.3,0.5,0.6
		C414.1,117.7,413.9,118,413.6,118z"/>
	<path class="st11" d="M460.4,118h-17.5c-0.3,0-0.5-0.3-0.5-0.6c0-0.3,0.2-0.6,0.5-0.6h17.5c0.3,0,0.5,0.3,0.5,0.6
		C460.9,117.7,460.7,118,460.4,118z"/>
	<path class="st11" d="M439.4,118h-22c-0.3,0-0.5-0.3-0.5-0.6c0-0.3,0.2-0.6,0.5-0.6h22c0.3,0,0.5,0.3,0.5,0.6
		C439.9,117.7,439.6,118,439.4,118z"/>
	<path class="st10" d="M392.8,122.5h-9.2c-0.3,0-0.5-0.3-0.5-0.6s0.2-0.6,0.5-0.6h9.2c0.3,0,0.5,0.3,0.5,0.6
		S393.1,122.5,392.8,122.5z"/>
	<path class="st11" d="M417.3,122.5h-21.7c-0.3,0-0.5-0.3-0.5-0.6s0.2-0.6,0.5-0.6h21.7c0.3,0,0.5,0.3,0.5,0.6
		S417.6,122.5,417.3,122.5z"/>
	<path class="st10" d="M386.5,126.4h-2.9c-0.3,0-0.5-0.3-0.5-0.6s0.2-0.6,0.5-0.6h2.9c0.3,0,0.5,0.3,0.5,0.6
		S386.7,126.4,386.5,126.4z"/>
	<path class="st12" d="M407.5,126.4h-17.1c-0.3,0-0.5-0.3-0.5-0.6s0.2-0.6,0.5-0.6h17.1c0.3,0,0.5,0.3,0.5,0.6
		S407.8,126.4,407.5,126.4z"/>
	<path class="st11" d="M442.6,126.4h-31.2c-0.3,0-0.5-0.3-0.5-0.6s0.2-0.6,0.5-0.6h31.2c0.3,0,0.5,0.3,0.5,0.6
		S442.9,126.4,442.6,126.4z"/>
	<path class="st10" d="M389.4,130.9h-5.9c-0.3,0-0.5-0.3-0.5-0.6c0-0.3,0.2-0.6,0.5-0.6h5.9c0.3,0,0.5,0.3,0.5,0.6
		C389.9,130.6,389.7,130.9,389.4,130.9z"/>
	<path class="st11" d="M406.2,130.9h-13.6c-0.3,0-0.5-0.3-0.5-0.6c0-0.3,0.2-0.6,0.5-0.6h13.6c0.3,0,0.5,0.3,0.5,0.6
		C406.7,130.6,406.4,130.9,406.2,130.9z"/>
	<path class="st11" d="M483.3,130.9h-46.8c-0.3,0-0.5-0.3-0.5-0.6c0-0.3,0.2-0.6,0.5-0.6h46.8c0.3,0,0.5,0.3,0.5,0.6
		C483.8,130.6,483.6,130.9,483.3,130.9z"/>
	<path class="st11" d="M433.4,130.9h-24.2c-0.3,0-0.5-0.3-0.5-0.6c0-0.3,0.2-0.6,0.5-0.6h24.2c0.3,0,0.5,0.3,0.5,0.6
		C433.9,130.6,433.7,130.9,433.4,130.9z"/>
	<path class="st10" d="M392.4,135.3h-5.8c-0.3,0-0.5-0.3-0.5-0.6s0.2-0.6,0.5-0.6h5.8c0.3,0,0.5,0.3,0.5,0.6
		S392.7,135.3,392.4,135.3z"/>
	<path class="st11" d="M412.1,135.3h-17.6c-0.3,0-0.5-0.3-0.5-0.6s0.2-0.6,0.5-0.6h17.6c0.3,0,0.5,0.3,0.5,0.6
		S412.4,135.3,412.1,135.3z"/>
	<path class="st11" d="M481.4,135.3h-54.5c-0.3,0-0.5-0.3-0.5-0.6s0.2-0.6,0.5-0.6h54.5c0.3,0,0.5,0.3,0.5,0.6
		S481.7,135.3,481.4,135.3z"/>
	<path class="st12" d="M422.8,135.3h-6.1c-0.3,0-0.5-0.3-0.5-0.6s0.2-0.6,0.5-0.6h6.1c0.3,0,0.5,0.3,0.5,0.6
		S423.1,135.3,422.8,135.3z"/>
	<path class="st10" d="M392.4,139.8h-5.8c-0.3,0-0.5-0.3-0.5-0.6s0.2-0.6,0.5-0.6h5.8c0.3,0,0.5,0.3,0.5,0.6
		S392.7,139.8,392.4,139.8z"/>
	<path class="st12" d="M409.2,139.8h-14.7c-0.3,0-0.5-0.3-0.5-0.6s0.2-0.6,0.5-0.6h14.7c0.3,0,0.5,0.3,0.5,0.6
		S409.5,139.8,409.2,139.8z"/>
	<path class="st11" d="M422.3,139.8h-10.9c-0.3,0-0.5-0.3-0.5-0.6s0.2-0.6,0.5-0.6h10.9c0.3,0,0.5,0.3,0.5,0.6
		S422.6,139.8,422.3,139.8z"/>
	<path class="st10" d="M392.4,144.3h-5.8c-0.3,0-0.5-0.3-0.5-0.6s0.2-0.6,0.5-0.6h5.8c0.3,0,0.5,0.3,0.5,0.6
		S392.7,144.3,392.4,144.3z"/>
	<path class="st11" d="M401.5,144.3h-6.9c-0.3,0-0.5-0.3-0.5-0.6s0.2-0.6,0.5-0.6h6.9c0.3,0,0.5,0.3,0.5,0.6
		S401.7,144.3,401.5,144.3z"/>
	<path class="st11" d="M449.7,144.3h-28.3c-0.3,0-0.5-0.3-0.5-0.6s0.2-0.6,0.5-0.6h28.3c0.3,0,0.5,0.3,0.5,0.6
		S450,144.3,449.7,144.3z"/>
	<path class="st12" d="M417.4,144.3h-12.8c-0.3,0-0.5-0.3-0.5-0.6s0.2-0.6,0.5-0.6h12.8c0.3,0,0.5,0.3,0.5,0.6
		S417.6,144.3,417.4,144.3z"/>
	<path class="st10" d="M399.7,148.8h-5.1c-0.3,0-0.5-0.3-0.5-0.6s0.2-0.6,0.5-0.6h5.1c0.3,0,0.5,0.3,0.5,0.6S400,148.8,399.7,148.8z
		"/>
	<path class="st11" d="M414.9,148.8h-12.6c-0.3,0-0.5-0.3-0.5-0.6s0.2-0.6,0.5-0.6h12.6c0.3,0,0.5,0.3,0.5,0.6
		S415.2,148.8,414.9,148.8z"/>
	<path class="st11" d="M430.7,148.8h-12.8c-0.3,0-0.5-0.3-0.5-0.6s0.2-0.6,0.5-0.6h12.8c0.3,0,0.5,0.3,0.5,0.6
		S431,148.8,430.7,148.8z"/>
	<path class="st10" d="M398.3,153.2h-3.7c-0.3,0-0.5-0.3-0.5-0.6c0-0.3,0.2-0.6,0.5-0.6h3.7c0.3,0,0.5,0.3,0.5,0.6
		C398.8,153,398.6,153.2,398.3,153.2z"/>
	<path class="st11" d="M408.3,153.2h-8.5c-0.3,0-0.5-0.3-0.5-0.6c0-0.3,0.2-0.6,0.5-0.6h8.5c0.3,0,0.5,0.3,0.5,0.6
		C408.8,153,408.6,153.2,408.3,153.2z"/>
	<path class="st11" d="M460.4,153.2h-37.7c-0.3,0-0.5-0.3-0.5-0.6c0-0.3,0.2-0.6,0.5-0.6h37.7c0.3,0,0.5,0.3,0.5,0.6
		C460.9,153,460.7,153.2,460.4,153.2z"/>
	<path class="st11" d="M420.3,153.2h-8.9c-0.3,0-0.5-0.3-0.5-0.6c0-0.3,0.2-0.6,0.5-0.6h8.9c0.3,0,0.5,0.3,0.5,0.6
		C420.8,153,420.6,153.2,420.3,153.2z"/>
	<path class="st10" d="M400.3,157.7h-5.7c-0.3,0-0.5-0.3-0.5-0.6s0.2-0.6,0.5-0.6h5.7c0.3,0,0.5,0.3,0.5,0.6
		S400.5,157.7,400.3,157.7z"/>
	<path class="st11" d="M417.7,157.7h-15.3c-0.3,0-0.5-0.3-0.5-0.6s0.2-0.6,0.5-0.6h15.3c0.3,0,0.5,0.3,0.5,0.6
		S417.9,157.7,417.7,157.7z"/>
	<path class="st11" d="M457.5,157.7h-19.1c-0.3,0-0.5-0.3-0.5-0.6s0.2-0.6,0.5-0.6h19.1c0.3,0,0.5,0.3,0.5,0.6
		S457.8,157.7,457.5,157.7z"/>
	<path class="st11" d="M435.4,157.7H421c-0.3,0-0.5-0.3-0.5-0.6s0.2-0.6,0.5-0.6h14.4c0.3,0,0.5,0.3,0.5,0.6
		S435.7,157.7,435.4,157.7z"/>
	<path class="st10" d="M400.3,162.2h-5.7c-0.3,0-0.5-0.3-0.5-0.6s0.2-0.6,0.5-0.6h5.7c0.3,0,0.5,0.3,0.5,0.6
		S400.5,162.2,400.3,162.2z"/>
	<path class="st11" d="M414.9,162.2h-12.6c-0.3,0-0.5-0.3-0.5-0.6s0.2-0.6,0.5-0.6h12.6c0.3,0,0.5,0.3,0.5,0.6
		S415.2,162.2,414.9,162.2z"/>
	<path class="st11" d="M452.5,162.2h-19.6c-0.3,0-0.5-0.3-0.5-0.6s0.2-0.6,0.5-0.6h19.6c0.3,0,0.5,0.3,0.5,0.6
		S452.7,162.2,452.5,162.2z"/>
	<path class="st11" d="M429.7,162.2h-12.6c-0.3,0-0.5-0.3-0.5-0.6s0.2-0.6,0.5-0.6h12.6c0.3,0,0.5,0.3,0.5,0.6
		S430,162.2,429.7,162.2z"/>
	<path class="st10" d="M400.3,166.7h-5.7c-0.3,0-0.5-0.3-0.5-0.6s0.2-0.6,0.5-0.6h5.7c0.3,0,0.5,0.3,0.5,0.6
		S400.5,166.7,400.3,166.7z"/>
	<path class="st10" d="M374.5,114.1h-2c-0.3,0-0.5-0.3-0.5-0.6s0.2-0.6,0.5-0.6h2c0.3,0,0.5,0.3,0.5,0.6S374.7,114.1,374.5,114.1z"
		/>
	<path class="st10" d="M374.5,118h-2c-0.3,0-0.5-0.3-0.5-0.6c0-0.3,0.2-0.6,0.5-0.6h2c0.3,0,0.5,0.3,0.5,0.6
		C375,117.7,374.7,118,374.5,118z"/>
	<path class="st10" d="M374.5,122.5h-2c-0.3,0-0.5-0.3-0.5-0.6s0.2-0.6,0.5-0.6h2c0.3,0,0.5,0.3,0.5,0.6S374.7,122.5,374.5,122.5z"
		/>
	<path class="st10" d="M374.5,126.4h-2c-0.3,0-0.5-0.3-0.5-0.6s0.2-0.6,0.5-0.6h2c0.3,0,0.5,0.3,0.5,0.6S374.7,126.4,374.5,126.4z"
		/>
	<path class="st10" d="M374.5,130.9h-2c-0.3,0-0.5-0.3-0.5-0.6c0-0.3,0.2-0.6,0.5-0.6h2c0.3,0,0.5,0.3,0.5,0.6
		C375,130.6,374.7,130.9,374.5,130.9z"/>
	<path class="st10" d="M374.5,135.3h-2c-0.3,0-0.5-0.3-0.5-0.6s0.2-0.6,0.5-0.6h2c0.3,0,0.5,0.3,0.5,0.6S374.7,135.3,374.5,135.3z"
		/>
	<path class="st10" d="M374.5,139.8h-2c-0.3,0-0.5-0.3-0.5-0.6s0.2-0.6,0.5-0.6h2c0.3,0,0.5,0.3,0.5,0.6S374.7,139.8,374.5,139.8z"
		/>
	<path class="st10" d="M374.5,144.3h-2c-0.3,0-0.5-0.3-0.5-0.6s0.2-0.6,0.5-0.6h2c0.3,0,0.5,0.3,0.5,0.6S374.7,144.3,374.5,144.3z"
		/>
	<path class="st10" d="M374.5,148.8h-2c-0.3,0-0.5-0.3-0.5-0.6s0.2-0.6,0.5-0.6h2c0.3,0,0.5,0.3,0.5,0.6S374.7,148.8,374.5,148.8z"
		/>
	<path class="st10" d="M374.5,153.2h-2c-0.3,0-0.5-0.3-0.5-0.6c0-0.3,0.2-0.6,0.5-0.6h2c0.3,0,0.5,0.3,0.5,0.6
		C375,153,374.7,153.2,374.5,153.2z"/>
	<path class="st10" d="M374.5,157.7h-2c-0.3,0-0.5-0.3-0.5-0.6s0.2-0.6,0.5-0.6h2c0.3,0,0.5,0.3,0.5,0.6S374.7,157.7,374.5,157.7z"
		/>
	<path class="st10" d="M374.5,162.2h-2c-0.3,0-0.5-0.3-0.5-0.6s0.2-0.6,0.5-0.6h2c0.3,0,0.5,0.3,0.5,0.6S374.7,162.2,374.5,162.2z"
		/>
	<path class="st10" d="M374.5,166.7h-2c-0.3,0-0.5-0.3-0.5-0.6s0.2-0.6,0.5-0.6h2c0.3,0,0.5,0.3,0.5,0.6S374.7,166.7,374.5,166.7z"
		/>
	<path class="st11" d="M409.8,166.7h-7.5c-0.3,0-0.5-0.3-0.5-0.6s0.2-0.6,0.5-0.6h7.5c0.3,0,0.5,0.3,0.5,0.6
		S410.1,166.7,409.8,166.7z"/>
	<path class="st12" d="M429.8,166.7h-18.4c-0.3,0-0.5-0.3-0.5-0.6s0.2-0.6,0.5-0.6h18.4c0.3,0,0.5,0.3,0.5,0.6
		S430.1,166.7,429.8,166.7z"/>
</g>
<g>
	<g>
		<path class="st4" d="M567.3,188c0,0,0.4,6.4-1,10.8c-2.3,7.2-8.6,8-8.6,11.8c0,0.1,39.7,0.1,39.7,0c0-3.7-6-4.8-8.1-11.6
			c-1.6-5-0.7-11-0.7-11H567.3z"/>
		<rect x="557.8" y="210.5" class="st8" width="39.7" height="1.8"/>
	</g>
	<g>
		<g>
			<path class="st5" d="M647.5,176.7c0,8.3-6.8,15-15,15H522.7c-8.3,0-15-6.8-15-15V111c0-8.3,6.8-15,15-15h109.9
				c8.3,0,15,6.8,15,15V176.7z"/>
		</g>
		<rect x="513.7" y="102.3" class="st9" width="127.8" height="74.7"/>
	</g>
	<circle class="st7" cx="577.6" cy="184.3" r="3.2"/>
</g>
<g>
	<path class="st10" d="M561.7,115.3h-8.2c-0.3,0-0.5-0.2-0.5-0.5s0.2-0.5,0.5-0.5h8.2c0.3,0,0.5,0.2,0.5,0.5S562,115.3,561.7,115.3z
		"/>
	<path class="st11" d="M582.9,115.3h-18.1c-0.3,0-0.5-0.2-0.5-0.5s0.2-0.5,0.5-0.5h18.1c0.3,0,0.5,0.2,0.5,0.5
		S583.2,115.3,582.9,115.3z"/>
	<path class="st10" d="M566.5,119h-13c-0.3,0-0.5-0.2-0.5-0.5c0-0.3,0.2-0.5,0.5-0.5h13c0.3,0,0.5,0.2,0.5,0.5
		C567.1,118.8,566.8,119,566.5,119z"/>
	<path class="st11" d="M589.3,119h-19.7c-0.3,0-0.5-0.2-0.5-0.5c0-0.3,0.2-0.5,0.5-0.5h19.7c0.3,0,0.5,0.2,0.5,0.5
		C589.9,118.8,589.6,119,589.3,119z"/>
	<path class="st11" d="M616.4,119h-23.1c-0.3,0-0.5-0.2-0.5-0.5c0-0.3,0.2-0.5,0.5-0.5h23.1c0.3,0,0.5,0.2,0.5,0.5
		C616.9,118.8,616.7,119,616.4,119z"/>
	<path class="st10" d="M567.5,123.3h-9.7c-0.3,0-0.5-0.2-0.5-0.5s0.2-0.5,0.5-0.5h9.7c0.3,0,0.5,0.2,0.5,0.5
		S567.8,123.3,567.5,123.3z"/>
	<path class="st11" d="M593.2,123.3h-22.8c-0.3,0-0.5-0.2-0.5-0.5s0.2-0.5,0.5-0.5h22.8c0.3,0,0.5,0.2,0.5,0.5
		S593.5,123.3,593.2,123.3z"/>
	<path class="st11" d="M616.2,123.3h-20.3c-0.3,0-0.5-0.2-0.5-0.5s0.2-0.5,0.5-0.5h20.3c0.3,0,0.5,0.2,0.5,0.5
		S616.5,123.3,616.2,123.3z"/>
	<path class="st10" d="M560.9,127h-3c-0.3,0-0.5-0.2-0.5-0.5s0.2-0.5,0.5-0.5h3c0.3,0,0.5,0.2,0.5,0.5S561.2,127,560.9,127z"/>
	<path class="st12" d="M582.9,127H565c-0.3,0-0.5-0.2-0.5-0.5s0.2-0.5,0.5-0.5h17.9c0.3,0,0.5,0.2,0.5,0.5S583.2,127,582.9,127z"/>
	<path class="st11" d="M634.1,127h-11.6c-0.3,0-0.5-0.2-0.5-0.5s0.2-0.5,0.5-0.5h11.6c0.3,0,0.5,0.2,0.5,0.5S634.4,127,634.1,127z"
		/>
	<path class="st11" d="M619.7,127H587c-0.3,0-0.5-0.2-0.5-0.5s0.2-0.5,0.5-0.5h32.7c0.3,0,0.5,0.2,0.5,0.5S620,127,619.7,127z"/>
	<path class="st10" d="M564,131.3h-6.2c-0.3,0-0.5-0.2-0.5-0.5c0-0.3,0.2-0.5,0.5-0.5h6.2c0.3,0,0.5,0.2,0.5,0.5
		C564.5,131,564.3,131.3,564,131.3z"/>
	<path class="st11" d="M587.5,131.3h-20.3c-0.3,0-0.5-0.2-0.5-0.5c0-0.3,0.2-0.5,0.5-0.5h20.3c0.3,0,0.5,0.2,0.5,0.5
		C588.1,131,587.8,131.3,587.5,131.3z"/>
	<path class="st11" d="M630.8,131.3h-17.5c-0.3,0-0.5-0.2-0.5-0.5c0-0.3,0.2-0.5,0.5-0.5h17.5c0.3,0,0.5,0.2,0.5,0.5
		C631.3,131,631.1,131.3,630.8,131.3z"/>
	<path class="st12" d="M610.1,131.3h-19c-0.3,0-0.5-0.2-0.5-0.5c0-0.3,0.2-0.5,0.5-0.5h19c0.3,0,0.5,0.2,0.5,0.5
		C610.6,131,610.4,131.3,610.1,131.3z"/>
	<path class="st10" d="M567.1,135.5H561c-0.3,0-0.5-0.2-0.5-0.5c0-0.3,0.2-0.5,0.5-0.5h6.1c0.3,0,0.5,0.2,0.5,0.5
		C567.6,135.3,567.4,135.5,567.1,135.5z"/>
	<path class="st11" d="M582.6,135.5h-13.2c-0.3,0-0.5-0.2-0.5-0.5c0-0.3,0.2-0.5,0.5-0.5h13.2c0.3,0,0.5,0.2,0.5,0.5
		C583.1,135.3,582.9,135.5,582.6,135.5z"/>
	<path class="st11" d="M599,135.5h-13.3c-0.3,0-0.5-0.2-0.5-0.5c0-0.3,0.2-0.5,0.5-0.5H599c0.3,0,0.5,0.2,0.5,0.5
		C599.5,135.3,599.3,135.5,599,135.5z"/>
	<path class="st10" d="M567.1,139.8H561c-0.3,0-0.5-0.2-0.5-0.5s0.2-0.5,0.5-0.5h6.1c0.3,0,0.5,0.2,0.5,0.5S567.4,139.8,567.1,139.8
		z"/>
	<path class="st10" d="M531.8,115.3h-11.9c-0.3,0-0.5-0.2-0.5-0.5s0.2-0.5,0.5-0.5h11.9c0.3,0,0.5,0.2,0.5,0.5
		S532.1,115.3,531.8,115.3z"/>
	<path class="st10" d="M538.8,119h-18.9c-0.3,0-0.5-0.2-0.5-0.5c0-0.3,0.2-0.5,0.5-0.5h18.9c0.3,0,0.5,0.2,0.5,0.5
		C539.3,118.8,539.1,119,538.8,119z"/>
	<path class="st10" d="M540.2,123.3h-14.1c-0.3,0-0.5-0.2-0.5-0.5s0.2-0.5,0.5-0.5h14.1c0.3,0,0.5,0.2,0.5,0.5
		S540.5,123.3,540.2,123.3z"/>
	<path class="st10" d="M530.5,127h-4.4c-0.3,0-0.5-0.2-0.5-0.5s0.2-0.5,0.5-0.5h4.4c0.3,0,0.5,0.2,0.5,0.5S530.8,127,530.5,127z"/>
	<path class="st10" d="M535.1,131.3h-8.9c-0.3,0-0.5-0.2-0.5-0.5c0-0.3,0.2-0.5,0.5-0.5h8.9c0.3,0,0.5,0.2,0.5,0.5
		C535.6,131,535.4,131.3,535.1,131.3z"/>
	<path class="st10" d="M539.6,135.5h-8.9c-0.3,0-0.5-0.2-0.5-0.5c0-0.3,0.2-0.5,0.5-0.5h8.9c0.3,0,0.5,0.2,0.5,0.5
		C540.1,135.3,539.9,135.5,539.6,135.5z"/>
	<path class="st10" d="M539.6,139.8h-8.9c-0.3,0-0.5-0.2-0.5-0.5s0.2-0.5,0.5-0.5h8.9c0.3,0,0.5,0.2,0.5,0.5
		S539.9,139.8,539.6,139.8z"/>
	<path class="st12" d="M589,139.8h-19.6c-0.3,0-0.5-0.2-0.5-0.5s0.2-0.5,0.5-0.5H589c0.3,0,0.5,0.2,0.5,0.5S589.3,139.8,589,139.8z"
		/>
	<path class="st11" d="M633.1,139.8h-31c-0.3,0-0.5-0.2-0.5-0.5s0.2-0.5,0.5-0.5h31c0.3,0,0.5,0.2,0.5,0.5S633.4,139.8,633.1,139.8z
		"/>
	<path class="st11" d="M598.5,139.8H592c-0.3,0-0.5-0.2-0.5-0.5s0.2-0.5,0.5-0.5h6.5c0.3,0,0.5,0.2,0.5,0.5S598.8,139.8,598.5,139.8
		z"/>
	<path class="st10" d="M567.1,144.1H561c-0.3,0-0.5-0.2-0.5-0.5s0.2-0.5,0.5-0.5h6.1c0.3,0,0.5,0.2,0.5,0.5S567.4,144.1,567.1,144.1
		z"/>
	<path class="st11" d="M576.6,144.1h-7.2c-0.3,0-0.5-0.2-0.5-0.5s0.2-0.5,0.5-0.5h7.2c0.3,0,0.5,0.2,0.5,0.5
		S576.9,144.1,576.6,144.1z"/>
	<path class="st11" d="M612.3,144.1h-14.7c-0.3,0-0.5-0.2-0.5-0.5s0.2-0.5,0.5-0.5h14.7c0.3,0,0.5,0.2,0.5,0.5
		S612.6,144.1,612.3,144.1z"/>
	<path class="st11" d="M593.3,144.1h-13.5c-0.3,0-0.5-0.2-0.5-0.5s0.2-0.5,0.5-0.5h13.5c0.3,0,0.5,0.2,0.5,0.5
		S593.6,144.1,593.3,144.1z"/>
	<path class="st10" d="M574.7,148.3h-5.3c-0.3,0-0.5-0.2-0.5-0.5c0-0.3,0.2-0.5,0.5-0.5h5.3c0.3,0,0.5,0.2,0.5,0.5
		C575.3,148.1,575,148.3,574.7,148.3z"/>
	<path class="st11" d="M590.7,148.3h-13.2c-0.3,0-0.5-0.2-0.5-0.5c0-0.3,0.2-0.5,0.5-0.5h13.2c0.3,0,0.5,0.2,0.5,0.5
		C591.3,148.1,591,148.3,590.7,148.3z"/>
	<path class="st11" d="M632.5,148.3H611c-0.3,0-0.5-0.2-0.5-0.5c0-0.3,0.2-0.5,0.5-0.5h21.5c0.3,0,0.5,0.2,0.5,0.5
		C633.1,148.1,632.8,148.3,632.5,148.3z"/>
	<path class="st11" d="M607.3,148.3h-13.5c-0.3,0-0.5-0.2-0.5-0.5c0-0.3,0.2-0.5,0.5-0.5h13.5c0.3,0,0.5,0.2,0.5,0.5
		C607.8,148.1,607.6,148.3,607.3,148.3z"/>
	<path class="st10" d="M573.3,152.6h-3.9c-0.3,0-0.5-0.2-0.5-0.5s0.2-0.5,0.5-0.5h3.9c0.3,0,0.5,0.2,0.5,0.5
		S573.6,152.6,573.3,152.6z"/>
	<path class="st12" d="M583.8,152.6h-8.9c-0.3,0-0.5-0.2-0.5-0.5s0.2-0.5,0.5-0.5h8.9c0.3,0,0.5,0.2,0.5,0.5
		S584.1,152.6,583.8,152.6z"/>
	<path class="st11" d="M615.2,152.6h-16.3c-0.3,0-0.5-0.2-0.5-0.5s0.2-0.5,0.5-0.5h16.3c0.3,0,0.5,0.2,0.5,0.5
		S615.5,152.6,615.2,152.6z"/>
	<path class="st11" d="M596.3,152.6H587c-0.3,0-0.5-0.2-0.5-0.5s0.2-0.5,0.5-0.5h9.3c0.3,0,0.5,0.2,0.5,0.5S596.6,152.6,596.3,152.6
		z"/>
	<path class="st10" d="M575.3,156.9h-6c-0.3,0-0.5-0.2-0.5-0.5s0.2-0.5,0.5-0.5h6c0.3,0,0.5,0.2,0.5,0.5S575.6,156.9,575.3,156.9z"
		/>
	<path class="st11" d="M590.7,156.9h-13.2c-0.3,0-0.5-0.2-0.5-0.5s0.2-0.5,0.5-0.5h13.2c0.3,0,0.5,0.2,0.5,0.5
		S591,156.9,590.7,156.9z"/>
	<path class="st11" d="M612.2,156.9h-17.6c-0.3,0-0.5-0.2-0.5-0.5s0.2-0.5,0.5-0.5h17.6c0.3,0,0.5,0.2,0.5,0.5
		S612.5,156.9,612.2,156.9z"/>
	<path class="st10" d="M575.3,161.2h-6c-0.3,0-0.5-0.2-0.5-0.5c0-0.3,0.2-0.5,0.5-0.5h6c0.3,0,0.5,0.2,0.5,0.5
		C575.9,160.9,575.6,161.2,575.3,161.2z"/>
	<path class="st11" d="M590.7,161.2h-13.2c-0.3,0-0.5-0.2-0.5-0.5c0-0.3,0.2-0.5,0.5-0.5h13.2c0.3,0,0.5,0.2,0.5,0.5
		C591.3,160.9,591,161.2,590.7,161.2z"/>
	<path class="st11" d="M630.1,161.2h-20.5c-0.3,0-0.5-0.2-0.5-0.5c0-0.3,0.2-0.5,0.5-0.5h20.5c0.3,0,0.5,0.2,0.5,0.5
		C630.6,160.9,630.4,161.2,630.1,161.2z"/>
	<path class="st11" d="M606.2,161.2H593c-0.3,0-0.5-0.2-0.5-0.5c0-0.3,0.2-0.5,0.5-0.5h13.2c0.3,0,0.5,0.2,0.5,0.5
		C606.8,160.9,606.5,161.2,606.2,161.2z"/>
	<path class="st10" d="M575.3,165.4h-6c-0.3,0-0.5-0.2-0.5-0.5s0.2-0.5,0.5-0.5h6c0.3,0,0.5,0.2,0.5,0.5S575.6,165.4,575.3,165.4z"
		/>
	<path class="st10" d="M548.3,115.3h-2.1c-0.3,0-0.5-0.2-0.5-0.5s0.2-0.5,0.5-0.5h2.1c0.3,0,0.5,0.2,0.5,0.5
		S548.6,115.3,548.3,115.3z"/>
	<path class="st10" d="M548.3,119h-2.1c-0.3,0-0.5-0.2-0.5-0.5c0-0.3,0.2-0.5,0.5-0.5h2.1c0.3,0,0.5,0.2,0.5,0.5
		C548.8,118.8,548.6,119,548.3,119z"/>
	<path class="st10" d="M548.3,123.3h-2.1c-0.3,0-0.5-0.2-0.5-0.5s0.2-0.5,0.5-0.5h2.1c0.3,0,0.5,0.2,0.5,0.5
		S548.6,123.3,548.3,123.3z"/>
	<path class="st10" d="M548.3,127h-2.1c-0.3,0-0.5-0.2-0.5-0.5s0.2-0.5,0.5-0.5h2.1c0.3,0,0.5,0.2,0.5,0.5S548.6,127,548.3,127z"/>
	<path class="st10" d="M548.3,131.3h-2.1c-0.3,0-0.5-0.2-0.5-0.5c0-0.3,0.2-0.5,0.5-0.5h2.1c0.3,0,0.5,0.2,0.5,0.5
		C548.8,131,548.6,131.3,548.3,131.3z"/>
	<path class="st10" d="M548.3,135.5h-2.1c-0.3,0-0.5-0.2-0.5-0.5c0-0.3,0.2-0.5,0.5-0.5h2.1c0.3,0,0.5,0.2,0.5,0.5
		C548.8,135.3,548.6,135.5,548.3,135.5z"/>
	<path class="st10" d="M548.3,139.8h-2.1c-0.3,0-0.5-0.2-0.5-0.5s0.2-0.5,0.5-0.5h2.1c0.3,0,0.5,0.2,0.5,0.5
		S548.6,139.8,548.3,139.8z"/>
	<path class="st10" d="M548.3,144.1h-2.1c-0.3,0-0.5-0.2-0.5-0.5s0.2-0.5,0.5-0.5h2.1c0.3,0,0.5,0.2,0.5,0.5
		S548.6,144.1,548.3,144.1z"/>
	<path class="st10" d="M548.3,148.3h-2.1c-0.3,0-0.5-0.2-0.5-0.5c0-0.3,0.2-0.5,0.5-0.5h2.1c0.3,0,0.5,0.2,0.5,0.5
		C548.8,148.1,548.6,148.3,548.3,148.3z"/>
	<path class="st10" d="M548.3,152.6h-2.1c-0.3,0-0.5-0.2-0.5-0.5s0.2-0.5,0.5-0.5h2.1c0.3,0,0.5,0.2,0.5,0.5
		S548.6,152.6,548.3,152.6z"/>
	<path class="st10" d="M548.3,156.9h-2.1c-0.3,0-0.5-0.2-0.5-0.5s0.2-0.5,0.5-0.5h2.1c0.3,0,0.5,0.2,0.5,0.5
		S548.6,156.9,548.3,156.9z"/>
	<path class="st10" d="M548.3,161.2h-2.1c-0.3,0-0.5-0.2-0.5-0.5c0-0.3,0.2-0.5,0.5-0.5h2.1c0.3,0,0.5,0.2,0.5,0.5
		C548.8,160.9,548.6,161.2,548.3,161.2z"/>
	<path class="st10" d="M548.3,165.4h-2.1c-0.3,0-0.5-0.2-0.5-0.5s0.2-0.5,0.5-0.5h2.1c0.3,0,0.5,0.2,0.5,0.5
		S548.6,165.4,548.3,165.4z"/>
	<path class="st11" d="M585.3,165.4h-7.9c-0.3,0-0.5-0.2-0.5-0.5s0.2-0.5,0.5-0.5h7.9c0.3,0,0.5,0.2,0.5,0.5
		S585.6,165.4,585.3,165.4z"/>
	<path class="st11" d="M623,165.4h-12.7c-0.3,0-0.5-0.2-0.5-0.5s0.2-0.5,0.5-0.5H623c0.3,0,0.5,0.2,0.5,0.5S623.3,165.4,623,165.4z"
		/>
	<path class="st12" d="M606.4,165.4h-16.2c-0.3,0-0.5-0.2-0.5-0.5s0.2-0.5,0.5-0.5h16.2c0.3,0,0.5,0.2,0.5,0.5
		S606.6,165.4,606.4,165.4z"/>
</g>
<g>
	<path class="st13" d="M455.1,213.8c-1.7,6.7-5.1,21.2-3.4,22.8c11,10.5,40-15.8,51.3-15.1c14.4,0.9,46.8,25,51.3,15.5
		c1.8-3.8-1.7-12.1-4.5-20.8C518.6,216.2,486.2,213.8,455.1,213.8z"/>
	<path class="st13" d="M491.2,175.2c0,1,0.1,6.8-1.2,8c-2.1,2-7.5,2.4-7.5,2.4c-0.1,1.2,8.7,5.5,19.9,5.5c8.8,0,19.3-2.9,19.3-5.3
		c0-0.1-5.2-0.3-7.4-3.7c-0.9-1.4-1-6.9-1-7.7c-2.3,1.3-5.9,3.7-10.6,3.7C496.7,178.2,493.5,176.1,491.2,175.2z"/>
	<path class="st13" d="M483.4,155.9c0.7,2.3,0,4.6-1.4,5c-1.4,0.4-3.2-1.1-3.8-3.5s0-4.6,1.4-5C481,152,482.7,153.6,483.4,155.9z"/>
	<path class="st13" d="M520.6,155.9c-0.7,2.3,0,4.6,1.4,5c1.4,0.4,3.2-1.1,3.8-3.5c0.7-2.3,0-4.6-1.4-5
		C523,152,521.3,153.6,520.6,155.9z"/>
	<g>
		<path class="st14" d="M521.1,139.1c3-4.5,3.3-10.6,0.8-15.3c-1.7,2.5-4.9,3.6-8,3.8c-3,0.2-6.1-0.3-9.1,0
			c-1.6,0.1-3.2,0.5-4.6,1.1c-2.6,0-6.8,0.9-8.9,1.8c-7.6,3.3-12.2,10.6-12.2,23.2c0,13.1,10.6,18.2,11.5,23.8c0,0,5.7,2.1,10.7,2.1
			c7.7,0,12.7-2.1,12.7-2.1c0-7.3,10.1-11.1,11-23.8C525.4,147.6,523.7,143.3,521.1,139.1z"/>
	</g>
	<path class="st7" d="M550.7,216.9c1.1,7.1-98.3,9.1-97-0.4c1.9-13.9,6.9-25.8,28.7-30.8c1.9-0.4,5.3-1.1,5.3-1.1
		c1.3,1.9,9,3.3,14,3.4c6,0.1,12.6-0.7,16.1-2.9c0,0,2.7,0.7,3.8,0.8C544.7,190.2,548.5,202.2,550.7,216.9z"/>
	<g>
		<circle class="st6" cx="468.5" cy="334.1" r="3.4"/>
		<circle class="st6" cx="465.7" cy="350.3" r="3.4"/>
		<circle class="st6" cx="535.6" cy="333" r="3.4"/>
		<path class="st15" d="M559.1,273.4c0,20.3-28.9,33.1-57.4,32.9c-27.9-0.2-55.6-13-55.6-32.9c0-40.2,25.3-69.4,56.5-69.4
			S559.1,233.2,559.1,273.4z"/>
		<rect x="492.5" y="290.4" class="st0" width="20.1" height="19"/>
		<path class="st15" d="M546.3,304.4c0,7.3-17.7,10.6-43.6,10.6c-26,0-45.3-4.5-45.3-11.8c0-9,18.8-13.4,44.8-13.4
			C528,289.9,546.3,297.1,546.3,304.4z"/>
		<rect x="497.6" y="311.1" class="st15" width="10.1" height="26.3"/>
		<polygon class="st15" points="539,348.1 469.9,330.7 469,328.5 539.6,345.3 		"/>
		<polygon class="st15" points="465.7,349.2 465.1,346.4 534.7,328 535.2,330.2 		"/>
		<path class="st15" d="M469.6,328.5c-2.8-0.6-5.6,1.6-5.6,4.5c0,2.2,9,1.7,9,0.6C473,331.5,471.8,328.9,469.6,328.5z"/>
		<path class="st15" d="M466.8,345.3c-2.8-0.6-5.6,1.6-5.6,4.5c0,2.2,9,1.7,9,0.6C470.2,348.3,469,345.7,466.8,345.3z"/>
		<g>
			<circle class="st6" cx="540.1" cy="350.3" r="3.4"/>
			<path class="st15" d="M539,344.7c2.8-0.6,5.6,1.6,5.6,4.5c0,2.2-9,1.7-9,0.6C535.6,347.8,536.8,345.1,539,344.7z"/>
		</g>
		<path class="st15" d="M534.5,327.9c2.8-0.6,5.6,1.6,5.6,4.5c0,2.2-9,1.7-9,0.6C531.2,331,532.3,328.4,534.5,327.9z"/>
		<ellipse class="st0" cx="502.3" cy="338.8" rx="5.3" ry="3.1"/>
	</g>
	<path class="st16" d="M502.8,190c7.1,0,13.5-1.6,18.2-4.3c-1.2-0.3-3.1-0.7-3.1-0.7c-3.5,2.1-10.1,3-16.1,2.9
		c-5-0.1-12.7-1.5-14-3.4c0,0-2,0.4-3.8,0.8C488.6,188.2,495.3,190,502.8,190z"/>
</g>
</svg>
