<?xml version="1.0" encoding="utf-8"?>
<!-- Generator: Adobe Illustrator 24.0.2, SVG Export Plug-In . SVG Version: 6.00 Build 0)  -->
<svg version="1.1" xmlns="http://www.w3.org/2000/svg" xmlns:xlink="http://www.w3.org/1999/xlink" x="0px" y="0px"
	 viewBox="0 0 730 500" style="enable-background:new 0 0 730 500;" xml:space="preserve">
<style type="text/css">
	.st0{fill:#F0FAFC;}
	.st1{fill:#FFFFFF;}
	.st2{fill:#E3F7FD;}
	.st3{fill:#F48134;}
	.st4{opacity:0.1;}
	.st5{fill:#253444;}
	.st6{opacity:7.000000e-02;}
	.st7{fill:#202E3A;}
	.st8{fill:#2B2C2D;}
	.st9{fill:none;stroke:#FFFFFF;stroke-width:1.0869;stroke-linecap:round;stroke-miterlimit:10;}
	.st10{fill:#6C63FF;}
	.st11{fill:#281F17;}
	.st12{fill:#303030;}
	.st13{fill:#E2B283;}
	.st14{opacity:5.000000e-02;}
	.st15{fill:#BCBEC0;}
	.st16{fill:#414042;}
	.st17{fill:#E6E7E8;}
	.st18{fill:#F7C68F;}
	.st19{fill:#D1D3D4;}
	.st20{fill:none;stroke:#FFFFFF;stroke-width:1.0313;stroke-linecap:round;stroke-miterlimit:10;}
	.st21{fill:#3A3A3A;stroke:#E0C475;stroke-width:0.25;stroke-miterlimit:10;}
</style>
<g id="background">
	<g>
		<g>
			<path class="st0" d="M466.5,455.9c0.8-2.6,1.3-5.4,1.3-8.2c0-14.9-12.1-26.9-26.9-26.9c-2.3,0-4.5,0.3-6.7,0.9
				c0.4-2.1,0.6-4.3,0.6-6.6c0-20.5-16.6-37.1-37.1-37.1c-4.6,0-8.9,0.8-13,2.3c-7.2-14-21.7-23.5-38.4-23.5
				c-12.3,0-23.4,5.2-31.3,13.5c-6.7-4.6-14.8-7.2-23.5-7.2c-16.1,0-30.1,9.2-37.1,22.5c-4.6-6.9-12.5-11.5-21.5-11.5
				c-11.6,0-21.4,7.6-24.7,18.2c-11.2-8-25.3-12.7-40.6-12.7c-7.7,0-15.2,1.2-22.1,3.4c0-0.1,0-0.1,0-0.2c0-12-9.7-21.6-21.6-21.6
				c-8.1,0-15.1,4.4-18.8,10.9c-1.5-21.9-19.7-39.2-42-39.2c-20.4,0-37.4,14.5-41.3,33.8c-0.3,0-0.5,0-0.8,0
				c-11.3,0-20.7,7.8-23.2,18.4c-5.6,3.4-10.7,7.4-15.3,12.1c-6.7-4.4-14.6-7-23.1-7c-23.4,0-42.4,19.3-43.5,43.5
				c-2.3-0.7-4.7-1.2-7.2-1.2c-12.6,0-22.9,10.2-22.9,22.9c0,12.6,10.2,22.9,22.9,22.9c7.2,0,13.6-3.4,17.8-8.6
				c4.6,18.2,25.1,32,49.6,32.1c14.5,18.7,37.2,30.8,62.8,30.8c15.5,0,29.9-4.4,42.1-12.1c6.7,11.5,19.2,19.2,33.4,19.2
				c18.6,0,34.1-13.1,37.8-30.6c3.2,6.4,9.8,10.8,17.5,10.8c10.2,0,18.5-7.7,19.5-17.6c15.1,14.4,37.5,23.5,62.6,23.5
				c16.7,0,32.2-4,45.2-11c17.3,17.1,51,23.6,86.1,14.2c26.6-7.1,48-21.7,59.6-38.6c4.7,2.4,10.4,3.9,16.6,3.9
				c15.4,0,27.9-8.7,27.9-19.5C487.3,465.7,478.5,458.1,466.5,455.9z"/>
		</g>
	</g>
	<g>
		
			<ellipse transform="matrix(0.9798 -0.2002 0.2002 0.9798 -76.7148 66.3862)" class="st1" cx="289.9" cy="412.5" rx="27.4" ry="19.5"/>
		
			<ellipse transform="matrix(1.453424e-02 -0.9999 0.9999 1.453424e-02 -157.945 462.2921)" class="st1" cx="155.6" cy="311.3" rx="33.4" ry="33.7"/>
		<path class="st2" d="M128.6,315.3c0.3-18.5,15.6-33.2,34.1-32.9c5.4,0.1,10.5,1.4,15,3.8c-5.8-5.1-13.4-8.2-21.7-8.3
			c-18.6-0.3-33.9,14.5-34.1,32.9c-0.2,13.1,7.2,24.5,18.2,30.2C132.9,334.7,128.5,325.5,128.6,315.3z"/>
		
			<ellipse transform="matrix(1.462676e-02 -0.9999 0.9999 1.462676e-02 -207.6738 449.4738)" class="st1" cx="124.2" cy="330.1" rx="19.8" ry="19.9"/>
		
			<ellipse transform="matrix(0.845 -0.5347 0.5347 0.845 -179.9659 113.1515)" class="st1" cx="105.2" cy="367.1" rx="38.2" ry="35.2"/>
		<path class="st2" d="M84.9,393.9c-10.4-16.4-4.4-38.9,13.4-50.2c6-3.8,12.5-5.8,19-6.2c3-0.2,3.4-4.4,0.6-5.2
			c-10.1-2.8-21.6-1.3-31.5,5C68.6,348.6,62.6,371,73,387.5c4.4,7,11.1,11.8,18.7,14.1C89.1,399.4,86.8,396.9,84.9,393.9z"/>
		<path class="st1" d="M375.4,410.9c-1,0-2,0-2.9,0.2c-2.8-14.3-16.6-25.2-33.4-25.5c-17-0.2-31.2,10.5-34.2,25
			c-2.5,0.2-5.1,0.6-7.7,1.1c-6.7,1.4-12.8,3.7-17.9,6.5c-4.8-15.4-22.5-27.1-43.7-27.4c-13.4-0.2-25.5,4.1-33.9,11.2
			c-9.6-14.4-28.6-24.3-50.7-24.6c-11.3-0.2-21.8,2.2-30.8,6.4c-8.1-6.2-19.1-10.1-31.3-10.3c-25.1-0.4-45.8,15.2-46,34.8
			c-0.3,19.6,19.9,35.8,45,36.2c3.8,0.1,7.5-0.3,11-0.9c9.6,14.4,28.6,24.3,50.7,24.6c20.7,0.3,38.9-7.9,49.4-20.5
			c8.2,8.4,21.1,13.9,35.6,14.1c14.6,0.2,27.6-4.9,36.1-13.1c7.5,5.3,20.8,7.3,35,4.4c7.9-1.6,15-4.5,20.5-8.1
			c3.8,1.3,7.8,2.1,12.1,2.2c9.9,0.1,18.9-3.5,25.2-9.4c3.1,2.4,7.1,3.9,11.5,4c9.7,0.1,17.7-6.6,17.8-15.2
			C392.9,418,385.1,411,375.4,410.9z"/>
		<path class="st2" d="M380.2,433c-4.6-0.2-8.7-1.8-11.8-4.4c-6.7,6-16.1,9.5-26.3,9.1c-4.4-0.2-8.6-1-12.5-2.5
			c-5.8,3.6-13.1,6.4-21.4,7.9c-14.8,2.7-28.5,0.3-36.1-5.3c-8.9,8.3-22.5,13.3-37.6,12.8c-15-0.5-28.2-6.5-36.5-15.3
			c-11.1,12.8-30.2,20.9-51.5,20.1c-22.8-0.8-42.3-11.5-51.9-26.6c-3.7,0.6-7.5,0.8-11.4,0.7c-17.7-0.6-32.8-8.8-40.4-20.3
			c0.3,19.2,20.2,34.9,45,35.3c3.8,0.1,7.5-0.3,11-0.9c9.6,14.4,28.6,24.3,50.7,24.6c20.7,0.3,38.9-7.9,49.4-20.5
			c8.2,8.4,21.1,13.9,35.6,14.1c14.6,0.2,27.6-4.9,36.1-13.1c7.5,5.3,20.8,7.3,35,4.4c7.9-1.6,15-4.5,20.5-8.1
			c3.8,1.3,7.8,2.1,12.1,2.2c9.9,0.1,18.9-3.5,25.2-9.4c3.1,2.4,7.1,3.9,11.5,4c8.6,0.1,15.9-5.2,17.5-12.3
			C389.1,431.8,384.9,433.1,380.2,433z"/>
		
			<ellipse transform="matrix(1.469650e-02 -0.9999 0.9999 1.469650e-02 -84.1482 688.2206)" class="st1" cx="307.1" cy="386.8" rx="21.9" ry="22.1"/>
		<path class="st2" d="M321,369.7c3.1,3.8,4.9,8.7,4.8,14c-0.2,12.1-10.2,21.8-22.4,21.6c-5.1-0.1-3.4,3.3,3.4,3.4
			c12.2,0.2,22.2-9.5,22.4-21.6C329.3,380.1,326.1,373.8,321,369.7z"/>
		
			<ellipse transform="matrix(1.472522e-02 -0.9999 0.9999 1.472522e-02 -105.1297 627.3683)" class="st1" cx="265.8" cy="367" rx="37.7" ry="37.9"/>
		<path class="st2" d="M262,337.7c20.9,0.3,37.7,17.4,37.4,38.2c-0.1,4.3,4.2-0.7,4.3-8.3c0.3-20.8-16.4-37.9-37.4-38.2
			c-16.6-0.2-30.9,10.1-36.2,24.8C237,344.1,248.8,337.5,262,337.7z"/>
		
			<ellipse transform="matrix(1.464061e-02 -0.9999 0.9999 1.464061e-02 -188.8405 547.3035)" class="st1" cx="183.3" cy="369.5" rx="56" ry="56.4"/>
		<path class="st2" d="M168.7,375.8c-16.5-0.5-31.4,4.8-41.4,13.7c-3.3,2.9-8.2,2.9-11.5,0c-13.9-12.2-43.1-16.2-26.3-15.6
			c9.6,0.3,18.3,3.1,25.2,7.6c3.1,2,7.3,1.8,10.2-0.6C145.5,364.2,178.2,376.1,168.7,375.8z"/>
		<path class="st2" d="M184.1,325.2c28.9,0.4,52.3,22.3,55.3,50.1c0.2-1.7,0.3-3.3,0.3-5.1c0.5-30.9-24.4-56.4-55.6-56.8
			c-25.8-0.4-47.8,16.5-54.9,40c-1.4,4.8,0.2,10.2,2.5,5C140.6,338.6,160.8,324.9,184.1,325.2z"/>
		<path class="st2" d="M194.5,317.5c5,0.1,9.9,0.8,14.5,2.1c-7.5-3.8-15.9-6-24.9-6.1"/>
		<path class="st2" d="M157.9,322.8l-1.3,4c-3.8,12.1,4.1,24.9,16.7,26.8l0,0l0,0c15.4,3.5,27.9,14.6,33.2,29.5l0,0
			c15,0,28.1,10.1,31.9,24.6l0.1,0.2c3.9,14.7,27.6,22.2,41.8,16.7l0,0l0.1-0.5c2-9.2,9.5-16.2,18.8-17.5l0,0l0,0
			c-20.8-0.7-38.8-14.5-44.7-34.4l-7.1-23.8l-61.7-25.2l-14.2-6.4L157.9,322.8z"/>
	</g>
</g>
<g id="people">
	<g>
		<path class="st3" d="M262.3,395.3c0,0,4.4,3.9,12.5,9.5c1.8,1.2,4,2.8,6.1,4.3c2.9,2,2.6,3.1,2,4.6c-0.2,0.6-0.6,1.1-0.9,1.5
			c-1.8,2.7-11.2,1.3-14.2,0c-3-1.3-12.3-7.1-12.2-9.1c0-1.1-0.6-6.1,1.5-9.7C258.8,393.6,262.3,395.3,262.3,395.3z"/>
		<path class="st1" d="M255.6,406.2c0,2,9.2,7.8,12.2,9.1c3,1.3,12.4,2.7,14.2,0c0.2-0.4,0.5-0.8,0.8-1.3c-1.8,1.6-5.7,2.7-13.9,0.5
			c-5.4-2.1-9.6-6.6-13.4-10.2C255.6,405.1,255.6,405.8,255.6,406.2z"/>
		<path class="st4" d="M273.5,416c-1.7-1.2-8.3-5.4-10.3-10.8c-1.5-4.1-1.1-4.1-1.1-4.1s-1.9-0.6-4.4,3.1c-0.4,0.7-1.1,0.9-2.1,0.7
			c0,0.6,0,1,0,1.2c0,2,9.2,7.8,12.2,9.1c1.3,0.6,3.8,1.1,6.4,1.4C274,416.4,273.8,416.2,273.5,416z"/>
		<path class="st5" d="M165.9,307.1l-1.7,14.5c-0.5,4.8,0.3,9.6,2.5,13.8l0,0c2.3,4.5,5.8,8.1,10.2,10.5l36.2,20.7l41.7,40.8
			c0,0,8.4,0,13-8.5c0,0-33.7-39.4-37.1-42.4L197,324.4l0.4-11.4L165.9,307.1z"/>
		<path class="st6" d="M261.8,405.5l-40.7-39.9c0,0-36.7-20-45.7-25.1c-9-5.1-9-24.7-9-24.7l-1.4-0.4l-0.7,6.2
			c-0.5,4.8,0.3,9.6,2.5,13.8l0,0c2.3,4.5,5.8,8.1,10.2,10.5l36.2,20.7l41.7,40.8C254.9,407.5,258.2,407.5,261.8,405.5z"/>
		<g>
			<path class="st7" d="M239.4,392.3L239.4,392.3l15.6,15.2c0,0,4.1,0,8.2-2.9l-1.4-12.8c-0.1-0.1-0.2-0.2-0.3-0.4
				c-5.8-6.8-14.5-16.8-21.1-24.4L239.4,392.3z"/>
			<polygon class="st7" points="216.8,343.2 197,324.4 215.5,342.5 			"/>
			<polygon class="st7" points="195,317.3 197,324.4 197.3,316.4 			"/>
		</g>
		<polygon class="st8" points="258.1,403.6 256,392.7 247,393 246.2,406.6 256.1,410.1 		"/>
		<g>
			<path class="st3" d="M258.2,401.1c0.7-0.2,1.4,0.4,1.4,1.2c-0.1,0.9-0.1,2.1,0.2,3.1c2.1,5.7,9.1,10.1,10.8,11.4
				c1.8,1.3,2.7,3.2,1.9,4.2c-0.8,1-1.5,5.1-19.9-4.1c-6-3-10.7-6-10.7-6s1.1-5.6,2.6-9.5c2.5,0.2,3.4,2.2,5.6,3.7
				c1.7,1.1,3.2,0.3,3.8-0.8C255.4,402.2,257,401.4,258.2,401.1z"/>
			<path class="st9" d="M257.6,408.4c1.4-0.2,3.1-1.2,3.1-1.2"/>
			<path class="st9" d="M259.7,409.8c1.3-0.2,2.1-0.7,2.2-0.8"/>
			<path class="st9" d="M261.5,411.2c1.3-0.2,1.6-0.6,1.6-0.6"/>
			<path class="st9" d="M263.2,412.5c0.7-0.2,1.2-0.6,1.2-0.6"/>
			<path class="st1" d="M272.5,421c-0.1,0.2-2,2.4-15.4-4c-8.5-4.1-11.8-6.7-14.6-8.2c-0.3,1.3-0.5,2.2-0.5,2.2s4.7,3,10.7,6
				C271,426.1,271.7,422,272.5,421z"/>
		</g>
		<path class="st5" d="M204,313.7l47.2,22.9c2.5,1.3,4.3,3.6,4.8,6.4l2.9,56.6c0,0-2.9,1.4-8.8,2.8c-3.7,0.9-7.4,0.6-7.4,0.6
			l-4-48.9l-23.2-11.7L197,324.4l-2-7.1L204,313.7z"/>
		<g class="st6">
			<path d="M242.6,352.1l-39.4-24l-2,0.3l14.3,14.1l23.2,11.7l4,48.9c0,0,3.7,0.2,7.4-0.6L242.6,352.1z"/>
		</g>
		<path class="st10" d="M178.7,243.2l18.7,4.6c6.6,0.8,16.6,6.2,15.5,20.6c-0.2,2.8-9,16.7-9,16.7l-0.8,13.6c0,0,5.2,16.6,5.1,16.6
			c0,0-7.8,2.3-12.7,7.6c-4,4.4-29.9,1.2-32.3-2.1c-0.5-0.6,1.4-12.4,0.8-15.2c-2.7-12.6-8.7-31.7-8.7-31.7l-1.6-0.8
			c0,0-0.5-14.2,0-16C155.4,251.5,166.5,243.4,178.7,243.2z"/>
		<path class="st6" d="M175.5,302.1c-1.5-38.9-4.4-31.9-4.4-31.9l0.7,7.1L164,305c0,0.1,0,0.1,0,0.2c0.4,1,0.2,4.6-0.2,8.1
			c-0.2,2.1,0.9,4,2.7,5l12.2,6.4c7.3,0.7,14.9,0.4,16.9-1.8c1.2-1.3,2.5-2.4,3.9-3.3C187.3,310.3,177.6,303.8,175.5,302.1z"/>
		<path class="st11" d="M210.9,222c0,0,7.3-0.8,7.5-8.5c0.2-6.3-4.3-5.1-4.3-5.1s-1.9-0.3-4.4-2.9c-7-7.5-17.7-7.9-25.5-1.3
			c-7.8,6.6-3.7,26.2-4.6,30.6C187.4,246.6,210.9,222,210.9,222z"/>
		<path class="st12" d="M204,210.3c8,3.6,10-1.8,10-1.8s4.5-1.2,4.3,5.1c-0.2,7.6-7.5,8.5-7.5,8.5s-2.5,1.6-6.1,3.8l-12.1-7.9
			C192.8,217.9,196.1,206.7,204,210.3z"/>
		<path class="st13" d="M203.5,219.4c-4-2.8-3.5-3.1-7.4-4.1c-4.9-1.2-8,15.2-8,15.2l-2.3-0.9c0,0,0.5-7.6,0.4-7.5
			c-2.8-3.4-5.9,2.3-3.6,5.9c-0.3,6.2-0.8,7.3-0.8,7.3l-5.4,9c-0.4,1.4,8.4,11.3,16.2,12.6c7.8,1.3,7-8.7,4.8-9.1
			c-1.4-0.3-2.5-1.3-2.7-2.7c0,0,0,0,0-0.1c0,0,0.1,0,0.1,0.1c2.2,1.2,4.2,1.5,5.8-0.5c0.9-1.1,5.5-7.3,6.1-8.5
			c1.4-2.4,4.2-14.1,4.2-14.1S209.4,223.5,203.5,219.4z"/>
		<g>
			<g class="st14">
				<path d="M199,251.2c-0.1-1.8-0.7-3.3-1.5-3.4c-1.4-0.3-2.5-1.3-2.7-2.7c0,0,0,0,0-0.1c0,0,0.1,0,0.1,0.1l-10.6-7.1
					C184.2,238,187,251.2,199,251.2z"/>
			</g>
			<path class="st14" d="M208.4,222L208.4,222c0,0-2.8,11.8-4.2,14.1c-0.7,1.1-5.6,8.8-6.5,9.9c1.1,0,2-0.4,2.9-1.4
				c0.9-1.1,5.5-7.3,6.1-8.5c1.4-2.4,4.2-14.1,4.2-14.1S210.3,222.6,208.4,222z"/>
		</g>
		<g>
			<polygon class="st15" points="179.5,330.8 206.3,346.7 245.3,330.1 218.1,315.8 			"/>
			<path class="st16" d="M195.6,336.2l12,7.1c0.3,0.2,0.6,0.2,0.8,0.1l30.5-12.5c0.8-0.3,0.8-1.4,0-1.7l-14.4-6.6
				c-0.2-0.1-0.5-0.1-0.8,0l-28.2,11.9C195,334.8,195,335.8,195.6,336.2z"/>
			<path class="st17" d="M206.3,346.7l-26.7-15.9l0,0c0,1.2,0.7,2.4,1.7,3l23.6,14.1c0.9,0.5,2,0.6,2.9,0.2l35.9-15.5
				c1-0.4,1.6-1.4,1.6-2.5L206.3,346.7z"/>
			<polygon class="st17" points="209.2,321.3 214.6,324.7 203.9,329.1 198.6,325.7 			"/>
			<path class="st18" d="M208.9,311.8l-2.8,6l1.4,5.8c0,0,1.8-0.1,1.4-2.4c-0.4-2.3,0.4-3.3,0.4-3.3l2.1,2.8
				c0.2,0.3,0.3,0.6,0.2,0.9c-0.1,0.9-0.4,2.8-0.5,3.8c-0.1,0.6,0.1,1.3,0.5,1.7c0.4,0.5,0.9,0.6,1.3,0.5c0.3-0.8,1.2-5.9,1.2-5.9
				l-0.4,5.5c-0.1,0.7,0.3,1.3,1,1.5l0.7,0.3l1-3.4l0.1,0c0.9,0,1.7-0.5,1.9-1.4l0.4-1.6l0.6-0.6c0.3-0.3,0.5-0.7,0.5-1.1l-0.1-3.1
				c0-0.5-0.2-1-0.5-1.4l-4.6-5.4L208.9,311.8z"/>
			<path class="st1" d="M206.3,346.7l-0.5-0.3l16.9-29.4c0.4-0.6,1-1.1,1.7-1.3l32.4-10.5c0.5-0.1,1.1,0,1.6,0.3l0.2,0.2
				L206.3,346.7z"/>
			<path class="st19" d="M206.3,346.7l16.8-28.5c0.5-0.9,1.4-1.5,2.4-1.8l32.6-10.9c0.5-0.1,1,0.4,0.7,0.9l-13.4,23.6L206.3,346.7z"
				/>
			<g>
				<path class="st1" d="M238.1,324.3c-0.3,1.5-2,3.2-3.7,3.7c-1.7,0.5-2.8-0.3-2.5-1.8c0.3-1.5,2-3.2,3.7-3.7
					S238.4,322.7,238.1,324.3z"/>
			</g>
		</g>
		<path class="st18" d="M155.4,273.8c-0.1,8,5.8,27.7,6.6,30.4c0.5,1.7,1.1,4.2,1,5.9c0,1.5,0.8,2.9,2.1,3.7
			c1.4,0.9,4.8,4.7,9.1,6.4c8.9,3.4,19.4,4.9,19.4,4.9l4.3-4.4c0,0-19.8-12.2-22.8-15.7c-1.5-1.7-2-3.7-1.8-5.7
			c0.3-2.9-0.3-14.8-1.6-22.1C171.8,277.4,161.7,277,155.4,273.8z"/>
		<path class="st18" d="M207.3,272.2c0,0,2.3-1.5,5.7-3.8c0.6,4.8-0.2,8,0,13.6c0.4,4.5-0.5,6.8,0,11.4c3.3,6.7,2.1,19.3,2.1,19.3
			s-4.4,4.4-6.3,0c-2.5-6.1-5.7-14.1-5.7-14.1l0.8-13.6C204,285.1,207.3,277.6,207.3,272.2z"/>
		<path class="st14" d="M205.6,285.1c0,0,3.2-8.6,3.6-14.2c-1.2,0.8-1.9,1.2-1.9,1.2c0,5.4-3.3,12.9-3.3,12.9l-0.8,13.6
			c0,0,3.2,8,5.7,14.1c-1.4-6.2-4.1-14.1-4.1-14.1L205.6,285.1z"/>
		<path d="M197.6,246"/>
		<path class="st18" d="M197.9,320.8l10.2,4.2c0.7,0.3,1.3,0.8,1.6,1.5l2.4,5c0.1,0.2,0,0.4-0.3,0.5l0,0c-0.8,0.1-1.7-0.3-2.1-1
			l-1.8-2.9l-2.8-0.9l3.5,4.1l2.2,4.5c0.1,0.1,0,0.3-0.1,0.3l0,0c-0.9,0.4-1.9,0.1-2.5-0.6l0,0l-0.1,0c-0.9,0.3-1.9,0-2.5-0.8
			l-2-2.7l-1.8-1.1l2.8,4.6l0,0c-0.8,0.3-1.7,0.1-2.3-0.5l-2.7-2.9l-2.4-1c0,0,0,0-0.1,0c-2.7-1.1-4.6-3.5-5.2-6.4l-0.4-1.6
			L197.9,320.8z"/>
		<path class="st20" d="M264.3,405.8c3.1-1.4,4.5-3.9,4.9-5"/>
		<path class="st20" d="M266.8,406.9c2.8-1.6,3.9-3.6,4.4-4.7"/>
		<path class="st20" d="M269.2,407.7c2.5-1.8,2.9-2.5,3.9-4.1"/>
		<path class="st20" d="M272,408.1c1.6-1.2,2.3-2.3,2.8-2.9"/>
	</g>
	<path class="st13" d="M182.5,230.1c0,0-2.7,0.3-2.3-2.4c0,0,0.6-1.7,2.6-1.2s1.6,1.1,1.6,1.1s-0.9,1.7-0.9,1.8
		C183.5,229.5,182.5,230.1,182.5,230.1z"/>
	<circle class="st21" cx="182.1" cy="228.2" r="1.5"/>
</g>
</svg>
