<?xml version="1.0" encoding="utf-8"?>
<!-- Generator: Adobe Illustrator 24.0.2, SVG Export Plug-In . SVG Version: 6.00 Build 0)  -->
<svg version="1.1" id="Camada_1" xmlns="http://www.w3.org/2000/svg" xmlns:xlink="http://www.w3.org/1999/xlink" x="0px" y="0px"
	 viewBox="0 0 674.4 397.3" style="enable-background:new 0 0 674.4 397.3;" xml:space="preserve">
<style type="text/css">
	.st0{fill:#1D1D1B;}
	.st1{fill:#3C3C3B;}
	.st2{fill:#C6C6C6;}
	.st3{fill:#EAEAEA;}
	.st4{fill:#EBEBEB;}
	.st5{fill:#ECECEC;}
	.st6{fill:#EDEDED;}
	.st7{fill:#EEEEEE;}
	.st8{fill:#EFEFEF;}
	.st9{fill:#F0F0F0;}
	.st10{fill:#F1F1F1;}
	.st11{fill:#F2F2F2;}
	.st12{fill:#F3F3F3;}
	.st13{fill:#F4F4F4;}
	.st14{fill:#F5F5F5;}
	.st15{fill:#F6F6F6;}
	.st16{fill:#F7F7F7;}
	.st17{fill:#F8F8F8;}
	.st18{fill:#F9F9F9;}
	.st19{fill:none;stroke:#DDDDDD;stroke-width:0.4839;stroke-miterlimit:10;}
	.st20{opacity:0.1;fill:#1D1D1B;}
	.st21{fill:#EDEDED;stroke:#EDEDED;stroke-width:0.9678;stroke-miterlimit:10;}
	.st22{opacity:0.5;fill:none;stroke:#FFFFFF;stroke-width:1.8062;stroke-miterlimit:10;}
	.st23{fill:#DADADA;}
	.st24{fill:#CECECE;}
	.st25{fill:#2F2F2F;}
	.st26{opacity:0.7;fill:#B2B2B2;}
	.st27{fill:#353535;}
	.st28{fill:#E2DECF;}
	.st29{fill:#68BCDD;}
	.st30{fill:#E04F44;}
	.st31{fill:#374E72;}
	.st32{fill:#221C13;}
	.st33{opacity:0.12;}
	.st34{fill:#323254;}
	.st35{fill:#2A2A2B;}
	.st36{fill:#FCBD85;}
	.st37{fill:#3F3533;}
	.st38{fill:#EDE6D2;}
	.st39{fill:#E6E7E8;}
	.st40{opacity:5.000000e-02;}
	.st41{fill:#36365B;}
	.st42{fill:#323233;}
	.st43{fill:#DBDDD9;}
	.st44{fill:#281F17;}
	.st45{fill:#DDDDD7;}
	.st46{fill:#D3D3CD;}
	.st47{fill:#6C63FF;}
	.st48{fill:#E2A074;}
	.st49{fill:#E2A679;}
	.st50{fill:#E5A373;}
	.st51{fill:#E2A374;}
	.st52{fill:#FFFFFF;}
	.st53{opacity:5.000000e-02;fill:#231F20;}
	.st54{fill:#D89A71;}
	.st55{fill:#3A3A3A;stroke:#E0C475;stroke-width:0.25;stroke-miterlimit:10;}
	.st56{opacity:0.42;}
	.st57{fill:#136CBC;}
	.st58{font-family:'FiraCode-Bold';}
	.st59{font-size:10.1826px;}
	.st60{fill:#C11A8E;}
</style>
<g>
	<path class="st0" d="M459.6,10.9H97.9c-11.4,0-20.6,9.1-20.6,20.3v231.1c0,5,4,9,9,9h384.8c5,0,9-4,9-9V31.2
		C480.2,20,471,10.9,459.6,10.9z M467.1,265.7H90.4V31.2h376.6V265.7z"/>
	<path class="st0" d="M277.6,17.7c-1.7,0-3,1.3-3,3c0,1.7,1.3,3,3,3s3-1.3,3-3C280.6,19.1,279.3,17.7,277.6,17.7z"/>
	<path class="st1" d="M277.6,18.9c-1,0-1.8,0.8-1.8,1.8c0,1,0.8,1.8,1.8,1.8c1,0,1.8-0.8,1.8-1.8C279.4,19.8,278.6,18.9,277.6,18.9z
		"/>
</g>
<g>
	<g>
		<g>
			<g>
				<g>
					<image style="overflow:visible;" width="551" height="111" xlink:href="A34C1D6A.png"  transform="matrix(1 0 0 1 3 276.257)">
					</image>
				</g>
				<path class="st2" d="M487.5,273.6c-1.4-2-7.6-3.5-13.9-3.5h-390c-6.3,0-12.5,1.6-13.9,3.5L8.4,361c-2.1,3,2.4,16.8,10,16.8
					h520.2c7.7,0,12.1-13.8,10-16.8L487.5,273.6z"/>
				<g>
					<path class="st3" d="M487.5,273.6c-1.4-2-7.6-3.5-13.9-3.5h-390c-6.3,0-12.5,1.6-13.9,3.5L8.4,361c-2.1,3,2.4,5.5,10,5.5h520.2
						c7.7,0,12.1-2.5,10-5.5L487.5,273.6z"/>
					<path class="st4" d="M485.8,274.4c-1.3-1.9-7.5-3.5-13.7-3.5l-386.9,0c-6.2,0-12.4,1.6-13.7,3.5l-58.8,84.4
						c-2.1,3,2.3,5.5,9.9,5.5h512.2c7.6,0,12-2.5,9.9-5.5L485.8,274.4z"/>
					<path class="st5" d="M484.1,275.2c-1.3-1.9-7.4-3.5-13.5-3.5l-383.9-0.1c-6.1,0-12.2,1.6-13.5,3.5l-56.4,81.3
						c-2.1,3,2.3,5.5,9.7,5.5h504.1c7.4,0,11.8-2.5,9.7-5.5L484.1,275.2z"/>
					<path class="st6" d="M482.4,276c-1.3-1.9-7.2-3.5-13.3-3.5l-380.8-0.1c-6,0-12,1.5-13.3,3.5L21,354c-2,3,2.3,5.5,9.6,5.5h496.1
						c7.3,0,11.6-2.5,9.6-5.5L482.4,276z"/>
					<path class="st7" d="M480.7,276.8c-1.3-1.9-7.1-3.5-13.1-3.5l-377.7-0.1c-5.9,0-11.8,1.5-13.1,3.5l-51.6,75
						c-2,3,2.2,5.4,9.4,5.4h488c7.2,0,11.4-2.5,9.4-5.4L480.7,276.8z"/>
					<path class="st8" d="M479,277.6c-1.3-1.9-7-3.5-12.8-3.5L91.4,274c-5.8,0-11.6,1.5-12.8,3.5l-49.2,71.9c-2,3,2.2,5.4,9.3,5.4
						h480c7.1,0,11.2-2.4,9.3-5.4L479,277.6z"/>
					<path class="st9" d="M477.2,278.4c-1.2-1.9-6.9-3.5-12.6-3.5L93,274.8c-5.7,0-11.4,1.5-12.6,3.5L33.6,347
						c-1.9,3,2.1,5.4,9.1,5.4h471.9c7,0,11-2.4,9.1-5.4L477.2,278.4z"/>
					<path class="st10" d="M475.5,279.2c-1.2-1.9-6.8-3.4-12.4-3.4l-368.6-0.2c-5.6,0-11.2,1.5-12.4,3.4l-44.4,65.7
						c-1.9,3,2.1,5.4,8.9,5.4h463.9c6.8,0,10.8-2.4,8.9-5.4L475.5,279.2z"/>
					<path class="st11" d="M473.8,280.1c-1.2-1.9-6.6-3.4-12.2-3.4l-365.5-0.3c-5.5,0-11,1.5-12.2,3.4l-42,62.6
						c-1.9,3,2.1,5.4,8.8,5.4h455.8c6.7,0,10.6-2.4,8.8-5.4L473.8,280.1z"/>
					<path class="st11" d="M472.1,280.9c-1.2-1.9-6.5-3.4-12-3.4l-362.4-0.3c-5.4,0-10.8,1.5-12,3.4L46.1,340
						c-1.8,2.9,2,5.4,8.6,5.4h447.8c6.6,0,10.5-2.4,8.6-5.4L472.1,280.9z"/>
					<path class="st12" d="M470.4,281.7c-1.2-1.9-6.4-3.4-11.8-3.4l-359.4-0.3c-5.3,0-10.6,1.5-11.8,3.4l-37.2,56.3
						c-1.8,2.9,2,5.4,8.5,5.4h439.8c6.5,0,10.3-2.4,8.5-5.4L470.4,281.7z"/>
					<path class="st13" d="M468.7,282.5c-1.1-1.9-6.3-3.4-11.5-3.4l-356.3-0.4c-5.3,0-10.4,1.5-11.5,3.4l-34.8,53.2
						c-1.8,2.9,2,5.3,8.3,5.3h431.7c6.4,0,10.1-2.4,8.3-5.3L468.7,282.5z"/>
					<path class="st14" d="M467,283.3c-1.1-1.9-6.2-3.4-11.3-3.4l-353.3-0.4c-5.2,0-10.2,1.5-11.3,3.4L58.7,333
						c-1.7,2.9,1.9,5.3,8.2,5.3h423.7c6.2,0,9.9-2.4,8.2-5.3L467,283.3z"/>
					<path class="st15" d="M465.3,284.1c-1.1-1.9-6.1-3.4-11.1-3.4L104,280.3c-5.1,0-10,1.5-11.1,3.4l-30,47c-1.7,2.9,1.9,5.3,8,5.3
						h415.6c6.1,0,9.7-2.4,8-5.3L465.3,284.1z"/>
					<path class="st16" d="M463.6,284.9c-1.1-1.9-5.9-3.4-10.9-3.4l-347.1-0.5c-5,0-9.8,1.5-10.9,3.4l-27.6,43.9
						c-1.7,2.9,1.9,5.3,7.9,5.3h407.6c6,0,9.5-2.4,7.9-5.3L463.6,284.9z"/>
					<path class="st17" d="M461.9,285.7c-1-1.9-5.8-3.4-10.7-3.4l-344.1-0.5c-4.9,0-9.6,1.5-10.7,3.4L71.3,326
						c-1.6,2.9,1.8,5.3,7.7,5.3h399.5c5.9,0,9.3-2.4,7.7-5.3L461.9,285.7z"/>
					<path class="st18" d="M460.2,286.6c-1-1.9-5.7-3.4-10.5-3.4l-341-0.5c-4.8,0-9.4,1.5-10.5,3.4l-22.8,37.7
						c-1.6,2.9,1.8,5.3,7.5,5.3h391.5c5.8,0,9.1-2.4,7.5-5.3L460.2,286.6z"/>
				</g>
				<path class="st19" d="M483.6,273.6c-0.9-1.3-5.1-2.4-9.3-2.4H82.8c-4.2,0-8.4,1.1-9.3,2.4L13.4,361c-1.3,1.9,1.5,3.5,6.4,3.5
					h517.5c4.8,0,7.7-1.6,6.4-3.5L483.6,273.6z"/>
				<path class="st20" d="M83.6,270c-2.3,0-4.6,0.2-6.7,0.6c1.7,1,5.2,1.8,9.4,1.8h384.5c4.2,0,7.7-0.7,9.4-1.8
					c-2.1-0.4-4.4-0.6-6.7-0.6H83.6z"/>
				<path class="st1" d="M417.5,270H132.3l-1.3,2.6c-0.3,0.7,1.1,1.2,3.3,1.2h281c2.1,0,3.6-0.5,3.3-1.2L417.5,270z"/>
				<polygon class="st1" points="93.1,277.1 62.4,327.1 494.8,327.1 464.1,277.1 				"/>
				<g>
					<g>
						<g>
							<polygon class="st21" points="68.7,316.7 68.5,317.2 488.7,317.2 488.4,316.7 							"/>
						</g>
						<g>
							<polygon class="st21" points="74.6,307.2 74.3,307.6 482.8,307.6 482.6,307.2 							"/>
						</g>
						<g>
							<polygon class="st21" points="80.1,298.2 79.9,298.6 477.3,298.6 477.1,298.2 							"/>
						</g>
						<g>
							<polygon class="st21" points="85.3,289.7 85.1,290.1 472.1,290.1 471.8,289.7 							"/>
						</g>
						<g>
							<polygon class="st21" points="90.3,281.6 90.1,282 467.1,282 466.9,281.6 							"/>
						</g>
					</g>
					<g>
						<g>
							<polygon class="st21" points="442,277.1 444.6,281.8 445.8,281.8 443.2,277.1 							"/>
						</g>
						<g>
							<polygon class="st21" points="420.2,277.1 422.4,281.8 423.6,281.8 421.4,277.1 							"/>
						</g>
						<g>
							<polygon class="st21" points="398.3,277.1 400.2,281.8 401.4,281.8 399.5,277.1 							"/>
						</g>
						<g>
							<polygon class="st21" points="376.5,277.1 378,281.8 379.2,281.8 377.7,277.1 							"/>
						</g>
						<g>
							<polygon class="st21" points="354.6,277.1 355.8,281.8 357,281.8 355.8,277.1 							"/>
						</g>
						<g>
							<polygon class="st21" points="332.8,277.1 333.6,281.8 334.8,281.8 334,277.1 							"/>
						</g>
						<g>
							<polygon class="st21" points="310.9,277.1 311.4,281.8 312.6,281.8 312.1,277.1 							"/>
						</g>
						<g>
							<polygon class="st21" points="289.1,277.1 289.2,281.8 290.4,281.8 290.3,277.1 							"/>
						</g>
						<g>
							<polygon class="st21" points="267,281.8 268.3,281.8 268.4,277.1 267.2,277.1 							"/>
						</g>
						<g>
							<polygon class="st21" points="244.8,281.8 246.1,281.8 246.6,277.1 245.4,277.1 							"/>
						</g>
						<g>
							<polygon class="st21" points="222.6,281.8 223.9,281.8 224.7,277.1 223.5,277.1 							"/>
						</g>
						<g>
							<polygon class="st21" points="200.5,281.8 201.7,281.8 202.8,277.1 201.7,277.1 							"/>
						</g>
						<g>
							<polygon class="st21" points="178.3,281.8 179.5,281.8 181,277.1 179.8,277.1 							"/>
						</g>
						<g>
							<polygon class="st21" points="156.1,281.8 157.3,281.8 159.1,277.1 157.9,277.1 							"/>
						</g>
						<g>
							<polygon class="st21" points="133.9,281.8 135.1,281.8 137.3,277.1 136.1,277.1 							"/>
						</g>
						<g>
							<polygon class="st21" points="111.7,281.8 112.9,281.8 115.4,277.1 114.2,277.1 							"/>
						</g>
					</g>
					<g>
						<g>
							<polygon class="st21" points="425.1,281.8 428.9,289.9 430.1,289.9 426.2,281.8 							"/>
						</g>
						<g>
							<polygon class="st21" points="399,281.8 402.1,289.9 403.3,289.9 400.1,281.8 							"/>
						</g>
						<g>
							<polygon class="st21" points="372.9,281.8 375.3,289.9 376.5,289.9 373.9,281.8 							"/>
						</g>
						<g>
							<polygon class="st21" points="346.7,281.8 348.5,289.9 349.7,289.9 347.8,281.8 							"/>
						</g>
						<g>
							<polygon class="st21" points="320.6,281.8 321.7,289.9 322.9,289.9 321.7,281.8 							"/>
						</g>
						<g>
							<polygon class="st21" points="294.5,281.8 294.9,289.9 296.1,289.9 295.6,281.8 							"/>
						</g>
						<g>
							<polygon class="st21" points="268.1,289.9 269.3,289.9 269.5,281.8 268.4,281.8 							"/>
						</g>
						<g>
							<polygon class="st21" points="241.3,289.9 242.5,289.9 243.4,281.8 242.3,281.8 							"/>
						</g>
						<g>
							<polygon class="st21" points="214.5,289.9 215.7,289.9 217.3,281.8 216.2,281.8 							"/>
						</g>
						<g>
							<polygon class="st21" points="187.7,289.9 188.9,289.9 191.2,281.8 190.1,281.8 							"/>
						</g>
						<g>
							<polygon class="st21" points="160.9,289.9 162,289.9 165,281.8 164,281.8 							"/>
						</g>
						<g>
							<polygon class="st21" points="134.1,289.9 135.2,289.9 138.9,281.8 137.8,281.8 							"/>
						</g>
						<g>
							<polygon class="st21" points="107.3,289.9 108.4,289.9 112.8,281.8 111.7,281.8 							"/>
						</g>
					</g>
					<g>
						<g>
							<polygon class="st21" points="437.3,289.9 441.6,298.4 442.8,298.4 438.4,289.9 							"/>
						</g>
						<g>
							<polygon class="st21" points="410.5,289.9 414.1,298.4 415.2,298.4 411.6,289.9 							"/>
						</g>
						<g>
							<polygon class="st21" points="383.7,289.9 386.6,298.4 387.7,298.4 384.8,289.9 							"/>
						</g>
						<g>
							<polygon class="st21" points="356.9,289.9 359,298.4 360.2,298.4 358,289.9 							"/>
						</g>
						<g>
							<polygon class="st21" points="330.1,289.9 331.5,298.4 332.7,298.4 331.2,289.9 							"/>
						</g>
						<g>
							<polygon class="st21" points="303.3,289.9 304,298.4 305.1,298.4 304.4,289.9 							"/>
						</g>
						<g>
							<polygon class="st21" points="276.5,298.4 277.6,298.4 277.6,289.9 276.5,289.9 							"/>
						</g>
						<g>
							<polygon class="st21" points="248.9,298.4 250.1,298.4 250.8,289.9 249.7,289.9 							"/>
						</g>
						<g>
							<polygon class="st21" points="221.4,298.4 222.5,298.4 224,289.9 222.9,289.9 							"/>
						</g>
						<g>
							<polygon class="st21" points="193.9,298.4 195,298.4 197.2,289.9 196.1,289.9 							"/>
						</g>
						<g>
							<polygon class="st21" points="166.3,298.4 167.5,298.4 170.4,289.9 169.3,289.9 							"/>
						</g>
						<g>
							<polygon class="st21" points="138.8,298.4 140,298.4 143.6,289.9 142.5,289.9 							"/>
						</g>
						<g>
							<polygon class="st21" points="111.3,298.4 112.4,298.4 116.8,289.9 115.7,289.9 							"/>
						</g>
					</g>
					<g>
						<g>
							<polygon class="st21" points="428.4,298.4 432.6,307.4 433.8,307.4 429.6,298.4 							"/>
						</g>
						<g>
							<polygon class="st21" points="400.9,298.4 404.3,307.4 405.5,307.4 402.1,298.4 							"/>
						</g>
						<g>
							<polygon class="st21" points="373.4,298.4 376,307.4 377.2,307.4 374.5,298.4 							"/>
						</g>
						<g>
							<polygon class="st21" points="345.9,298.4 347.7,307.4 348.9,307.4 347,298.4 							"/>
						</g>
						<g>
							<polygon class="st21" points="318.3,298.4 319.4,307.4 320.6,307.4 319.5,298.4 							"/>
						</g>
						<g>
							<polygon class="st21" points="290.8,298.4 291.1,307.4 292.3,307.4 291.9,298.4 							"/>
						</g>
						<g>
							<polygon class="st21" points="262.8,307.4 264,307.4 264.4,298.4 263.3,298.4 							"/>
						</g>
						<g>
							<polygon class="st21" points="234.5,307.4 235.7,307.4 236.9,298.4 235.7,298.4 							"/>
						</g>
						<g>
							<polygon class="st21" points="206.3,307.4 207.4,307.4 209.4,298.4 208.2,298.4 							"/>
						</g>
						<g>
							<polygon class="st21" points="178,307.4 179.1,307.4 181.8,298.4 180.7,298.4 							"/>
						</g>
						<g>
							<polygon class="st21" points="149.7,307.4 150.8,307.4 154.3,298.4 153.2,298.4 							"/>
						</g>
						<g>
							<polygon class="st21" points="121.4,307.4 122.5,307.4 126.8,298.4 125.6,298.4 							"/>
						</g>
					</g>
					<g>
						<g>
							<polygon class="st21" points="414.9,307.4 418.8,317 420.1,317 416.1,307.4 							"/>
						</g>
						<g>
							<polygon class="st21" points="386.6,307.4 389.7,317 391,317 387.8,307.4 							"/>
						</g>
						<g>
							<polygon class="st21" points="358.3,307.4 360.6,317 361.8,317 359.5,307.4 							"/>
						</g>
						<g>
							<polygon class="st21" points="330,307.4 331.5,317 332.7,317 331.2,307.4 							"/>
						</g>
						<g>
							<polygon class="st21" points="301.7,307.4 302.4,317 303.6,317 302.9,307.4 							"/>
						</g>
						<g>
							<polygon class="st21" points="273.3,317 274.5,317 274.6,307.4 273.5,307.4 							"/>
						</g>
						<g>
							<polygon class="st21" points="244.2,317 245.4,317 246.3,307.4 245.2,307.4 							"/>
						</g>
						<g>
							<polygon class="st21" points="215.1,317 216.3,317 218,307.4 216.9,307.4 							"/>
						</g>
						<g>
							<polygon class="st21" points="186,317 187.2,317 189.7,307.4 188.6,307.4 							"/>
						</g>
						<g>
							<polygon class="st21" points="156.9,317 158.1,317 161.4,307.4 160.3,307.4 							"/>
						</g>
						<g>
							<polygon class="st21" points="127.8,317 129,317 133.1,307.4 132,307.4 							"/>
						</g>
					</g>
					<g>
						<polygon class="st21" points="458.3,317 463.6,327.1 464.8,327.1 459.5,317 						"/>
						<polygon class="st21" points="390.1,321.7 390.2,322.2 491.8,322.2 491.5,321.7 						"/>
						<polygon class="st21" points="423.1,317 427.4,327.1 428.6,327.1 424.3,317 						"/>
						<g>
							<polygon class="st21" points="387.9,317 391.1,327.1 392.4,327.1 389.1,317 							"/>
						</g>
						<g>
							<polygon class="st21" points="358.8,317 361.2,327.1 362.4,327.1 360,317 							"/>
						</g>
						<g>
							<polygon class="st21" points="329.7,317 331.2,327.1 332.5,327.1 330.9,317 							"/>
						</g>
						<g>
							<polygon class="st21" points="181.4,327.1 182.6,327.1 185.4,317 184.2,317 							"/>
						</g>
						<g>
							<polygon class="st21" points="151.4,327.1 152.7,327.1 156.3,317 155.1,317 							"/>
						</g>
						<g>
							<polygon class="st21" points="121.4,327.1 122.7,327.1 127.2,317 125.9,317 							"/>
						</g>
						<g>
							<polygon class="st21" points="91.5,327.1 92.7,327.1 98,317 96.8,317 							"/>
						</g>
					</g>
				</g>
				<path class="st22" d="M331,334.6H226.1c-2.8,0-5.2,0.8-5.4,1.9l-3,19c-0.2,1.2,2.1,2.1,5.1,2.1h111.6c3,0,5.3-1,5.1-2.1l-3-19
					C336.3,335.5,333.9,334.6,331,334.6z"/>
				<path class="st23" d="M331,334.6H226.1c-2.8,0-5.2,0.8-5.4,1.9l-3,19c-0.2,1.2,2.1,2.1,5.1,2.1h111.6c3,0,5.3-1,5.1-2.1l-3-19
					C336.3,335.5,333.9,334.6,331,334.6z"/>
				<path class="st24" d="M218.6,350l-0.9,5.5c-0.2,1.2,2.1,2.1,5.1,2.1h111.6c3,0,5.3-1,5.1-2.1l-0.9-5.5H218.6z"/>
			</g>
			<rect x="90.4" y="31.2" class="st25" width="376.6" height="234.5"/>
			<rect x="90.4" y="31.2" class="st26" width="376.6" height="7.8"/>
		</g>
	</g>
	<g>
		<polygon class="st27" points="305.3,39.1 305.3,57.8 245.9,57.8 245.9,265.7 467.1,265.7 467.1,39.1 		"/>
		<g>
			<g>
				<rect x="157.2" y="110.7" class="st28" width="40.8" height="2"/>
			</g>
			<g>
				<rect x="156.1" y="102.7" class="st28" width="40.8" height="2"/>
			</g>
			<rect x="90.4" y="92.7" class="st29" width="155.4" height="6.6"/>
			<g>
				<rect x="151.6" y="94.7" class="st28" width="63.1" height="2"/>
			</g>
			<g>
				<rect x="151.6" y="86.7" class="st28" width="40.8" height="2"/>
			</g>
			<g>
				<rect x="151.6" y="78.7" class="st28" width="85.3" height="2"/>
			</g>
			<g>
				<rect x="151.6" y="70.7" class="st28" width="85.3" height="2"/>
			</g>
			<g>
				<rect x="128.5" y="61.8" class="st28" width="40.8" height="4"/>
			</g>
			<g>
				<rect x="104" y="53.8" class="st28" width="40.8" height="4"/>
			</g>
		</g>
		<g>
			<g>
				<rect x="301.9" y="140.6" class="st30" width="57.1" height="2"/>
			</g>
			<g>
				<rect x="301.9" y="132.6" class="st31" width="34.8" height="2"/>
			</g>
			<g>
				<rect x="301.9" y="124.6" class="st30" width="12.5" height="2"/>
			</g>
			<g>
				<rect x="301.9" y="116.7" class="st31" width="12.5" height="2"/>
			</g>
			<g>
				<rect x="301.9" y="108.7" class="st30" width="34.8" height="2"/>
			</g>
			<g>
				<rect x="346.5" y="100.7" class="st28" width="34.8" height="2"/>
			</g>
			<g>
				<rect x="324.2" y="92.7" class="st31" width="34.8" height="2"/>
			</g>
			<g>
				<rect x="301.9" y="84.7" class="st30" width="34.8" height="2"/>
			</g>
			<g>
				<rect x="301.9" y="76.7" class="st31" width="34.8" height="2"/>
			</g>
			<g>
				<rect x="279.6" y="68.7" class="st30" width="34.8" height="2"/>
			</g>
			<g>
				<rect x="361.8" y="140.7" class="st28" width="73.5" height="1.7"/>
			</g>
			<g>
				<rect x="339.5" y="132.7" class="st29" width="29" height="1.7"/>
			</g>
			<g>
				<rect x="317.2" y="124.8" class="st28" width="118.1" height="1.7"/>
			</g>
			<g>
				<rect x="317.2" y="116.8" class="st28" width="95.8" height="1.7"/>
			</g>
			<g>
				<rect x="339.5" y="108.8" class="st28" width="95.8" height="1.7"/>
			</g>
			<g>
				<rect x="384" y="100.8" class="st28" width="73.5" height="1.7"/>
			</g>
			<g>
				<rect x="361.8" y="92.8" class="st29" width="29" height="1.7"/>
			</g>
			<g>
				<rect x="339.5" y="84.8" class="st28" width="51.3" height="1.7"/>
			</g>
			<g>
				<rect x="339.5" y="76.9" class="st28" width="118.1" height="1.7"/>
			</g>
			<g>
				<rect x="317.2" y="68.9" class="st28" width="118.1" height="1.7"/>
			</g>
		</g>
		<g>
			<g>
				<rect x="350.6" y="212.5" class="st31" width="34.8" height="2"/>
			</g>
			<g>
				<rect x="350.6" y="204.5" class="st30" width="12.5" height="2"/>
			</g>
			<g>
				<rect x="350.6" y="196.5" class="st31" width="12.5" height="2"/>
			</g>
			<g>
				<rect x="350.6" y="188.5" class="st30" width="34.8" height="2"/>
			</g>
			<g>
				<rect x="350.6" y="180.5" class="st28" width="30.7" height="2"/>
			</g>
			<g>
				<rect x="324.2" y="172.5" class="st31" width="34.8" height="2"/>
			</g>
			<g>
				<rect x="301.9" y="164.6" class="st30" width="34.8" height="2"/>
			</g>
			<g>
				<rect x="301.9" y="156.6" class="st31" width="34.8" height="2"/>
			</g>
			<g>
				<rect x="279.6" y="148.6" class="st30" width="34.8" height="2"/>
			</g>
			<g>
				<rect x="388.1" y="212.6" class="st28" width="29" height="1.7"/>
			</g>
			<g>
				<rect x="365.9" y="204.6" class="st28" width="69.5" height="1.7"/>
			</g>
			<g>
				<rect x="365.9" y="196.6" class="st28" width="47.2" height="1.7"/>
			</g>
			<g>
				<rect x="384" y="180.7" class="st28" width="73.5" height="1.7"/>
			</g>
			<g>
				<rect x="361.8" y="172.7" class="st29" width="29" height="1.7"/>
			</g>
			<g>
				<rect x="339.5" y="164.7" class="st28" width="51.3" height="1.7"/>
			</g>
			<g>
				<rect x="339.5" y="156.7" class="st28" width="118.1" height="1.7"/>
			</g>
			<g>
				<rect x="317.2" y="148.7" class="st28" width="118.1" height="1.7"/>
			</g>
		</g>
		<g>
			<g>
				<rect x="257.3" y="140.6" class="st28" width="6.6" height="2"/>
			</g>
			<g>
				<rect x="257.3" y="132.6" class="st28" width="6.6" height="2"/>
			</g>
			<g>
				<rect x="257.3" y="124.6" class="st28" width="6.6" height="2"/>
			</g>
			<g>
				<rect x="257.3" y="116.7" class="st28" width="6.6" height="2"/>
			</g>
			<g>
				<rect x="257.3" y="108.7" class="st28" width="6.6" height="2"/>
			</g>
			<g>
				<rect x="257.3" y="100.7" class="st28" width="6.6" height="2"/>
			</g>
			<g>
				<rect x="257.3" y="92.7" class="st28" width="6.6" height="2"/>
			</g>
			<g>
				<rect x="257.3" y="84.7" class="st28" width="6.6" height="2"/>
			</g>
			<g>
				<rect x="257.3" y="76.7" class="st28" width="6.6" height="2"/>
			</g>
			<g>
				<rect x="257.3" y="68.7" class="st28" width="6.6" height="2"/>
			</g>
		</g>
		<g>
			<g>
				<rect x="257.3" y="212.5" class="st28" width="6.6" height="2"/>
			</g>
			<g>
				<rect x="257.3" y="204.5" class="st28" width="6.6" height="2"/>
			</g>
			<g>
				<rect x="257.3" y="196.5" class="st28" width="6.6" height="2"/>
			</g>
			<g>
				<rect x="257.3" y="188.5" class="st28" width="6.6" height="2"/>
			</g>
			<g>
				<rect x="257.3" y="180.5" class="st28" width="6.6" height="2"/>
			</g>
			<g>
				<rect x="257.3" y="172.5" class="st28" width="6.6" height="2"/>
			</g>
			<g>
				<rect x="257.3" y="164.6" class="st28" width="6.6" height="2"/>
			</g>
			<g>
				<rect x="257.3" y="156.6" class="st28" width="6.6" height="2"/>
			</g>
			<g>
				<rect x="257.3" y="148.6" class="st28" width="6.6" height="2"/>
			</g>
			<g>
				<rect x="257.3" y="140.6" class="st28" width="6.6" height="2"/>
			</g>
		</g>
		<g>
			<rect x="252.8" y="46.4" class="st28" width="40.8" height="4"/>
		</g>
		<rect x="314.4" y="44" class="st28" width="89.7" height="9.8"/>
		<g>
			<rect x="319.1" y="47.4" class="st32" width="68.3" height="3"/>
		</g>
	</g>
</g>
<g>
	<path class="st33" d="M526.7,334.9c0-5.3-41-9.6-91.6-9.6s-91.6,4.3-91.6,9.6c0,0.2,0.1,0.4,0.2,0.6c-0.1,0.2-0.2,0.4-0.2,0.6
		c0,5.3,41,9.6,91.6,9.6s91.6-4.3,91.6-9.6c0-0.2-0.1-0.4-0.2-0.6C526.6,335.3,526.7,335.1,526.7,334.9z"/>
	<path class="st34" d="M401.7,294.8c1.6,0.8,14,9.4,32.4,9.4c18.4,0,34-9.2,35.8-9.6c1.8,2.7,3.3,6.4,3.3,6.4c0.1,0.1,0,0.3-0.1,0.4
		l-29.7,35.1c-6.7,1.4-15.3,0.2-15.3,0.2l-29.8-35.7c-0.1-0.1-0.1-0.3,0-0.5C398.5,300.6,401.5,294.7,401.7,294.8z"/>
	<path class="st35" d="M400,302.8c0.8-1.5,1.6-3,1.7-2.9c1.6,0.8,14,9.4,32.4,9.4c18.4,0,34-9.2,35.8-9.6c0.7,1.1,1.4,2.3,1.9,3.4
		l1.3-1.6c0.1-0.1,0.1-0.3,0.1-0.4c0,0-1.6-3.8-3.3-6.4c-1.8,0.4-17.4,9.6-35.8,9.6c-18.4,0-30.7-8.5-32.4-9.4
		c-0.2-0.1-3.2,5.8-3.2,5.8c-0.1,0.1-0.1,0.3,0,0.5L400,302.8z"/>
	<path class="st34" d="M475.7,333.8c11.5-5.5,36.5-20.4,47.1-42.7c1.5-3.1-2.2-16.2-14.2-12c-7.4,2.6-46.1,15.7-52.4,24
		c-10.1,13.4-10.6,25.6-12.7,33.5C449.2,339,470,336.5,475.7,333.8z"/>
	<path class="st34" d="M394.7,333.9c-11.5-5.5-44.7-29.4-46.2-42.8c-0.4-3.4-3.7-13.9,10.6-13.4c7.4,2.6,49,17.8,56,25.4
		c8.8,9.6,11.7,26.2,12.7,33.5C422.1,339,400.4,336.6,394.7,333.9z"/>
	<path class="st36" d="M470.9,327.5c-10.9-0.5-22.8-1.8-27.3-2.8c-13-5.3-83.8-46.5-83.8-46.5c-11.5-3.1-15.2,8.7-11.7,14.9
		c9.1,16,17.6,25.2,49.9,29.5c9.6,1.3,27.8,6.7,37.6,10.4c0.7,2.3,3,4.8,8.4,5.3c2.9,0.3,19.2,6.1,26.7,5.5
		c12.6-1.1,12.6-6.7,12.6-9.2C483.4,332,480.3,327.9,470.9,327.5z"/>
	<g>
		<path class="st37" d="M470.9,327.5c-10.9-0.5-22.8-1.8-27.3-2.8c-0.3-0.1-0.7-0.3-1-0.4l-8.8,8c0.6,0.2,1.3,0.5,1.8,0.7
			c0.7,2.3,3,4.8,8.4,5.3c2.9,0.3,19.2,6.1,26.7,5.5c12.6-1.1,12.6-6.7,12.6-9.2C483.4,332,480.3,327.9,470.9,327.5z"/>
		<path class="st38" d="M470.7,343.7c12.6-1.1,12.6-6.7,12.6-9.2c0-2.2-2.4-5.6-9.4-6.7c-1.8,1.5-4.4,6.1-4.7,12.3
			c-14.3,0.6-26.9-4.5-33.5-7.1c0.7,2.2,3,4.7,8.3,5.2C446.8,338.6,463.1,344.4,470.7,343.7z"/>
		<path class="st39" d="M448.4,334.4c-0.4,0-0.7-0.3-0.7-0.7l0-0.6c0-3,0.8-5.9,2.4-8.4c0.2-0.3,0.6-0.4,0.9-0.2
			c0.3,0.2,0.4,0.6,0.2,0.9c-1.4,2.3-2.2,5-2.2,7.7l0,0.6C449,334.1,448.7,334.4,448.4,334.4C448.4,334.4,448.4,334.4,448.4,334.4z"
			/>
		<path class="st39" d="M452.2,335c-0.4,0-0.7-0.3-0.7-0.7l0-0.6c0-3,0.8-5.9,2.4-8.4c0.2-0.3,0.6-0.4,0.9-0.2
			c0.3,0.2,0.4,0.6,0.2,0.9c-1.4,2.3-2.2,5-2.2,7.7l0,0.6C452.9,334.7,452.6,335,452.2,335C452.2,335,452.2,335,452.2,335z"/>
		<path class="st39" d="M456.1,335.5c-0.4,0-0.7-0.3-0.7-0.7l0-0.6c0-3,0.8-5.9,2.4-8.4c0.2-0.3,0.6-0.4,0.9-0.2
			c0.3,0.2,0.4,0.6,0.2,0.9c-1.4,2.3-2.2,5-2.2,7.7l0,0.6C456.8,335.2,456.5,335.5,456.1,335.5L456.1,335.5z"/>
		<path class="st39" d="M459.4,335.9c-0.4,0-0.7-0.3-0.7-0.7l0-0.6c0-3,0.8-5.9,2.4-8.4c0.2-0.3,0.6-0.4,0.9-0.2
			c0.3,0.2,0.4,0.6,0.2,0.9c-1.4,2.3-2.2,5-2.2,7.7l0,0.6C460.1,335.6,459.8,335.9,459.4,335.9C459.4,335.9,459.4,335.9,459.4,335.9
			z"/>
	</g>
	<path class="st40" d="M443.6,324.8c-2-0.8-5.3-2.5-9.6-4.7l0,0c-3,1.7-6.5,3.6-7.4,4c-1,0.2-7.8,1.1-12.4,2.1
		c7.7,2.1,15.8,4.7,21.3,6.7c0.1,0.5,0.4,1,0.7,1.5c5.7-3.1,20-5.2,25.7-7.5C454.1,326.4,446.9,325.5,443.6,324.8z"/>
	<path class="st41" d="M359.1,277.6c0,0,39.1,22.6,64.7,36.3c0,4.9-0.6,10.1-1,11.3c-0.9,2-6.4,9.1-8.8,12
		c-9.2-6-13.6-8.8-19.2-10.5C357.4,315.3,354,310,344.9,294C341.4,287.8,347.5,274.6,359.1,277.6z"/>
	<path class="st40" d="M344.5,293.1c-0.1-0.1-0.1-0.3-0.2-0.4c0-0.1,0-0.2-0.1-0.3c0-0.1-0.1-0.3-0.1-0.4c0-0.1,0-0.2-0.1-0.3
		c0-0.1-0.1-0.3-0.1-0.4c0-0.1,0-0.2,0-0.3c0-0.1,0-0.3,0-0.4c0-0.1,0-0.2,0-0.3c0-0.2,0-0.3,0-0.5c0-0.1,0-0.2,0-0.3
		c0-0.2,0-0.3,0-0.5c0-0.1,0-0.2,0-0.3c0-0.2,0-0.3,0.1-0.5c0-0.1,0-0.2,0-0.3c0-0.2,0.1-0.3,0.1-0.5c0-0.1,0-0.2,0.1-0.3
		c0-0.2,0.1-0.4,0.1-0.5c0-0.1,0.1-0.2,0.1-0.3c0.1-0.2,0.1-0.4,0.2-0.5c0-0.1,0.1-0.2,0.1-0.3c0.1-0.2,0.1-0.4,0.2-0.6
		c0-0.1,0.1-0.2,0.1-0.2c0.1-0.2,0.2-0.4,0.3-0.6c0-0.1,0.1-0.1,0.1-0.2c0.1-0.2,0.2-0.4,0.3-0.6c0-0.1,0.1-0.1,0.1-0.2
		c0.1-0.2,0.3-0.4,0.4-0.6c0,0,0-0.1,0.1-0.1c0.2-0.2,0.3-0.5,0.5-0.7l0,0c0.2,0.4,0.5,0.8,0.7,1.3c10.4,19.6,64,38.4,75.3,42.1
		c0,0,0,0,0,0c-0.9,2-6.4,9.1-8.8,12c-9.2-6-13.6-8.8-19.2-10.5C357.4,315.3,354,310,344.9,294c-0.1-0.2-0.2-0.4-0.3-0.6
		C344.6,293.3,344.6,293.2,344.5,293.1z"/>
	<path class="st42" d="M422.8,325.2c0-0.1,0.1-0.3,0.1-0.6c-5.8,1.4-14.6,3.3-22.3,3.4c-0.7,0-1.3,0-1.9,0.1
		c4.1,1.8,8.3,4.5,15.4,9.1C416.4,334.3,421.9,327.2,422.8,325.2z"/>
	<path class="st36" d="M511.2,279.9c0,0-72.3,42.4-84.5,45.3c-4.9,1.1-18.3,2.7-28,2.8c-9.4,0.1-10.6,4.6-10.5,7.1
		c0.1,2.5,5.3,8.1,9.1,8.6c11.9,1.5,26.3-3.9,29.2-4.2c6-0.6,9.1-4.9,9.5-7.3c9.2-3.7,29.1-8.2,37.5-9.2c32.6-4,40.8-14.9,49.9-30.9
		C526.8,286,522.7,276.9,511.2,279.9z"/>
	<path class="st41" d="M511.6,278.2c0,0-39.1,22.6-64.7,36.3c0,4.9,0.6,10.1,1,11.3c0.9,2,6.4,9.1,8.8,12c9.2-6,13.6-8.8,19.2-10.5
		c37.4-11.4,40.8-16.7,49.9-32.7C529.2,288.4,523.1,275.2,511.6,278.2z"/>
	<path class="st40" d="M526.1,293.7c0.1-0.1,0.1-0.3,0.2-0.4c0-0.1,0-0.2,0.1-0.3c0-0.1,0.1-0.3,0.1-0.4c0-0.1,0-0.2,0.1-0.3
		c0-0.1,0.1-0.3,0.1-0.4c0-0.1,0-0.2,0-0.3c0-0.1,0-0.3,0-0.4c0-0.1,0-0.2,0-0.3c0-0.2,0-0.3,0-0.5c0-0.1,0-0.2,0-0.3
		c0-0.2,0-0.3,0-0.5c0-0.1,0-0.2,0-0.3c0-0.2,0-0.3-0.1-0.5c0-0.1,0-0.2,0-0.3c0-0.2-0.1-0.3-0.1-0.5c0-0.1,0-0.2-0.1-0.3
		c0-0.2-0.1-0.4-0.1-0.5c0-0.1-0.1-0.2-0.1-0.3c-0.1-0.2-0.1-0.4-0.2-0.5c0-0.1-0.1-0.2-0.1-0.3c-0.1-0.2-0.1-0.4-0.2-0.6
		c0-0.1-0.1-0.2-0.1-0.2c-0.1-0.2-0.2-0.4-0.3-0.6c0-0.1-0.1-0.1-0.1-0.2c-0.1-0.2-0.2-0.4-0.3-0.6c0-0.1-0.1-0.1-0.1-0.2
		c-0.1-0.2-0.3-0.4-0.4-0.6c0,0,0-0.1-0.1-0.1c-0.2-0.2-0.3-0.5-0.5-0.7l0,0c-0.2,0.4-0.5,0.8-0.7,1.3c-10.4,19.6-64,38.4-75.3,42.1
		c0,0,0,0,0,0c0.9,2,6.4,9.1,8.8,12c9.2-6,13.6-8.8,19.2-10.5c37.4-11.4,40.8-16.7,49.9-32.7c0.1-0.2,0.2-0.4,0.3-0.6
		C526,293.9,526.1,293.8,526.1,293.7z"/>
	<path class="st42" d="M434.1,304.2c-2.1,0-4.2-0.1-6.2-0.3v5c0,0.7,0.6,1.3,1.3,1.3h9.8c0.7,0,1.3-0.6,1.3-1.3v-5
		C438.3,304.1,436.2,304.2,434.1,304.2z"/>
	<path class="st43" d="M439,303.8v3.6c0,0.4-0.3,0.7-0.7,0.7H430c-0.4,0-0.7-0.3-0.7-0.7v-3.6l-1.3,0v5c0,0.7,0.6,1.3,1.3,1.3h9.8
		c0.7,0,1.3-0.6,1.3-1.3v-5L439,303.8z"/>
	<g>
		<g>
			<path class="st44" d="M423.4,201.9c-3.8-1.8-10.1-9.1-12.1-24.7c-1.5-11.5-2.9-24.5,11.1-26.9c8.8-2.9,30.1-5.3,34,9.5
				c1.9,17.4-3.9,42.9-12.5,42c-0.3,5.5-9.6,4.1-12,4.7C425.8,208.1,423.4,201.9,423.4,201.9z"/>
		</g>
	</g>
	<path class="st45" d="M389.8,292.8l11.4,10.6l65.2,0.2l11.7-10.8c1.5-1.4,2.4-3.4,2.4-5.4l0,0h-93l0,0
		C387.4,289.4,388.2,291.4,389.8,292.8z"/>
	<polygon class="st46" points="387.4,287.4 404.7,301.5 465.1,301.5 480.4,287.4 	"/>
	<path class="st47" d="M498.5,263.5c-1.2-7.6-9.3-43.1-21-51.9c-16.6-12.6-50.1-16.6-85.2-1.1c-12.2,6-17.9,45.8-19.4,54.4
		c-3,16.2,22,21.7,25.6,22.4c7.4,1.4,9.6-2.3,10.6-5c1.8-4.8-13.4-13-14.4-18.3c4-19.7,1.1-18.9,0-27.2c1.2,5.6-0.7,8,4.9,19.3
		c1.1,2.2,3.2,31.4,2.1,38.7c-0.5,2.9,68.9,2.7,68.2-0.2c-1.7-7.1-0.3-37.9,0.4-39.8c3.2-8.1,3.5-16.3,3.9-18.6
		c-0.8,4.7-3.4,5.4,0,25.3c-4,3.8-14,17.6-12.3,22.4c1,2.8,4.2,7,8.5,3.5C473.7,284.7,501.1,279.9,498.5,263.5z"/>
	<path class="st48" d="M447.7,212.8c1.2-1.1,1.7-2.7,1.5-4.4c-0.5-3.5-1.3-10.1-0.7-14.2c0.8-5.5-28.3-2.3-28.3-2.3
		s-0.2,10.8-1,16.1c-0.2,1.4,0.1,2.8,1,3.9c2.4,2.9,7.3,5.7,13.5,6.2C440.4,218.5,445.2,215.1,447.7,212.8z"/>
	<path class="st49" d="M454.6,178.3L454.6,178.3c0.9,0,1.9,0.7,2.1,1.6c0.4,2,0,5.3-0.8,7.7c0,0.1-0.1,0.3-0.1,0.4
		c-0.3,1-0.8,1.8-1.2,2.1c-1.2,1.1-3.2,1.5-3.2,1.5L454.6,178.3z"/>
	<path class="st40" d="M454.1,185.1c-0.2,2-0.7,2.6-1.6,2.5c-0.9-0.1-1.4-1.8-1.1-3.8c0.2-2,1.1-3.5,2-3.4
		C454.2,180.6,454.3,183.1,454.1,185.1z"/>
	<path class="st50" d="M413.6,178.3L413.6,178.3c-0.9,0-2,0.7-2.3,1.6c-0.7,2.7-0.1,7.8,1.9,9.6c1.2,1.1,2.8,1.6,2.8,1.6
		L413.6,178.3z"/>
	<path class="st40" d="M413.7,185c0.2,2,0.7,2.8,1.6,2.7c0.9-0.1,1.4-1.8,1.1-3.8c-0.2-2-1.1-3.5-2-3.4
		C413.5,180.6,413.4,183,413.7,185z"/>
	<path class="st51" d="M449.7,173.2c2.2,1.1,1.2,11.4,1.2,13.9c0,1,1.1,0.5,1.6,0.5c0,4.3-0.5,10-1.3,12.7
		c-0.7,2.4-11,10.1-17.1,10.1c-6.1,0-17.2-9.2-17.8-11.6c-0.8-3.3-0.7-6-1.1-11.3c0.8,0.1,1.5,0.1,1.5-0.6c0-1.1-1.5-14.1,4.6-16.9
		C425.4,173,445.3,174.4,449.7,173.2z"/>
	<path class="st40" d="M394.9,236.2c0,0.1,0,0.4-0.2,0.8c0,0,0,0,0-0.1c0,0,0,0,0,0l0,0c0.7,0.1-0.7,8,4.9,19.3
		c0.4,0.8,1,5.6,1.5,11.6c3.2-6.3,8.6-8.9,16.7-9.9C413,257.1,399.7,256.1,394.9,236.2z"/>
	<path class="st40" d="M470.4,254.8c3.2-8.1,3.5-16.3,3.9-18.6c-3.9,18.6-17,20.9-26.5,22c3.6,0.6,17.4,3.8,21.3,21.7
		C469.2,268.9,469.9,256,470.4,254.8z"/>
	<path class="st45" d="M404.6,304.6h58.5c3.1,0,5.6-2.5,5.6-5.6l0,0h-69.6l0,0C399.1,302.1,401.6,304.6,404.6,304.6z"/>
	<path class="st45" d="M468.7,299.1h-69.6l-10.6-38.7c-0.6-2.1,1-4.2,3.2-4.2h84.3c2.2,0,3.8,2.1,3.2,4.2L468.7,299.1z"/>
	<path class="st52" d="M440.1,281.7c0,1.9-2.9,3.4-6.5,3.4c-3.6,0-6.5-1.5-6.5-3.4s2.9-3.4,6.5-3.4
		C437.2,278.3,440.1,279.9,440.1,281.7z"/>
	<g>
		<path class="st37" d="M428.3,324.7c-0.6,0.2-1.2,0.4-1.6,0.5c-4.9,1.1-18.3,2.7-28,2.8c-9.4,0.1-10.6,4.6-10.5,7.1
			c0.1,2.5,5.3,8.1,9.1,8.6c11.9,1.5,26.3-3.9,29.2-4.2c6-0.6,9.1-4.9,9.5-7.3c0,0-5.7,1.6-4.5-1.2c1.1-2.5-0.4-5.4-3.1-6.1
			C428.2,324.9,428.1,324.8,428.3,324.7z"/>
		<path class="st38" d="M401.1,341.1c1.9-5.5-0.1-10.6-1.4-13.1c-0.3,0-0.7,0-1,0c-9.4,0.1-10.6,4.6-10.5,7.1
			c0.1,2.5,5.3,8.1,9.1,8.6c11.9,1.5,26.3-3.9,29.2-4.2c2.9-0.3,5.1-1.4,6.7-2.8C425,338.9,400.9,344.9,401.1,341.1z"/>
		<path class="st39" d="M422.8,335.2C422.8,335.2,422.8,335.2,422.8,335.2c-0.4,0-0.7-0.3-0.7-0.7l0-0.6c0-2.7-0.7-5.4-2.2-7.7
			c-0.2-0.3-0.1-0.7,0.2-0.9c0.3-0.2,0.7-0.1,0.9,0.2c1.6,2.5,2.4,5.5,2.4,8.4l0,0.6C423.4,334.9,423.1,335.2,422.8,335.2z"/>
		<path class="st39" d="M418.9,335.8C418.9,335.8,418.9,335.8,418.9,335.8c-0.4,0-0.7-0.3-0.7-0.7l0-0.6c0-2.7-0.7-5.4-2.2-7.7
			c-0.2-0.3-0.1-0.7,0.2-0.9c0.3-0.2,0.7-0.1,0.9,0.2c1.6,2.5,2.4,5.5,2.4,8.4l0,0.6C419.6,335.5,419.3,335.8,418.9,335.8z"/>
		<path class="st39" d="M415,336.3C415,336.3,415,336.3,415,336.3c-0.4,0-0.7-0.3-0.7-0.7l0-0.6c0-2.7-0.7-5.4-2.2-7.7
			c-0.2-0.3-0.1-0.7,0.2-0.9c0.3-0.2,0.7-0.1,0.9,0.2c1.6,2.5,2.4,5.5,2.4,8.4l0,0.6C415.7,336,415.4,336.3,415,336.3z"/>
		<path class="st39" d="M411.7,336.7C411.7,336.7,411.7,336.7,411.7,336.7c-0.4,0-0.7-0.3-0.7-0.7l0-0.6c0-2.7-0.7-5.4-2.2-7.7
			c-0.2-0.3-0.1-0.7,0.2-0.9c0.3-0.2,0.7-0.1,0.9,0.2c1.6,2.5,2.4,5.5,2.4,8.4l0,0.6C412.4,336.4,412.1,336.7,411.7,336.7z"/>
	</g>
</g>
<path class="st53" d="M526.6,289.3L526.6,289.3c0-0.5-0.1-0.9-0.2-1.4c0-0.1,0-0.1,0-0.2l0,0c0-0.2-0.1-0.3-0.1-0.5l0,0
	c0-0.1-0.1-0.2-0.1-0.3l0,0c-0.2-0.5-0.3-1-0.6-1.5c0,0,0,0,0,0l0,0c-0.1-0.2-0.2-0.4-0.3-0.6l0,0c0,0,0-0.1,0-0.1
	c-0.1-0.2-0.2-0.5-0.4-0.7c0,0,0,0,0,0c0-0.1-0.1-0.1-0.1-0.2l0,0c-0.1-0.2-0.3-0.4-0.4-0.6c0,0,0,0,0,0c0,0,0-0.1-0.1-0.1l0,0
	c-0.2-0.2-0.3-0.5-0.5-0.7l0,0v0c-2.6-3.4-6.8-5.5-12.3-4.1c0,0-0.1,0-0.2,0.1c-0.9,0.1-1.8,0.3-2.8,0.7
	c-3.9,1.4-16.6,5.7-28.6,10.7c0.3-0.8,0.4-1.6,0.4-2.4h-8.5l0.2-0.9c6.8-2.9,28.8-8.2,26.4-23c-1.2-7.6-9.3-43.1-21-51.9
	c-6.6-5-15.9-8.6-26.9-10.2c0.3-0.4,0.5-0.8,0.6-1c0.5-1.6,0.8-4.4,1.1-7.2c0.3-0.6,0.5-1.3,0.7-2c0.5-0.2,1.1-0.5,1.5-0.9
	c1.5-1.3,2.7-7.4,2.1-10.3c-0.1-0.4-0.4-0.8-0.8-1.1c0.9-6.4,1.1-13.1,0.5-18.9c-2.6-9.9-13-12.2-22.3-11.7v189c1.6,0,3.4,0,5.3-0.1
	c0.1,0.1,0.3,0.1,0.4,0.2c0.1,0,0.2,0.1,0.3,0.1c0.1,0.1,0.3,0.1,0.4,0.2c0.1,0,0.2,0.1,0.4,0.1c0.1,0,0.3,0.1,0.4,0.1
	c0.1,0,0.3,0.1,0.4,0.1c0.1,0,0.3,0.1,0.4,0.1c0.2,0,0.3,0.1,0.5,0.1c0.1,0,0.3,0,0.4,0.1c0.2,0,0.4,0.1,0.7,0.1c0.1,0,0.2,0,0.3,0
	c0.9,0.1,3.1,0.7,5.9,1.5c0.6,0.2,1.2,0.3,1.8,0.5c1.2,0.3,2.5,0.7,3.9,1.1c0.3,0.1,0.7,0.2,1,0.3c0.7,0.2,1.4,0.3,2.1,0.5
	c1,0.2,2.1,0.5,3.1,0.7c0.7,0.1,1.4,0.3,2,0.4c2.6,0.5,5.1,0.7,7,0.5c3.2-0.3,5.5-0.8,7.3-1.6c5.3-2.2,5.3-5.8,5.3-7.7v0l0,0
	c0-0.1,0-0.3,0-0.5c0-0.1,0-0.1,0-0.2c0-0.1,0-0.2-0.1-0.3c0-0.1,0-0.1-0.1-0.2c0-0.1-0.1-0.2-0.1-0.3c0-0.1-0.1-0.2-0.1-0.2
	c0-0.1-0.1-0.2-0.1-0.3c0-0.1-0.1-0.2-0.2-0.3c0-0.1-0.1-0.2-0.2-0.2c-0.1-0.1-0.1-0.2-0.2-0.3c-0.1-0.1-0.1-0.1-0.2-0.2
	c-0.1-0.1-0.2-0.2-0.3-0.3c0,0-0.1-0.1-0.1-0.1c-0.1-0.1-0.2-0.2-0.3-0.3c5-2.8,11.2-6.6,17.4-11.5c16.6-6.9,20.2-12.9,27-24.8
	c0.2-0.4,0.4-0.8,0.6-1.3l0,0c0-0.1,0-0.2,0.1-0.3c0.1-0.4,0.2-0.8,0.3-1.2l0,0c0,0,0-0.1,0-0.1c0-0.2,0.1-0.4,0.1-0.6l0,0
	c0,0,0-0.1,0-0.1C526.7,290.5,526.7,289.9,526.6,289.3C526.6,289.3,526.6,289.3,526.6,289.3z M470.1,256.2c0,0,0-0.1,0-0.1
	c0,0,0-0.1,0-0.1c0-0.2,0-0.3,0.1-0.5c0,0,0,0,0-0.1c0-0.1,0-0.3,0.1-0.4c0,0,0,0,0-0.1c0-0.1,0-0.2,0.1-0.2c1-2.6,1.8-5.1,2.3-7.5
	c0.1,2.3,0.3,5.2,0.8,8.9H470.1z"/>
<path class="st54" d="M455.8,187.8c0,0,2.8,1.6,0.6,4c0,0-1.7,1.3-3.3-0.6c-1.6-1.9-0.8-2.2-0.8-2.2s2-1.1,2.1-1.1
	C454.5,187.7,455.8,187.8,455.8,187.8z"/>
<path class="st50" d="M412.1,192.1c0,0-2.8-1.6-0.6-3.9c0,0,1.7-1.3,3.3,0.6c1.6,1.9,0.8,2.2,0.8,2.2s-2,1.1-2.1,1.1
	C413.5,192.1,412.1,192.1,412.1,192.1z"/>
<circle class="st55" cx="455" cy="189.9" r="1.8"/>
<circle class="st55" cx="413" cy="189.9" r="1.8"/>
<text transform="matrix(1 0 0 1 488.7012 40.1117)" class="st56"><tspan x="0" y="0" class="st57 st58 st59">let </tspan><tspan x="25.1" y="0" class="st58 st59">coffee </tspan><tspan x="68.9" y="0" class="st60 st58 st59">= new</tspan><tspan x="100.3" y="0" class="st58 st59"> Coffe();</tspan><tspan x="0" y="32" class="st60 st58 st59">if </tspan><tspan x="18.8" y="32" class="st58 st59">(coffee.empty) {</tspan><tspan x="0" y="48" class="st58 st59">  coffe.</tspan><tspan x="50.1" y="48" class="st57 st58 st59">refill()</tspan><tspan x="100.3" y="48" class="st58 st59">;</tspan><tspan x="0" y="64" class="st58 st59">} </tspan><tspan x="12.5" y="64" class="st60 st58 st59">else </tspan><tspan x="43.9" y="64" class="st58 st59">{</tspan><tspan x="0" y="80" class="st58 st59">   coffee.</tspan><tspan x="62.7" y="80" class="st57 st58 st59">drink()</tspan><tspan x="106.5" y="80" class="st58 st59">;</tspan><tspan x="0" y="96" class="st58 st59">}</tspan></text>
</svg>
