<svg height="512pt" viewBox="0 0 512 512.00075" width="512pt" xmlns="http://www.w3.org/2000/svg"><path d="m512 256c0 141.386719-114.613281 256-256 256-141.382812 0-256-114.613281-256-256 0-141.382812 114.617188-256 256-256 141.386719 0 256 114.617188 256 256zm0 0" fill="#ffc640"/><path d="m341 479.003906h-170l28.9375-101.546875h112.125zm0 0" fill="#d9d8d7"/><path d="m199.9375 377.457031-28.9375 101.546875h50l28.9375-101.546875zm0 0" fill="#cccbca"/><path d="m512 76.53125v179.46875c0 47.378906-12.878906 91.761719-35.320312 129.820312h-441.359376c-22.441406-38.058593-35.320312-82.441406-35.320312-129.820312v-179.46875c0-8.679688 7.03125-15.710938 15.710938-15.710938h480.578124c8.679688 0 15.710938 7.03125 15.710938 15.710938zm0 0" fill="#465365"/><path d="m65.710938 60.820312c-8.679688 0-15.710938 7.03125-15.710938 15.710938v309.289062h-14.679688c-22.441406-38.058593-35.320312-82.441406-35.320312-129.820312v-179.46875c0-8.679688 7.03125-15.710938 15.710938-15.710938zm0 0" fill="#3e4959"/><path d="m25 349.855469v-253.078125c0-6.050782 4.910156-10.960938 10.960938-10.960938h440.078124c6.054688 0 10.960938 4.910156 10.960938 10.960938v253.078125c0 6.054687-4.90625 10.960937-10.960938 10.960937h-440.078124c-6.050782 0-10.960938-4.90625-10.960938-10.960937zm0 0" fill="#fff"/><path d="m241.050781 57.8125v19.910156.007813 283.089843h-146.46875v-303.007812c0-4.75 3.847657-8.601562 8.597657-8.601562h129.269531c4.75 0 8.601562 3.851562 8.601562 8.601562zm0 0" fill="#13adb2"/><path d="m145.789062 49.210938v311.609374h-51.207031v-303.007812c0-4.75 3.847657-8.601562 8.597657-8.601562zm0 0" fill="#16c6cc"/><g fill="#21d8de"><path d="m153.410156 257.484375c0 4.203125-3.410156 7.613281-7.617187 7.613281h-51.214844v-15.230468h51.214844c4.207031 0 7.617187 3.410156 7.617187 7.617187zm0 0"/><path d="m174.695312 214.304688c0 4.207031-3.410156 7.613281-7.617187 7.613281h-72.5v-15.226563h72.5c4.207031-.003906 7.617187 3.40625 7.617187 7.613282zm0 0"/><path d="m153.410156 171.125c0 4.207031-3.410156 7.617188-7.617187 7.617188h-51.214844v-15.230469h51.214844c4.207031 0 7.617187 3.410156 7.617187 7.613281zm0 0"/><path d="m174.695312 127.949219c0 4.203125-3.410156 7.613281-7.617187 7.613281h-72.5v-15.230469h72.5c4.207031 0 7.617187 3.410157 7.617187 7.617188zm0 0"/><path d="m153.410156 84.769531c0 4.207031-3.410156 7.613281-7.617187 7.613281h-51.214844v-15.226562h51.214844c4.207031 0 7.617187 3.410156 7.617187 7.613281zm0 0"/></g><path d="m417.421875 198.800781v162.019531h-122.390625v-162.019531l6.710938-17.691406 24.167968-63.660156 6.082032-16.007813 2.96875-7.832031c.898437-.179687 1.808593-.359375 2.710937-.519531 6.386719-1.128906 12.867187-1.6875 19.339844-1.679688 7.136719.011719 14.269531.71875 21.289062 2.140625l2.929688 7.890625 33.03125 88.847656zm0 0" fill="#ffd55c"/><path d="m417.421875 198.800781v162.019531h-122.390625v-162.019531l6.710938-17.691406 24.167968-63.660156 6.082032-16.007813 2.96875-7.832031c.898437-.179687 1.808593-.359375 2.710937-.519531 6.398437-1.128906 12.867187-1.699219 19.339844-1.6875v.007812l-3.8125 10.03125-19.019531 50.109375-8.570313 22.570313-8.617187 22.710937c-.5 1.296875-.75 2.679688-.75 4.070313 0 3.078125 1.238281 6.027344 3.429687 8.167968.160156.152344.320313.300782.476563.441407l6.601562 5.777343 21.058594-20.179687c2.28125-2.179687 5.261718-3.378906 8.421875-3.378906 3.148437 0 6.128906 1.199219 8.410156 3.378906l21.058594 20.179687 28.5625-25zm0 0" fill="#ffc640"/><path d="m381.234375 101.4375-17.511719-47.117188c-2.378906-6.390624-11.410156-6.421874-13.828125-.046874l-17.90625 47.164062zm0 0" fill="#3e4959"/><path d="m417.421875 198.800781v162.019531h-122.390625v-162.019531l20.628906 18.058594 8.820313 7.722656c.71875.628907 1.628906.929688 2.53125.898438.128906 0 .25-.007813.378906-.03125.089844-.007813.179687-.019531.269531-.039063.011719-.007812.019532-.007812.039063-.007812.101562-.023438.191406-.050782.292969-.082032.097656-.03125.207031-.058593.308593-.109374.410157-.171876.800781-.410157 1.140625-.738282l24.238282-23.242187c1.421874-1.359375 3.671874-1.359375 5.089843 0l24.242188 23.242187c.320312.308594.6875.539063 1.078125.707032.089844.050781.179687.082031.28125.109374.289062.101563.597656.171876.910156.183594.949219.078125 1.929688-.222656 2.699219-.890625zm0 0" fill="#f15424"/><path d="m385.28125 225.472656v135.347656h-58.269531v-135.339843c.128906 0 .25-.007813.378906-.03125.089844-.007813.179687-.019531.269531-.039063.011719-.007812.019532-.007812.039063-.007812.089843-.023438.191406-.050782.292969-.082032.097656-.03125.207031-.070312.308593-.109374.410157-.171876.800781-.410157 1.140625-.738282l24.238282-23.242187c1.421874-1.359375 3.671874-1.359375 5.089843 0l24.242188 23.242187c.320312.308594.6875.539063 1.078125.707032.089844.042968.179687.082031.28125.109374.300781.101563.597656.160157.910156.183594zm0 0" fill="#ff6d3b"/><path d="m367.367188 64.125-3.644532-9.804688c-2.378906-6.390624-11.410156-6.421874-13.828125-.046874l-17.90625 47.164062h21.214844zm0 0" fill="#242d3c"/><path d="m334.082031 149.460938c-2.265625-37.589844-53.046875-122.84375-67.972656-147.171876-1.871094-3.050781-6.308594-3.050781-8.183594 0-14.925781 24.328126-65.707031 109.582032-67.972656 147.171876-2.65625 44.089843 32.691406 89.953124 32.691406 89.953124h78.746094s35.347656-45.863281 32.691406-89.953124zm0 0" fill="#fff"/><path d="m215.25 149.460938c1.933594-32.109376 39.265625-98.992188 59.414062-132.976563-3.4375-5.800781-6.378906-10.648437-8.554687-14.195313-1.875-3.050781-6.308594-3.050781-8.183594 0-14.925781 24.328126-65.707031 109.582032-67.972656 147.171876-2.65625 44.089843 32.691406 89.953124 32.691406 89.953124h25.292969c.003906 0-35.34375-45.863281-32.6875-89.953124zm0 0" fill="#f2f2f2"/><path d="m217.039062 249.242188h89.960938v111.578124h-89.960938zm0 0" fill="#465365"/><path d="m217.039062 249.242188h25.292969v111.578124h-25.292969zm0 0" fill="#3e4959"/><path d="m311.734375 270.351562h-99.429687c-2.964844 0-5.367188-2.402343-5.367188-5.367187v-31.496094c0-2.964843 2.402344-5.367187 5.367188-5.367187h99.429687c2.964844 0 5.367187 2.402344 5.367187 5.367187v31.496094c0 2.964844-2.402343 5.367187-5.367187 5.367187zm0 0" fill="#21d8de"/><path d="m232.230469 264.984375v-31.496094c0-2.964843 2.40625-5.367187 5.367187-5.367187h-25.292968c-2.964844 0-5.367188 2.402344-5.367188 5.367187v31.496094c0 2.964844 2.402344 5.367187 5.367188 5.367187h25.292968c-2.960937 0-5.367187-2.402343-5.367187-5.367187zm0 0" fill="#16c6cc"/><path d="m334.082031 149.460938c-2.265625-37.589844-53.046875-122.84375-67.972656-147.171876-1.871094-3.050781-6.308594-3.050781-8.183594 0-9.925781 16.175782-35.703125 59.296876-52.53125 97.429688 13.789063-28.796875 48.734375-5.238281 50.25 36.496094 1.519531 41.734375 34.417969 55.394531 51.355469 41.734375 15.964844-12.871094 24.765625-2.222657 21.226562 10.273437 4.042969-12.230468 6.652344-25.574218 5.855469-38.761718zm0 0" fill="#ff6d3b"/><path d="m234.578125 91.152344c12.730469-27.339844 29.007813-55.976563 40.089844-74.667969-3.441407-5.800781-6.382813-10.648437-8.558594-14.195313-1.871094-3.050781-6.308594-3.050781-8.183594 0-9.925781 16.175782-35.703125 59.296876-52.53125 97.429688 6.777344-14.152344 18.664063-15.652344 29.183594-8.566406zm0 0" fill="#f15424"/><path d="m75 349.855469v-253.078125c0-6.050782 4.910156-10.960938 10.960938-10.960938h-50c-6.050782 0-10.960938 4.910156-10.960938 10.960938v253.078125c0 6.054687 4.910156 10.960937 10.960938 10.960937h50c-6.050782 0-10.960938-4.90625-10.960938-10.960937zm0 0" fill="#f2f2f2"/><path d="m73.101562 435.097656h365.796876c14.488281-14.792968 27.191406-31.332031 37.769531-49.28125h-441.335938c10.578125 17.945313 23.285157 34.488282 37.769531 49.28125zm0 0" fill="#f2f2f2"/><path d="m367.996094 479.5c0-4.695312-3.804688-8.5-8.496094-8.5h-206.996094c-4.695312 0-8.5 3.804688-8.5 8.5v6.753906c33.832032 16.488282 71.832032 25.746094 111.996094 25.746094 40.167969 0 78.167969-9.257812 111.996094-25.746094zm0 0" fill="#f2f2f2"/><path d="m144.003906 479.5v6.753906c15.835938 7.71875 32.589844 13.84375 50.054688 18.183594-.035156-.308594-.054688-.617188-.054688-.9375v-24c0-4.695312 3.804688-8.5 8.496094-8.5h-50c-4.691406 0-8.496094 3.804688-8.496094 8.5zm0 0" fill="#d9d8d7"/></svg>