<?xml version="1.0" encoding="utf-8"?>
<!-- Generator: Adobe Illustrator 24.0.2, SVG Export Plug-In . SVG Version: 6.00 Build 0)  -->
<svg version="1.1" id="Camada_1" xmlns="http://www.w3.org/2000/svg" xmlns:xlink="http://www.w3.org/1999/xlink" x="0px" y="0px"
	 viewBox="0 0 595.3 841.9" style="enable-background:new 0 0 595.3 841.9;" xml:space="preserve">
<style type="text/css">
	.st0{fill:#060608;}
	.st1{fill:#FDEA1B;}
</style>
<g>
	<path class="st0" d="M291,221.1c43.7,11.7,82.7,34.6,124.1,51.7c16.7,6.9,18.8,19.8,16.1,33c-1.5,7.3-3.7,14.4-5.7,21.6
		c-1.1,3.9,0.1,7.1,2.5,10.1c4.2,5.4,8.4,10.7,10.1,17.5c1.7,6.7-1.6,11.6-8.5,11.1c-11-0.8-21.6-3.6-31-9.6c-6-3.8-7.6-9.9-5-17
		c1.1-2.9,2.7-5.7,4.2-8.4c1.4-2.6,3-5.1,4.5-7.6c-1.4-1.5-2.3-0.1-3.1,0.4c-10.5,6.3-21,12.7-31.5,19.1c-1.9,1.1-3,2.2-2.8,4.7
		c2.4,25.6-8.4,45.4-28.4,60c-23.8,17.5-50.4,24.9-79.8,17.3c-22.6-5.9-36.2-24.2-36.7-47.5c-0.2-11.8,1.8-23.2,5.4-34.3
		c1-3.1,0.2-4.5-2.1-6.1c-20.7-14.7-41.3-29.6-62-44.3c-5.7-4.1-9.3-9.2-8.1-16.4c1.1-6.7,6-10.3,11.9-12.1
		c31.1-9.6,60.7-22.7,90.1-36.5c5.8-2.7,12.1-3.9,17.8-6.6C279,221.1,285,221.1,291,221.1z M297,351.2c8,0.3,15.6-3.1,23-6.9
		c26.9-13.7,52.5-29.9,79.1-44.3c2.5-1.4,4.8-3.3,4.6-6.6c-0.2-3.2-2.8-4.9-5.4-6c-30.2-12.9-59.8-27.1-90.3-39.2
		c-15.2-6-30.2-6.7-45.5,0c-23.1,10.1-46.3,20-70,28.5c-2.4,0.9-4.8,2-5.1,4.9c-0.3,2.9,1.9,4.3,4,5.8c10.1,7.3,20.2,14.6,30.4,21.8
		c16.5,11.8,32.5,24.2,50.2,34.2C279.5,347.7,287.4,351.2,297,351.2z M276.2,412.1c7.2,0.2,13.9-1.6,20.3-4.6
		c24.9-11.9,40.5-32.7,53.8-55.8c0.5-0.8,1.3-1.9,0.3-2.7c-1-0.9-2.2-0.1-3.1,0.5c-6,3.6-12,7.1-17.8,10.9
		c-20.6,13.5-41.1,13.3-61.5-0.4c-0.6-0.4-1.1-0.7-1.7-1.1c-8.1-5.3-16.1-10.6-24.2-15.8c-4-2.5-5.8-1.9-6.3,2.1
		c-1.7,14.8-0.6,29.3,5.5,43C248.1,403.2,259.3,412,276.2,412.1z"/>
	<path class="st0" d="M537.9,509.9c-1.9,0.7-1.2,2.6-1.6,3.8c-3.4,10.9-10.1,18.9-20.7,23.4c-13.4,5.8-27.6,6.4-41.5,3.7
		c-23.3-4.6-27.8-20.7-25.7-39.6c1.3-12.3,9.5-19.1,20.4-23.4c9.2-3.6,19.1-4,28.7-5.8c3.5-0.7,6.8-1.5,9.7-3.6
		c4.4-3.2,3.9-8.6-1-10.6c-7-2.8-14.2-3-21.4-0.8c-0.8,0.2-1.8,0.6-2.1,1.2c-3.5,6.2-9.5,4.6-14.9,4.7c-4,0-8,0-12,0
		c-5.3,0-5.6-0.4-4.1-5.7c2.7-9.9,9-16.8,18.2-21.1c6.2-2.9,12.9-4,19.8-4.2c8.7-0.3,17.2,0.2,25.6,2.4c11.1,3,18.9,9.7,22.8,20.7
		C537.9,473.3,537.9,491.6,537.9,509.9z M510.4,488.8c-7.9,3-15.8,4.6-23.7,6.5c-2.2,0.5-4.4,1.5-6.3,2.7c-4.1,2.6-4.9,6.8-4.5,11.3
		c0.3,4,2.2,6.9,5.9,8.4c10.4,4.2,23.6-1.8,27.2-12.5C510.8,500,510.8,494.6,510.4,488.8z"/>
	<path class="st0" d="M44.2,414c3.7-7.4,9.5-10.6,18-10.4c25.6,0.4,51.3,0.2,76.9,0c3.9,0,5.3,0.9,5,5c-0.4,5.3-0.3,10.7,0,16
		c0.2,3.7-1.2,4.5-4.6,4.4c-20.5-0.1-41,0-61.4-0.2c-3.7,0-4.9,0.8-4.7,4.6c0.4,5.8,0.3,11.7,0,17.5c-0.2,3.7,0.8,4.9,4.6,4.8
		c14.2-0.2,28.3,0.1,42.5-0.2c4.8-0.1,5.9,1.5,5.7,5.9c-0.2,5-0.1,10-3.7,14.1c-3.1,3.6-7,5.4-11.8,5.4c-10.8-0.1-21.7,0.2-32.5-0.1
		c-4.1-0.1-4.9,1.3-4.8,5c0.2,16.6,0,33.3,0.2,49.9c0,3.4-0.8,4.7-4.4,4.5c-8.3-0.3-16.6-0.3-25-0.4C44.2,497.9,44.2,455.9,44.2,414
		z"/>
	<path class="st0" d="M445,503.7c0,10.7-0.2,21.3,0.1,32c0.1,3.9-1.2,4.9-4.8,4.6c-3.5-0.3-7,0.1-10.5-0.1
		c-8.6-0.3-13.8-5.7-13.8-14.3c0-17.3,0-34.6,0-51.9c0-14.2-12.4-21.9-25.5-16.2c-8,3.5-9.1,10.3-9.2,17.7
		c-0.1,19.8-0.2,39.6,0.1,59.4c0.1,4.5-1.2,5.7-5.6,5.5c-6.3-0.4-12.7-0.4-19,0c-4.2,0.2-4.9-1.3-4.9-5.1c0.2-20.6,0-41.3,0.1-61.9
		c0-7-2.2-12.3-8.7-15.4c-7.1-3.3-13.9-2.6-20.1,2.2c-4.4,3.4-5.2,8.3-5.2,13.4c0,20.6-0.1,41.3,0.1,61.9c0,4-1.1,5.1-5,4.9
		c-7-0.3-14-0.2-21-0.1c-2.6,0-4-0.6-3.9-3.6c0.4-21.6-0.8-43.3,0.6-64.9c1.4-23.4,11-33.2,34.9-38.6c14.6-3.3,29.1-2,42,6.7
		c1.7,1.1,2.6,0.4,3.9-0.4c18.3-11.1,44.9-10.2,62.1,2.4c9.9,7.2,12.6,18,13.2,29.4C445.3,482,444.9,492.9,445,503.7
		C444.9,503.7,444.9,503.7,445,503.7z"/>
	<path class="st0" d="M176.3,431.6c26.4,0.1,44.1,15.5,47.8,41.8c1.8,13,1.5,25.8-2.9,38.3c-6.2,17.8-18.9,27.6-37.3,29.9
		c-9.7,1.2-19.4,0.3-28.8-3.5c-16.9-6.8-24.1-20.3-26.8-37.1c-1.7-10.6-1.7-21.1,0.7-31.7C134.7,444.1,150.4,431.6,176.3,431.6z
		 M156.1,485.4c-0.4,6,0.5,12,2.1,17.7c1.4,4.8,3.5,9.2,8.3,11.9c11.4,6.2,23.5,1.2,27.4-11.9c2.9-9.7,3.2-19.7,1-29.6
		c-2.3-10.3-10-16.8-18.9-16.7c-9.8,0.2-16.6,6.4-18.9,17.2C156.2,477.8,155.8,481.6,156.1,485.4z"/>
	<path class="st0" d="M227.1,507.2c0.6-10.5-1.2-23,1.7-35.3c5.1-21.3,19.7-34.3,41.6-36.9c4.6-0.6,9.2-1,13.9-1
		c2.7,0,3.9,0.7,3.8,3.6c-0.2,7.7-0.2,15.3,0,23c0.1,3.1-1.2,3.5-3.8,3.5c-4-0.1-7.9-0.2-11.9,0.6c-10.1,2-15.2,7.5-15.3,17.7
		c-0.2,17.5-0.3,34.9-0.1,52.4c0,4.4-1.1,5.9-5.6,5.6c-6.3-0.4-12.7-0.3-19,0c-4,0.2-5.6-0.8-5.4-5.1
		C227.4,526.5,227.1,517.8,227.1,507.2z"/>
	<path class="st1" d="M297,351.2c-9.6,0.1-17.5-3.5-25-7.7c-17.7-10-33.7-22.5-50.2-34.2c-10.2-7.2-20.2-14.6-30.4-21.8
		c-2.1-1.5-4.3-2.9-4-5.8c0.3-2.9,2.7-4,5.1-4.9c23.8-8.5,46.9-18.4,70-28.5c15.3-6.7,30.3-6,45.5,0c30.5,12.1,60.1,26.3,90.3,39.2
		c2.6,1.1,5.2,2.8,5.4,6c0.2,3.2-2.1,5.2-4.6,6.6c-26.5,14.4-52.1,30.6-79.1,44.3C312.6,348.1,305,351.4,297,351.2z"/>
	<path class="st1" d="M276.2,412.1c-16.9-0.1-28.1-9-34.7-23.8c-6.1-13.7-7.2-28.2-5.5-43c0.5-4,2.4-4.6,6.3-2.1
		c8.1,5.2,16.2,10.5,24.2,15.8c0.6,0.4,1.1,0.7,1.7,1.1c20.4,13.7,40.9,13.9,61.5,0.4c5.8-3.8,11.9-7.3,17.8-10.9
		c1-0.6,2.1-1.4,3.1-0.5c0.9,0.8,0.2,1.8-0.3,2.7c-13.3,23.1-29,43.9-53.8,55.8C290.1,410.5,283.4,412.3,276.2,412.1z"/>
</g>
</svg>
