<?xml version="1.0" encoding="utf-8"?>
<!-- Generator: Adobe Illustrator 23.0.3, SVG Export Plug-In . SVG Version: 6.00 Build 0)  -->
<svg version="1.1" id="Camada_1" focusable="false" xmlns="http://www.w3.org/2000/svg" xmlns:xlink="http://www.w3.org/1999/xlink"
	 x="0px" y="0px" viewBox="0 0 610.6 543.7" style="enable-background:new 0 0 610.6 543.7;" xml:space="preserve">
<style type="text/css">
	.st0{fill:#04D361;}
	.st1{fill:#FFFFFF;}
</style>
<g transform="translate(74.384 0)">
	<g transform="translate(0 0)">
		<path class="st0" d="M444.4,132.2c-63.8-35-128.3-70.8-192.1-105.8c-13.1-7-28.9-7-42,0C146.5,61.5,82.8,97.2,19,132.2
			c-12.4,6.6-20.4,19.4-21,33.4v213.1c0.2,14.6,8.6,27.9,21.8,34.2c17.9,9.3,35,19.4,52.9,28.8l104.2,57.6l31.9,17.9
			c2.2,1.4,4.5,2.4,7,3.1l3.1,1.6h0.8c10.7,2.9,22,1.8,31.9-3.1c63.8-35,127.6-70.8,191.3-105.8c13.1-6.5,21.5-19.6,21.8-34.2V165.7
			C464.2,151.8,456.6,139.1,444.4,132.2z M168.3,371l-49.8,45.9c-0.6,0.6-1.5,0.9-2.3,0.8h-0.8c-0.8-0.2-1.2-1-1-1.8
			c0.1-0.2,0.1-0.3,0.2-0.5l17.9-65.3c1.7-7.2,7-13.1,14-15.6l0.8-0.8c1.8-0.5,3.8-0.2,5.4,0.8c3.1,2.3,5.4,3.9,8.6,6.2
			c2.9,2.1,6.1,3.9,9.3,5.4c1.9,0.8,3.1,2.6,3.1,4.7l1.6,1.6C176.1,359.4,173.5,366.3,168.3,371L168.3,371z M219.6,325.9
			c-0.8,0-0.8,0.8-1.6,0.8l-15.6-1.6c-1.7-0.2-3.4,0.4-4.7,1.6l-17.1,15.6c-0.6,0.6-1.5,0.9-2.3,0.8c-8.3-3.7-16.1-8.4-23.3-14
			c-0.8-0.8-1.6-1.6-0.8-2.3l5.4-22.6c0.5-1.6,0.2-3.3-0.8-4.7l-8.6-13.2c0-0.8-0.8-0.8-0.8-1.6c0-1.6,0.8-3.1,0.8-5.4v-0.8l0,0
			c0,0,0.8-0.8,0.8,0c7,4.7,36.6,22.6,36.6,22.6s29.6,17.9,36.6,22.6c0.6,0.6,0.9,1.5,0.8,2.3L219.6,325.9z M323.9,183.6l0.8,0.8
			l15.6,2.3h0.8c3.1,0.8,7,4.7,1.6,11.7L277.2,287c-0.9,0.6-2,0.9-3.1,0.8l-26.4-16.3c-2.6-1.6-5.9-1.6-8.6,0l-8.6,5.4
			c-2.6,1.6-5.9,1.6-8.6,0c-5-3.8-12.1-3.1-16.3,1.6c-11.1,8.6-26.4,9.3-38.1,1.6l-35-21.8l-1.6-1.6l0,0c-4.3-3.6-4.8-10-1.3-14.2
			c0.2-0.2,0.3-0.4,0.5-0.5l0,0c3.3-5.3,10.2-7,15.6-3.9l7,3.9h0.8c0.8,0.8,1.6,0,1.6-0.8l1.6-9.3c0-0.8,0-1.6-0.8-1.6l-1.6-0.8
			c-3-2.1-4.1-6.1-2.3-9.3c1.7-3,5.5-4.1,8.5-2.4c0,0,0,0,0,0l47.4,28.8h0.8c0.8,0.8,1.6,0,2.3-0.8l49-66.9c2-2.6,5.3-3.8,8.6-3.1
			l12.4,1.6l8.6,1.6c0,0.8,0.8,0,0.8,0c0.8-0.8,0.8-0.8,0-0.8c-3.2-2.4-3.8-6.9-1.6-10.1l16.3-22.6c1.9-2.3,4.8-3.4,7.8-3.1
			l31.1,4.7c1.2,0,2.4,0.6,3.1,1.6l0.8,0.8c1.6,1.6,0.8,3.9-0.8,5.4c0,0-15.6,21-21,28.8v0.8C322.3,182,322.3,182.8,323.9,183.6
			L323.9,183.6z"/>
		<path class="st1" d="M295.1,50.6C319.2,31.9,332.4,28,352.7,28c5.9,0,11.8,1.3,17.1,3.9c17.9,10.1,25.7,40.4,20.2,84l25.7,14
			c8.6-62.2-3.1-105-33.4-122.1c-9.5-5.3-20.2-8-31.1-7.8c-27.2,0-49,7.8-83.2,35C278,40.5,286.5,45.9,295.1,50.6z"/>
		<path class="st1" d="M-2,322.8c-35.8-17.1-44.3-31.1-44.3-50.6c0-20.2,20.2-39.7,56.8-56.8v-31.1C-44,206.9-74.4,238-74.4,271.5
			c0,34.2,17.9,58.3,72.3,80.9L-2,322.8z"/>
		<path class="st1" d="M70.3,103.5c-4.7-42.8,3.1-60.7,21.8-70.8c5.1-3.1,11.1-4.5,17.1-3.9c20.2,0,43.6,10.9,67.7,29.6l25.7-14
			c-33.4-27.2-66.9-42.8-94.1-42.8C97.5,1.4,86.8,4.1,77.3,9.4C47,27.2,34.5,56.8,43.9,119C53.2,112.8,61.8,108.1,70.3,103.5z"/>
		<path class="st1" d="M463.9,192.1v29.6c35.8,17.1,44.3,31.1,44.3,50.6c0,20.2-20.2,39.7-56.8,56.8v31.1
			c54.4-22.6,84.8-53.7,84.8-87.1C536.2,238.8,519.1,214.7,463.9,192.1z"/>
		<path class="st1" d="M167.5,493.2c-24.1,18.7-37.3,22.6-57.6,22.6c-5.9,0-11.8-1.3-17.1-3.9c-18.7-10.1-25.7-41.2-20.2-84
			c-8.6-4.7-17.9-9.3-26.4-14.8c-8.6,61.4,3.1,104.2,32.7,121.3c9.5,5.3,20.2,8,31.1,7.8c27.2,0.8,49.8-7,84-34.2L167.5,493.2z"/>
		<path class="st1" d="M391.6,441c4.7,42.8-3.9,60.7-21.8,70.8c-5.1,3.1-11.1,4.5-17.1,3.9c-20.2,0-43.6-10.9-68.4-29.6
			c-8.6,4.7-17.1,9.3-26.4,14c34.2,28,66.9,43.6,94.9,43.6c10.9,0.2,21.6-2.5,31.1-7.8c30.3-17.9,43.6-47.4,33.4-109.7
			C409.4,430.9,400.1,435.6,391.6,441z"/>
	</g>
</g>
</svg>
