<?xml version="1.0" encoding="iso-8859-1"?>
<!-- Generator: Adobe Illustrator 19.0.0, SVG Export Plug-In . SVG Version: 6.00 Build 0)  -->
<svg version="1.1" id="Capa_1" xmlns="http://www.w3.org/2000/svg" xmlns:xlink="http://www.w3.org/1999/xlink" x="0px" y="0px"
	 viewBox="0 0 512 512" style="enable-background:new 0 0 512 512;" xml:space="preserve">
<g>
	<rect x="401.6" y="289.776" style="fill:#CACACA;" width="45.952" height="220.64"/>
	<rect x="64.48" y="289.776" style="fill:#CACACA;" width="45.952" height="220.64"/>
</g>
<g style="opacity:0.12;">
	<rect x="401.6" y="289.776" style="fill:#010101;" width="45.952" height="41.024"/>
	<rect x="64.48" y="289.776" style="fill:#010101;" width="45.952" height="41.024"/>
</g>
<rect y="1.584" style="fill:#FFCC5B;" width="512" height="312.208"/>
<path style="fill:#FDBC4B;" d="M0,1.584v120.272c0,9.856,7.984,17.84,17.824,17.84s17.824-7.984,17.824-17.824v-23.84
	c0-8.24,6.752-14.96,14.992-14.912h0.192c0.368,0,0.736-0.016,1.088-0.032c8.128-0.496,14.976,5.952,14.976,14.096v48.672
	c0,9.648,7.232,18.304,16.88,18.816c10.288,0.544,18.784-7.632,18.784-17.808v-26.848c0-8.288,6.752-14.992,15.04-14.944h1.04h0.208
	c8.736-0.048,15.872,7.04,15.872,15.76v38.56c0,9.648,7.232,18.304,16.864,18.816c10.288,0.544,18.784-7.632,18.784-17.808V88.896
	c0-8.624,7.232-15.04,15.856-14.944c0.064,0,0.144,0,0.208,0s0.144,0,0.208,0c8.608-0.096,15.856,6.32,15.856,14.944v32.192
	c0,9.648,7.232,18.304,16.864,18.816c10.288,0.544,18.784-7.648,18.784-17.808V60.672c0-10.16,8.512-18.336,18.784-17.808
	c9.648,0.512,16.88,9.152,16.88,18.816v103.84c0,9.84,7.984,17.824,17.824,17.824s17.824-7.984,17.824-17.824V98.016
	c0-8.24,6.752-14.96,14.992-14.912h0.192c10.832,0,16.064,6.4,16.064,14.064v39.936c0,9.648,7.232,18.304,16.864,18.816
	c10.288,0.544,18.784-7.632,18.784-17.808v-18.096c0-8.288,6.752-14.992,15.04-14.944c11.2,0.064,17.104,7.568,17.104,15.76v3.632
	c0,9.664,7.232,18.304,16.88,18.816c10.288,0.544,18.784-7.632,18.784-17.808V88.896c0-8.624,7.232-15.04,15.856-14.944
	c0.08,0,0.144,0,0.208,0c9.776,0,16.064,7.008,16.064,14.944v14.736c0,9.648,7.232,18.304,16.864,18.816
	C503.488,122.976,512,114.8,512,104.64V1.6H0V1.584z"/>
<rect x="43.648" y="59.792" style="fill:#E95454;" width="195.808" height="195.808"/>
<path style="fill:#ED6362;" d="M43.648,158.672c0,8.096,6.56,14.656,14.656,14.656s14.656-6.56,14.656-14.656v-19.6
	c0-6.784,5.552-12.304,12.32-12.256h0.16c0.304,0,0.608-0.016,0.896-0.032c6.688-0.4,12.32,4.896,12.32,11.584v40.016
	c0,7.936,5.936,15.056,13.872,15.472c8.448,0.448,15.456-6.288,15.456-14.64v-22.064c0-6.816,5.552-12.336,12.368-12.288h0.848
	h0.176c7.152-0.032,13.024,5.792,13.024,12.96v31.696c0,7.936,5.936,15.056,13.872,15.472c8.448,0.448,15.44-6.288,15.44-14.64
	v-58.784c0-7.088,5.952-12.368,13.04-12.288c0.064,0,0.112,0,0.176,0s0.112,0,0.176,0c7.088-0.08,13.04,5.2,13.04,12.288v26.464
	c0,7.936,5.952,15.056,13.872,15.472c8.448,0.448,15.44-6.288,15.44-14.64V59.792H43.648V158.672z"/>
<g>
	<path style="fill:#FFFFFF;" d="M477.184,170.064c0-8.832-7.168-16-16-16H301.136c-8.832,0-16,7.168-16,16s7.168,16,16,16h160.048
		C470.016,186.064,477.184,178.912,477.184,170.064z"/>
	<path style="fill:#FFFFFF;" d="M461.184,209.104h-78.752c-8.832,0-16,7.168-16,16s7.168,16,16,16h78.752c8.832,0,16-7.168,16-16
		C477.184,216.272,470.016,209.104,461.184,209.104z"/>
	<path style="fill:#FFFFFF;" d="M144.144,201.76h-19.36l-7.696-20.016H81.856l-7.28,20.016h-18.88l34.32-88.128h18.816
		L144.144,201.76z M111.376,166.896l-12.144-32.704l-11.904,32.704H111.376z"/>
	<path style="fill:#FFFFFF;" d="M153.52,113.632h32.528c7.328,0,12.928,0.56,16.768,1.68c5.168,1.52,9.6,4.224,13.28,8.112
		s6.496,8.64,8.416,14.272c1.92,5.632,2.88,12.576,2.88,20.832c0,7.248-0.896,13.504-2.704,18.752
		c-2.208,6.416-5.344,11.6-9.44,15.568c-3.088,3.008-7.248,5.344-12.512,7.04c-3.92,1.248-9.168,1.856-15.744,1.856H153.52V113.632z
		 M171.312,128.544v58.368h13.28c4.976,0,8.56-0.272,10.768-0.848c2.88-0.72,5.28-1.936,7.184-3.664s3.456-4.56,4.656-8.512
		c1.2-3.952,1.808-9.328,1.808-16.144s-0.608-12.048-1.808-15.696s-2.88-6.496-5.056-8.528c-2.16-2.048-4.912-3.424-8.24-4.144
		c-2.48-0.56-7.36-0.848-14.608-0.848h-7.984V128.544z"/>
</g>
<g>
</g>
<g>
</g>
<g>
</g>
<g>
</g>
<g>
</g>
<g>
</g>
<g>
</g>
<g>
</g>
<g>
</g>
<g>
</g>
<g>
</g>
<g>
</g>
<g>
</g>
<g>
</g>
<g>
</g>
</svg>
