<?xml version="1.0" encoding="iso-8859-1"?>
<!-- Generator: Adobe Illustrator 19.0.0, SVG Export Plug-In . SVG Version: 6.00 Build 0)  -->
<svg version="1.1" id="Layer_1" xmlns="http://www.w3.org/2000/svg" xmlns:xlink="http://www.w3.org/1999/xlink" x="0px" y="0px"
	 viewBox="0 0 512 512" style="enable-background:new 0 0 512 512;" xml:space="preserve">
<g>
	<path style="fill:#ECF0F1;" d="M0,105.931v386.763C0,503.358,8.642,512,19.315,512h104.271h264.828h104.28
		c10.664,0,19.306-8.642,19.306-19.306V105.931H0z"/>
	<path style="fill:#35495E;" d="M512,105.931H0V16.525C0,7.398,7.398,0,16.525,0h478.949C504.602,0,512,7.398,512,16.525V105.931z"
		/>
	<path style="fill:#B1B4B5;" d="M485.517,105.931v386.763c0,10.664-8.642,19.306-19.315,19.306h26.483
		c10.673,0,19.315-8.642,19.315-19.306V105.931H485.517z"/>
	<path style="fill:#F4F7F7;" d="M26.483,105.931v386.763c0,10.664,8.642,19.306,19.315,19.306H19.315C8.642,512,0,503.358,0,492.694
		V105.931H26.483z"/>
	<path style="fill:#283747;" d="M495.474,0h-26.483c9.128,0,16.525,7.398,16.525,16.525v89.406h26.483V16.525
		C511.999,7.398,504.602,0,495.474,0"/>
	<path style="fill:#5D6D7E;" d="M16.526,0h26.483c-9.128,0-16.525,7.398-16.525,16.534v89.397H0.001V16.525
		C0.001,7.398,7.398,0,16.526,0"/>
	<path style="fill:#E64C3C;" d="M79.448,52.966c0,14.627-11.855,26.483-26.483,26.483S26.483,67.593,26.483,52.966
		s11.855-26.483,26.483-26.483S79.448,38.338,79.448,52.966"/>
	<path style="fill:#F0C419;" d="M158.897,52.966c0,14.627-11.855,26.483-26.483,26.483s-26.483-11.855-26.483-26.483
		s11.855-26.483,26.483-26.483S158.897,38.338,158.897,52.966"/>
	<path style="fill:#24AE5F;" d="M238.345,52.966c0,14.627-11.855,26.483-26.483,26.483c-14.627,0-26.483-11.855-26.483-26.483
		s11.855-26.483,26.483-26.483C226.489,26.483,238.345,38.338,238.345,52.966"/>
	<path style="fill:#BDC3C7;" d="M256,441.379h-13.753c-2.339,0-4.334-1.713-4.687-4.025c-4.281-27.842-36.573-41.225-59.304-24.558
		c-1.889,1.377-4.502,1.183-6.162-0.477l-15.96-15.951c-1.598-1.615-1.836-4.131-0.565-6.02l2.692-3.972
		c15.457-22.819,1.871-53.963-25.37-58.156l-5.279-0.812c-2.322-0.353-4.025-2.348-4.025-4.687v-22.563
		c0-2.278,1.624-4.237,3.858-4.661l4.705-0.909c27.065-5.199,39.477-36.829,23.181-59.057l-3.16-4.308
		c-1.377-1.889-1.183-4.502,0.477-6.162l15.96-15.951c1.598-1.615,4.122-1.854,6.012-0.574l3.972,2.692
		c22.819,15.457,53.963,1.871,58.147-25.37l0.821-5.279c0.353-2.313,2.348-4.025,4.687-4.025H256h13.753
		c2.339,0,4.334,1.713,4.696,4.025l0.812,5.279c4.184,27.242,35.328,40.828,58.147,25.37l3.972-2.692
		c1.889-1.28,4.414-1.042,6.012,0.574l15.96,15.951c1.66,1.66,1.863,4.273,0.477,6.162l-3.16,4.308
		c-16.296,22.228-3.884,53.857,23.181,59.057l4.705,0.909c2.242,0.424,3.858,2.383,3.858,4.661v22.563
		c0,2.339-1.704,4.334-4.025,4.687l-5.279,0.812c-27.242,4.193-40.828,35.337-25.37,58.156l2.692,3.972
		c1.271,1.889,1.042,4.405-0.565,6.02l-15.96,15.951c-1.66,1.66-4.273,1.854-6.162,0.477c-22.722-16.666-55.022-3.284-59.295,24.558
		c-0.362,2.313-2.357,4.025-4.696,4.025H256z"/>
	<path style="fill:#FFFFFF;" d="M300.138,308.966c0,24.373-19.756,44.138-44.138,44.138s-44.138-19.765-44.138-44.138
		s19.756-44.138,44.138-44.138S300.138,284.593,300.138,308.966"/>
	<path style="fill:#24AE5F;" d="M61.793,441.379H44.138c-4.882,0-8.828-3.955-8.828-8.828s3.946-8.828,8.828-8.828h17.655
		c4.882,0,8.828,3.955,8.828,8.828S66.675,441.379,61.793,441.379"/>
	<path style="fill:#4482C3;" d="M132.414,476.69h-17.655c-4.882,0-8.828-3.955-8.828-8.828s3.946-8.828,8.828-8.828h17.655
		c4.882,0,8.828,3.955,8.828,8.828S137.295,476.69,132.414,476.69"/>
	<path style="fill:#F0C419;" d="M132.414,441.379h-35.31c-4.882,0-8.828-3.955-8.828-8.828s3.946-8.828,8.828-8.828h35.31
		c4.882,0,8.828,3.955,8.828,8.828S137.295,441.379,132.414,441.379"/>
	<path style="fill:#D75D72;" d="M88.276,476.69H44.138c-4.882,0-8.828-3.955-8.828-8.828s3.946-8.828,8.828-8.828h44.138
		c4.882,0,8.828,3.955,8.828,8.828S93.158,476.69,88.276,476.69"/>
	<path style="fill:#894B9D;" d="M61.793,158.897H44.138c-4.882,0-8.828-3.955-8.828-8.828c0-4.873,3.946-8.828,8.828-8.828h17.655
		c4.882,0,8.828,3.955,8.828,8.828C70.621,154.942,66.675,158.897,61.793,158.897"/>
	<path style="fill:#E64C3C;" d="M132.414,194.207h-17.655c-4.882,0-8.828-3.955-8.828-8.828c0-4.873,3.946-8.828,8.828-8.828h17.655
		c4.882,0,8.828,3.955,8.828,8.828C141.241,190.252,137.295,194.207,132.414,194.207"/>
	<path style="fill:#24AE5F;" d="M132.414,158.897h-35.31c-4.882,0-8.828-3.955-8.828-8.828c0-4.873,3.946-8.828,8.828-8.828h35.31
		c4.882,0,8.828,3.955,8.828,8.828C141.241,154.942,137.295,158.897,132.414,158.897"/>
	<path style="fill:#F0C419;" d="M88.276,194.207H44.138c-4.882,0-8.828-3.955-8.828-8.828c0-4.873,3.946-8.828,8.828-8.828h44.138
		c4.882,0,8.828,3.955,8.828,8.828C97.103,190.252,93.158,194.207,88.276,194.207"/>
	<path style="fill:#E64C3C;" d="M397.241,441.379h-17.655c-4.882,0-8.828-3.955-8.828-8.828s3.946-8.828,8.828-8.828h17.655
		c4.882,0,8.828,3.955,8.828,8.828S402.123,441.379,397.241,441.379"/>
	<path style="fill:#24AE5F;" d="M467.862,476.69h-17.655c-4.882,0-8.828-3.955-8.828-8.828s3.946-8.828,8.828-8.828h17.655
		c4.882,0,8.828,3.955,8.828,8.828S472.744,476.69,467.862,476.69"/>
	<path style="fill:#894B9D;" d="M467.862,441.379h-35.31c-4.882,0-8.828-3.955-8.828-8.828s3.946-8.828,8.828-8.828h35.31
		c4.882,0,8.828,3.955,8.828,8.828S472.744,441.379,467.862,441.379"/>
	<g>
		<path style="fill:#F0C419;" d="M423.724,476.69h-44.138c-4.882,0-8.828-3.955-8.828-8.828s3.946-8.828,8.828-8.828h44.138
			c4.882,0,8.828,3.955,8.828,8.828S428.606,476.69,423.724,476.69"/>
		<path style="fill:#F0C419;" d="M397.241,158.897h-17.655c-4.882,0-8.828-3.955-8.828-8.828c0-4.873,3.946-8.828,8.828-8.828
			h17.655c4.882,0,8.828,3.955,8.828,8.828C406.069,154.942,402.123,158.897,397.241,158.897"/>
	</g>
	<path style="fill:#894B9D;" d="M467.862,194.207h-17.655c-4.882,0-8.828-3.955-8.828-8.828c0-4.873,3.946-8.828,8.828-8.828h17.655
		c4.882,0,8.828,3.955,8.828,8.828C476.69,190.252,472.744,194.207,467.862,194.207"/>
	<path style="fill:#E64C3C;" d="M467.862,158.897h-35.31c-4.882,0-8.828-3.955-8.828-8.828c0-4.873,3.946-8.828,8.828-8.828h35.31
		c4.882,0,8.828,3.955,8.828,8.828C476.69,154.942,472.744,158.897,467.862,158.897"/>
	<path style="fill:#24AE5F;" d="M423.724,194.207h-44.138c-4.882,0-8.828-3.955-8.828-8.828c0-4.873,3.946-8.828,8.828-8.828h44.138
		c4.882,0,8.828,3.955,8.828,8.828C432.552,190.252,428.606,194.207,423.724,194.207"/>
</g>
<g>
</g>
<g>
</g>
<g>
</g>
<g>
</g>
<g>
</g>
<g>
</g>
<g>
</g>
<g>
</g>
<g>
</g>
<g>
</g>
<g>
</g>
<g>
</g>
<g>
</g>
<g>
</g>
<g>
</g>
</svg>
