<?xml version="1.0" encoding="iso-8859-1"?>
<!-- Generator: Adobe Illustrator 19.0.0, SVG Export Plug-In . SVG Version: 6.00 Build 0)  -->
<svg version="1.1" id="Capa_1" xmlns="http://www.w3.org/2000/svg" xmlns:xlink="http://www.w3.org/1999/xlink" x="0px" y="0px"
	 viewBox="0 0 512 512" style="enable-background:new 0 0 512 512;" xml:space="preserve">
<rect y="53.944" style="fill:#FF0000;" width="512" height="62.856"/>
<rect y="116.792" width="512" height="341.264"/>
<g>
	<path style="fill:#999999;" d="M51.432,184.104h-0.176l-9.784,5.272l-1.472-5.8L52.288,177h6.496v56.256h-7.36v-49.152H51.432z"/>
	<path style="fill:#999999;" d="M116.712,204.528c0,19.128-7.096,29.688-19.552,29.688c-10.992,0-18.44-10.296-18.608-28.904
		c0-18.864,8.136-29.256,19.552-29.256C109.96,176.048,116.712,186.616,116.712,204.528z M86.16,205.392
		c0,14.624,4.496,22.936,11.424,22.936c7.792,0,11.504-9.096,11.504-23.464c0-13.84-3.544-22.928-11.424-22.928
		C91.008,181.944,86.16,190.072,86.16,205.392z"/>
	<path style="fill:#999999;" d="M140.272,184.104h-0.168l-9.784,5.272l-1.472-5.8L141.136,177h6.496v56.256h-7.36V184.104z"/>
	<path style="fill:#999999;" d="M205.552,204.528c0,19.128-7.096,29.688-19.552,29.688c-10.992,0-18.44-10.296-18.608-28.904
		c0-18.864,8.136-29.256,19.552-29.256C198.8,176.048,205.552,186.616,205.552,204.528z M175.008,205.392
		c0,14.624,4.496,22.936,11.424,22.936c7.792,0,11.504-9.096,11.504-23.464c0-13.84-3.544-22.928-11.424-22.928
		C179.848,181.944,175.008,190.072,175.008,205.392z"/>
	<path style="fill:#999999;" d="M229.112,184.104h-0.168l-9.784,5.272l-1.472-5.8L229.976,177h6.496v56.256h-7.36V184.104z"/>
	<path style="fill:#999999;" d="M294.4,204.528c0,19.128-7.096,29.688-19.552,29.688c-10.992,0-18.44-10.296-18.608-28.904
		c0-18.864,8.136-29.256,19.552-29.256C287.648,176.048,294.4,186.616,294.4,204.528z M263.848,205.392
		c0,14.624,4.496,22.936,11.424,22.936c7.792,0,11.504-9.096,11.504-23.464c0-13.84-3.544-22.928-11.424-22.928
		C268.696,181.944,263.848,190.072,263.848,205.392z"/>
	<path style="fill:#999999;" d="M317.96,184.104h-0.168l-9.784,5.272l-1.472-5.8L318.824,177h6.496v56.256h-7.36L317.96,184.104
		L317.96,184.104z"/>
	<path style="fill:#999999;" d="M383.24,204.528c0,19.128-7.096,29.688-19.552,29.688c-10.992,0-18.44-10.296-18.608-28.904
		c0-18.864,8.136-29.256,19.552-29.256C376.488,176.048,383.24,186.616,383.24,204.528z M352.696,205.392
		c0,14.624,4.496,22.936,11.424,22.936c7.792,0,11.504-9.096,11.504-23.464c0-13.84-3.544-22.928-11.424-22.928
		C357.536,181.944,352.696,190.072,352.696,205.392z"/>
	<path style="fill:#999999;" d="M406.808,184.104h-0.168l-9.784,5.272l-1.472-5.8L407.672,177h6.496v56.256h-7.36L406.808,184.104
		L406.808,184.104z"/>
	<path style="fill:#999999;" d="M472.096,204.528c0,19.128-7.096,29.688-19.552,29.688c-10.992,0-18.44-10.296-18.608-28.904
		c0-18.864,8.136-29.256,19.552-29.256C465.344,176.048,472.096,186.616,472.096,204.528z M441.544,205.392
		c0,14.624,4.496,22.936,11.424,22.936c7.792,0,11.504-9.096,11.504-23.464c0-13.84-3.544-22.928-11.424-22.928
		C446.392,181.944,441.544,190.072,441.544,205.392z"/>
	<path style="fill:#999999;" d="M51.432,348.584h-0.176l-9.784,5.272l-1.472-5.8l12.288-6.576h6.496v56.256h-7.36v-49.152H51.432z"
		/>
	<path style="fill:#999999;" d="M116.712,369c0,19.128-7.096,29.688-19.552,29.688c-10.992,0-18.44-10.296-18.608-28.904
		c0-18.864,8.136-29.256,19.552-29.256C109.96,340.528,116.712,351.088,116.712,369z M86.16,369.872
		c0,14.624,4.496,22.936,11.424,22.936c7.792,0,11.504-9.096,11.504-23.464c0-13.84-3.544-22.928-11.424-22.928
		C91.008,346.416,86.16,354.552,86.16,369.872z"/>
	<path style="fill:#999999;" d="M140.272,348.584h-0.168l-9.784,5.272l-1.472-5.8l12.288-6.576h6.496v56.256h-7.36V348.584z"/>
	<path style="fill:#999999;" d="M205.552,369c0,19.128-7.096,29.688-19.552,29.688c-10.992,0-18.44-10.296-18.608-28.904
		c0-18.864,8.136-29.256,19.552-29.256C198.8,340.528,205.552,351.088,205.552,369z M175.008,369.872
		c0,14.624,4.496,22.936,11.424,22.936c7.792,0,11.504-9.096,11.504-23.464c0-13.84-3.544-22.928-11.424-22.928
		C179.848,346.416,175.008,354.552,175.008,369.872z"/>
	<path style="fill:#999999;" d="M229.112,348.584h-0.168l-9.784,5.272l-1.472-5.8l12.288-6.576h6.496v56.256h-7.36V348.584z"/>
	<path style="fill:#999999;" d="M294.4,369c0,19.128-7.096,29.688-19.552,29.688c-10.992,0-18.44-10.296-18.608-28.904
		c0-18.864,8.136-29.256,19.552-29.256C287.648,340.528,294.4,351.088,294.4,369z M263.848,369.872
		c0,14.624,4.496,22.936,11.424,22.936c7.792,0,11.504-9.096,11.504-23.464c0-13.84-3.544-22.928-11.424-22.928
		C268.696,346.416,263.848,354.552,263.848,369.872z"/>
	<path style="fill:#999999;" d="M317.96,348.584h-0.168l-9.784,5.272l-1.472-5.8l12.288-6.576h6.496v56.256h-7.36L317.96,348.584
		L317.96,348.584z"/>
	<path style="fill:#999999;" d="M383.24,369c0,19.128-7.096,29.688-19.552,29.688c-10.992,0-18.44-10.296-18.608-28.904
		c0-18.864,8.136-29.256,19.552-29.256C376.488,340.528,383.24,351.088,383.24,369z M352.696,369.872
		c0,14.624,4.496,22.936,11.424,22.936c7.792,0,11.504-9.096,11.504-23.464c0-13.84-3.544-22.928-11.424-22.928
		C357.536,346.416,352.696,354.552,352.696,369.872z"/>
	<path style="fill:#999999;" d="M406.808,348.584h-0.168l-9.784,5.272l-1.472-5.8l12.288-6.576h6.496v56.256h-7.36L406.808,348.584
		L406.808,348.584z"/>
	<path style="fill:#999999;" d="M472.096,369c0,19.128-7.096,29.688-19.552,29.688c-10.992,0-18.44-10.296-18.608-28.904
		c0-18.864,8.136-29.256,19.552-29.256C465.344,340.528,472.096,351.088,472.096,369z M441.544,369.872
		c0,14.624,4.496,22.936,11.424,22.936c7.792,0,11.504-9.096,11.504-23.464c0-13.84-3.544-22.928-11.424-22.928
		C446.392,346.416,441.544,354.552,441.544,369.872z"/>
</g>
<g>
	<path style="fill:#FFFFFF;" d="M51.432,266.36h-0.176l-9.784,5.272l-1.464-5.792l12.288-6.576h6.496v56.256h-7.36
		C51.432,315.52,51.432,266.36,51.432,266.36z"/>
	<path style="fill:#FFFFFF;" d="M116.712,286.784c0,19.128-7.096,29.688-19.552,29.688c-10.992,0-18.44-10.296-18.608-28.904
		c0-18.864,8.136-29.256,19.552-29.256C109.96,258.312,116.712,268.872,116.712,286.784z M86.16,287.656
		c0,14.624,4.496,22.936,11.424,22.936c7.792,0,11.504-9.096,11.504-23.464c0-13.84-3.544-22.928-11.424-22.928
		C91.008,264.2,86.16,272.336,86.16,287.656z"/>
	<path style="fill:#FFFFFF;" d="M140.272,266.36h-0.168l-9.784,5.272l-1.472-5.8l12.288-6.576h6.496v56.256h-7.36V266.36z"/>
	<path style="fill:#FFFFFF;" d="M205.552,286.784c0,19.128-7.096,29.688-19.552,29.688c-10.992,0-18.44-10.296-18.608-28.904
		c0-18.864,8.136-29.256,19.552-29.256C198.8,258.312,205.552,268.872,205.552,286.784z M175.008,287.656
		c0,14.624,4.496,22.936,11.424,22.936c7.792,0,11.504-9.096,11.504-23.464c0-13.84-3.544-22.928-11.424-22.928
		C179.848,264.2,175.008,272.336,175.008,287.656z"/>
	<path style="fill:#FFFFFF;" d="M229.112,266.36h-0.168l-9.784,5.272l-1.472-5.8l12.288-6.576h6.496v56.256h-7.36V266.36z"/>
	<path style="fill:#FFFFFF;" d="M294.4,286.784c0,19.128-7.096,29.688-19.552,29.688c-10.992,0-18.44-10.296-18.608-28.904
		c0-18.864,8.136-29.256,19.552-29.256C287.648,258.312,294.4,268.872,294.4,286.784z M263.848,287.656
		c0,14.624,4.496,22.936,11.424,22.936c7.792,0,11.504-9.096,11.504-23.464c0-13.84-3.544-22.928-11.424-22.928
		C268.696,264.2,263.848,272.336,263.848,287.656z"/>
	<path style="fill:#FFFFFF;" d="M317.96,266.36h-0.168l-9.784,5.272l-1.472-5.8l12.288-6.576h6.496v56.256h-7.36L317.96,266.36
		L317.96,266.36z"/>
	<path style="fill:#FFFFFF;" d="M383.24,286.784c0,19.128-7.096,29.688-19.552,29.688c-10.992,0-18.44-10.296-18.608-28.904
		c0-18.864,8.136-29.256,19.552-29.256C376.488,258.312,383.24,268.872,383.24,286.784z M352.696,287.656
		c0,14.624,4.496,22.936,11.424,22.936c7.792,0,11.504-9.096,11.504-23.464c0-13.84-3.544-22.928-11.424-22.928
		C357.536,264.2,352.696,272.336,352.696,287.656z"/>
	<path style="fill:#FFFFFF;" d="M406.808,266.36h-0.168l-9.784,5.272l-1.472-5.8l12.288-6.576h6.496v56.256h-7.36L406.808,266.36
		L406.808,266.36z"/>
	<path style="fill:#FFFFFF;" d="M472.096,286.784c0,19.128-7.096,29.688-19.552,29.688c-10.992,0-18.44-10.296-18.608-28.904
		c0-18.864,8.136-29.256,19.552-29.256C465.344,258.312,472.096,268.872,472.096,286.784z M441.544,287.656
		c0,14.624,4.496,22.936,11.424,22.936c7.792,0,11.504-9.096,11.504-23.464c0-13.84-3.544-22.928-11.424-22.928
		C446.392,264.2,441.544,272.336,441.544,287.656z"/>
</g>
<g>
</g>
<g>
</g>
<g>
</g>
<g>
</g>
<g>
</g>
<g>
</g>
<g>
</g>
<g>
</g>
<g>
</g>
<g>
</g>
<g>
</g>
<g>
</g>
<g>
</g>
<g>
</g>
<g>
</g>
</svg>
