<svg height="512" viewBox="0 0 50 58" width="512" xmlns="http://www.w3.org/2000/svg"><g id="Page-1" fill="none" fill-rule="evenodd"><g id="022---Coding" fill-rule="nonzero" transform="translate(0 -1)"><path id="Shape" d="m45 46h-40l-5 7v3c0 1.6568542 1.34314575 3 3 3h44c1.6568542 0 3-1.3431458 3-3v-3z" fill="#3f5c6c"/><path id="Shape" d="m45 25v21l-20 2-20-2v-21c.0032948-1.1032019.89679813-1.9967052 2-2h36c1.1032019.0032948 1.9967052.8967981 2 2z" fill="#2fa8cc"/><path id="Shape" d="m43.38 23.04c-7.47.3-38.38 2.74-38.38 22.96v-21c.0032948-1.1032019.89679813-1.9967052 2-2h36c.127818-.0020785.2554163.0113529.38.04z" fill="#67b9cc"/><path id="Shape" d="m50 53h-16l-1-3h-16l-1 3h-16l5-7h40z" fill="#547580"/><path id="Shape" d="m34 53-2 2h-14l-2-2 1-3h16z" fill="#95a5a5"/><path id="Shape" d="m44 15c0 6.5-6.01 11.96-14.15 13.54l-4.85 6.46-4.85-6.46c-8.14-1.58-14.15-7.04-14.15-13.54 0-5.04 3.63-9.45 9.04-11.91v-.01c3.1339854-1.39473166 6.5297566-2.10388871 9.96-2.08 10.49 0 19 6.27 19 14z" fill="#f29c1f"/><g fill="#fff"><path id="Shape" d="m19 22c-.2388157-.0000216-.4697389-.0855093-.651-.241l-7-6c-.2214665-.1899799-.3489094-.4672128-.3489094-.759s.1274429-.5690201.3489094-.759l7-6c.2690133-.24854487.6523779-.33014085.9992902-.21269068.3469124.11745018.6018621.41515297.66456.77600154.0626979.36084858-.0768884.72710251-.3638502.95468914l-6.112 5.241 6.114 5.241c.3175561.2724081.4319592.7137113.2867417 1.1060886s-.5193543.6528735-.9377417.6529114z"/><path id="Shape" d="m31 22c-.4183874-.0000379-.7925242-.2605341-.9377417-.6529114s-.0308144-.8336805.2867417-1.1060886l6.114-5.241-6.114-5.241c-.2869618-.22758663-.4265481-.59384056-.3638502-.95468914.0626979-.36084857.3176476-.65855136.66456-.77600154.3469123-.11745017.7302769-.03585419.9992902.21269068l7 6c.2214665.1899799.3489094.4672128.3489094.759s-.1274429.5690201-.3489094.759l-7 6c-.1807386.1550435-.4108725.2405016-.649.241z"/><path id="Shape" d="m23 23c-.0871056-.0001716-.1738238-.0115996-.258-.034-.5334562-.1425559-.8504065-.6905039-.708-1.224l4-15c.1496294-.52484865.6924394-.83279479 1.2197184-.69196873.5272789.14082605.8442649.67840714.7122816 1.20796873l-4 15c-.1168397.4375352-.513133.7419344-.966.742z"/></g><path id="Shape" d="m39 36h-28c-.5522847 0-1-.4477153-1-1s.4477153-1 1-1h28c.5522847 0 1 .4477153 1 1s-.4477153 1-1 1z" fill="#285680"/></g></g></svg>