<?xml version="1.0" encoding="utf-8"?>
<!-- Generator: Adobe Illustrator 24.0.2, SVG Export Plug-In . SVG Version: 6.00 Build 0)  -->
<svg version="1.1" xmlns="http://www.w3.org/2000/svg" xmlns:xlink="http://www.w3.org/1999/xlink" x="0px" y="0px"
	 viewBox="0 0 360.9 376.1" style="enable-background:new 0 0 360.9 376.1;" xml:space="preserve">
<style type="text/css">
	.st0{fill:#51389E;}
	.st1{fill:#44177F;}
	.st2{fill:#2D1772;}
	.st3{fill:#FFFFFF;}
	.st4{fill:#5B1BBF;}
	.st5{fill:#5C22A8;}
	.st6{fill:url(#SVGID_1_);}
	.st7{fill:#F2F0E4;}
	.st8{fill:#5A1582;}
	.st9{fill:url(#SVGID_2_);}
	.st10{fill:#000A2D;}
	.st11{fill:#ACBEE9;}
	.st12{fill:#8B8BF7;}
	.st13{fill:#EDEDF2;}
	.st14{fill:#303072;}
	.st15{fill:#6C63FF;}
	.st16{fill:#D7D7E2;}
	.st17{fill:#282A36;}
	.st18{fill:#4E587B;}
	.st19{fill:#D7F8F2;}
	.st20{fill:#F279BD;}
	.st21{fill:#FFAE91;}
	.st22{fill:#281F17;}
	.st23{fill:#19193A;}
	.st24{fill:#3E3E96;}
</style>
<symbol  id="New_Symbol" viewBox="-52.8 -66.6 105.6 133.2">
	<path class="st0" d="M52.8-12.6c-0.6,53.1-18.7,91-55.5,75.8C-31.3,51.4-27.3,1,10-22.6C35.8-38.9,53-29.6,52.8-12.6z"/>
	<path class="st1" d="M-3.3-34.1c-12.6,14-38.5,21.8-47.1,1.6c-10.1-23.5,14.8-35.2,33.5-34.1C15.7-64.6,5.2-43.5-3.3-34.1z"/>
</symbol>
<symbol  id="New_Symbol_1" viewBox="-27 -28.6 54 57.2">
	<path class="st2" d="M-23.5,24c-8.4-8.3-0.9-34.3,13-45.8C14.4-42.6,34.7-10.3,24.2,6.9C10.4,29.4-14.3,33-23.5,24z"/>
</symbol>
<g id="Camada_2">
	<path class="st3" d="M237,327c-6.6,2.2-9.3,17.9-4.9,27.6c7.8,17.4,26.9,5.6,25.7-6.2C256.3,332.9,244.2,324.6,237,327z"/>
	<path class="st3" d="M306.5,284.2c11.4-22.2,19.4-49,23.7-76.8c29.4-35.2,40.3-69.8-2.1-112c-8.5-38.1-25.9-67-52.2-73.6
		c-33.3-8.3-51.6,2.1-74.7,22C166.2,14.2,97.8,32.8,63.6,88.4c-15.4,25.1-22.9,59-23.6,89.3c-27.4,50,1.6,98.8,44.3,103.2
		c22.7,75,92.3,102.9,139.6,38.5c1.5-2,3-4,4.5-6C262,326.8,283,330,306.5,284.2z"/>
	<path class="st3" d="M49,65.8c10,1.9,17.3-7.3,10.3-24.2C49.2,17.1,19.9,9.5,9.9,25.2C-2.9,45.4,17.7,60,49,65.8z"/>
	<path class="st3" d="M88,30.2c2.6-11-1.7-26.9-16.7-23.3c-12.8,3-10.9,19.1-3.9,28C72.1,40.9,83.5,49.3,88,30.2z"/>
	<g>
		<path class="st4" d="M298.4,70.8C212.6,9.9,83.5,55.5,77,219.6c-4.7,117.7,88.2,179.7,146.8,99.9
			C293.5,224.6,436.2,168.8,298.4,70.8z"/>
		
			<use xlink:href="#New_Symbol_1"  width="54" height="57.2" id="XMLID_2_" x="-27" y="-28.6" transform="matrix(0.5285 0.2576 0.2576 -0.5285 243.2481 345.7097)" style="overflow:visible;"/>
		<path class="st5" d="M91.3,281.3c-63.5,0.8-103.5-95.9,8.8-159.9C203,62.7,209.8,5.4,276,21.9c66.2,16.5,75.7,174.6,30.6,262.4
			S225.7,279.6,91.3,281.3z"/>
		<radialGradient id="SVGID_1_" cx="276.5455" cy="59.635" r="238.8181" gradientUnits="userSpaceOnUse">
			<stop  offset="0" style="stop-color:#A942E4"/>
			<stop  offset="0.7386" style="stop-color:#8E42D0"/>
			<stop  offset="1" style="stop-color:#7B1BD0"/>
		</radialGradient>
		<path class="st6" d="M328.2,95.5c-8-7.9-17.8-16.1-29.8-24.6C267.9,49.2,232,41,198,46.8c-22,19.3-48.9,46.5-97,74.1
			c-13.7,26-22.5,58.9-24.1,98.7c-0.9,22.8,1.8,43.5,7.3,61.4c2.3,0.2,4.7,0.4,7.1,0.3c64.3-0.8,106,20,137,32.2
			c31.2-40.1,74.6-73.3,101.9-106C336.3,169.2,335.7,128.8,328.2,95.5z"/>
		<path class="st7" d="M87.8,291.2H63.6V40h142.4c5.9-4.9,11.6-9,17.4-12.3H51.2v276h42C91.2,299.7,89.4,295.5,87.8,291.2z"/>
		<path class="st7" d="M289.5,27.6c5.1,3.2,9.8,7.3,14.1,12.3h11.3v251.3h-12.1c-2.7,4.7-5.4,8.8-8.1,12.3h32.6v-276H289.5z"/>
		<path class="st8" d="M93.1,237.2c72.3-70.5,172.4-112.3,116.2-184.9C177.8,11.4,100.6,28.2,63.6,88.4
			C21.6,156.6,38.1,290.8,93.1,237.2z"/>
		
			<use xlink:href="#New_Symbol"  width="105.6" height="133.2" id="XMLID_1_" x="-52.8" y="-66.6" transform="matrix(-0.1036 0.5909 -0.5909 -0.1036 46.9755 33.3218)" style="overflow:visible;"/>
		<radialGradient id="SVGID_2_" cx="174.8272" cy="47.2877" r="144.9455" gradientUnits="userSpaceOnUse">
			<stop  offset="0" style="stop-color:#7230C2"/>
			<stop  offset="0.4525" style="stop-color:#7230A6"/>
			<stop  offset="1" style="stop-color:#602291"/>
		</radialGradient>
		<path class="st9" d="M203.6,45.9c-1.9,0.2-3.7,0.5-5.6,0.8c-22,19.3-48.9,46.5-97,74.1c-13.7,26-22.5,58.9-24.1,98.7
			c-0.4,9.8-0.1,19.3,0.8,28.3c4.7-1.9,9.8-5.3,15.3-10.7c72.3-70.5,172.4-112.3,116.2-184.9C207.6,50,205.6,47.9,203.6,45.9z"/>
	</g>
</g>
<g id="Camada_1">
	<polygon class="st10" points="116.2,225.4 109.8,285.5 112.7,285.5 123.8,225.4 	"/>
	<polygon class="st10" points="246.1,225.4 252.5,285.5 249.6,285.5 238.5,225.4 	"/>
	<ellipse class="st11" cx="181.8" cy="320.3" rx="76.5" ry="27.7"/>
	<polygon class="st12" points="294.7,238.6 68.8,238.6 82.5,213.4 276.2,213.4 	"/>
	<polygon class="st12" points="96.1,243.3 89.7,303.4 92.7,303.4 103.8,243.3 	"/>
	<polygon class="st12" points="264.9,243.3 271.3,303.4 268.3,303.4 257.2,243.3 	"/>
	<g>
		<polygon class="st13" points="138.6,227.3 138.8,229.5 224.3,229.5 225,227.3 		"/>
		<g>
			<path class="st3" d="M223.9,223.6c0.9,2.6-0.6,4.7-3.4,4.7h-77.4c-2.8,0-4.4-2.2-3.7-4.8l0.7-2.6c0.7-2.7,3.6-4.8,6.3-4.8l70,0.3
				c2.7,0,5.7,2.2,6.6,4.8L223.9,223.6z"/>
		</g>
	</g>
	<rect x="68.8" y="238.6" class="st14" width="225.9" height="5.5"/>
	<g>
		<g>
			<circle class="st3" cx="181.8" cy="81.5" r="21.7"/>
		</g>
	</g>
	<path class="st15" d="M181.3,82.3l-9.6-15c-0.3-0.4-0.1-0.9,0.3-1.2c0.4-0.3,0.9-0.1,1.2,0.3l9.1,14.2l14.4-0.1c0,0,0,0,0,0
		c0.5,0,0.8,0.4,0.9,0.8c0,0.5-0.4,0.9-0.8,0.9L181.3,82.3z"/>
	<g>
		<g>
			<circle class="st3" cx="130.6" cy="81.5" r="21.7"/>
		</g>
	</g>
	<path class="st15" d="M120.3,91c-0.2,0-0.5-0.1-0.7-0.3c-0.3-0.4-0.3-0.9,0.1-1.2l9.8-8.2l-8.6-14c-0.2-0.4-0.1-0.9,0.3-1.2
		c0.4-0.2,0.9-0.1,1.2,0.3l9.3,15.3l-10.9,9.1C120.7,90.9,120.5,91,120.3,91z"/>
	<g>
		<g>
			<circle class="st3" cx="232.9" cy="81.5" r="21.7"/>
		</g>
	</g>
	<path class="st15" d="M243.9,91.5c-0.2,0-0.4-0.1-0.5-0.2l-11-9.3l-0.1-0.1l-9.9-14.5c-0.3-0.4-0.2-0.9,0.2-1.2
		c0.4-0.3,0.9-0.2,1.2,0.2l9.9,14.4l10.9,9.2c0.4,0.3,0.4,0.8,0.1,1.2C244.4,91.4,244.1,91.5,243.9,91.5z"/>
	<g>
		<g>
			<path class="st13" d="M116.8,199.4c0,0,0.3,4.9-0.7,8.2c-1.7,5.5-6.5,6.1-6.5,9c0,0.1,30.2,0.1,30.2,0c0-2.8-4.6-3.7-6.1-8.8
				c-1.2-3.8-0.5-8.4-0.5-8.4H116.8z"/>
			<rect x="109.6" y="216.6" class="st16" width="30.2" height="1.3"/>
		</g>
		<g>
			<g>
				<path class="st3" d="M178,187.2c0,8.3-6.8,15-15,15H86.4c-8.3,0-15-6.8-15-15v-42.9c0-8.3,6.8-15,15-15H163c8.3,0,15,6.8,15,15
					V187.2z"/>
			</g>
			<rect x="76" y="134.1" class="st17" width="97.3" height="56.9"/>
		</g>
		<circle class="st15" cx="124.7" cy="196.6" r="2.4"/>
	</g>
	<g>
		<path class="st18" d="M94,143.1H88c-0.2,0-0.4-0.2-0.4-0.4s0.2-0.4,0.4-0.4H94c0.2,0,0.4,0.2,0.4,0.4S94.2,143.1,94,143.1z"/>
		<path class="st19" d="M109.3,143.1H96.1c-0.2,0-0.4-0.2-0.4-0.4s0.2-0.4,0.4-0.4h13.2c0.2,0,0.4,0.2,0.4,0.4
			S109.5,143.1,109.3,143.1z"/>
		<path class="st19" d="M144.2,143.1h-8.8c-0.2,0-0.4-0.2-0.4-0.4s0.2-0.4,0.4-0.4h8.8c0.2,0,0.4,0.2,0.4,0.4
			S144.4,143.1,144.2,143.1z"/>
		<path class="st20" d="M132.8,143.1h-20.5c-0.2,0-0.4-0.2-0.4-0.4s0.2-0.4,0.4-0.4h20.5c0.2,0,0.4,0.2,0.4,0.4
			S133,143.1,132.8,143.1z"/>
		<path class="st18" d="M97.4,146.1H88c-0.2,0-0.4-0.2-0.4-0.4c0-0.2,0.2-0.4,0.4-0.4h9.4c0.2,0,0.4,0.2,0.4,0.4
			C97.8,145.9,97.7,146.1,97.4,146.1z"/>
		<path class="st19" d="M114,146.1H99.6c-0.2,0-0.4-0.2-0.4-0.4c0-0.2,0.2-0.4,0.4-0.4H114c0.2,0,0.4,0.2,0.4,0.4
			C114.4,145.9,114.2,146.1,114,146.1z"/>
		<path class="st19" d="M149.6,146.1h-13.3c-0.2,0-0.4-0.2-0.4-0.4c0-0.2,0.2-0.4,0.4-0.4h13.3c0.2,0,0.4,0.2,0.4,0.4
			C150,145.9,149.8,146.1,149.6,146.1z"/>
		<path class="st19" d="M133.6,146.1h-16.8c-0.2,0-0.4-0.2-0.4-0.4c0-0.2,0.2-0.4,0.4-0.4h16.8c0.2,0,0.4,0.2,0.4,0.4
			C134,145.9,133.8,146.1,133.6,146.1z"/>
		<path class="st18" d="M98.2,149.5h-7c-0.2,0-0.4-0.2-0.4-0.4c0-0.2,0.2-0.4,0.4-0.4h7c0.2,0,0.4,0.2,0.4,0.4
			C98.5,149.3,98.4,149.5,98.2,149.5z"/>
		<path class="st19" d="M116.8,149.5h-16.5c-0.2,0-0.4-0.2-0.4-0.4c0-0.2,0.2-0.4,0.4-0.4h16.5c0.2,0,0.4,0.2,0.4,0.4
			C117.2,149.3,117,149.5,116.8,149.5z"/>
		<path class="st18" d="M93.3,152.5h-2.2c-0.2,0-0.4-0.2-0.4-0.4c0-0.2,0.2-0.4,0.4-0.4h2.2c0.2,0,0.4,0.2,0.4,0.4
			C93.7,152.3,93.5,152.5,93.3,152.5z"/>
		<path class="st20" d="M109.3,152.5h-13c-0.2,0-0.4-0.2-0.4-0.4c0-0.2,0.2-0.4,0.4-0.4h13c0.2,0,0.4,0.2,0.4,0.4
			C109.7,152.3,109.5,152.5,109.3,152.5z"/>
		<path class="st19" d="M136.1,152.5h-23.8c-0.2,0-0.4-0.2-0.4-0.4c0-0.2,0.2-0.4,0.4-0.4h23.8c0.2,0,0.4,0.2,0.4,0.4
			C136.4,152.3,136.3,152.5,136.1,152.5z"/>
		<path class="st18" d="M95.6,155.9h-4.5c-0.2,0-0.4-0.2-0.4-0.4c0-0.2,0.2-0.4,0.4-0.4h4.5c0.2,0,0.4,0.2,0.4,0.4
			C96,155.7,95.8,155.9,95.6,155.9z"/>
		<path class="st19" d="M108.3,155.9H98c-0.2,0-0.4-0.2-0.4-0.4c0-0.2,0.2-0.4,0.4-0.4h10.4c0.2,0,0.4,0.2,0.4,0.4
			C108.7,155.7,108.5,155.9,108.3,155.9z"/>
		<path class="st19" d="M167.1,155.9h-35.7c-0.2,0-0.4-0.2-0.4-0.4c0-0.2,0.2-0.4,0.4-0.4h35.7c0.2,0,0.4,0.2,0.4,0.4
			C167.4,155.7,167.3,155.9,167.1,155.9z"/>
		<path class="st19" d="M129,155.9h-18.4c-0.2,0-0.4-0.2-0.4-0.4c0-0.2,0.2-0.4,0.4-0.4H129c0.2,0,0.4,0.2,0.4,0.4
			C129.4,155.7,129.3,155.9,129,155.9z"/>
		<path class="st18" d="M97.8,159.3h-4.4c-0.2,0-0.4-0.2-0.4-0.4s0.2-0.4,0.4-0.4h4.4c0.2,0,0.4,0.2,0.4,0.4S98.1,159.3,97.8,159.3z
			"/>
		<path class="st19" d="M112.9,159.3H99.5c-0.2,0-0.4-0.2-0.4-0.4s0.2-0.4,0.4-0.4h13.4c0.2,0,0.4,0.2,0.4,0.4
			S113.1,159.3,112.9,159.3z"/>
		<path class="st19" d="M165.6,159.3h-41.5c-0.2,0-0.4-0.2-0.4-0.4s0.2-0.4,0.4-0.4h41.5c0.2,0,0.4,0.2,0.4,0.4
			S165.8,159.3,165.6,159.3z"/>
		<path class="st20" d="M121,159.3h-4.6c-0.2,0-0.4-0.2-0.4-0.4s0.2-0.4,0.4-0.4h4.6c0.2,0,0.4,0.2,0.4,0.4S121.2,159.3,121,159.3z"
			/>
		<path class="st18" d="M97.8,162.7h-4.4c-0.2,0-0.4-0.2-0.4-0.4s0.2-0.4,0.4-0.4h4.4c0.2,0,0.4,0.2,0.4,0.4S98.1,162.7,97.8,162.7z
			"/>
		<path class="st20" d="M110.6,162.7H99.5c-0.2,0-0.4-0.2-0.4-0.4s0.2-0.4,0.4-0.4h11.2c0.2,0,0.4,0.2,0.4,0.4
			S110.9,162.7,110.6,162.7z"/>
		<path class="st19" d="M120.6,162.7h-8.3c-0.2,0-0.4-0.2-0.4-0.4s0.2-0.4,0.4-0.4h8.3c0.2,0,0.4,0.2,0.4,0.4
			S120.8,162.7,120.6,162.7z"/>
		<path class="st18" d="M97.8,166.1h-4.4c-0.2,0-0.4-0.2-0.4-0.4c0-0.2,0.2-0.4,0.4-0.4h4.4c0.2,0,0.4,0.2,0.4,0.4
			C98.2,165.9,98.1,166.1,97.8,166.1z"/>
		<path class="st19" d="M104.7,166.1h-5.3c-0.2,0-0.4-0.2-0.4-0.4c0-0.2,0.2-0.4,0.4-0.4h5.3c0.2,0,0.4,0.2,0.4,0.4
			C105.1,165.9,105,166.1,104.7,166.1z"/>
		<path class="st19" d="M141.5,166.1h-21.5c-0.2,0-0.4-0.2-0.4-0.4c0-0.2,0.2-0.4,0.4-0.4h21.5c0.2,0,0.4,0.2,0.4,0.4
			C141.9,165.9,141.7,166.1,141.5,166.1z"/>
		<path class="st20" d="M116.8,166.1h-9.8c-0.2,0-0.4-0.2-0.4-0.4c0-0.2,0.2-0.4,0.4-0.4h9.8c0.2,0,0.4,0.2,0.4,0.4
			C117.2,165.9,117.1,166.1,116.8,166.1z"/>
		<path class="st18" d="M103.4,169.5h-3.9c-0.2,0-0.4-0.2-0.4-0.4c0-0.2,0.2-0.4,0.4-0.4h3.9c0.2,0,0.4,0.2,0.4,0.4
			C103.8,169.3,103.6,169.5,103.4,169.5z"/>
		<path class="st19" d="M115,169.5h-9.6c-0.2,0-0.4-0.2-0.4-0.4c0-0.2,0.2-0.4,0.4-0.4h9.6c0.2,0,0.4,0.2,0.4,0.4
			C115.4,169.3,115.2,169.5,115,169.5z"/>
		<path class="st19" d="M127,169.5h-9.8c-0.2,0-0.4-0.2-0.4-0.4c0-0.2,0.2-0.4,0.4-0.4h9.8c0.2,0,0.4,0.2,0.4,0.4
			C127.4,169.3,127.2,169.5,127,169.5z"/>
		<path class="st18" d="M102.3,172.9h-2.8c-0.2,0-0.4-0.2-0.4-0.4c0-0.2,0.2-0.4,0.4-0.4h2.8c0.2,0,0.4,0.2,0.4,0.4
			C102.7,172.8,102.5,172.9,102.3,172.9z"/>
		<path class="st19" d="M110,172.9h-6.5c-0.2,0-0.4-0.2-0.4-0.4c0-0.2,0.2-0.4,0.4-0.4h6.5c0.2,0,0.4,0.2,0.4,0.4
			C110.4,172.8,110.2,172.9,110,172.9z"/>
		<path class="st19" d="M149.6,172.9h-28.7c-0.2,0-0.4-0.2-0.4-0.4c0-0.2,0.2-0.4,0.4-0.4h28.7c0.2,0,0.4,0.2,0.4,0.4
			C150,172.8,149.8,172.9,149.6,172.9z"/>
		<path class="st19" d="M119.1,172.9h-6.8c-0.2,0-0.4-0.2-0.4-0.4c0-0.2,0.2-0.4,0.4-0.4h6.8c0.2,0,0.4,0.2,0.4,0.4
			C119.5,172.8,119.3,172.9,119.1,172.9z"/>
		<path class="st18" d="M103.8,176.4h-4.3c-0.2,0-0.4-0.2-0.4-0.4s0.2-0.4,0.4-0.4h4.3c0.2,0,0.4,0.2,0.4,0.4S104,176.4,103.8,176.4
			z"/>
		<path class="st19" d="M117.1,176.4h-11.6c-0.2,0-0.4-0.2-0.4-0.4s0.2-0.4,0.4-0.4h11.6c0.2,0,0.4,0.2,0.4,0.4
			S117.3,176.4,117.1,176.4z"/>
		<path class="st19" d="M147.5,176.4h-14.5c-0.2,0-0.4-0.2-0.4-0.4s0.2-0.4,0.4-0.4h14.5c0.2,0,0.4,0.2,0.4,0.4
			S147.7,176.4,147.5,176.4z"/>
		<path class="st19" d="M130.6,176.4h-10.9c-0.2,0-0.4-0.2-0.4-0.4s0.2-0.4,0.4-0.4h10.9c0.2,0,0.4,0.2,0.4,0.4
			S130.8,176.4,130.6,176.4z"/>
		<path class="st18" d="M103.8,179.8h-4.3c-0.2,0-0.4-0.2-0.4-0.4c0-0.2,0.2-0.4,0.4-0.4h4.3c0.2,0,0.4,0.2,0.4,0.4
			C104.2,179.6,104,179.8,103.8,179.8z"/>
		<path class="st19" d="M115,179.8h-9.6c-0.2,0-0.4-0.2-0.4-0.4c0-0.2,0.2-0.4,0.4-0.4h9.6c0.2,0,0.4,0.2,0.4,0.4
			C115.4,179.6,115.2,179.8,115,179.8z"/>
		<path class="st19" d="M143.6,179.8h-14.9c-0.2,0-0.4-0.2-0.4-0.4c0-0.2,0.2-0.4,0.4-0.4h14.9c0.2,0,0.4,0.2,0.4,0.4
			C144,179.6,143.8,179.8,143.6,179.8z"/>
		<path class="st19" d="M126.2,179.8h-9.6c-0.2,0-0.4-0.2-0.4-0.4c0-0.2,0.2-0.4,0.4-0.4h9.6c0.2,0,0.4,0.2,0.4,0.4
			C126.6,179.6,126.5,179.8,126.2,179.8z"/>
		<path class="st18" d="M103.8,183.2h-4.3c-0.2,0-0.4-0.2-0.4-0.4c0-0.2,0.2-0.4,0.4-0.4h4.3c0.2,0,0.4,0.2,0.4,0.4
			C104.2,183,104,183.2,103.8,183.2z"/>
		<path class="st18" d="M84.2,143.1h-1.5c-0.2,0-0.4-0.2-0.4-0.4s0.2-0.4,0.4-0.4h1.5c0.2,0,0.4,0.2,0.4,0.4S84.4,143.1,84.2,143.1z
			"/>
		<path class="st18" d="M84.2,146.1h-1.5c-0.2,0-0.4-0.2-0.4-0.4c0-0.2,0.2-0.4,0.4-0.4h1.5c0.2,0,0.4,0.2,0.4,0.4
			C84.6,145.9,84.4,146.1,84.2,146.1z"/>
		<path class="st18" d="M84.2,149.5h-1.5c-0.2,0-0.4-0.2-0.4-0.4c0-0.2,0.2-0.4,0.4-0.4h1.5c0.2,0,0.4,0.2,0.4,0.4
			C84.6,149.3,84.4,149.5,84.2,149.5z"/>
		<path class="st18" d="M84.2,152.5h-1.5c-0.2,0-0.4-0.2-0.4-0.4c0-0.2,0.2-0.4,0.4-0.4h1.5c0.2,0,0.4,0.2,0.4,0.4
			C84.6,152.3,84.4,152.5,84.2,152.5z"/>
		<path class="st18" d="M84.2,155.9h-1.5c-0.2,0-0.4-0.2-0.4-0.4c0-0.2,0.2-0.4,0.4-0.4h1.5c0.2,0,0.4,0.2,0.4,0.4
			C84.6,155.7,84.4,155.9,84.2,155.9z"/>
		<path class="st18" d="M84.2,159.3h-1.5c-0.2,0-0.4-0.2-0.4-0.4s0.2-0.4,0.4-0.4h1.5c0.2,0,0.4,0.2,0.4,0.4S84.4,159.3,84.2,159.3z
			"/>
		<path class="st18" d="M84.2,162.7h-1.5c-0.2,0-0.4-0.2-0.4-0.4s0.2-0.4,0.4-0.4h1.5c0.2,0,0.4,0.2,0.4,0.4S84.4,162.7,84.2,162.7z
			"/>
		<path class="st18" d="M84.2,166.1h-1.5c-0.2,0-0.4-0.2-0.4-0.4c0-0.2,0.2-0.4,0.4-0.4h1.5c0.2,0,0.4,0.2,0.4,0.4
			C84.6,165.9,84.4,166.1,84.2,166.1z"/>
		<path class="st18" d="M84.2,169.5h-1.5c-0.2,0-0.4-0.2-0.4-0.4c0-0.2,0.2-0.4,0.4-0.4h1.5c0.2,0,0.4,0.2,0.4,0.4
			C84.6,169.3,84.4,169.5,84.2,169.5z"/>
		<path class="st18" d="M84.2,172.9h-1.5c-0.2,0-0.4-0.2-0.4-0.4c0-0.2,0.2-0.4,0.4-0.4h1.5c0.2,0,0.4,0.2,0.4,0.4
			C84.6,172.8,84.4,172.9,84.2,172.9z"/>
		<path class="st18" d="M84.2,176.4h-1.5c-0.2,0-0.4-0.2-0.4-0.4s0.2-0.4,0.4-0.4h1.5c0.2,0,0.4,0.2,0.4,0.4S84.4,176.4,84.2,176.4z
			"/>
		<path class="st18" d="M84.2,179.8h-1.5c-0.2,0-0.4-0.2-0.4-0.4c0-0.2,0.2-0.4,0.4-0.4h1.5c0.2,0,0.4,0.2,0.4,0.4
			C84.6,179.6,84.4,179.8,84.2,179.8z"/>
		<path class="st18" d="M84.2,183.2h-1.5c-0.2,0-0.4-0.2-0.4-0.4c0-0.2,0.2-0.4,0.4-0.4h1.5c0.2,0,0.4,0.2,0.4,0.4
			C84.6,183,84.4,183.2,84.2,183.2z"/>
		<path class="st19" d="M111.1,183.2h-5.7c-0.2,0-0.4-0.2-0.4-0.4c0-0.2,0.2-0.4,0.4-0.4h5.7c0.2,0,0.4,0.2,0.4,0.4
			C111.5,183,111.3,183.2,111.1,183.2z"/>
		<path class="st20" d="M126.3,183.2h-14c-0.2,0-0.4-0.2-0.4-0.4c0-0.2,0.2-0.4,0.4-0.4h14c0.2,0,0.4,0.2,0.4,0.4
			C126.7,183,126.6,183.2,126.3,183.2z"/>
	</g>
	<g>
		<g>
			<path class="st13" d="M231.1,199.4c0,0,0.3,4.9-0.7,8.2c-1.7,5.5-6.5,6.1-6.5,9c0,0.1,30.2,0.1,30.2,0c0-2.8-4.6-3.7-6.1-8.8
				c-1.2-3.8-0.5-8.4-0.5-8.4H231.1z"/>
			<rect x="223.8" y="216.6" class="st16" width="30.2" height="1.3"/>
		</g>
		<g>
			<g>
				<path class="st3" d="M292.2,187.2c0,8.3-6.8,15-15,15h-76.6c-8.3,0-15-6.8-15-15v-42.9c0-8.3,6.8-15,15-15h76.6
					c8.3,0,15,6.8,15,15V187.2z"/>
			</g>
			<rect x="190.2" y="134.1" class="st17" width="97.3" height="56.9"/>
		</g>
		<circle class="st15" cx="238.9" cy="196.6" r="2.4"/>
	</g>
	<g>
		<path class="st18" d="M226.8,144h-6.2c-0.2,0-0.4-0.2-0.4-0.4s0.2-0.4,0.4-0.4h6.2c0.2,0,0.4,0.2,0.4,0.4S227,144,226.8,144z"/>
		<path class="st19" d="M242.9,144h-13.8c-0.2,0-0.4-0.2-0.4-0.4s0.2-0.4,0.4-0.4h13.8c0.2,0,0.4,0.2,0.4,0.4S243.2,144,242.9,144z"
			/>
		<path class="st18" d="M230.5,146.9h-9.9c-0.2,0-0.4-0.2-0.4-0.4c0-0.2,0.2-0.4,0.4-0.4h9.9c0.2,0,0.4,0.2,0.4,0.4
			C230.9,146.7,230.7,146.9,230.5,146.9z"/>
		<path class="st19" d="M247.8,146.9h-15c-0.2,0-0.4-0.2-0.4-0.4c0-0.2,0.2-0.4,0.4-0.4h15c0.2,0,0.4,0.2,0.4,0.4
			C248.2,146.7,248.1,146.9,247.8,146.9z"/>
		<path class="st19" d="M268.4,146.9h-17.6c-0.2,0-0.4-0.2-0.4-0.4c0-0.2,0.2-0.4,0.4-0.4h17.6c0.2,0,0.4,0.2,0.4,0.4
			C268.8,146.7,268.6,146.9,268.4,146.9z"/>
		<path class="st18" d="M231.2,150.1h-7.4c-0.2,0-0.4-0.2-0.4-0.4s0.2-0.4,0.4-0.4h7.4c0.2,0,0.4,0.2,0.4,0.4
			S231.5,150.1,231.2,150.1z"/>
		<path class="st19" d="M250.8,150.1h-17.3c-0.2,0-0.4-0.2-0.4-0.4s0.2-0.4,0.4-0.4h17.3c0.2,0,0.4,0.2,0.4,0.4
			S251,150.1,250.8,150.1z"/>
		<path class="st19" d="M268.3,150.1h-15.5c-0.2,0-0.4-0.2-0.4-0.4s0.2-0.4,0.4-0.4h15.5c0.2,0,0.4,0.2,0.4,0.4
			S268.5,150.1,268.3,150.1z"/>
		<path class="st18" d="M226.1,153h-2.3c-0.2,0-0.4-0.2-0.4-0.4s0.2-0.4,0.4-0.4h2.3c0.2,0,0.4,0.2,0.4,0.4S226.4,153,226.1,153z"/>
		<path class="st20" d="M242.9,153h-13.7c-0.2,0-0.4-0.2-0.4-0.4s0.2-0.4,0.4-0.4h13.7c0.2,0,0.4,0.2,0.4,0.4S243.2,153,242.9,153z"
			/>
		<path class="st19" d="M282,153h-8.8c-0.2,0-0.4-0.2-0.4-0.4s0.2-0.4,0.4-0.4h8.8c0.2,0,0.4,0.2,0.4,0.4S282.2,153,282,153z"/>
		<path class="st19" d="M271,153h-24.9c-0.2,0-0.4-0.2-0.4-0.4s0.2-0.4,0.4-0.4H271c0.2,0,0.4,0.2,0.4,0.4S271.2,153,271,153z"/>
		<path class="st18" d="M228.5,156.2h-4.7c-0.2,0-0.4-0.2-0.4-0.4c0-0.2,0.2-0.4,0.4-0.4h4.7c0.2,0,0.4,0.2,0.4,0.4
			C228.9,156,228.8,156.2,228.5,156.2z"/>
		<path class="st19" d="M246.5,156.2H231c-0.2,0-0.4-0.2-0.4-0.4c0-0.2,0.2-0.4,0.4-0.4h15.4c0.2,0,0.4,0.2,0.4,0.4
			C246.9,156,246.7,156.2,246.5,156.2z"/>
		<path class="st19" d="M279.4,156.2h-13.3c-0.2,0-0.4-0.2-0.4-0.4c0-0.2,0.2-0.4,0.4-0.4h13.3c0.2,0,0.4,0.2,0.4,0.4
			C279.8,156,279.6,156.2,279.4,156.2z"/>
		<path class="st20" d="M263.6,156.2h-14.5c-0.2,0-0.4-0.2-0.4-0.4c0-0.2,0.2-0.4,0.4-0.4h14.5c0.2,0,0.4,0.2,0.4,0.4
			C264.1,156,263.9,156.2,263.6,156.2z"/>
		<path class="st18" d="M230.9,159.5h-4.7c-0.2,0-0.4-0.2-0.4-0.4c0-0.2,0.2-0.4,0.4-0.4h4.7c0.2,0,0.4,0.2,0.4,0.4
			C231.3,159.3,231.1,159.5,230.9,159.5z"/>
		<path class="st19" d="M242.7,159.5h-10.1c-0.2,0-0.4-0.2-0.4-0.4c0-0.2,0.2-0.4,0.4-0.4h10.1c0.2,0,0.4,0.2,0.4,0.4
			C243.1,159.3,242.9,159.5,242.7,159.5z"/>
		<path class="st19" d="M255.2,159.5h-10.1c-0.2,0-0.4-0.2-0.4-0.4c0-0.2,0.2-0.4,0.4-0.4h10.1c0.2,0,0.4,0.2,0.4,0.4
			C255.6,159.3,255.4,159.5,255.2,159.5z"/>
		<path class="st18" d="M230.9,162.7h-4.7c-0.2,0-0.4-0.2-0.4-0.4s0.2-0.4,0.4-0.4h4.7c0.2,0,0.4,0.2,0.4,0.4
			S231.1,162.7,230.9,162.7z"/>
		<path class="st18" d="M204,144H195c-0.2,0-0.4-0.2-0.4-0.4s0.2-0.4,0.4-0.4h9.1c0.2,0,0.4,0.2,0.4,0.4S204.3,144,204,144z"/>
		<path class="st18" d="M209.3,146.9H195c-0.2,0-0.4-0.2-0.4-0.4c0-0.2,0.2-0.4,0.4-0.4h14.4c0.2,0,0.4,0.2,0.4,0.4
			C209.8,146.7,209.6,146.9,209.3,146.9z"/>
		<path class="st18" d="M210.4,150.1h-10.7c-0.2,0-0.4-0.2-0.4-0.4s0.2-0.4,0.4-0.4h10.7c0.2,0,0.4,0.2,0.4,0.4
			S210.7,150.1,210.4,150.1z"/>
		<path class="st18" d="M203,153h-3.3c-0.2,0-0.4-0.2-0.4-0.4s0.2-0.4,0.4-0.4h3.3c0.2,0,0.4,0.2,0.4,0.4S203.3,153,203,153z"/>
		<path class="st18" d="M206.5,156.2h-6.8c-0.2,0-0.4-0.2-0.4-0.4c0-0.2,0.2-0.4,0.4-0.4h6.8c0.2,0,0.4,0.2,0.4,0.4
			C206.9,156,206.7,156.2,206.5,156.2z"/>
		<path class="st18" d="M210,159.5h-6.8c-0.2,0-0.4-0.2-0.4-0.4c0-0.2,0.2-0.4,0.4-0.4h6.8c0.2,0,0.4,0.2,0.4,0.4
			C210.4,159.3,210.2,159.5,210,159.5z"/>
		<path class="st18" d="M210,162.7h-6.8c-0.2,0-0.4-0.2-0.4-0.4s0.2-0.4,0.4-0.4h6.8c0.2,0,0.4,0.2,0.4,0.4S210.2,162.7,210,162.7z"
			/>
		<path class="st20" d="M247.6,162.7h-14.9c-0.2,0-0.4-0.2-0.4-0.4s0.2-0.4,0.4-0.4h14.9c0.2,0,0.4,0.2,0.4,0.4
			S247.8,162.7,247.6,162.7z"/>
		<path class="st19" d="M281.2,162.7h-23.6c-0.2,0-0.4-0.2-0.4-0.4s0.2-0.4,0.4-0.4h23.6c0.2,0,0.4,0.2,0.4,0.4
			S281.4,162.7,281.2,162.7z"/>
		<path class="st19" d="M254.8,162.7h-4.9c-0.2,0-0.4-0.2-0.4-0.4s0.2-0.4,0.4-0.4h4.9c0.2,0,0.4,0.2,0.4,0.4S255,162.7,254.8,162.7
			z"/>
		<path class="st18" d="M230.9,166h-4.7c-0.2,0-0.4-0.2-0.4-0.4s0.2-0.4,0.4-0.4h4.7c0.2,0,0.4,0.2,0.4,0.4S231.1,166,230.9,166z"/>
		<path class="st19" d="M238.1,166h-5.5c-0.2,0-0.4-0.2-0.4-0.4s0.2-0.4,0.4-0.4h5.5c0.2,0,0.4,0.2,0.4,0.4S238.4,166,238.1,166z"/>
		<path class="st19" d="M265.3,166h-11.2c-0.2,0-0.4-0.2-0.4-0.4s0.2-0.4,0.4-0.4h11.2c0.2,0,0.4,0.2,0.4,0.4S265.5,166,265.3,166z"
			/>
		<path class="st19" d="M250.8,166h-10.3c-0.2,0-0.4-0.2-0.4-0.4s0.2-0.4,0.4-0.4h10.3c0.2,0,0.4,0.2,0.4,0.4S251.1,166,250.8,166z"
			/>
		<path class="st18" d="M236.7,169.2h-4.1c-0.2,0-0.4-0.2-0.4-0.4c0-0.2,0.2-0.4,0.4-0.4h4.1c0.2,0,0.4,0.2,0.4,0.4
			C237.1,169,236.9,169.2,236.7,169.2z"/>
		<path class="st19" d="M248.9,169.2h-10.1c-0.2,0-0.4-0.2-0.4-0.4c0-0.2,0.2-0.4,0.4-0.4h10.1c0.2,0,0.4,0.2,0.4,0.4
			C249.3,169,249.1,169.2,248.9,169.2z"/>
		<path class="st19" d="M280.8,169.2h-16.4c-0.2,0-0.4-0.2-0.4-0.4c0-0.2,0.2-0.4,0.4-0.4h16.4c0.2,0,0.4,0.2,0.4,0.4
			C281.2,169,281,169.2,280.8,169.2z"/>
		<path class="st19" d="M261.5,169.2h-10.3c-0.2,0-0.4-0.2-0.4-0.4c0-0.2,0.2-0.4,0.4-0.4h10.3c0.2,0,0.4,0.2,0.4,0.4
			C261.9,169,261.7,169.2,261.5,169.2z"/>
		<path class="st18" d="M235.6,172.5h-2.9c-0.2,0-0.4-0.2-0.4-0.4s0.2-0.4,0.4-0.4h2.9c0.2,0,0.4,0.2,0.4,0.4
			S235.8,172.5,235.6,172.5z"/>
		<path class="st20" d="M243.6,172.5h-6.8c-0.2,0-0.4-0.2-0.4-0.4s0.2-0.4,0.4-0.4h6.8c0.2,0,0.4,0.2,0.4,0.4
			S243.9,172.5,243.6,172.5z"/>
		<path class="st19" d="M267.5,172.5h-12.4c-0.2,0-0.4-0.2-0.4-0.4s0.2-0.4,0.4-0.4h12.4c0.2,0,0.4,0.2,0.4,0.4
			S267.8,172.5,267.5,172.5z"/>
		<path class="st19" d="M253.2,172.5h-7.1c-0.2,0-0.4-0.2-0.4-0.4s0.2-0.4,0.4-0.4h7.1c0.2,0,0.4,0.2,0.4,0.4
			S253.4,172.5,253.2,172.5z"/>
		<path class="st18" d="M237.2,175.7h-4.5c-0.2,0-0.4-0.2-0.4-0.4s0.2-0.4,0.4-0.4h4.5c0.2,0,0.4,0.2,0.4,0.4
			S237.4,175.7,237.2,175.7z"/>
		<path class="st19" d="M248.9,175.7h-10.1c-0.2,0-0.4-0.2-0.4-0.4s0.2-0.4,0.4-0.4h10.1c0.2,0,0.4,0.2,0.4,0.4
			S249.1,175.7,248.9,175.7z"/>
		<path class="st19" d="M265.3,175.7h-13.4c-0.2,0-0.4-0.2-0.4-0.4s0.2-0.4,0.4-0.4h13.4c0.2,0,0.4,0.2,0.4,0.4
			S265.5,175.7,265.3,175.7z"/>
		<path class="st18" d="M237.2,179h-4.5c-0.2,0-0.4-0.2-0.4-0.4c0-0.2,0.2-0.4,0.4-0.4h4.5c0.2,0,0.4,0.2,0.4,0.4
			C237.6,178.8,237.4,179,237.2,179z"/>
		<path class="st19" d="M248.9,179h-10.1c-0.2,0-0.4-0.2-0.4-0.4c0-0.2,0.2-0.4,0.4-0.4h10.1c0.2,0,0.4,0.2,0.4,0.4
			C249.3,178.8,249.1,179,248.9,179z"/>
		<path class="st19" d="M278.9,179h-15.6c-0.2,0-0.4-0.2-0.4-0.4c0-0.2,0.2-0.4,0.4-0.4h15.6c0.2,0,0.4,0.2,0.4,0.4
			C279.3,178.8,279.1,179,278.9,179z"/>
		<path class="st19" d="M260.7,179h-10.1c-0.2,0-0.4-0.2-0.4-0.4c0-0.2,0.2-0.4,0.4-0.4h10.1c0.2,0,0.4,0.2,0.4,0.4
			C261.1,178.8,260.9,179,260.7,179z"/>
		<path class="st18" d="M237.2,182.2h-4.5c-0.2,0-0.4-0.2-0.4-0.4s0.2-0.4,0.4-0.4h4.5c0.2,0,0.4,0.2,0.4,0.4
			S237.4,182.2,237.2,182.2z"/>
		<path class="st18" d="M216.6,144h-1.6c-0.2,0-0.4-0.2-0.4-0.4s0.2-0.4,0.4-0.4h1.6c0.2,0,0.4,0.2,0.4,0.4S216.8,144,216.6,144z"/>
		<path class="st18" d="M216.6,146.9h-1.6c-0.2,0-0.4-0.2-0.4-0.4c0-0.2,0.2-0.4,0.4-0.4h1.6c0.2,0,0.4,0.2,0.4,0.4
			C217,146.7,216.8,146.9,216.6,146.9z"/>
		<path class="st18" d="M216.6,150.1h-1.6c-0.2,0-0.4-0.2-0.4-0.4s0.2-0.4,0.4-0.4h1.6c0.2,0,0.4,0.2,0.4,0.4
			S216.8,150.1,216.6,150.1z"/>
		<path class="st18" d="M216.6,153h-1.6c-0.2,0-0.4-0.2-0.4-0.4s0.2-0.4,0.4-0.4h1.6c0.2,0,0.4,0.2,0.4,0.4S216.8,153,216.6,153z"/>
		<path class="st18" d="M216.6,156.2h-1.6c-0.2,0-0.4-0.2-0.4-0.4c0-0.2,0.2-0.4,0.4-0.4h1.6c0.2,0,0.4,0.2,0.4,0.4
			C217,156,216.8,156.2,216.6,156.2z"/>
		<path class="st18" d="M216.6,159.5h-1.6c-0.2,0-0.4-0.2-0.4-0.4c0-0.2,0.2-0.4,0.4-0.4h1.6c0.2,0,0.4,0.2,0.4,0.4
			C217,159.3,216.8,159.5,216.6,159.5z"/>
		<path class="st18" d="M216.6,162.7h-1.6c-0.2,0-0.4-0.2-0.4-0.4s0.2-0.4,0.4-0.4h1.6c0.2,0,0.4,0.2,0.4,0.4
			S216.8,162.7,216.6,162.7z"/>
		<path class="st18" d="M216.6,166h-1.6c-0.2,0-0.4-0.2-0.4-0.4s0.2-0.4,0.4-0.4h1.6c0.2,0,0.4,0.2,0.4,0.4S216.8,166,216.6,166z"/>
		<path class="st18" d="M216.6,169.2h-1.6c-0.2,0-0.4-0.2-0.4-0.4c0-0.2,0.2-0.4,0.4-0.4h1.6c0.2,0,0.4,0.2,0.4,0.4
			C217,169,216.8,169.2,216.6,169.2z"/>
		<path class="st18" d="M216.6,172.5h-1.6c-0.2,0-0.4-0.2-0.4-0.4s0.2-0.4,0.4-0.4h1.6c0.2,0,0.4,0.2,0.4,0.4
			S216.8,172.5,216.6,172.5z"/>
		<path class="st18" d="M216.6,175.7h-1.6c-0.2,0-0.4-0.2-0.4-0.4s0.2-0.4,0.4-0.4h1.6c0.2,0,0.4,0.2,0.4,0.4
			S216.8,175.7,216.6,175.7z"/>
		<path class="st18" d="M216.6,179h-1.6c-0.2,0-0.4-0.2-0.4-0.4c0-0.2,0.2-0.4,0.4-0.4h1.6c0.2,0,0.4,0.2,0.4,0.4
			C217,178.8,216.8,179,216.6,179z"/>
		<path class="st18" d="M216.6,182.2h-1.6c-0.2,0-0.4-0.2-0.4-0.4s0.2-0.4,0.4-0.4h1.6c0.2,0,0.4,0.2,0.4,0.4
			S216.8,182.2,216.6,182.2z"/>
		<path class="st19" d="M244.8,182.2h-6c-0.2,0-0.4-0.2-0.4-0.4s0.2-0.4,0.4-0.4h6c0.2,0,0.4,0.2,0.4,0.4S245,182.2,244.8,182.2z"/>
		<path class="st19" d="M273.5,182.2h-9.7c-0.2,0-0.4-0.2-0.4-0.4s0.2-0.4,0.4-0.4h9.7c0.2,0,0.4,0.2,0.4,0.4
			S273.7,182.2,273.5,182.2z"/>
		<path class="st20" d="M260.8,182.2h-12.4c-0.2,0-0.4-0.2-0.4-0.4s0.2-0.4,0.4-0.4h12.4c0.2,0,0.4,0.2,0.4,0.4
			S261,182.2,260.8,182.2z"/>
	</g>
	<g>
		<path class="st21" d="M145.6,219.1c-1.3,5.1-3.9,16.1-2.6,17.4c8.4,8,30.5-12,39.1-11.5c11,0.7,35.7,19,39.1,11.8
			c1.4-2.9-1.3-9.2-3.4-15.8C194,220.9,169.3,219.1,145.6,219.1z"/>
		<path class="st21" d="M173.1,189.7c0,0.8,0,5.2-0.9,6.1c-1.6,1.5-5.7,1.9-5.7,1.9c-0.1,0.9,6.6,4.2,15.2,4.2
			c6.7,0,14.7-2.2,14.7-4c0-0.1-4-0.2-5.6-2.8c-0.7-1-0.7-5.2-0.7-5.9c-1.8,1-4.5,2.8-8,2.8C177.3,192,174.9,190.4,173.1,189.7z"/>
		<path class="st21" d="M167.1,175c0.5,1.8,0,3.5-1.1,3.8c-1.1,0.3-2.4-0.9-2.9-2.7c-0.5-1.8,0-3.5,1.1-3.8
			C165.3,172,166.6,173.2,167.1,175z"/>
		<path class="st21" d="M195.5,175c-0.5,1.8,0,3.5,1.1,3.8c1.1,0.3,2.4-0.9,2.9-2.7c0.5-1.8,0-3.5-1.1-3.8
			C197.3,172,196,173.2,195.5,175z"/>
		<g>
			<path class="st22" d="M195.9,162.2c2.3-3.4,2.5-8.1,0.6-11.7c-1.3,1.9-3.7,2.7-6.1,2.9c-2.3,0.2-4.6-0.2-6.9,0
				c-1.2,0.1-2.4,0.4-3.5,0.9c-2,0-5.2,0.7-6.8,1.4c-5.8,2.5-9.3,8.1-9.3,17.6c0,10,8.1,13.9,8.7,18.1c0,0,4.3,1.6,8.2,1.6
				c5.9,0,9.7-1.6,9.7-1.6c0-5.5,7.7-8.5,8.4-18.1C199.2,168.7,197.9,165.4,195.9,162.2z"/>
		</g>
		<path class="st15" d="M218.4,221.4c0.8,5.4-74.9,6.9-73.9-0.3c1.5-10.6,5.3-19.7,21.8-23.4c1.5-0.3,4-0.9,4-0.9
			c1,1.4,6.9,2.5,10.7,2.6c4.6,0.1,9.6-0.6,12.3-2.2c0,0,2.1,0.5,2.9,0.6C213.9,201.1,216.7,210.2,218.4,221.4z"/>
		<g>
			<circle class="st14" cx="155.8" cy="310.7" r="2.6"/>
			<circle class="st14" cx="153.7" cy="323" r="2.6"/>
			<circle class="st14" cx="206.9" cy="309.8" r="2.6"/>
			<path class="st23" d="M224.8,264.5c0,15.5-22,25.2-43.8,25c-21.3-0.2-42.3-9.9-42.3-25c0-30.6,19.3-52.9,43-52.9
				S224.8,233.9,224.8,264.5z"/>
			<rect x="174.1" y="277.4" class="st10" width="15.3" height="14.5"/>
			<path class="st23" d="M215,288.1c0,5.5-13.5,8.1-33.2,8.1s-34.5-3.4-34.5-9c0-6.8,14.3-10.2,34.1-10.2S215,282.6,215,288.1z"/>
			<rect x="178" y="293.2" class="st23" width="7.7" height="20"/>
			<polygon class="st23" points="209.5,321.3 156.9,308.1 156.2,306.4 209.9,319.2 			"/>
			<polygon class="st23" points="153.7,322.2 153.2,320.1 206.2,306.1 206.6,307.7 			"/>
			<path class="st23" d="M156.6,306.4c-2.1-0.4-4.3,1.2-4.3,3.4c0,1.7,6.8,1.3,6.8,0.4C159.2,308.8,158.3,306.8,156.6,306.4z"/>
			<path class="st23" d="M154.5,319.2c-2.1-0.4-4.3,1.2-4.3,3.4c0,1.7,6.8,1.3,6.8,0.4C157.1,321.5,156.2,319.5,154.5,319.2z"/>
			<g>
				<circle class="st14" cx="210.3" cy="323" r="2.6"/>
				<path class="st23" d="M209.5,318.8c2.1-0.4,4.3,1.2,4.3,3.4c0,1.7-6.8,1.3-6.8,0.4C206.9,321.1,207.8,319.1,209.5,318.8z"/>
			</g>
			<path class="st23" d="M206.1,306c2.1-0.4,4.3,1.2,4.3,3.4c0,1.7-6.8,1.3-6.8,0.4C203.5,308.3,204.4,306.3,206.1,306z"/>
			<ellipse class="st10" cx="181.6" cy="314.3" rx="4" ry="2.3"/>
		</g>
		<path class="st24" d="M181.9,201c5.4,0,10.3-1.2,13.9-3.3c-0.9-0.2-2.4-0.5-2.4-0.5c-2.7,1.6-7.7,2.3-12.3,2.2
			c-3.8-0.1-9.7-1.1-10.7-2.6c0,0-1.5,0.3-2.9,0.6C171.1,199.6,176.2,201,181.9,201z"/>
	</g>
</g>
</svg>
