<?xml version="1.0" encoding="utf-8"?>
<!-- Generator: Adobe Illustrator 24.0.2, SVG Export Plug-In . SVG Version: 6.00 Build 0)  -->
<svg version="1.1" id="Camada_1" xmlns="http://www.w3.org/2000/svg" xmlns:xlink="http://www.w3.org/1999/xlink" x="0px" y="0px"
	 viewBox="0 0 674.4 397.3" style="enable-background:new 0 0 674.4 397.3;" xml:space="preserve">
<style type="text/css">
	.st0{fill:url(#SVGID_1_);}
	.st1{fill:url(#SVGID_2_);}
	.st2{fill:url(#SVGID_3_);}
	.st3{fill:url(#SVGID_4_);}
	.st4{fill:url(#SVGID_5_);}
	.st5{fill:url(#SVGID_6_);}
	.st6{fill:url(#SVGID_7_);}
	.st7{fill:url(#SVGID_8_);}
	.st8{fill:url(#SVGID_9_);}
	.st9{fill:url(#SVGID_10_);}
	.st10{fill:url(#SVGID_11_);}
	.st11{fill:url(#SVGID_12_);}
	.st12{fill:url(#SVGID_13_);}
	.st13{fill:url(#SVGID_14_);}
	.st14{fill:url(#SVGID_15_);}
	.st15{fill:url(#SVGID_16_);}
	.st16{fill:url(#SVGID_17_);}
	.st17{fill:url(#SVGID_18_);}
	.st18{fill:url(#SVGID_19_);}
	.st19{fill:url(#SVGID_20_);}
	.st20{fill:url(#SVGID_21_);}
	.st21{fill:url(#SVGID_22_);}
	.st22{fill:url(#SVGID_23_);}
	.st23{fill:url(#SVGID_24_);}
	.st24{fill:url(#SVGID_25_);}
	.st25{fill:url(#SVGID_26_);}
	.st26{fill:url(#SVGID_27_);}
	.st27{fill:url(#SVGID_28_);}
	.st28{fill:url(#SVGID_29_);}
	.st29{fill:url(#SVGID_30_);}
	.st30{fill:url(#SVGID_31_);}
	.st31{fill:url(#SVGID_32_);}
	.st32{fill:url(#SVGID_33_);}
	.st33{fill:url(#SVGID_34_);}
	.st34{fill:url(#SVGID_35_);}
	.st35{fill:url(#SVGID_36_);}
	.st36{fill:url(#SVGID_37_);}
	.st37{fill:url(#SVGID_38_);}
	.st38{fill:url(#SVGID_39_);}
	.st39{fill:url(#SVGID_40_);}
	.st40{fill:url(#SVGID_41_);}
	.st41{fill:url(#SVGID_42_);}
	.st42{fill:url(#SVGID_43_);}
	.st43{fill:url(#SVGID_44_);}
	.st44{fill:url(#SVGID_45_);}
	.st45{fill:url(#SVGID_46_);}
	.st46{fill:url(#SVGID_47_);}
	.st47{fill:url(#SVGID_48_);}
	.st48{fill:url(#SVGID_49_);}
	.st49{fill:url(#SVGID_50_);}
	.st50{fill:url(#SVGID_51_);}
	.st51{fill:url(#SVGID_52_);}
	.st52{fill:url(#SVGID_53_);}
	.st53{fill:url(#SVGID_54_);}
	.st54{fill:#1D1D1B;}
	.st55{fill:#3C3C3B;}
	.st56{fill:#C6C6C6;}
	.st57{fill:#EAEAEA;}
	.st58{fill:#EBEBEB;}
	.st59{fill:#ECECEC;}
	.st60{fill:#EDEDED;}
	.st61{fill:#EEEEEE;}
	.st62{fill:#EFEFEF;}
	.st63{fill:#F0F0F0;}
	.st64{fill:#F1F1F1;}
	.st65{fill:#F2F2F2;}
	.st66{fill:#F3F3F3;}
	.st67{fill:#F4F4F4;}
	.st68{fill:#F5F5F5;}
	.st69{fill:#F6F6F6;}
	.st70{fill:#F7F7F7;}
	.st71{fill:#F8F8F8;}
	.st72{fill:#F9F9F9;}
	.st73{fill:none;stroke:#DDDDDD;stroke-width:0.4839;stroke-miterlimit:10;}
	.st74{opacity:0.1;fill:#1D1D1B;}
	.st75{fill:#EDEDED;stroke:#EDEDED;stroke-width:0.9678;stroke-miterlimit:10;}
	.st76{opacity:0.5;fill:none;stroke:#FFFFFF;stroke-width:1.8062;stroke-miterlimit:10;}
	.st77{fill:#DADADA;}
	.st78{fill:#CECECE;}
	.st79{fill:#2F2F2F;}
	.st80{opacity:0.7;fill:#B2B2B2;}
	.st81{fill:#353535;}
	.st82{fill:#E2DECF;}
	.st83{fill:#68BCDD;}
	.st84{fill:#E04F44;}
	.st85{fill:#374E72;}
	.st86{fill:#221C13;}
	.st87{opacity:0.12;}
	.st88{fill:#323254;}
	.st89{fill:#2A2A2B;}
	.st90{fill:#FCBD85;}
	.st91{fill:#3F3533;}
	.st92{fill:#EDE6D2;}
	.st93{fill:#E6E7E8;}
	.st94{opacity:5.000000e-02;}
	.st95{fill:#36365B;}
	.st96{fill:#323233;}
	.st97{fill:#DBDDD9;}
	.st98{fill:#281F17;}
	.st99{fill:#DDDDD7;}
	.st100{fill:#D3D3CD;}
	.st101{fill:#6C63FF;}
	.st102{fill:#E2A074;}
	.st103{fill:#E2A679;}
	.st104{fill:#E5A373;}
	.st105{fill:#E2A374;}
	.st106{fill:#FFFFFF;}
	.st107{opacity:5.000000e-02;fill:#231F20;}
	.st108{fill:#D89A71;}
	.st109{fill:#3A3A3A;stroke:#E0C475;stroke-width:0.25;stroke-miterlimit:10;}
</style>
<g>
	<linearGradient id="SVGID_1_" gradientUnits="userSpaceOnUse" x1="515.5063" y1="-44.5618" x2="358.8597" y2="48.5795">
		<stop  offset="0" style="stop-color:#9973E9"/>
		<stop  offset="1" style="stop-color:#503DC6"/>
	</linearGradient>
	<path class="st0" d="M361.7,74.1c-2.6,0-5-0.8-6.9-2.7c-7.4-7.3-14.8-14.6-22.1-22.1c-3.9-4-3.6-10.1,0.5-14.3
		c3.7-3.8,10.1-4.1,14.1-0.3c5.8,5.5,11.3,11.2,16.9,16.8c1.7,1.7,3.4,3.3,5,5c3,3.3,3.7,7.2,2,11.2
		C369.7,71.9,366.3,74.1,361.7,74.1z"/>
	<linearGradient id="SVGID_2_" gradientUnits="userSpaceOnUse" x1="597.2632" y1="92.9376" x2="440.616" y2="186.0792">
		<stop  offset="0" style="stop-color:#9973E9"/>
		<stop  offset="1" style="stop-color:#503DC6"/>
	</linearGradient>
	<path class="st1" d="M606.8,70.7c-4.4-4.5-8.5-8.7-12.7-12.9c-3.4-3.4-7.6-4.7-12.2-3.1c-8.6,3-10.9,12.9-4.7,19.5
		c3.7,3.9,7.5,7.6,11.4,11.4c1.3,1.2,1.3,1.9,0,3.2c-3.8,3.6-7.5,7.4-11.2,11.2c-4.1,4.2-4.8,10.2-1.8,14.8
		c4.1,6.3,12.2,7.6,17.8,2.5c4.1-3.7,7.9-7.7,11.7-11.7c1.3-1.3,2.2-1.4,3.5,0c3.7,3.8,7.4,7.6,11.2,11.2c3,2.9,6.6,4.3,10.8,3.3
		c9.4-2.4,12.5-12.7,5.9-19.8c-3.5-3.8-7.2-7.5-11-11c-1.8-1.7-1.4-2.6,0.1-4.1c4-3.8,8-7.7,11.6-11.8c3.3-3.7,3.7-8.2,1.5-12.6
		c-2.3-4.6-6.2-6.7-11.4-6.6c-4,0.1-6.7,2.5-9.3,5.1C614.5,63,610.8,66.7,606.8,70.7z"/>
	<linearGradient id="SVGID_3_" gradientUnits="userSpaceOnUse" x1="576.8862" y1="58.6674" x2="420.2388" y2="151.8091">
		<stop  offset="0" style="stop-color:#9973E9"/>
		<stop  offset="1" style="stop-color:#503DC6"/>
	</linearGradient>
	<path class="st2" d="M615.5,40.9c0-4.9-3.6-8.7-8.4-8.7c-5,0-8.8,3.6-8.8,8.5c-0.1,4.8,3.8,8.7,8.6,8.7
		C611.7,49.4,615.5,45.6,615.5,40.9z"/>
	<linearGradient id="SVGID_4_" gradientUnits="userSpaceOnUse" x1="576.4401" y1="57.9169" x2="419.7931" y2="151.0584">
		<stop  offset="0" style="stop-color:#9973E9"/>
		<stop  offset="1" style="stop-color:#503DC6"/>
	</linearGradient>
	<path class="st3" d="M566.5,87.4c-0.2,3.9-2.2,7.2-6.2,9.1c-3.8,1.8-8.3,1-11.4-2c-7.2-7.1-14.3-14.2-21.4-21.4
		c-4.2-4.3-4.2-10.7,0-14.8c4.1-4.1,10.6-3.9,14.8,0.3c6.7,6.7,13.5,13.5,20.2,20.2C564.9,81.1,566.4,83.6,566.5,87.4z"/>
	<linearGradient id="SVGID_5_" gradientUnits="userSpaceOnUse" x1="578.5424" y1="61.4522" x2="421.8956" y2="154.5936">
		<stop  offset="0" style="stop-color:#9973E9"/>
		<stop  offset="1" style="stop-color:#503DC6"/>
	</linearGradient>
	<path class="st4" d="M492.2,104.2c4.6,0,8.5,4,8.6,8.7c0,4.7-3.9,8.7-8.5,8.6c-4.9,0-8.8-3.9-8.9-8.6
		C483.3,108.2,487.5,104.1,492.2,104.2z"/>
	<linearGradient id="SVGID_6_" gradientUnits="userSpaceOnUse" x1="589.6721" y1="80.1707" x2="433.0251" y2="173.3122">
		<stop  offset="0" style="stop-color:#9973E9"/>
		<stop  offset="1" style="stop-color:#503DC6"/>
	</linearGradient>
	<path class="st5" d="M543.4,112.8c0.1,4.7-3.8,8.6-8.5,8.7c-4.7,0.1-8.7-3.8-8.8-8.4c-0.1-4.7,3.8-8.9,8.6-8.9
		C539.4,104.1,543.3,107.9,543.4,112.8z"/>
	<linearGradient id="SVGID_7_" gradientUnits="userSpaceOnUse" x1="563.5936" y1="36.3117" x2="406.9464" y2="129.4533">
		<stop  offset="0" style="stop-color:#9973E9"/>
		<stop  offset="1" style="stop-color:#503DC6"/>
	</linearGradient>
	<path class="st6" d="M564.7,41c-0.1,4.8-4.1,8.6-9,8.4c-4.6-0.1-8.3-4.2-8.2-8.9c0.1-4.8,4-8.5,8.7-8.4
		C561.1,32.3,564.8,36.2,564.7,41z"/>
	<linearGradient id="SVGID_8_" gradientUnits="userSpaceOnUse" x1="574.0703" y1="53.9315" x2="417.4231" y2="147.0731">
		<stop  offset="0" style="stop-color:#9973E9"/>
		<stop  offset="1" style="stop-color:#503DC6"/>
	</linearGradient>
	<path class="st7" d="M513.7,98.3c-4.7-0.1-8.5-4-8.4-8.7c0.1-4.9,3.9-8.7,8.8-8.5c4.8,0.1,8.5,3.9,8.4,8.7
		C522.5,94.6,518.6,98.4,513.7,98.3z"/>
	<linearGradient id="SVGID_9_" gradientUnits="userSpaceOnUse" x1="557.2136" y1="25.5816" x2="400.5662" y2="118.7234">
		<stop  offset="0" style="stop-color:#9973E9"/>
		<stop  offset="1" style="stop-color:#503DC6"/>
	</linearGradient>
	<path class="st8" d="M483.8,65c0-4.1,3-7.2,7.1-7.2c4.2,0,7.3,3,7.3,7c0.1,4.1-3.2,7.4-7.2,7.4C487,72.2,483.8,69,483.8,65z"/>
	<linearGradient id="SVGID_10_" gradientUnits="userSpaceOnUse" x1="562.4047" y1="34.3118" x2="405.7579" y2="127.4531">
		<stop  offset="0" style="stop-color:#9973E9"/>
		<stop  offset="1" style="stop-color:#503DC6"/>
	</linearGradient>
	<path class="st9" d="M468.9,97c-4-0.1-7.3-3.5-7.1-7.3c0.2-4,3.7-7.3,7.6-7.2c3.9,0.2,7.1,3.7,6.9,7.5
		C476.2,94,472.9,97.1,468.9,97z"/>
	<linearGradient id="SVGID_11_" gradientUnits="userSpaceOnUse" x1="540.7355" y1="-2.1314" x2="384.0891" y2="91.0098">
		<stop  offset="0" style="stop-color:#9973E9"/>
		<stop  offset="1" style="stop-color:#503DC6"/>
	</linearGradient>
	<path class="st10" d="M468.8,36.1c2.6,0.1,4.6,2.2,4.5,4.7c-0.1,2.5-2.4,4.7-4.8,4.6c-2.4-0.1-4.6-2.5-4.5-4.9
		C464,38.1,466.2,36.1,468.8,36.1z"/>
	<linearGradient id="SVGID_12_" gradientUnits="userSpaceOnUse" x1="517.2712" y1="-41.598" x2="360.6234" y2="51.5439">
		<stop  offset="0" style="stop-color:#9973E9"/>
		<stop  offset="1" style="stop-color:#503DC6"/>
	</linearGradient>
	<path class="st11" d="M291.9,89.4c-0.1,2.5,2,4.8,4.4,5c2.3,0.2,4.8-2.2,4.9-4.5c0.1-2.5-2-4.8-4.5-4.9
		C294.1,84.9,292,86.9,291.9,89.4z"/>
	<linearGradient id="SVGID_13_" gradientUnits="userSpaceOnUse" x1="552.4763" y1="17.614" x2="395.8296" y2="110.7553">
		<stop  offset="0" style="stop-color:#9973E9"/>
		<stop  offset="1" style="stop-color:#503DC6"/>
	</linearGradient>
	<path class="st12" d="M425.1,78.8c4.2,0.1,7.4,2.1,9.2,5.9c2,4.3,1.2,8.5-2.2,12c-5.8,5.8-11.6,11.6-17.4,17.4
		c-1.3,1.3-2.6,2.7-4,4c-4.4,3.9-10.6,3.7-14.5-0.4c-4-4.1-3.9-10.5,0.2-14.7c6.9-6.9,13.8-13.8,20.7-20.7
		C419.3,80.1,421.8,78.6,425.1,78.8z"/>
	<linearGradient id="SVGID_14_" gradientUnits="userSpaceOnUse" x1="534.8015" y1="-12.112" x2="378.1544" y2="81.0295">
		<stop  offset="0" style="stop-color:#9973E9"/>
		<stop  offset="1" style="stop-color:#503DC6"/>
	</linearGradient>
	<path class="st13" d="M335.8,78.8c-4.2,0.1-7.4,2.1-9.2,5.9c-2,4.3-1.2,8.5,2.2,12c5.8,5.8,11.6,11.6,17.4,17.4
		c1.3,1.3,2.6,2.7,4,4c4.4,3.9,10.6,3.7,14.5-0.4c4-4.1,3.9-10.5-0.2-14.7c-6.9-6.9-13.8-13.8-20.7-20.7
		C341.6,80.1,339.1,78.6,335.8,78.8z"/>
	<linearGradient id="SVGID_15_" gradientUnits="userSpaceOnUse" x1="537.5165" y1="-7.545" x2="380.8698" y2="85.5964">
		<stop  offset="0" style="stop-color:#9973E9"/>
		<stop  offset="1" style="stop-color:#503DC6"/>
	</linearGradient>
	<path class="st14" d="M445.5,74c-2.3,0-4.6-1-6.5-2.9c-7.2-7.2-14.4-14.3-21.6-21.5c-3.9-4-3.8-10.5,0-14.3
		c3.9-4,10.3-4.4,14.3-0.6c7.5,7.2,14.8,14.6,22.1,22c3.1,3.2,3.8,7.3,1.9,11.4C453.8,72,450.5,74.1,445.5,74z"/>
	<linearGradient id="SVGID_16_" gradientUnits="userSpaceOnUse" x1="526.4218" y1="-26.2333" x2="369.7751" y2="66.908">
		<stop  offset="0" style="stop-color:#9973E9"/>
		<stop  offset="1" style="stop-color:#503DC6"/>
	</linearGradient>
	<path class="st15" d="M403.5,74.1c-2.6,0-5-0.8-6.9-2.7c-7.4-7.3-14.8-14.6-22.1-22.1c-3.9-4-3.6-10.1,0.5-14.3
		c3.7-3.8,10.1-4.1,14.1-0.3c5.8,5.5,11.3,11.2,16.9,16.8c1.7,1.7,3.4,3.3,5,5c3,3.3,3.7,7.2,2,11.2
		C411.4,71.9,408.1,74.1,403.5,74.1z"/>
	<linearGradient id="SVGID_17_" gradientUnits="userSpaceOnUse" x1="511.8946" y1="-50.635" x2="355.2484" y2="42.5061">
		<stop  offset="0" style="stop-color:#9973E9"/>
		<stop  offset="1" style="stop-color:#503DC6"/>
	</linearGradient>
	<path class="st16" d="M316.9,74c-4.7,0.1-8.7-3.7-8.9-8.4c-0.2-4.5,4-8.9,8.6-9c4.7-0.1,8.8,3.9,8.8,8.7
		C325.4,70.1,321.6,74,316.9,74z"/>
	<linearGradient id="SVGID_18_" gradientUnits="userSpaceOnUse" x1="539.0349" y1="-4.9905" x2="382.3875" y2="88.1512">
		<stop  offset="0" style="stop-color:#9973E9"/>
		<stop  offset="1" style="stop-color:#503DC6"/>
	</linearGradient>
	<path class="st17" d="M380.2,81.1c4.6,0.2,8.4,4.2,8.2,8.9c-0.2,4.7-4.2,8.4-8.8,8.3c-4.8-0.1-8.5-4.1-8.4-9
		C371.3,84.5,375.3,80.9,380.2,81.1z"/>
	<linearGradient id="SVGID_19_" gradientUnits="userSpaceOnUse" x1="566.534" y1="41.2567" x2="409.8869" y2="134.3983">
		<stop  offset="0" style="stop-color:#9973E9"/>
		<stop  offset="1" style="stop-color:#503DC6"/>
	</linearGradient>
	<path class="st18" d="M453.4,112.7c0,4.1-3.2,7.4-7.2,7.4c-4,0-7.1-3.3-7.1-7.3c0-4,3-7.1,6.9-7.2
		C450.2,105.5,453.4,108.5,453.4,112.7z"/>
	<linearGradient id="SVGID_20_" gradientUnits="userSpaceOnUse" x1="533.0125" y1="-15.1197" x2="376.3659" y2="78.0216">
		<stop  offset="0" style="stop-color:#9973E9"/>
		<stop  offset="1" style="stop-color:#503DC6"/>
	</linearGradient>
	<path class="st19" d="M317.7,120c-4,0-7.1-3.2-7.1-7.3c0-4.1,3.2-7.2,7.4-7.1c3.9,0.1,7,3.3,7,7.1C325.1,116.9,321.9,120,317.7,120
		z"/>
	<linearGradient id="SVGID_21_" gradientUnits="userSpaceOnUse" x1="517.2712" y1="-41.598" x2="360.6234" y2="51.5439">
		<stop  offset="0" style="stop-color:#9973E9"/>
		<stop  offset="1" style="stop-color:#503DC6"/>
	</linearGradient>
	<path class="st20" d="M291.9,89.4c0.1-2.6,2.3-4.5,4.9-4.4c2.5,0.1,4.6,2.4,4.5,4.9c-0.1,2.4-2.7,4.7-4.9,4.5
		C293.9,94.2,291.8,91.9,291.9,89.4z"/>
	<linearGradient id="SVGID_22_" gradientUnits="userSpaceOnUse" x1="552.4288" y1="17.5342" x2="395.7813" y2="110.676">
		<stop  offset="0" style="stop-color:#9973E9"/>
		<stop  offset="1" style="stop-color:#503DC6"/>
	</linearGradient>
	<path class="st21" d="M518.1,40.5c0.1,2.5-2.3,4.9-4.7,4.9c-2.3,0-4.5-2.2-4.6-4.5c-0.1-2.6,1.9-4.7,4.5-4.8
		C515.9,36,518,38,518.1,40.5z"/>
	<linearGradient id="SVGID_23_" gradientUnits="userSpaceOnUse" x1="495.7855" y1="-77.7285" x2="339.1385" y2="15.413">
		<stop  offset="0" style="stop-color:#9973E9"/>
		<stop  offset="1" style="stop-color:#503DC6"/>
	</linearGradient>
	<path class="st22" d="M301.2,40.5c0.1,2.5-2.3,4.9-4.7,4.9c-2.3,0-4.5-2.2-4.6-4.5c-0.1-2.6,1.9-4.7,4.5-4.8
		C299,36,301.2,38,301.2,40.5z"/>
	<linearGradient id="SVGID_24_" gradientUnits="userSpaceOnUse" x1="584.869" y1="72.0928" x2="428.2226" y2="165.2339">
		<stop  offset="0" style="stop-color:#9973E9"/>
		<stop  offset="1" style="stop-color:#503DC6"/>
	</linearGradient>
	<path class="st23" d="M637.7,36.1c2.6,0.1,4.6,2.2,4.5,4.7c-0.1,2.5-2.4,4.7-4.8,4.6c-2.4-0.1-4.6-2.5-4.5-4.9
		C633,38.1,635.1,36.1,637.7,36.1z"/>
</g>
<g>
	<linearGradient id="SVGID_25_" gradientUnits="userSpaceOnUse" x1="242.3028" y1="56.9962" x2="85.6562" y2="150.1375">
		<stop  offset="0" style="stop-color:#9973E9"/>
		<stop  offset="1" style="stop-color:#503DC6"/>
	</linearGradient>
	<path class="st24" d="M88.5,175.6c-2.6,0-5-0.8-6.9-2.7c-7.4-7.3-14.8-14.6-22.1-22.1c-3.9-4-3.6-10.1,0.5-14.3
		c3.7-3.8,10.1-4.1,14.1-0.3c5.8,5.5,11.3,11.2,16.9,16.8c1.7,1.7,3.4,3.3,5,5c3,3.3,3.7,7.2,2,11.2
		C96.4,173.5,93.1,175.6,88.5,175.6z"/>
	<linearGradient id="SVGID_26_" gradientUnits="userSpaceOnUse" x1="324.0597" y1="194.4956" x2="167.4126" y2="287.6371">
		<stop  offset="0" style="stop-color:#9973E9"/>
		<stop  offset="1" style="stop-color:#503DC6"/>
	</linearGradient>
	<path class="st25" d="M333.6,172.3c-4.4-4.5-8.5-8.7-12.7-12.9c-3.4-3.4-7.6-4.7-12.2-3.1c-8.6,3-10.9,12.9-4.7,19.5
		c3.7,3.9,7.5,7.6,11.4,11.4c1.3,1.2,1.3,1.9,0,3.2c-3.8,3.6-7.5,7.4-11.2,11.2c-4.1,4.2-4.8,10.2-1.8,14.8
		c4.1,6.3,12.2,7.6,17.8,2.5c4.1-3.7,7.9-7.7,11.7-11.7c1.3-1.3,2.2-1.4,3.5,0c3.7,3.8,7.4,7.6,11.2,11.2c3,2.9,6.6,4.3,10.8,3.3
		c9.4-2.4,12.5-12.7,5.9-19.8c-3.5-3.8-7.2-7.5-11-11c-1.8-1.7-1.4-2.6,0.1-4.1c4-3.8,8-7.7,11.6-11.8c3.3-3.7,3.7-8.2,1.5-12.6
		c-2.3-4.6-6.2-6.7-11.4-6.6c-4,0.1-6.7,2.5-9.3,5.1C341.3,164.5,337.6,168.2,333.6,172.3z"/>
	<linearGradient id="SVGID_27_" gradientUnits="userSpaceOnUse" x1="303.6828" y1="160.2254" x2="147.0354" y2="253.3671">
		<stop  offset="0" style="stop-color:#9973E9"/>
		<stop  offset="1" style="stop-color:#503DC6"/>
	</linearGradient>
	<path class="st26" d="M342.3,142.4c0-4.9-3.6-8.7-8.4-8.7c-5,0-8.8,3.6-8.8,8.5c-0.1,4.8,3.8,8.7,8.6,8.7
		C338.5,151,342.3,147.2,342.3,142.4z"/>
	<linearGradient id="SVGID_28_" gradientUnits="userSpaceOnUse" x1="303.2366" y1="159.4748" x2="146.5896" y2="252.6163">
		<stop  offset="0" style="stop-color:#9973E9"/>
		<stop  offset="1" style="stop-color:#503DC6"/>
	</linearGradient>
	<path class="st27" d="M293.3,189c-0.2,3.9-2.2,7.2-6.2,9.1c-3.8,1.8-8.3,1-11.4-2c-7.2-7.1-14.3-14.2-21.4-21.4
		c-4.2-4.3-4.2-10.7,0-14.8c4.1-4.1,10.6-3.9,14.8,0.3c6.7,6.7,13.5,13.5,20.2,20.2C291.7,182.6,293.2,185.2,293.3,189z"/>
	<linearGradient id="SVGID_29_" gradientUnits="userSpaceOnUse" x1="305.3389" y1="163.0101" x2="148.6921" y2="256.1515">
		<stop  offset="0" style="stop-color:#9973E9"/>
		<stop  offset="1" style="stop-color:#503DC6"/>
	</linearGradient>
	<path class="st28" d="M219,205.7c4.6,0,8.5,4,8.6,8.7c0,4.7-3.9,8.7-8.5,8.6c-4.9,0-8.8-3.9-8.9-8.6
		C210.1,209.8,214.3,205.7,219,205.7z"/>
	<linearGradient id="SVGID_30_" gradientUnits="userSpaceOnUse" x1="316.4687" y1="181.7287" x2="159.8216" y2="274.8702">
		<stop  offset="0" style="stop-color:#9973E9"/>
		<stop  offset="1" style="stop-color:#503DC6"/>
	</linearGradient>
	<path class="st29" d="M270.2,214.4c0.1,4.7-3.8,8.6-8.5,8.7c-4.7,0.1-8.7-3.8-8.8-8.4c-0.1-4.7,3.8-8.9,8.6-8.9
		C266.2,205.6,270.1,209.5,270.2,214.4z"/>
	<linearGradient id="SVGID_31_" gradientUnits="userSpaceOnUse" x1="290.3902" y1="137.8696" x2="133.743" y2="231.0113">
		<stop  offset="0" style="stop-color:#9973E9"/>
		<stop  offset="1" style="stop-color:#503DC6"/>
	</linearGradient>
	<path class="st30" d="M291.5,142.6c-0.1,4.8-4.1,8.6-9,8.4c-4.6-0.1-8.3-4.2-8.2-8.9c0.1-4.8,4-8.5,8.7-8.4
		C287.9,133.8,291.6,137.7,291.5,142.6z"/>
	<linearGradient id="SVGID_32_" gradientUnits="userSpaceOnUse" x1="300.8668" y1="155.4895" x2="144.2196" y2="248.6311">
		<stop  offset="0" style="stop-color:#9973E9"/>
		<stop  offset="1" style="stop-color:#503DC6"/>
	</linearGradient>
	<path class="st31" d="M240.5,199.9c-4.7-0.1-8.5-4-8.4-8.7c0.1-4.9,3.9-8.7,8.8-8.5c4.8,0.1,8.5,3.9,8.4,8.7
		C249.3,196.2,245.4,200,240.5,199.9z"/>
	<linearGradient id="SVGID_33_" gradientUnits="userSpaceOnUse" x1="284.0101" y1="127.1396" x2="127.3627" y2="220.2813">
		<stop  offset="0" style="stop-color:#9973E9"/>
		<stop  offset="1" style="stop-color:#503DC6"/>
	</linearGradient>
	<path class="st32" d="M210.6,166.6c0-4.1,3-7.2,7.1-7.2c4.2,0,7.3,3,7.3,7c0.1,4.1-3.2,7.4-7.2,7.4
		C213.8,173.8,210.6,170.6,210.6,166.6z"/>
	<linearGradient id="SVGID_34_" gradientUnits="userSpaceOnUse" x1="289.2013" y1="135.8697" x2="132.5545" y2="229.0111">
		<stop  offset="0" style="stop-color:#9973E9"/>
		<stop  offset="1" style="stop-color:#503DC6"/>
	</linearGradient>
	<path class="st33" d="M195.7,198.5c-4-0.1-7.3-3.5-7.1-7.3c0.2-4,3.7-7.3,7.6-7.2c3.9,0.2,7.1,3.7,6.9,7.5
		C203,195.6,199.7,198.6,195.7,198.5z"/>
	<linearGradient id="SVGID_35_" gradientUnits="userSpaceOnUse" x1="267.532" y1="99.4266" x2="110.8857" y2="192.5677">
		<stop  offset="0" style="stop-color:#9973E9"/>
		<stop  offset="1" style="stop-color:#503DC6"/>
	</linearGradient>
	<path class="st34" d="M195.5,137.7c2.6,0.1,4.6,2.2,4.5,4.7c-0.1,2.5-2.4,4.7-4.8,4.6c-2.4-0.1-4.6-2.5-4.5-4.9
		C190.8,139.6,193,137.6,195.5,137.7z"/>
	<linearGradient id="SVGID_36_" gradientUnits="userSpaceOnUse" x1="244.0678" y1="59.9599" x2="87.42" y2="153.1019">
		<stop  offset="0" style="stop-color:#9973E9"/>
		<stop  offset="1" style="stop-color:#503DC6"/>
	</linearGradient>
	<path class="st35" d="M18.7,191c-0.1,2.5,2,4.8,4.4,5c2.3,0.2,4.8-2.2,4.9-4.5c0.1-2.5-2-4.8-4.5-4.9
		C20.9,186.5,18.8,188.5,18.7,191z"/>
	<linearGradient id="SVGID_37_" gradientUnits="userSpaceOnUse" x1="279.2728" y1="119.172" x2="122.6262" y2="212.3133">
		<stop  offset="0" style="stop-color:#9973E9"/>
		<stop  offset="1" style="stop-color:#503DC6"/>
	</linearGradient>
	<path class="st36" d="M151.9,180.4c4.2,0.1,7.4,2.1,9.2,5.9c2,4.3,1.2,8.5-2.2,12c-5.8,5.8-11.6,11.6-17.4,17.4
		c-1.3,1.3-2.6,2.7-4,4c-4.4,3.9-10.6,3.7-14.5-0.4c-4-4.1-3.9-10.5,0.2-14.7c6.9-6.9,13.8-13.8,20.7-20.7
		C146.1,181.7,148.6,180.2,151.9,180.4z"/>
	<linearGradient id="SVGID_38_" gradientUnits="userSpaceOnUse" x1="261.598" y1="89.446" x2="104.951" y2="182.5875">
		<stop  offset="0" style="stop-color:#9973E9"/>
		<stop  offset="1" style="stop-color:#503DC6"/>
	</linearGradient>
	<path class="st37" d="M62.6,180.4c-4.2,0.1-7.4,2.1-9.2,5.9c-2,4.3-1.2,8.5,2.2,12c5.8,5.8,11.6,11.6,17.4,17.4
		c1.3,1.3,2.6,2.7,4,4c4.4,3.9,10.6,3.7,14.5-0.4c4-4.1,3.9-10.5-0.2-14.7c-6.9-6.9-13.8-13.8-20.7-20.7
		C68.4,181.7,65.8,180.2,62.6,180.4z"/>
	<linearGradient id="SVGID_39_" gradientUnits="userSpaceOnUse" x1="264.3131" y1="94.013" x2="107.6664" y2="187.1544">
		<stop  offset="0" style="stop-color:#9973E9"/>
		<stop  offset="1" style="stop-color:#503DC6"/>
	</linearGradient>
	<path class="st38" d="M172.3,175.6c-2.3,0-4.6-1-6.5-2.9c-7.2-7.2-14.4-14.3-21.6-21.5c-3.9-4-3.8-10.5,0-14.3
		c3.9-4,10.3-4.4,14.3-0.6c7.5,7.2,14.8,14.6,22.1,22c3.1,3.2,3.8,7.3,1.9,11.4C180.6,173.5,177.3,175.7,172.3,175.6z"/>
	<linearGradient id="SVGID_40_" gradientUnits="userSpaceOnUse" x1="253.2184" y1="75.3247" x2="96.5717" y2="168.466">
		<stop  offset="0" style="stop-color:#9973E9"/>
		<stop  offset="1" style="stop-color:#503DC6"/>
	</linearGradient>
	<path class="st39" d="M130.3,175.6c-2.6,0-5-0.8-6.9-2.7c-7.4-7.3-14.8-14.6-22.1-22.1c-3.9-4-3.6-10.1,0.5-14.3
		c3.7-3.8,10.1-4.1,14.1-0.3c5.8,5.5,11.3,11.2,16.9,16.8c1.7,1.7,3.4,3.3,5,5c3,3.3,3.7,7.2,2,11.2
		C138.2,173.5,134.9,175.6,130.3,175.6z"/>
	<linearGradient id="SVGID_41_" gradientUnits="userSpaceOnUse" x1="165.1377" y1="37.366" x2="8.4911" y2="130.5073">
		<stop  offset="0" style="stop-color:#9973E9"/>
		<stop  offset="1" style="stop-color:#503DC6"/>
	</linearGradient>
	<path class="st40" d="M42.2,137.7c-2.6,0-5-0.8-6.9-2.7c-7.4-7.3-14.8-14.6-22.1-22.1c-3.9-4-3.6-10.1,0.5-14.3
		c3.7-3.8,10.1-4.1,14.1-0.3c5.8,5.5,11.3,11.2,16.9,16.8c1.7,1.7,3.4,3.3,5,5c3,3.3,3.7,7.2,2,11.2
		C50.1,135.5,46.8,137.7,42.2,137.7z"/>
	<linearGradient id="SVGID_42_" gradientUnits="userSpaceOnUse" x1="238.6911" y1="50.923" x2="82.0449" y2="144.064">
		<stop  offset="0" style="stop-color:#9973E9"/>
		<stop  offset="1" style="stop-color:#503DC6"/>
	</linearGradient>
	<path class="st41" d="M43.7,175.6c-4.7,0.1-8.7-3.7-8.9-8.4c-0.2-4.5,4-8.9,8.6-9c4.7-0.1,8.8,3.9,8.8,8.7
		C52.2,171.6,48.4,175.5,43.7,175.6z"/>
	<linearGradient id="SVGID_43_" gradientUnits="userSpaceOnUse" x1="265.8315" y1="96.5675" x2="109.1841" y2="189.7092">
		<stop  offset="0" style="stop-color:#9973E9"/>
		<stop  offset="1" style="stop-color:#503DC6"/>
	</linearGradient>
	<path class="st42" d="M107,182.7c4.6,0.2,8.4,4.2,8.2,8.9c-0.2,4.7-4.2,8.4-8.8,8.3c-4.8-0.1-8.5-4.1-8.4-9
		C98.1,186.1,102.1,182.5,107,182.7z"/>
	<linearGradient id="SVGID_44_" gradientUnits="userSpaceOnUse" x1="293.3306" y1="142.8147" x2="136.6834" y2="235.9563">
		<stop  offset="0" style="stop-color:#9973E9"/>
		<stop  offset="1" style="stop-color:#503DC6"/>
	</linearGradient>
	<path class="st43" d="M180.2,214.2c0,4.1-3.2,7.4-7.2,7.4c-4,0-7.1-3.3-7.1-7.3c0-4,3-7.1,6.9-7.2
		C177,207.1,180.2,210.1,180.2,214.2z"/>
	<linearGradient id="SVGID_45_" gradientUnits="userSpaceOnUse" x1="259.8091" y1="86.4383" x2="103.1625" y2="179.5796">
		<stop  offset="0" style="stop-color:#9973E9"/>
		<stop  offset="1" style="stop-color:#503DC6"/>
	</linearGradient>
	<path class="st44" d="M44.5,221.6c-4,0-7.1-3.2-7.1-7.3c0-4.1,3.2-7.2,7.4-7.1c3.9,0.1,7,3.3,7,7.1
		C51.9,218.4,48.7,221.6,44.5,221.6z"/>
	<linearGradient id="SVGID_46_" gradientUnits="userSpaceOnUse" x1="244.0678" y1="59.9599" x2="87.42" y2="153.1019">
		<stop  offset="0" style="stop-color:#9973E9"/>
		<stop  offset="1" style="stop-color:#503DC6"/>
	</linearGradient>
	<path class="st45" d="M18.7,191c0.1-2.6,2.3-4.5,4.9-4.4c2.5,0.1,4.6,2.4,4.5,4.9c-0.1,2.4-2.7,4.7-4.9,4.5
		C20.7,195.8,18.6,193.5,18.7,191z"/>
	<linearGradient id="SVGID_47_" gradientUnits="userSpaceOnUse" x1="279.2254" y1="119.0921" x2="122.5779" y2="212.2339">
		<stop  offset="0" style="stop-color:#9973E9"/>
		<stop  offset="1" style="stop-color:#503DC6"/>
	</linearGradient>
	<path class="st46" d="M244.9,142.1c0.1,2.5-2.3,4.9-4.7,4.9c-2.3,0-4.5-2.2-4.6-4.5c-0.1-2.6,1.9-4.7,4.5-4.8
		C242.7,137.6,244.8,139.6,244.9,142.1z"/>
	<linearGradient id="SVGID_48_" gradientUnits="userSpaceOnUse" x1="222.582" y1="23.8295" x2="65.9351" y2="116.971">
		<stop  offset="0" style="stop-color:#9973E9"/>
		<stop  offset="1" style="stop-color:#503DC6"/>
	</linearGradient>
	<path class="st47" d="M28,142.1c0.1,2.5-2.3,4.9-4.7,4.9c-2.3,0-4.5-2.2-4.6-4.5c-0.1-2.6,1.9-4.7,4.5-4.8
		C25.8,137.6,28,139.6,28,142.1z"/>
	<linearGradient id="SVGID_49_" gradientUnits="userSpaceOnUse" x1="252.1098" y1="-53.9259" x2="95.462" y2="39.2161">
		<stop  offset="0" style="stop-color:#9973E9"/>
		<stop  offset="1" style="stop-color:#503DC6"/>
	</linearGradient>
	<path class="st48" d="M26.7,77.1c-0.1,2.5,2,4.8,4.4,5c2.3,0.2,4.8-2.2,4.9-4.5c0.1-2.5-2-4.8-4.5-4.9C29,72.6,26.8,74.6,26.7,77.1
		z"/>
	<linearGradient id="SVGID_50_" gradientUnits="userSpaceOnUse" x1="246.7332" y1="-62.9628" x2="90.087" y2="30.1783">
		<stop  offset="0" style="stop-color:#9973E9"/>
		<stop  offset="1" style="stop-color:#503DC6"/>
	</linearGradient>
	<path class="st49" d="M51.7,61.7c-4.7,0.1-8.7-3.7-8.9-8.4c-0.2-4.5,4-8.9,8.6-9c4.7-0.1,8.8,3.9,8.8,8.7
		C60.3,57.7,56.4,61.6,51.7,61.7z"/>
	<linearGradient id="SVGID_51_" gradientUnits="userSpaceOnUse" x1="267.8511" y1="-27.4475" x2="111.2045" y2="65.6938">
		<stop  offset="0" style="stop-color:#9973E9"/>
		<stop  offset="1" style="stop-color:#503DC6"/>
	</linearGradient>
	<path class="st50" d="M52.6,107.7c-4,0-7.1-3.2-7.1-7.3c0-4.1,3.2-7.2,7.4-7.1c3.9,0.1,7,3.3,7,7.1
		C59.9,104.5,56.7,107.7,52.6,107.7z"/>
	<linearGradient id="SVGID_52_" gradientUnits="userSpaceOnUse" x1="252.1098" y1="-53.9259" x2="95.462" y2="39.2161">
		<stop  offset="0" style="stop-color:#9973E9"/>
		<stop  offset="1" style="stop-color:#503DC6"/>
	</linearGradient>
	<path class="st51" d="M26.7,77.1c0.1-2.6,2.3-4.5,4.9-4.4c2.5,0.1,4.6,2.4,4.5,4.9c-0.1,2.4-2.7,4.7-4.9,4.5
		C28.7,81.9,26.6,79.6,26.7,77.1z"/>
	<linearGradient id="SVGID_53_" gradientUnits="userSpaceOnUse" x1="230.6241" y1="-90.0563" x2="73.9771" y2="3.0852">
		<stop  offset="0" style="stop-color:#9973E9"/>
		<stop  offset="1" style="stop-color:#503DC6"/>
	</linearGradient>
	<path class="st52" d="M36.1,28.2c0.1,2.5-2.3,4.9-4.7,4.9c-2.3,0-4.5-2.2-4.6-4.5c-0.1-2.6,1.9-4.7,4.5-4.8
		C33.8,23.7,36,25.7,36.1,28.2z"/>
	<linearGradient id="SVGID_54_" gradientUnits="userSpaceOnUse" x1="311.6656" y1="173.6507" x2="155.0191" y2="266.7919">
		<stop  offset="0" style="stop-color:#9973E9"/>
		<stop  offset="1" style="stop-color:#503DC6"/>
	</linearGradient>
	<path class="st53" d="M364.5,137.7c2.6,0.1,4.6,2.2,4.5,4.7c-0.1,2.5-2.4,4.7-4.8,4.6c-2.4-0.1-4.6-2.5-4.5-4.9
		C359.8,139.6,361.9,137.6,364.5,137.7z"/>
</g>
<g>
	<path class="st54" d="M459.6,10.9H97.9c-11.4,0-20.6,9.1-20.6,20.3v231.1c0,5,4,9,9,9h384.8c5,0,9-4,9-9V31.2
		C480.2,20,471,10.9,459.6,10.9z M467.1,265.7H90.4V31.2h376.6V265.7z"/>
	<path class="st54" d="M277.6,17.7c-1.7,0-3,1.3-3,3c0,1.7,1.3,3,3,3s3-1.3,3-3C280.6,19.1,279.3,17.7,277.6,17.7z"/>
	<path class="st55" d="M277.6,18.9c-1,0-1.8,0.8-1.8,1.8c0,1,0.8,1.8,1.8,1.8c1,0,1.8-0.8,1.8-1.8C279.4,19.8,278.6,18.9,277.6,18.9
		z"/>
</g>
<g>
	<g>
		<g>
			<g>
				<g>
					<image style="overflow:visible;" width="551" height="111" xlink:href="A34C1D6B.png"  transform="matrix(1 0 0 1 3 276.257)">
					</image>
				</g>
				<path class="st56" d="M487.5,273.6c-1.4-2-7.6-3.5-13.9-3.5h-390c-6.3,0-12.5,1.6-13.9,3.5L8.4,361c-2.1,3,2.4,16.8,10,16.8
					h520.2c7.7,0,12.1-13.8,10-16.8L487.5,273.6z"/>
				<g>
					<path class="st57" d="M487.5,273.6c-1.4-2-7.6-3.5-13.9-3.5h-390c-6.3,0-12.5,1.6-13.9,3.5L8.4,361c-2.1,3,2.4,5.5,10,5.5
						h520.2c7.7,0,12.1-2.5,10-5.5L487.5,273.6z"/>
					<path class="st58" d="M485.8,274.4c-1.3-1.9-7.5-3.5-13.7-3.5l-386.9,0c-6.2,0-12.4,1.6-13.7,3.5l-58.8,84.4
						c-2.1,3,2.3,5.5,9.9,5.5h512.2c7.6,0,12-2.5,9.9-5.5L485.8,274.4z"/>
					<path class="st59" d="M484.1,275.2c-1.3-1.9-7.4-3.5-13.5-3.5l-383.9-0.1c-6.1,0-12.2,1.6-13.5,3.5l-56.4,81.3
						c-2.1,3,2.3,5.5,9.7,5.5h504.1c7.4,0,11.8-2.5,9.7-5.5L484.1,275.2z"/>
					<path class="st60" d="M482.4,276c-1.3-1.9-7.2-3.5-13.3-3.5l-380.8-0.1c-6,0-12,1.5-13.3,3.5L21,354c-2,3,2.3,5.5,9.6,5.5
						h496.1c7.3,0,11.6-2.5,9.6-5.5L482.4,276z"/>
					<path class="st61" d="M480.7,276.8c-1.3-1.9-7.1-3.5-13.1-3.5l-377.7-0.1c-5.9,0-11.8,1.5-13.1,3.5l-51.6,75
						c-2,3,2.2,5.4,9.4,5.4h488c7.2,0,11.4-2.5,9.4-5.4L480.7,276.8z"/>
					<path class="st62" d="M479,277.6c-1.3-1.9-7-3.5-12.8-3.5L91.4,274c-5.8,0-11.6,1.5-12.8,3.5l-49.2,71.9c-2,3,2.2,5.4,9.3,5.4
						h480c7.1,0,11.2-2.4,9.3-5.4L479,277.6z"/>
					<path class="st63" d="M477.2,278.4c-1.2-1.9-6.9-3.5-12.6-3.5L93,274.8c-5.7,0-11.4,1.5-12.6,3.5L33.6,347
						c-1.9,3,2.1,5.4,9.1,5.4h471.9c7,0,11-2.4,9.1-5.4L477.2,278.4z"/>
					<path class="st64" d="M475.5,279.2c-1.2-1.9-6.8-3.4-12.4-3.4l-368.6-0.2c-5.6,0-11.2,1.5-12.4,3.4l-44.4,65.7
						c-1.9,3,2.1,5.4,8.9,5.4h463.9c6.8,0,10.8-2.4,8.9-5.4L475.5,279.2z"/>
					<path class="st65" d="M473.8,280.1c-1.2-1.9-6.6-3.4-12.2-3.4l-365.5-0.3c-5.5,0-11,1.5-12.2,3.4l-42,62.6
						c-1.9,3,2.1,5.4,8.8,5.4h455.8c6.7,0,10.6-2.4,8.8-5.4L473.8,280.1z"/>
					<path class="st65" d="M472.1,280.9c-1.2-1.9-6.5-3.4-12-3.4l-362.4-0.3c-5.4,0-10.8,1.5-12,3.4L46.1,340
						c-1.8,2.9,2,5.4,8.6,5.4h447.8c6.6,0,10.5-2.4,8.6-5.4L472.1,280.9z"/>
					<path class="st66" d="M470.4,281.7c-1.2-1.9-6.4-3.4-11.8-3.4l-359.4-0.3c-5.3,0-10.6,1.5-11.8,3.4l-37.2,56.3
						c-1.8,2.9,2,5.4,8.5,5.4h439.8c6.5,0,10.3-2.4,8.5-5.4L470.4,281.7z"/>
					<path class="st67" d="M468.7,282.5c-1.1-1.9-6.3-3.4-11.5-3.4l-356.3-0.4c-5.3,0-10.4,1.5-11.5,3.4l-34.8,53.2
						c-1.8,2.9,2,5.3,8.3,5.3h431.7c6.4,0,10.1-2.4,8.3-5.3L468.7,282.5z"/>
					<path class="st68" d="M467,283.3c-1.1-1.9-6.2-3.4-11.3-3.4l-353.3-0.4c-5.2,0-10.2,1.5-11.3,3.4L58.7,333
						c-1.7,2.9,1.9,5.3,8.2,5.3h423.7c6.2,0,9.9-2.4,8.2-5.3L467,283.3z"/>
					<path class="st69" d="M465.3,284.1c-1.1-1.9-6.1-3.4-11.1-3.4L104,280.3c-5.1,0-10,1.5-11.1,3.4l-30,47c-1.7,2.9,1.9,5.3,8,5.3
						h415.6c6.1,0,9.7-2.4,8-5.3L465.3,284.1z"/>
					<path class="st70" d="M463.6,284.9c-1.1-1.9-5.9-3.4-10.9-3.4l-347.1-0.5c-5,0-9.8,1.5-10.9,3.4l-27.6,43.9
						c-1.7,2.9,1.9,5.3,7.9,5.3h407.6c6,0,9.5-2.4,7.9-5.3L463.6,284.9z"/>
					<path class="st71" d="M461.9,285.7c-1-1.9-5.8-3.4-10.7-3.4l-344.1-0.5c-4.9,0-9.6,1.5-10.7,3.4L71.3,326
						c-1.6,2.9,1.8,5.3,7.7,5.3h399.5c5.9,0,9.3-2.4,7.7-5.3L461.9,285.7z"/>
					<path class="st72" d="M460.2,286.6c-1-1.9-5.7-3.4-10.5-3.4l-341-0.5c-4.8,0-9.4,1.5-10.5,3.4l-22.8,37.7
						c-1.6,2.9,1.8,5.3,7.5,5.3h391.5c5.8,0,9.1-2.4,7.5-5.3L460.2,286.6z"/>
				</g>
				<path class="st73" d="M483.6,273.6c-0.9-1.3-5.1-2.4-9.3-2.4H82.8c-4.2,0-8.4,1.1-9.3,2.4L13.4,361c-1.3,1.9,1.5,3.5,6.4,3.5
					h517.5c4.8,0,7.7-1.6,6.4-3.5L483.6,273.6z"/>
				<path class="st74" d="M83.6,270c-2.3,0-4.6,0.2-6.7,0.6c1.7,1,5.2,1.8,9.4,1.8h384.5c4.2,0,7.7-0.7,9.4-1.8
					c-2.1-0.4-4.4-0.6-6.7-0.6H83.6z"/>
				<path class="st55" d="M417.5,270H132.3l-1.3,2.6c-0.3,0.7,1.1,1.2,3.3,1.2h281c2.1,0,3.6-0.5,3.3-1.2L417.5,270z"/>
				<polygon class="st55" points="93.1,277.1 62.4,327.1 494.8,327.1 464.1,277.1 				"/>
				<g>
					<g>
						<g>
							<polygon class="st75" points="68.7,316.7 68.5,317.2 488.7,317.2 488.4,316.7 							"/>
						</g>
						<g>
							<polygon class="st75" points="74.6,307.2 74.3,307.6 482.8,307.6 482.6,307.2 							"/>
						</g>
						<g>
							<polygon class="st75" points="80.1,298.2 79.9,298.6 477.3,298.6 477.1,298.2 							"/>
						</g>
						<g>
							<polygon class="st75" points="85.3,289.7 85.1,290.1 472.1,290.1 471.8,289.7 							"/>
						</g>
						<g>
							<polygon class="st75" points="90.3,281.6 90.1,282 467.1,282 466.9,281.6 							"/>
						</g>
					</g>
					<g>
						<g>
							<polygon class="st75" points="442,277.1 444.6,281.8 445.8,281.8 443.2,277.1 							"/>
						</g>
						<g>
							<polygon class="st75" points="420.2,277.1 422.4,281.8 423.6,281.8 421.4,277.1 							"/>
						</g>
						<g>
							<polygon class="st75" points="398.3,277.1 400.2,281.8 401.4,281.8 399.5,277.1 							"/>
						</g>
						<g>
							<polygon class="st75" points="376.5,277.1 378,281.8 379.2,281.8 377.7,277.1 							"/>
						</g>
						<g>
							<polygon class="st75" points="354.6,277.1 355.8,281.8 357,281.8 355.8,277.1 							"/>
						</g>
						<g>
							<polygon class="st75" points="332.8,277.1 333.6,281.8 334.8,281.8 334,277.1 							"/>
						</g>
						<g>
							<polygon class="st75" points="310.9,277.1 311.4,281.8 312.6,281.8 312.1,277.1 							"/>
						</g>
						<g>
							<polygon class="st75" points="289.1,277.1 289.2,281.8 290.4,281.8 290.3,277.1 							"/>
						</g>
						<g>
							<polygon class="st75" points="267,281.8 268.3,281.8 268.4,277.1 267.2,277.1 							"/>
						</g>
						<g>
							<polygon class="st75" points="244.8,281.8 246.1,281.8 246.6,277.1 245.4,277.1 							"/>
						</g>
						<g>
							<polygon class="st75" points="222.6,281.8 223.9,281.8 224.7,277.1 223.5,277.1 							"/>
						</g>
						<g>
							<polygon class="st75" points="200.5,281.8 201.7,281.8 202.8,277.1 201.7,277.1 							"/>
						</g>
						<g>
							<polygon class="st75" points="178.3,281.8 179.5,281.8 181,277.1 179.8,277.1 							"/>
						</g>
						<g>
							<polygon class="st75" points="156.1,281.8 157.3,281.8 159.1,277.1 157.9,277.1 							"/>
						</g>
						<g>
							<polygon class="st75" points="133.9,281.8 135.1,281.8 137.3,277.1 136.1,277.1 							"/>
						</g>
						<g>
							<polygon class="st75" points="111.7,281.8 112.9,281.8 115.4,277.1 114.2,277.1 							"/>
						</g>
					</g>
					<g>
						<g>
							<polygon class="st75" points="425.1,281.8 428.9,289.9 430.1,289.9 426.2,281.8 							"/>
						</g>
						<g>
							<polygon class="st75" points="399,281.8 402.1,289.9 403.3,289.9 400.1,281.8 							"/>
						</g>
						<g>
							<polygon class="st75" points="372.9,281.8 375.3,289.9 376.5,289.9 373.9,281.8 							"/>
						</g>
						<g>
							<polygon class="st75" points="346.7,281.8 348.5,289.9 349.7,289.9 347.8,281.8 							"/>
						</g>
						<g>
							<polygon class="st75" points="320.6,281.8 321.7,289.9 322.9,289.9 321.7,281.8 							"/>
						</g>
						<g>
							<polygon class="st75" points="294.5,281.8 294.9,289.9 296.1,289.9 295.6,281.8 							"/>
						</g>
						<g>
							<polygon class="st75" points="268.1,289.9 269.3,289.9 269.5,281.8 268.4,281.8 							"/>
						</g>
						<g>
							<polygon class="st75" points="241.3,289.9 242.5,289.9 243.4,281.8 242.3,281.8 							"/>
						</g>
						<g>
							<polygon class="st75" points="214.5,289.9 215.7,289.9 217.3,281.8 216.2,281.8 							"/>
						</g>
						<g>
							<polygon class="st75" points="187.7,289.9 188.9,289.9 191.2,281.8 190.1,281.8 							"/>
						</g>
						<g>
							<polygon class="st75" points="160.9,289.9 162,289.9 165,281.8 164,281.8 							"/>
						</g>
						<g>
							<polygon class="st75" points="134.1,289.9 135.2,289.9 138.9,281.8 137.8,281.8 							"/>
						</g>
						<g>
							<polygon class="st75" points="107.3,289.9 108.4,289.9 112.8,281.8 111.7,281.8 							"/>
						</g>
					</g>
					<g>
						<g>
							<polygon class="st75" points="437.3,289.9 441.6,298.4 442.8,298.4 438.4,289.9 							"/>
						</g>
						<g>
							<polygon class="st75" points="410.5,289.9 414.1,298.4 415.2,298.4 411.6,289.9 							"/>
						</g>
						<g>
							<polygon class="st75" points="383.7,289.9 386.6,298.4 387.7,298.4 384.8,289.9 							"/>
						</g>
						<g>
							<polygon class="st75" points="356.9,289.9 359,298.4 360.2,298.4 358,289.9 							"/>
						</g>
						<g>
							<polygon class="st75" points="330.1,289.9 331.5,298.4 332.7,298.4 331.2,289.9 							"/>
						</g>
						<g>
							<polygon class="st75" points="303.3,289.9 304,298.4 305.1,298.4 304.4,289.9 							"/>
						</g>
						<g>
							<polygon class="st75" points="276.5,298.4 277.6,298.4 277.6,289.9 276.5,289.9 							"/>
						</g>
						<g>
							<polygon class="st75" points="248.9,298.4 250.1,298.4 250.8,289.9 249.7,289.9 							"/>
						</g>
						<g>
							<polygon class="st75" points="221.4,298.4 222.5,298.4 224,289.9 222.9,289.9 							"/>
						</g>
						<g>
							<polygon class="st75" points="193.9,298.4 195,298.4 197.2,289.9 196.1,289.9 							"/>
						</g>
						<g>
							<polygon class="st75" points="166.3,298.4 167.5,298.4 170.4,289.9 169.3,289.9 							"/>
						</g>
						<g>
							<polygon class="st75" points="138.8,298.4 140,298.4 143.6,289.9 142.5,289.9 							"/>
						</g>
						<g>
							<polygon class="st75" points="111.3,298.4 112.4,298.4 116.8,289.9 115.7,289.9 							"/>
						</g>
					</g>
					<g>
						<g>
							<polygon class="st75" points="428.4,298.4 432.6,307.4 433.8,307.4 429.6,298.4 							"/>
						</g>
						<g>
							<polygon class="st75" points="400.9,298.4 404.3,307.4 405.5,307.4 402.1,298.4 							"/>
						</g>
						<g>
							<polygon class="st75" points="373.4,298.4 376,307.4 377.2,307.4 374.5,298.4 							"/>
						</g>
						<g>
							<polygon class="st75" points="345.9,298.4 347.7,307.4 348.9,307.4 347,298.4 							"/>
						</g>
						<g>
							<polygon class="st75" points="318.3,298.4 319.4,307.4 320.6,307.4 319.5,298.4 							"/>
						</g>
						<g>
							<polygon class="st75" points="290.8,298.4 291.1,307.4 292.3,307.4 291.9,298.4 							"/>
						</g>
						<g>
							<polygon class="st75" points="262.8,307.4 264,307.4 264.4,298.4 263.3,298.4 							"/>
						</g>
						<g>
							<polygon class="st75" points="234.5,307.4 235.7,307.4 236.9,298.4 235.7,298.4 							"/>
						</g>
						<g>
							<polygon class="st75" points="206.3,307.4 207.4,307.4 209.4,298.4 208.2,298.4 							"/>
						</g>
						<g>
							<polygon class="st75" points="178,307.4 179.1,307.4 181.8,298.4 180.7,298.4 							"/>
						</g>
						<g>
							<polygon class="st75" points="149.7,307.4 150.8,307.4 154.3,298.4 153.2,298.4 							"/>
						</g>
						<g>
							<polygon class="st75" points="121.4,307.4 122.5,307.4 126.8,298.4 125.6,298.4 							"/>
						</g>
					</g>
					<g>
						<g>
							<polygon class="st75" points="414.9,307.4 418.8,317 420.1,317 416.1,307.4 							"/>
						</g>
						<g>
							<polygon class="st75" points="386.6,307.4 389.7,317 391,317 387.8,307.4 							"/>
						</g>
						<g>
							<polygon class="st75" points="358.3,307.4 360.6,317 361.8,317 359.5,307.4 							"/>
						</g>
						<g>
							<polygon class="st75" points="330,307.4 331.5,317 332.7,317 331.2,307.4 							"/>
						</g>
						<g>
							<polygon class="st75" points="301.7,307.4 302.4,317 303.6,317 302.9,307.4 							"/>
						</g>
						<g>
							<polygon class="st75" points="273.3,317 274.5,317 274.6,307.4 273.5,307.4 							"/>
						</g>
						<g>
							<polygon class="st75" points="244.2,317 245.4,317 246.3,307.4 245.2,307.4 							"/>
						</g>
						<g>
							<polygon class="st75" points="215.1,317 216.3,317 218,307.4 216.9,307.4 							"/>
						</g>
						<g>
							<polygon class="st75" points="186,317 187.2,317 189.7,307.4 188.6,307.4 							"/>
						</g>
						<g>
							<polygon class="st75" points="156.9,317 158.1,317 161.4,307.4 160.3,307.4 							"/>
						</g>
						<g>
							<polygon class="st75" points="127.8,317 129,317 133.1,307.4 132,307.4 							"/>
						</g>
					</g>
					<g>
						<polygon class="st75" points="458.3,317 463.6,327.1 464.8,327.1 459.5,317 						"/>
						<polygon class="st75" points="390.1,321.7 390.2,322.2 491.8,322.2 491.5,321.7 						"/>
						<polygon class="st75" points="423.1,317 427.4,327.1 428.6,327.1 424.3,317 						"/>
						<g>
							<polygon class="st75" points="387.9,317 391.1,327.1 392.4,327.1 389.1,317 							"/>
						</g>
						<g>
							<polygon class="st75" points="358.8,317 361.2,327.1 362.4,327.1 360,317 							"/>
						</g>
						<g>
							<polygon class="st75" points="329.7,317 331.2,327.1 332.5,327.1 330.9,317 							"/>
						</g>
						<g>
							<polygon class="st75" points="181.4,327.1 182.6,327.1 185.4,317 184.2,317 							"/>
						</g>
						<g>
							<polygon class="st75" points="151.4,327.1 152.7,327.1 156.3,317 155.1,317 							"/>
						</g>
						<g>
							<polygon class="st75" points="121.4,327.1 122.7,327.1 127.2,317 125.9,317 							"/>
						</g>
						<g>
							<polygon class="st75" points="91.5,327.1 92.7,327.1 98,317 96.8,317 							"/>
						</g>
					</g>
				</g>
				<path class="st76" d="M331,334.6H226.1c-2.8,0-5.2,0.8-5.4,1.9l-3,19c-0.2,1.2,2.1,2.1,5.1,2.1h111.6c3,0,5.3-1,5.1-2.1l-3-19
					C336.3,335.5,333.9,334.6,331,334.6z"/>
				<path class="st77" d="M331,334.6H226.1c-2.8,0-5.2,0.8-5.4,1.9l-3,19c-0.2,1.2,2.1,2.1,5.1,2.1h111.6c3,0,5.3-1,5.1-2.1l-3-19
					C336.3,335.5,333.9,334.6,331,334.6z"/>
				<path class="st78" d="M218.6,350l-0.9,5.5c-0.2,1.2,2.1,2.1,5.1,2.1h111.6c3,0,5.3-1,5.1-2.1l-0.9-5.5H218.6z"/>
			</g>
			<rect x="90.4" y="31.2" class="st79" width="376.6" height="234.5"/>
			<rect x="90.4" y="31.2" class="st80" width="376.6" height="7.8"/>
		</g>
	</g>
	<g>
		<polygon class="st81" points="305.3,39.1 305.3,57.8 245.9,57.8 245.9,265.7 467.1,265.7 467.1,39.1 		"/>
		<g>
			<g>
				<rect x="157.2" y="110.7" class="st82" width="40.8" height="2"/>
			</g>
			<g>
				<rect x="156.1" y="102.7" class="st82" width="40.8" height="2"/>
			</g>
			<rect x="90.4" y="92.7" class="st83" width="155.4" height="6.6"/>
			<g>
				<rect x="151.6" y="94.7" class="st82" width="63.1" height="2"/>
			</g>
			<g>
				<rect x="151.6" y="86.7" class="st82" width="40.8" height="2"/>
			</g>
			<g>
				<rect x="151.6" y="78.7" class="st82" width="85.3" height="2"/>
			</g>
			<g>
				<rect x="151.6" y="70.7" class="st82" width="85.3" height="2"/>
			</g>
			<g>
				<rect x="128.5" y="61.8" class="st82" width="40.8" height="4"/>
			</g>
			<g>
				<rect x="104" y="53.8" class="st82" width="40.8" height="4"/>
			</g>
		</g>
		<g>
			<g>
				<rect x="301.9" y="140.6" class="st84" width="57.1" height="2"/>
			</g>
			<g>
				<rect x="301.9" y="132.6" class="st85" width="34.8" height="2"/>
			</g>
			<g>
				<rect x="301.9" y="124.6" class="st84" width="12.5" height="2"/>
			</g>
			<g>
				<rect x="301.9" y="116.7" class="st85" width="12.5" height="2"/>
			</g>
			<g>
				<rect x="301.9" y="108.7" class="st84" width="34.8" height="2"/>
			</g>
			<g>
				<rect x="346.5" y="100.7" class="st82" width="34.8" height="2"/>
			</g>
			<g>
				<rect x="324.2" y="92.7" class="st85" width="34.8" height="2"/>
			</g>
			<g>
				<rect x="301.9" y="84.7" class="st84" width="34.8" height="2"/>
			</g>
			<g>
				<rect x="301.9" y="76.7" class="st85" width="34.8" height="2"/>
			</g>
			<g>
				<rect x="279.6" y="68.7" class="st84" width="34.8" height="2"/>
			</g>
			<g>
				<rect x="361.8" y="140.7" class="st82" width="73.5" height="1.7"/>
			</g>
			<g>
				<rect x="339.5" y="132.7" class="st83" width="29" height="1.7"/>
			</g>
			<g>
				<rect x="317.2" y="124.8" class="st82" width="118.1" height="1.7"/>
			</g>
			<g>
				<rect x="317.2" y="116.8" class="st82" width="95.8" height="1.7"/>
			</g>
			<g>
				<rect x="339.5" y="108.8" class="st82" width="95.8" height="1.7"/>
			</g>
			<g>
				<rect x="384" y="100.8" class="st82" width="73.5" height="1.7"/>
			</g>
			<g>
				<rect x="361.8" y="92.8" class="st83" width="29" height="1.7"/>
			</g>
			<g>
				<rect x="339.5" y="84.8" class="st82" width="51.3" height="1.7"/>
			</g>
			<g>
				<rect x="339.5" y="76.9" class="st82" width="118.1" height="1.7"/>
			</g>
			<g>
				<rect x="317.2" y="68.9" class="st82" width="118.1" height="1.7"/>
			</g>
		</g>
		<g>
			<g>
				<rect x="350.6" y="212.5" class="st85" width="34.8" height="2"/>
			</g>
			<g>
				<rect x="350.6" y="204.5" class="st84" width="12.5" height="2"/>
			</g>
			<g>
				<rect x="350.6" y="196.5" class="st85" width="12.5" height="2"/>
			</g>
			<g>
				<rect x="350.6" y="188.5" class="st84" width="34.8" height="2"/>
			</g>
			<g>
				<rect x="350.6" y="180.5" class="st82" width="30.7" height="2"/>
			</g>
			<g>
				<rect x="324.2" y="172.5" class="st85" width="34.8" height="2"/>
			</g>
			<g>
				<rect x="301.9" y="164.6" class="st84" width="34.8" height="2"/>
			</g>
			<g>
				<rect x="301.9" y="156.6" class="st85" width="34.8" height="2"/>
			</g>
			<g>
				<rect x="279.6" y="148.6" class="st84" width="34.8" height="2"/>
			</g>
			<g>
				<rect x="388.1" y="212.6" class="st82" width="29" height="1.7"/>
			</g>
			<g>
				<rect x="365.9" y="204.6" class="st82" width="69.5" height="1.7"/>
			</g>
			<g>
				<rect x="365.9" y="196.6" class="st82" width="47.2" height="1.7"/>
			</g>
			<g>
				<rect x="384" y="180.7" class="st82" width="73.5" height="1.7"/>
			</g>
			<g>
				<rect x="361.8" y="172.7" class="st83" width="29" height="1.7"/>
			</g>
			<g>
				<rect x="339.5" y="164.7" class="st82" width="51.3" height="1.7"/>
			</g>
			<g>
				<rect x="339.5" y="156.7" class="st82" width="118.1" height="1.7"/>
			</g>
			<g>
				<rect x="317.2" y="148.7" class="st82" width="118.1" height="1.7"/>
			</g>
		</g>
		<g>
			<g>
				<rect x="257.3" y="140.6" class="st82" width="6.6" height="2"/>
			</g>
			<g>
				<rect x="257.3" y="132.6" class="st82" width="6.6" height="2"/>
			</g>
			<g>
				<rect x="257.3" y="124.6" class="st82" width="6.6" height="2"/>
			</g>
			<g>
				<rect x="257.3" y="116.7" class="st82" width="6.6" height="2"/>
			</g>
			<g>
				<rect x="257.3" y="108.7" class="st82" width="6.6" height="2"/>
			</g>
			<g>
				<rect x="257.3" y="100.7" class="st82" width="6.6" height="2"/>
			</g>
			<g>
				<rect x="257.3" y="92.7" class="st82" width="6.6" height="2"/>
			</g>
			<g>
				<rect x="257.3" y="84.7" class="st82" width="6.6" height="2"/>
			</g>
			<g>
				<rect x="257.3" y="76.7" class="st82" width="6.6" height="2"/>
			</g>
			<g>
				<rect x="257.3" y="68.7" class="st82" width="6.6" height="2"/>
			</g>
		</g>
		<g>
			<g>
				<rect x="257.3" y="212.5" class="st82" width="6.6" height="2"/>
			</g>
			<g>
				<rect x="257.3" y="204.5" class="st82" width="6.6" height="2"/>
			</g>
			<g>
				<rect x="257.3" y="196.5" class="st82" width="6.6" height="2"/>
			</g>
			<g>
				<rect x="257.3" y="188.5" class="st82" width="6.6" height="2"/>
			</g>
			<g>
				<rect x="257.3" y="180.5" class="st82" width="6.6" height="2"/>
			</g>
			<g>
				<rect x="257.3" y="172.5" class="st82" width="6.6" height="2"/>
			</g>
			<g>
				<rect x="257.3" y="164.6" class="st82" width="6.6" height="2"/>
			</g>
			<g>
				<rect x="257.3" y="156.6" class="st82" width="6.6" height="2"/>
			</g>
			<g>
				<rect x="257.3" y="148.6" class="st82" width="6.6" height="2"/>
			</g>
			<g>
				<rect x="257.3" y="140.6" class="st82" width="6.6" height="2"/>
			</g>
		</g>
		<g>
			<rect x="252.8" y="46.4" class="st82" width="40.8" height="4"/>
		</g>
		<rect x="314.4" y="44" class="st82" width="89.7" height="9.8"/>
		<g>
			<rect x="319.1" y="47.4" class="st86" width="68.3" height="3"/>
		</g>
	</g>
</g>
<g>
	<path class="st87" d="M526.7,334.9c0-5.3-41-9.6-91.6-9.6s-91.6,4.3-91.6,9.6c0,0.2,0.1,0.4,0.2,0.6c-0.1,0.2-0.2,0.4-0.2,0.6
		c0,5.3,41,9.6,91.6,9.6s91.6-4.3,91.6-9.6c0-0.2-0.1-0.4-0.2-0.6C526.6,335.3,526.7,335.1,526.7,334.9z"/>
	<path class="st88" d="M401.7,294.8c1.6,0.8,14,9.4,32.4,9.4c18.4,0,34-9.2,35.8-9.6c1.8,2.7,3.3,6.4,3.3,6.4c0.1,0.1,0,0.3-0.1,0.4
		l-29.7,35.1c-6.7,1.4-15.3,0.2-15.3,0.2l-29.8-35.7c-0.1-0.1-0.1-0.3,0-0.5C398.5,300.6,401.5,294.7,401.7,294.8z"/>
	<path class="st89" d="M400,302.8c0.8-1.5,1.6-3,1.7-2.9c1.6,0.8,14,9.4,32.4,9.4c18.4,0,34-9.2,35.8-9.6c0.7,1.1,1.4,2.3,1.9,3.4
		l1.3-1.6c0.1-0.1,0.1-0.3,0.1-0.4c0,0-1.6-3.8-3.3-6.4c-1.8,0.4-17.4,9.6-35.8,9.6c-18.4,0-30.7-8.5-32.4-9.4
		c-0.2-0.1-3.2,5.8-3.2,5.8c-0.1,0.1-0.1,0.3,0,0.5L400,302.8z"/>
	<path class="st88" d="M475.7,333.8c11.5-5.5,36.5-20.4,47.1-42.7c1.5-3.1-2.2-16.2-14.2-12c-7.4,2.6-46.1,15.7-52.4,24
		c-10.1,13.4-10.6,25.6-12.7,33.5C449.2,339,470,336.5,475.7,333.8z"/>
	<path class="st88" d="M394.7,333.9c-11.5-5.5-44.7-29.4-46.2-42.8c-0.4-3.4-3.7-13.9,10.6-13.4c7.4,2.6,49,17.8,56,25.4
		c8.8,9.6,11.7,26.2,12.7,33.5C422.1,339,400.4,336.6,394.7,333.9z"/>
	<path class="st90" d="M470.9,327.5c-10.9-0.5-22.8-1.8-27.3-2.8c-13-5.3-83.8-46.5-83.8-46.5c-11.5-3.1-15.2,8.7-11.7,14.9
		c9.1,16,17.6,25.2,49.9,29.5c9.6,1.3,27.8,6.7,37.6,10.4c0.7,2.3,3,4.8,8.4,5.3c2.9,0.3,19.2,6.1,26.7,5.5
		c12.6-1.1,12.6-6.7,12.6-9.2C483.4,332,480.3,327.9,470.9,327.5z"/>
	<g>
		<path class="st91" d="M470.9,327.5c-10.9-0.5-22.8-1.8-27.3-2.8c-0.3-0.1-0.7-0.3-1-0.4l-8.8,8c0.6,0.2,1.3,0.5,1.8,0.7
			c0.7,2.3,3,4.8,8.4,5.3c2.9,0.3,19.2,6.1,26.7,5.5c12.6-1.1,12.6-6.7,12.6-9.2C483.4,332,480.3,327.9,470.9,327.5z"/>
		<path class="st92" d="M470.7,343.7c12.6-1.1,12.6-6.7,12.6-9.2c0-2.2-2.4-5.6-9.4-6.7c-1.8,1.5-4.4,6.1-4.7,12.3
			c-14.3,0.6-26.9-4.5-33.5-7.1c0.7,2.2,3,4.7,8.3,5.2C446.8,338.6,463.1,344.4,470.7,343.7z"/>
		<path class="st93" d="M448.4,334.4c-0.4,0-0.7-0.3-0.7-0.7l0-0.6c0-3,0.8-5.9,2.4-8.4c0.2-0.3,0.6-0.4,0.9-0.2
			c0.3,0.2,0.4,0.6,0.2,0.9c-1.4,2.3-2.2,5-2.2,7.7l0,0.6C449,334.1,448.7,334.4,448.4,334.4C448.4,334.4,448.4,334.4,448.4,334.4z"
			/>
		<path class="st93" d="M452.2,335c-0.4,0-0.7-0.3-0.7-0.7l0-0.6c0-3,0.8-5.9,2.4-8.4c0.2-0.3,0.6-0.4,0.9-0.2
			c0.3,0.2,0.4,0.6,0.2,0.9c-1.4,2.3-2.2,5-2.2,7.7l0,0.6C452.9,334.7,452.6,335,452.2,335C452.2,335,452.2,335,452.2,335z"/>
		<path class="st93" d="M456.1,335.5c-0.4,0-0.7-0.3-0.7-0.7l0-0.6c0-3,0.8-5.9,2.4-8.4c0.2-0.3,0.6-0.4,0.9-0.2
			c0.3,0.2,0.4,0.6,0.2,0.9c-1.4,2.3-2.2,5-2.2,7.7l0,0.6C456.8,335.2,456.5,335.5,456.1,335.5L456.1,335.5z"/>
		<path class="st93" d="M459.4,335.9c-0.4,0-0.7-0.3-0.7-0.7l0-0.6c0-3,0.8-5.9,2.4-8.4c0.2-0.3,0.6-0.4,0.9-0.2
			c0.3,0.2,0.4,0.6,0.2,0.9c-1.4,2.3-2.2,5-2.2,7.7l0,0.6C460.1,335.6,459.8,335.9,459.4,335.9C459.4,335.9,459.4,335.9,459.4,335.9
			z"/>
	</g>
	<path class="st94" d="M443.6,324.8c-2-0.8-5.3-2.5-9.6-4.7l0,0c-3,1.7-6.5,3.6-7.4,4c-1,0.2-7.8,1.1-12.4,2.1
		c7.7,2.1,15.8,4.7,21.3,6.7c0.1,0.5,0.4,1,0.7,1.5c5.7-3.1,20-5.2,25.7-7.5C454.1,326.4,446.9,325.5,443.6,324.8z"/>
	<path class="st95" d="M359.1,277.6c0,0,39.1,22.6,64.7,36.3c0,4.9-0.6,10.1-1,11.3c-0.9,2-6.4,9.1-8.8,12
		c-9.2-6-13.6-8.8-19.2-10.5C357.4,315.3,354,310,344.9,294C341.4,287.8,347.5,274.6,359.1,277.6z"/>
	<path class="st94" d="M344.5,293.1c-0.1-0.1-0.1-0.3-0.2-0.4c0-0.1,0-0.2-0.1-0.3c0-0.1-0.1-0.3-0.1-0.4c0-0.1,0-0.2-0.1-0.3
		c0-0.1-0.1-0.3-0.1-0.4c0-0.1,0-0.2,0-0.3c0-0.1,0-0.3,0-0.4c0-0.1,0-0.2,0-0.3c0-0.2,0-0.3,0-0.5c0-0.1,0-0.2,0-0.3
		c0-0.2,0-0.3,0-0.5c0-0.1,0-0.2,0-0.3c0-0.2,0-0.3,0.1-0.5c0-0.1,0-0.2,0-0.3c0-0.2,0.1-0.3,0.1-0.5c0-0.1,0-0.2,0.1-0.3
		c0-0.2,0.1-0.4,0.1-0.5c0-0.1,0.1-0.2,0.1-0.3c0.1-0.2,0.1-0.4,0.2-0.5c0-0.1,0.1-0.2,0.1-0.3c0.1-0.2,0.1-0.4,0.2-0.6
		c0-0.1,0.1-0.2,0.1-0.2c0.1-0.2,0.2-0.4,0.3-0.6c0-0.1,0.1-0.1,0.1-0.2c0.1-0.2,0.2-0.4,0.3-0.6c0-0.1,0.1-0.1,0.1-0.2
		c0.1-0.2,0.3-0.4,0.4-0.6c0,0,0-0.1,0.1-0.1c0.2-0.2,0.3-0.5,0.5-0.7l0,0c0.2,0.4,0.5,0.8,0.7,1.3c10.4,19.6,64,38.4,75.3,42.1
		c0,0,0,0,0,0c-0.9,2-6.4,9.1-8.8,12c-9.2-6-13.6-8.8-19.2-10.5C357.4,315.3,354,310,344.9,294c-0.1-0.2-0.2-0.4-0.3-0.6
		C344.6,293.3,344.6,293.2,344.5,293.1z"/>
	<path class="st96" d="M422.8,325.2c0-0.1,0.1-0.3,0.1-0.6c-5.8,1.4-14.6,3.3-22.3,3.4c-0.7,0-1.3,0-1.9,0.1
		c4.1,1.8,8.3,4.5,15.4,9.1C416.4,334.3,421.9,327.2,422.8,325.2z"/>
	<path class="st90" d="M511.2,279.9c0,0-72.3,42.4-84.5,45.3c-4.9,1.1-18.3,2.7-28,2.8c-9.4,0.1-10.6,4.6-10.5,7.1
		c0.1,2.5,5.3,8.1,9.1,8.6c11.9,1.5,26.3-3.9,29.2-4.2c6-0.6,9.1-4.9,9.5-7.3c9.2-3.7,29.1-8.2,37.5-9.2c32.6-4,40.8-14.9,49.9-30.9
		C526.8,286,522.7,276.9,511.2,279.9z"/>
	<path class="st95" d="M511.6,278.2c0,0-39.1,22.6-64.7,36.3c0,4.9,0.6,10.1,1,11.3c0.9,2,6.4,9.1,8.8,12c9.2-6,13.6-8.8,19.2-10.5
		c37.4-11.4,40.8-16.7,49.9-32.7C529.2,288.4,523.1,275.2,511.6,278.2z"/>
	<path class="st94" d="M526.1,293.7c0.1-0.1,0.1-0.3,0.2-0.4c0-0.1,0-0.2,0.1-0.3c0-0.1,0.1-0.3,0.1-0.4c0-0.1,0-0.2,0.1-0.3
		c0-0.1,0.1-0.3,0.1-0.4c0-0.1,0-0.2,0-0.3c0-0.1,0-0.3,0-0.4c0-0.1,0-0.2,0-0.3c0-0.2,0-0.3,0-0.5c0-0.1,0-0.2,0-0.3
		c0-0.2,0-0.3,0-0.5c0-0.1,0-0.2,0-0.3c0-0.2,0-0.3-0.1-0.5c0-0.1,0-0.2,0-0.3c0-0.2-0.1-0.3-0.1-0.5c0-0.1,0-0.2-0.1-0.3
		c0-0.2-0.1-0.4-0.1-0.5c0-0.1-0.1-0.2-0.1-0.3c-0.1-0.2-0.1-0.4-0.2-0.5c0-0.1-0.1-0.2-0.1-0.3c-0.1-0.2-0.1-0.4-0.2-0.6
		c0-0.1-0.1-0.2-0.1-0.2c-0.1-0.2-0.2-0.4-0.3-0.6c0-0.1-0.1-0.1-0.1-0.2c-0.1-0.2-0.2-0.4-0.3-0.6c0-0.1-0.1-0.1-0.1-0.2
		c-0.1-0.2-0.3-0.4-0.4-0.6c0,0,0-0.1-0.1-0.1c-0.2-0.2-0.3-0.5-0.5-0.7l0,0c-0.2,0.4-0.5,0.8-0.7,1.3c-10.4,19.6-64,38.4-75.3,42.1
		c0,0,0,0,0,0c0.9,2,6.4,9.1,8.8,12c9.2-6,13.6-8.8,19.2-10.5c37.4-11.4,40.8-16.7,49.9-32.7c0.1-0.2,0.2-0.4,0.3-0.6
		C526,293.9,526.1,293.8,526.1,293.7z"/>
	<path class="st96" d="M434.1,304.2c-2.1,0-4.2-0.1-6.2-0.3v5c0,0.7,0.6,1.3,1.3,1.3h9.8c0.7,0,1.3-0.6,1.3-1.3v-5
		C438.3,304.1,436.2,304.2,434.1,304.2z"/>
	<path class="st97" d="M439,303.8v3.6c0,0.4-0.3,0.7-0.7,0.7H430c-0.4,0-0.7-0.3-0.7-0.7v-3.6l-1.3,0v5c0,0.7,0.6,1.3,1.3,1.3h9.8
		c0.7,0,1.3-0.6,1.3-1.3v-5L439,303.8z"/>
	<g>
		<g>
			<path class="st98" d="M423.4,201.9c-3.8-1.8-10.1-9.1-12.1-24.7c-1.5-11.5-2.9-24.5,11.1-26.9c8.8-2.9,30.1-5.3,34,9.5
				c1.9,17.4-3.9,42.9-12.5,42c-0.3,5.5-9.6,4.1-12,4.7C425.8,208.1,423.4,201.9,423.4,201.9z"/>
		</g>
	</g>
	<path class="st99" d="M389.8,292.8l11.4,10.6l65.2,0.2l11.7-10.8c1.5-1.4,2.4-3.4,2.4-5.4l0,0h-93l0,0
		C387.4,289.4,388.2,291.4,389.8,292.8z"/>
	<polygon class="st100" points="387.4,287.4 404.7,301.5 465.1,301.5 480.4,287.4 	"/>
	<path class="st101" d="M498.5,263.5c-1.2-7.6-9.3-43.1-21-51.9c-16.6-12.6-50.1-16.6-85.2-1.1c-12.2,6-17.9,45.8-19.4,54.4
		c-3,16.2,22,21.7,25.6,22.4c7.4,1.4,9.6-2.3,10.6-5c1.8-4.8-13.4-13-14.4-18.3c4-19.7,1.1-18.9,0-27.2c1.2,5.6-0.7,8,4.9,19.3
		c1.1,2.2,3.2,31.4,2.1,38.7c-0.5,2.9,68.9,2.7,68.2-0.2c-1.7-7.1-0.3-37.9,0.4-39.8c3.2-8.1,3.5-16.3,3.9-18.6
		c-0.8,4.7-3.4,5.4,0,25.3c-4,3.8-14,17.6-12.3,22.4c1,2.8,4.2,7,8.5,3.5C473.7,284.7,501.1,279.9,498.5,263.5z"/>
	<path class="st102" d="M447.7,212.8c1.2-1.1,1.7-2.7,1.5-4.4c-0.5-3.5-1.3-10.1-0.7-14.2c0.8-5.5-28.3-2.3-28.3-2.3
		s-0.2,10.8-1,16.1c-0.2,1.4,0.1,2.8,1,3.9c2.4,2.9,7.3,5.7,13.5,6.2C440.4,218.5,445.2,215.1,447.7,212.8z"/>
	<path class="st103" d="M454.6,178.3L454.6,178.3c0.9,0,1.9,0.7,2.1,1.6c0.4,2,0,5.3-0.8,7.7c0,0.1-0.1,0.3-0.1,0.4
		c-0.3,1-0.8,1.8-1.2,2.1c-1.2,1.1-3.2,1.5-3.2,1.5L454.6,178.3z"/>
	<path class="st94" d="M454.1,185.1c-0.2,2-0.7,2.6-1.6,2.5c-0.9-0.1-1.4-1.8-1.1-3.8c0.2-2,1.1-3.5,2-3.4
		C454.2,180.6,454.3,183.1,454.1,185.1z"/>
	<path class="st104" d="M413.6,178.3L413.6,178.3c-0.9,0-2,0.7-2.3,1.6c-0.7,2.7-0.1,7.8,1.9,9.6c1.2,1.1,2.8,1.6,2.8,1.6
		L413.6,178.3z"/>
	<path class="st94" d="M413.7,185c0.2,2,0.7,2.8,1.6,2.7c0.9-0.1,1.4-1.8,1.1-3.8c-0.2-2-1.1-3.5-2-3.4
		C413.5,180.6,413.4,183,413.7,185z"/>
	<path class="st105" d="M449.7,173.2c2.2,1.1,1.2,11.4,1.2,13.9c0,1,1.1,0.5,1.6,0.5c0,4.3-0.5,10-1.3,12.7
		c-0.7,2.4-11,10.1-17.1,10.1c-6.1,0-17.2-9.2-17.8-11.6c-0.8-3.3-0.7-6-1.1-11.3c0.8,0.1,1.5,0.1,1.5-0.6c0-1.1-1.5-14.1,4.6-16.9
		C425.4,173,445.3,174.4,449.7,173.2z"/>
	<path class="st94" d="M394.9,236.2c0,0.1,0,0.4-0.2,0.8c0,0,0,0,0-0.1c0,0,0,0,0,0l0,0c0.7,0.1-0.7,8,4.9,19.3
		c0.4,0.8,1,5.6,1.5,11.6c3.2-6.3,8.6-8.9,16.7-9.9C413,257.1,399.7,256.1,394.9,236.2z"/>
	<path class="st94" d="M470.4,254.8c3.2-8.1,3.5-16.3,3.9-18.6c-3.9,18.6-17,20.9-26.5,22c3.6,0.6,17.4,3.8,21.3,21.7
		C469.2,268.9,469.9,256,470.4,254.8z"/>
	<path class="st99" d="M404.6,304.6h58.5c3.1,0,5.6-2.5,5.6-5.6l0,0h-69.6l0,0C399.1,302.1,401.6,304.6,404.6,304.6z"/>
	<path class="st99" d="M468.7,299.1h-69.6l-10.6-38.7c-0.6-2.1,1-4.2,3.2-4.2h84.3c2.2,0,3.8,2.1,3.2,4.2L468.7,299.1z"/>
	<path class="st106" d="M440.1,281.7c0,1.9-2.9,3.4-6.5,3.4c-3.6,0-6.5-1.5-6.5-3.4s2.9-3.4,6.5-3.4
		C437.2,278.3,440.1,279.9,440.1,281.7z"/>
	<g>
		<path class="st91" d="M428.3,324.7c-0.6,0.2-1.2,0.4-1.6,0.5c-4.9,1.1-18.3,2.7-28,2.8c-9.4,0.1-10.6,4.6-10.5,7.1
			c0.1,2.5,5.3,8.1,9.1,8.6c11.9,1.5,26.3-3.9,29.2-4.2c6-0.6,9.1-4.9,9.5-7.3c0,0-5.7,1.6-4.5-1.2c1.1-2.5-0.4-5.4-3.1-6.1
			C428.2,324.9,428.1,324.8,428.3,324.7z"/>
		<path class="st92" d="M401.1,341.1c1.9-5.5-0.1-10.6-1.4-13.1c-0.3,0-0.7,0-1,0c-9.4,0.1-10.6,4.6-10.5,7.1
			c0.1,2.5,5.3,8.1,9.1,8.6c11.9,1.5,26.3-3.9,29.2-4.2c2.9-0.3,5.1-1.4,6.7-2.8C425,338.9,400.9,344.9,401.1,341.1z"/>
		<path class="st93" d="M422.8,335.2C422.8,335.2,422.8,335.2,422.8,335.2c-0.4,0-0.7-0.3-0.7-0.7l0-0.6c0-2.7-0.7-5.4-2.2-7.7
			c-0.2-0.3-0.1-0.7,0.2-0.9c0.3-0.2,0.7-0.1,0.9,0.2c1.6,2.5,2.4,5.5,2.4,8.4l0,0.6C423.4,334.9,423.1,335.2,422.8,335.2z"/>
		<path class="st93" d="M418.9,335.8C418.9,335.8,418.9,335.8,418.9,335.8c-0.4,0-0.7-0.3-0.7-0.7l0-0.6c0-2.7-0.7-5.4-2.2-7.7
			c-0.2-0.3-0.1-0.7,0.2-0.9c0.3-0.2,0.7-0.1,0.9,0.2c1.6,2.5,2.4,5.5,2.4,8.4l0,0.6C419.6,335.5,419.3,335.8,418.9,335.8z"/>
		<path class="st93" d="M415,336.3C415,336.3,415,336.3,415,336.3c-0.4,0-0.7-0.3-0.7-0.7l0-0.6c0-2.7-0.7-5.4-2.2-7.7
			c-0.2-0.3-0.1-0.7,0.2-0.9c0.3-0.2,0.7-0.1,0.9,0.2c1.6,2.5,2.4,5.5,2.4,8.4l0,0.6C415.7,336,415.4,336.3,415,336.3z"/>
		<path class="st93" d="M411.7,336.7C411.7,336.7,411.7,336.7,411.7,336.7c-0.4,0-0.7-0.3-0.7-0.7l0-0.6c0-2.7-0.7-5.4-2.2-7.7
			c-0.2-0.3-0.1-0.7,0.2-0.9c0.3-0.2,0.7-0.1,0.9,0.2c1.6,2.5,2.4,5.5,2.4,8.4l0,0.6C412.4,336.4,412.1,336.7,411.7,336.7z"/>
	</g>
</g>
<path class="st107" d="M526.6,289.3L526.6,289.3c0-0.5-0.1-0.9-0.2-1.4c0-0.1,0-0.1,0-0.2l0,0c0-0.2-0.1-0.3-0.1-0.5l0,0
	c0-0.1-0.1-0.2-0.1-0.3l0,0c-0.2-0.5-0.3-1-0.6-1.5c0,0,0,0,0,0l0,0c-0.1-0.2-0.2-0.4-0.3-0.6l0,0c0,0,0-0.1,0-0.1
	c-0.1-0.2-0.2-0.5-0.4-0.7c0,0,0,0,0,0c0-0.1-0.1-0.1-0.1-0.2l0,0c-0.1-0.2-0.3-0.4-0.4-0.6c0,0,0,0,0,0c0,0,0-0.1-0.1-0.1l0,0
	c-0.2-0.2-0.3-0.5-0.5-0.7l0,0v0c-2.6-3.4-6.8-5.5-12.3-4.1c0,0-0.1,0-0.2,0.1c-0.9,0.1-1.8,0.3-2.8,0.7
	c-3.9,1.4-16.6,5.7-28.6,10.7c0.3-0.8,0.4-1.6,0.4-2.4h-8.5l0.2-0.9c6.8-2.9,28.8-8.2,26.4-23c-1.2-7.6-9.3-43.1-21-51.9
	c-6.6-5-15.9-8.6-26.9-10.2c0.3-0.4,0.5-0.8,0.6-1c0.5-1.6,0.8-4.4,1.1-7.2c0.3-0.6,0.5-1.3,0.7-2c0.5-0.2,1.1-0.5,1.5-0.9
	c1.5-1.3,2.7-7.4,2.1-10.3c-0.1-0.4-0.4-0.8-0.8-1.1c0.9-6.4,1.1-13.1,0.5-18.9c-2.6-9.9-13-12.2-22.3-11.7v189c1.6,0,3.4,0,5.3-0.1
	c0.1,0.1,0.3,0.1,0.4,0.2c0.1,0,0.2,0.1,0.3,0.1c0.1,0.1,0.3,0.1,0.4,0.2c0.1,0,0.2,0.1,0.4,0.1c0.1,0,0.3,0.1,0.4,0.1
	c0.1,0,0.3,0.1,0.4,0.1c0.1,0,0.3,0.1,0.4,0.1c0.2,0,0.3,0.1,0.5,0.1c0.1,0,0.3,0,0.4,0.1c0.2,0,0.4,0.1,0.7,0.1c0.1,0,0.2,0,0.3,0
	c0.9,0.1,3.1,0.7,5.9,1.5c0.6,0.2,1.2,0.3,1.8,0.5c1.2,0.3,2.5,0.7,3.9,1.1c0.3,0.1,0.7,0.2,1,0.3c0.7,0.2,1.4,0.3,2.1,0.5
	c1,0.2,2.1,0.5,3.1,0.7c0.7,0.1,1.4,0.3,2,0.4c2.6,0.5,5.1,0.7,7,0.5c3.2-0.3,5.5-0.8,7.3-1.6c5.3-2.2,5.3-5.8,5.3-7.7v0l0,0
	c0-0.1,0-0.3,0-0.5c0-0.1,0-0.1,0-0.2c0-0.1,0-0.2-0.1-0.3c0-0.1,0-0.1-0.1-0.2c0-0.1-0.1-0.2-0.1-0.3c0-0.1-0.1-0.2-0.1-0.2
	c0-0.1-0.1-0.2-0.1-0.3c0-0.1-0.1-0.2-0.2-0.3c0-0.1-0.1-0.2-0.2-0.2c-0.1-0.1-0.1-0.2-0.2-0.3c-0.1-0.1-0.1-0.1-0.2-0.2
	c-0.1-0.1-0.2-0.2-0.3-0.3c0,0-0.1-0.1-0.1-0.1c-0.1-0.1-0.2-0.2-0.3-0.3c5-2.8,11.2-6.6,17.4-11.5c16.6-6.9,20.2-12.9,27-24.8
	c0.2-0.4,0.4-0.8,0.6-1.3l0,0c0-0.1,0-0.2,0.1-0.3c0.1-0.4,0.2-0.8,0.3-1.2l0,0c0,0,0-0.1,0-0.1c0-0.2,0.1-0.4,0.1-0.6l0,0
	c0,0,0-0.1,0-0.1C526.7,290.5,526.7,289.9,526.6,289.3C526.6,289.3,526.6,289.3,526.6,289.3z M470.1,256.2c0,0,0-0.1,0-0.1
	c0,0,0-0.1,0-0.1c0-0.2,0-0.3,0.1-0.5c0,0,0,0,0-0.1c0-0.1,0-0.3,0.1-0.4c0,0,0,0,0-0.1c0-0.1,0-0.2,0.1-0.2c1-2.6,1.8-5.1,2.3-7.5
	c0.1,2.3,0.3,5.2,0.8,8.9H470.1z"/>
<path class="st108" d="M455.8,187.8c0,0,2.8,1.6,0.6,4c0,0-1.7,1.3-3.3-0.6c-1.6-1.9-0.8-2.2-0.8-2.2s2-1.1,2.1-1.1
	C454.5,187.7,455.8,187.8,455.8,187.8z"/>
<path class="st104" d="M412.1,192.1c0,0-2.8-1.6-0.6-3.9c0,0,1.7-1.3,3.3,0.6c1.6,1.9,0.8,2.2,0.8,2.2s-2,1.1-2.1,1.1
	C413.5,192.1,412.1,192.1,412.1,192.1z"/>
<circle class="st109" cx="455" cy="189.9" r="1.8"/>
<circle class="st109" cx="413" cy="189.9" r="1.8"/>
</svg>
