<?xml version="1.0" encoding="utf-8"?>
<!-- Generator: Adobe Illustrator 24.0.2, SVG Export Plug-In . SVG Version: 6.00 Build 0)  -->
<svg version="1.1" xmlns="http://www.w3.org/2000/svg" xmlns:xlink="http://www.w3.org/1999/xlink" x="0px" y="0px"
	 viewBox="0 0 674.4 397.3" style="enable-background:new 0 0 674.4 397.3;" xml:space="preserve">
<style type="text/css">
	.st0{fill:#51389E;}
	.st1{fill:#44177F;}
	.st2{fill:#2D1772;}
	.st3{fill:#FFFFFF;}
	.st4{fill:#5B1BBF;}
	.st5{fill:#5C22A8;}
	.st6{fill:url(#SVGID_1_);}
	.st7{fill:#F2F0E4;}
	.st8{fill:#5A1582;}
	.st9{fill:url(#SVGID_2_);}
	.st10{fill:#000A2D;}
	.st11{fill:#ACBEE9;}
	.st12{fill:#8B8BF7;}
	.st13{fill:#EDEDF2;}
	.st14{fill:#303072;}
	.st15{fill:#6C63FF;}
	.st16{fill:#D7D7E2;}
	.st17{fill:#282A36;}
	.st18{fill:#4E587B;}
	.st19{fill:#D7F8F2;}
	.st20{fill:#F279BD;}
	.st21{fill:#FFAE91;}
	.st22{fill:#281F17;}
	.st23{fill:#19193A;}
	.st24{fill:#3E3E96;}
</style>
<symbol  id="New_Symbol" viewBox="-52.8 -66.6 105.6 133.2">
	<path class="st0" d="M52.8-12.6c-0.6,53.1-18.7,91-55.5,75.8C-31.3,51.4-27.3,1,10-22.6C35.8-38.9,53-29.6,52.8-12.6z"/>
	<path class="st1" d="M-3.3-34.1c-12.6,14-38.5,21.8-47.1,1.6c-10.1-23.5,14.8-35.2,33.5-34.1C15.7-64.6,5.2-43.5-3.3-34.1z"/>
</symbol>
<symbol  id="New_Symbol_1" viewBox="-27 -28.6 54 57.2">
	<path class="st2" d="M-23.5,24c-8.4-8.3-0.9-34.3,13-45.8C14.4-42.6,34.7-10.3,24.2,6.9C10.4,29.4-14.3,33-23.5,24z"/>
</symbol>
<g id="Camada_2">
	<path class="st3" d="M394,348.1c-6.6,2.2-9.3,17.9-4.9,27.6c7.8,17.4,26.9,5.6,25.7-6.2C413.3,354,401.2,345.7,394,348.1z"/>
	<path class="st3" d="M463.5,305.4c11.4-22.2,19.4-49,23.7-76.8c29.4-35.2,40.3-69.8-2.1-112c-8.5-38.1-25.9-67-52.2-73.6
		c-33.3-8.3-51.6,2.1-74.7,22c-35.1-29.6-103.5-11.1-137.7,44.6c-15.4,25.1-22.9,59-23.6,89.3c-27.4,50,1.6,98.8,44.3,103.2
		c22.7,75,92.3,102.9,139.6,38.5c1.5-2,3-4,4.5-6C419,347.9,440,351.1,463.5,305.4z"/>
	<path class="st3" d="M206,86.9c10,1.9,17.3-7.3,10.3-24.2c-10.1-24.5-39.4-32.1-49.4-16.4C154.1,66.5,174.7,81.1,206,86.9z"/>
	<path class="st3" d="M245,51.3c2.6-11-1.7-26.9-16.7-23.3c-12.8,3-10.9,19.1-3.9,28C229.1,62,240.5,70.4,245,51.3z"/>
	<g>
		<path class="st4" d="M455.4,91.9C369.6,31,240.5,76.6,234,240.7c-4.7,117.7,88.2,179.7,146.8,99.9
			C450.5,245.7,593.2,189.9,455.4,91.9z"/>
		
			<use xlink:href="#New_Symbol_1"  width="54" height="57.2" id="XMLID_2_" x="-27" y="-28.6" transform="matrix(0.5285 0.2576 0.2576 -0.5285 400.2481 366.8219)" style="overflow:visible;"/>
		<path class="st5" d="M248.3,302.4c-63.5,0.8-103.5-95.9,8.8-159.9C360,83.8,366.8,26.5,433,43c66.2,16.5,75.7,174.6,30.6,262.4
			S382.7,300.7,248.3,302.4z"/>
		<radialGradient id="SVGID_1_" cx="433.5455" cy="80.7472" r="238.8181" gradientUnits="userSpaceOnUse">
			<stop  offset="0" style="stop-color:#A942E4"/>
			<stop  offset="0.7386" style="stop-color:#8E42D0"/>
			<stop  offset="1" style="stop-color:#7B1BD0"/>
		</radialGradient>
		<path class="st6" d="M485.2,116.6c-8-7.9-17.8-16.1-29.8-24.6C424.9,70.3,389,62.1,355,67.9c-22,19.3-48.9,46.5-97,74.1
			c-13.7,26-22.5,58.9-24.1,98.7c-0.9,22.8,1.8,43.5,7.3,61.4c2.3,0.2,4.7,0.4,7.1,0.3c64.3-0.8,106,20,137,32.2
			c31.2-40.1,74.6-73.3,101.9-106C493.3,190.3,492.7,149.9,485.2,116.6z"/>
		<path class="st7" d="M244.8,312.4h-24.2V61.1h142.4c5.9-4.9,11.6-9,17.4-12.3H208.2v276h42C248.2,320.8,246.4,316.7,244.8,312.4z"
			/>
		<path class="st7" d="M446.5,48.7c5.1,3.2,9.8,7.3,14.1,12.3h11.3v251.3h-12.1c-2.7,4.7-5.4,8.8-8.1,12.3h32.6v-276H446.5z"/>
		<path class="st8" d="M250.1,258.3C322.4,187.8,422.5,146,366.3,73.4c-31.6-40.8-108.7-24.1-145.8,36.2
			C178.6,177.7,195.1,311.9,250.1,258.3z"/>
		
			<use xlink:href="#New_Symbol"  width="105.6" height="133.2" id="XMLID_1_" x="-52.8" y="-66.6" transform="matrix(-0.1036 0.5909 -0.5909 -0.1036 203.9755 54.434)" style="overflow:visible;"/>
		<radialGradient id="SVGID_2_" cx="331.8272" cy="68.3999" r="144.9455" gradientUnits="userSpaceOnUse">
			<stop  offset="0" style="stop-color:#7230C2"/>
			<stop  offset="0.4525" style="stop-color:#7230A6"/>
			<stop  offset="1" style="stop-color:#602291"/>
		</radialGradient>
		<path class="st9" d="M360.6,67.1c-1.9,0.2-3.7,0.5-5.6,0.8c-22,19.3-48.9,46.5-97,74.1c-13.7,26-22.5,58.9-24.1,98.7
			c-0.4,9.8-0.1,19.3,0.8,28.3c4.7-1.9,9.8-5.3,15.3-10.7C322.4,187.8,422.5,146,366.3,73.4C364.6,71.1,362.6,69,360.6,67.1z"/>
	</g>
</g>
<g id="Camada_1">
	<polygon class="st10" points="273.2,246.5 266.8,306.6 269.7,306.6 280.8,246.5 	"/>
	<polygon class="st10" points="403.1,246.5 409.5,306.6 406.6,306.6 395.5,246.5 	"/>
	<ellipse class="st11" cx="338.8" cy="341.4" rx="76.5" ry="27.7"/>
	<polygon class="st12" points="451.7,259.7 225.8,259.7 239.5,234.5 433.2,234.5 	"/>
	<polygon class="st12" points="253.1,264.4 246.7,324.5 249.7,324.5 260.8,264.4 	"/>
	<polygon class="st12" points="421.9,264.4 428.3,324.5 425.3,324.5 414.2,264.4 	"/>
	<g>
		<polygon class="st13" points="295.6,248.4 295.8,250.6 381.3,250.6 382,248.4 		"/>
		<g>
			<path class="st3" d="M380.9,244.7c0.9,2.6-0.6,4.7-3.4,4.7h-77.4c-2.8,0-4.4-2.2-3.7-4.8l0.7-2.6c0.7-2.7,3.6-4.8,6.3-4.8l70,0.3
				c2.7,0,5.7,2.2,6.6,4.8L380.9,244.7z"/>
		</g>
	</g>
	<rect x="225.8" y="259.7" class="st14" width="225.9" height="5.5"/>
	<g>
		<g>
			<circle class="st3" cx="338.8" cy="102.6" r="21.7"/>
		</g>
	</g>
	<path class="st15" d="M338.3,103.4l-9.6-15c-0.3-0.4-0.1-0.9,0.3-1.2c0.4-0.3,0.9-0.1,1.2,0.3l9.1,14.2l14.4-0.1c0,0,0,0,0,0
		c0.5,0,0.8,0.4,0.9,0.8c0,0.5-0.4,0.9-0.8,0.9L338.3,103.4z"/>
	<g>
		<g>
			<circle class="st3" cx="287.6" cy="102.6" r="21.7"/>
		</g>
	</g>
	<path class="st15" d="M277.3,112.1c-0.2,0-0.5-0.1-0.7-0.3c-0.3-0.4-0.3-0.9,0.1-1.2l9.8-8.2l-8.6-14c-0.2-0.4-0.1-0.9,0.3-1.2
		c0.4-0.2,0.9-0.1,1.2,0.3l9.3,15.3l-10.9,9.1C277.7,112,277.5,112.1,277.3,112.1z"/>
	<g>
		<g>
			<circle class="st3" cx="389.9" cy="102.6" r="21.7"/>
		</g>
	</g>
	<path class="st15" d="M400.9,112.6c-0.2,0-0.4-0.1-0.5-0.2l-11-9.3l-0.1-0.1l-9.9-14.5c-0.3-0.4-0.2-0.9,0.2-1.2
		c0.4-0.3,0.9-0.2,1.2,0.2l9.9,14.4l10.9,9.2c0.4,0.3,0.4,0.8,0.1,1.2C401.4,112.5,401.1,112.6,400.9,112.6z"/>
	<g>
		<g>
			<path class="st13" d="M273.8,220.5c0,0,0.3,4.9-0.7,8.2c-1.7,5.5-6.5,6.1-6.5,9c0,0.1,30.2,0.1,30.2,0c0-2.8-4.6-3.7-6.1-8.8
				c-1.2-3.8-0.5-8.4-0.5-8.4H273.8z"/>
			<rect x="266.6" y="237.7" class="st16" width="30.2" height="1.3"/>
		</g>
		<g>
			<g>
				<path class="st3" d="M335,208.3c0,8.3-6.8,15-15,15h-76.6c-8.3,0-15-6.8-15-15v-42.9c0-8.3,6.8-15,15-15H320c8.3,0,15,6.8,15,15
					V208.3z"/>
			</g>
			<rect x="233" y="155.2" class="st17" width="97.3" height="56.9"/>
		</g>
		<circle class="st15" cx="281.7" cy="217.7" r="2.4"/>
	</g>
	<g>
		<path class="st18" d="M251,164.2H245c-0.2,0-0.4-0.2-0.4-0.4c0-0.2,0.2-0.4,0.4-0.4h5.9c0.2,0,0.4,0.2,0.4,0.4
			C251.3,164,251.2,164.2,251,164.2z"/>
		<path class="st19" d="M266.3,164.2h-13.2c-0.2,0-0.4-0.2-0.4-0.4c0-0.2,0.2-0.4,0.4-0.4h13.2c0.2,0,0.4,0.2,0.4,0.4
			C266.7,164,266.5,164.2,266.3,164.2z"/>
		<path class="st19" d="M301.2,164.2h-8.8c-0.2,0-0.4-0.2-0.4-0.4c0-0.2,0.2-0.4,0.4-0.4h8.8c0.2,0,0.4,0.2,0.4,0.4
			C301.5,164,301.4,164.2,301.2,164.2z"/>
		<path class="st20" d="M289.8,164.2h-20.5c-0.2,0-0.4-0.2-0.4-0.4c0-0.2,0.2-0.4,0.4-0.4h20.5c0.2,0,0.4,0.2,0.4,0.4
			C290.2,164,290,164.2,289.8,164.2z"/>
		<path class="st18" d="M254.4,167.2H245c-0.2,0-0.4-0.2-0.4-0.4s0.2-0.4,0.4-0.4h9.4c0.2,0,0.4,0.2,0.4,0.4
			S254.7,167.2,254.4,167.2z"/>
		<path class="st19" d="M271,167.2h-14.3c-0.2,0-0.4-0.2-0.4-0.4s0.2-0.4,0.4-0.4H271c0.2,0,0.4,0.2,0.4,0.4S271.2,167.2,271,167.2z
			"/>
		<path class="st19" d="M306.6,167.2h-13.3c-0.2,0-0.4-0.2-0.4-0.4s0.2-0.4,0.4-0.4h13.3c0.2,0,0.4,0.2,0.4,0.4
			S306.8,167.2,306.6,167.2z"/>
		<path class="st19" d="M290.6,167.2h-16.8c-0.2,0-0.4-0.2-0.4-0.4s0.2-0.4,0.4-0.4h16.8c0.2,0,0.4,0.2,0.4,0.4
			S290.8,167.2,290.6,167.2z"/>
		<path class="st18" d="M255.2,170.6h-7c-0.2,0-0.4-0.2-0.4-0.4c0-0.2,0.2-0.4,0.4-0.4h7c0.2,0,0.4,0.2,0.4,0.4
			C255.5,170.4,255.4,170.6,255.2,170.6z"/>
		<path class="st19" d="M273.8,170.6h-16.5c-0.2,0-0.4-0.2-0.4-0.4c0-0.2,0.2-0.4,0.4-0.4h16.5c0.2,0,0.4,0.2,0.4,0.4
			C274.2,170.4,274,170.6,273.8,170.6z"/>
		<path class="st18" d="M250.3,173.6h-2.2c-0.2,0-0.4-0.2-0.4-0.4s0.2-0.4,0.4-0.4h2.2c0.2,0,0.4,0.2,0.4,0.4
			S250.5,173.6,250.3,173.6z"/>
		<path class="st20" d="M266.3,173.6h-13c-0.2,0-0.4-0.2-0.4-0.4s0.2-0.4,0.4-0.4h13c0.2,0,0.4,0.2,0.4,0.4S266.5,173.6,266.3,173.6
			z"/>
		<path class="st19" d="M293.1,173.6h-23.8c-0.2,0-0.4-0.2-0.4-0.4s0.2-0.4,0.4-0.4h23.8c0.2,0,0.4,0.2,0.4,0.4
			S293.3,173.6,293.1,173.6z"/>
		<path class="st18" d="M252.6,177h-4.5c-0.2,0-0.4-0.2-0.4-0.4c0-0.2,0.2-0.4,0.4-0.4h4.5c0.2,0,0.4,0.2,0.4,0.4
			C253,176.8,252.8,177,252.6,177z"/>
		<path class="st19" d="M265.3,177H255c-0.2,0-0.4-0.2-0.4-0.4c0-0.2,0.2-0.4,0.4-0.4h10.4c0.2,0,0.4,0.2,0.4,0.4
			C265.7,176.8,265.5,177,265.3,177z"/>
		<path class="st19" d="M324.1,177h-35.7c-0.2,0-0.4-0.2-0.4-0.4c0-0.2,0.2-0.4,0.4-0.4h35.7c0.2,0,0.4,0.2,0.4,0.4
			C324.4,176.8,324.3,177,324.1,177z"/>
		<path class="st19" d="M286,177h-18.4c-0.2,0-0.4-0.2-0.4-0.4c0-0.2,0.2-0.4,0.4-0.4H286c0.2,0,0.4,0.2,0.4,0.4
			C286.4,176.8,286.3,177,286,177z"/>
		<path class="st18" d="M254.8,180.4h-4.4c-0.2,0-0.4-0.2-0.4-0.4c0-0.2,0.2-0.4,0.4-0.4h4.4c0.2,0,0.4,0.2,0.4,0.4
			C255.2,180.2,255.1,180.4,254.8,180.4z"/>
		<path class="st19" d="M269.9,180.4h-13.4c-0.2,0-0.4-0.2-0.4-0.4c0-0.2,0.2-0.4,0.4-0.4h13.4c0.2,0,0.4,0.2,0.4,0.4
			C270.3,180.2,270.1,180.4,269.9,180.4z"/>
		<path class="st19" d="M322.6,180.4h-41.5c-0.2,0-0.4-0.2-0.4-0.4c0-0.2,0.2-0.4,0.4-0.4h41.5c0.2,0,0.4,0.2,0.4,0.4
			C323,180.2,322.8,180.4,322.6,180.4z"/>
		<path class="st20" d="M278,180.4h-4.6c-0.2,0-0.4-0.2-0.4-0.4c0-0.2,0.2-0.4,0.4-0.4h4.6c0.2,0,0.4,0.2,0.4,0.4
			C278.4,180.2,278.2,180.4,278,180.4z"/>
		<path class="st18" d="M254.8,183.8h-4.4c-0.2,0-0.4-0.2-0.4-0.4c0-0.2,0.2-0.4,0.4-0.4h4.4c0.2,0,0.4,0.2,0.4,0.4
			C255.2,183.6,255.1,183.8,254.8,183.8z"/>
		<path class="st20" d="M267.6,183.8h-11.2c-0.2,0-0.4-0.2-0.4-0.4c0-0.2,0.2-0.4,0.4-0.4h11.2c0.2,0,0.4,0.2,0.4,0.4
			C268,183.6,267.9,183.8,267.6,183.8z"/>
		<path class="st19" d="M277.6,183.8h-8.3c-0.2,0-0.4-0.2-0.4-0.4c0-0.2,0.2-0.4,0.4-0.4h8.3c0.2,0,0.4,0.2,0.4,0.4
			C278,183.6,277.8,183.8,277.6,183.8z"/>
		<path class="st18" d="M254.8,187.2h-4.4c-0.2,0-0.4-0.2-0.4-0.4s0.2-0.4,0.4-0.4h4.4c0.2,0,0.4,0.2,0.4,0.4
			S255.1,187.2,254.8,187.2z"/>
		<path class="st19" d="M261.7,187.2h-5.3c-0.2,0-0.4-0.2-0.4-0.4s0.2-0.4,0.4-0.4h5.3c0.2,0,0.4,0.2,0.4,0.4S262,187.2,261.7,187.2
			z"/>
		<path class="st19" d="M298.5,187.2h-21.5c-0.2,0-0.4-0.2-0.4-0.4s0.2-0.4,0.4-0.4h21.5c0.2,0,0.4,0.2,0.4,0.4
			S298.7,187.2,298.5,187.2z"/>
		<path class="st20" d="M273.8,187.2h-9.8c-0.2,0-0.4-0.2-0.4-0.4s0.2-0.4,0.4-0.4h9.8c0.2,0,0.4,0.2,0.4,0.4
			S274.1,187.2,273.8,187.2z"/>
		<path class="st18" d="M260.4,190.6h-3.9c-0.2,0-0.4-0.2-0.4-0.4s0.2-0.4,0.4-0.4h3.9c0.2,0,0.4,0.2,0.4,0.4
			S260.6,190.6,260.4,190.6z"/>
		<path class="st19" d="M272,190.6h-9.6c-0.2,0-0.4-0.2-0.4-0.4s0.2-0.4,0.4-0.4h9.6c0.2,0,0.4,0.2,0.4,0.4S272.2,190.6,272,190.6z"
			/>
		<path class="st19" d="M284,190.6h-9.8c-0.2,0-0.4-0.2-0.4-0.4s0.2-0.4,0.4-0.4h9.8c0.2,0,0.4,0.2,0.4,0.4S284.2,190.6,284,190.6z"
			/>
		<path class="st18" d="M259.3,194.1h-2.8c-0.2,0-0.4-0.2-0.4-0.4c0-0.2,0.2-0.4,0.4-0.4h2.8c0.2,0,0.4,0.2,0.4,0.4
			C259.7,193.9,259.5,194.1,259.3,194.1z"/>
		<path class="st19" d="M267,194.1h-6.5c-0.2,0-0.4-0.2-0.4-0.4c0-0.2,0.2-0.4,0.4-0.4h6.5c0.2,0,0.4,0.2,0.4,0.4
			C267.4,193.9,267.2,194.1,267,194.1z"/>
		<path class="st19" d="M306.6,194.1h-28.7c-0.2,0-0.4-0.2-0.4-0.4c0-0.2,0.2-0.4,0.4-0.4h28.7c0.2,0,0.4,0.2,0.4,0.4
			C307,193.9,306.8,194.1,306.6,194.1z"/>
		<path class="st19" d="M276.1,194.1h-6.8c-0.2,0-0.4-0.2-0.4-0.4c0-0.2,0.2-0.4,0.4-0.4h6.8c0.2,0,0.4,0.2,0.4,0.4
			C276.5,193.9,276.3,194.1,276.1,194.1z"/>
		<path class="st18" d="M260.8,197.5h-4.3c-0.2,0-0.4-0.2-0.4-0.4c0-0.2,0.2-0.4,0.4-0.4h4.3c0.2,0,0.4,0.2,0.4,0.4
			C261.2,197.3,261,197.5,260.8,197.5z"/>
		<path class="st19" d="M274.1,197.5h-11.6c-0.2,0-0.4-0.2-0.4-0.4c0-0.2,0.2-0.4,0.4-0.4h11.6c0.2,0,0.4,0.2,0.4,0.4
			C274.5,197.3,274.3,197.5,274.1,197.5z"/>
		<path class="st19" d="M304.5,197.5h-14.5c-0.2,0-0.4-0.2-0.4-0.4c0-0.2,0.2-0.4,0.4-0.4h14.5c0.2,0,0.4,0.2,0.4,0.4
			C304.8,197.3,304.7,197.5,304.5,197.5z"/>
		<path class="st19" d="M287.6,197.5h-10.9c-0.2,0-0.4-0.2-0.4-0.4c0-0.2,0.2-0.4,0.4-0.4h10.9c0.2,0,0.4,0.2,0.4,0.4
			C288,197.3,287.8,197.5,287.6,197.5z"/>
		<path class="st18" d="M260.8,200.9h-4.3c-0.2,0-0.4-0.2-0.4-0.4c0-0.2,0.2-0.4,0.4-0.4h4.3c0.2,0,0.4,0.2,0.4,0.4
			C261.2,200.7,261,200.9,260.8,200.9z"/>
		<path class="st19" d="M272,200.9h-9.6c-0.2,0-0.4-0.2-0.4-0.4c0-0.2,0.2-0.4,0.4-0.4h9.6c0.2,0,0.4,0.2,0.4,0.4
			C272.4,200.7,272.2,200.9,272,200.9z"/>
		<path class="st19" d="M300.6,200.9h-14.9c-0.2,0-0.4-0.2-0.4-0.4c0-0.2,0.2-0.4,0.4-0.4h14.9c0.2,0,0.4,0.2,0.4,0.4
			C301,200.7,300.8,200.9,300.6,200.9z"/>
		<path class="st19" d="M283.2,200.9h-9.6c-0.2,0-0.4-0.2-0.4-0.4c0-0.2,0.2-0.4,0.4-0.4h9.6c0.2,0,0.4,0.2,0.4,0.4
			C283.6,200.7,283.5,200.9,283.2,200.9z"/>
		<path class="st18" d="M260.8,204.3h-4.3c-0.2,0-0.4-0.2-0.4-0.4s0.2-0.4,0.4-0.4h4.3c0.2,0,0.4,0.2,0.4,0.4S261,204.3,260.8,204.3
			z"/>
		<path class="st18" d="M241.2,164.2h-1.5c-0.2,0-0.4-0.2-0.4-0.4c0-0.2,0.2-0.4,0.4-0.4h1.5c0.2,0,0.4,0.2,0.4,0.4
			C241.6,164,241.4,164.2,241.2,164.2z"/>
		<path class="st18" d="M241.2,167.2h-1.5c-0.2,0-0.4-0.2-0.4-0.4s0.2-0.4,0.4-0.4h1.5c0.2,0,0.4,0.2,0.4,0.4
			S241.4,167.2,241.2,167.2z"/>
		<path class="st18" d="M241.2,170.6h-1.5c-0.2,0-0.4-0.2-0.4-0.4c0-0.2,0.2-0.4,0.4-0.4h1.5c0.2,0,0.4,0.2,0.4,0.4
			C241.6,170.4,241.4,170.6,241.2,170.6z"/>
		<path class="st18" d="M241.2,173.6h-1.5c-0.2,0-0.4-0.2-0.4-0.4s0.2-0.4,0.4-0.4h1.5c0.2,0,0.4,0.2,0.4,0.4
			S241.4,173.6,241.2,173.6z"/>
		<path class="st18" d="M241.2,177h-1.5c-0.2,0-0.4-0.2-0.4-0.4c0-0.2,0.2-0.4,0.4-0.4h1.5c0.2,0,0.4,0.2,0.4,0.4
			C241.6,176.8,241.4,177,241.2,177z"/>
		<path class="st18" d="M241.2,180.4h-1.5c-0.2,0-0.4-0.2-0.4-0.4c0-0.2,0.2-0.4,0.4-0.4h1.5c0.2,0,0.4,0.2,0.4,0.4
			C241.6,180.2,241.4,180.4,241.2,180.4z"/>
		<path class="st18" d="M241.2,183.8h-1.5c-0.2,0-0.4-0.2-0.4-0.4c0-0.2,0.2-0.4,0.4-0.4h1.5c0.2,0,0.4,0.2,0.4,0.4
			C241.6,183.6,241.4,183.8,241.2,183.8z"/>
		<path class="st18" d="M241.2,187.2h-1.5c-0.2,0-0.4-0.2-0.4-0.4s0.2-0.4,0.4-0.4h1.5c0.2,0,0.4,0.2,0.4,0.4
			S241.4,187.2,241.2,187.2z"/>
		<path class="st18" d="M241.2,190.6h-1.5c-0.2,0-0.4-0.2-0.4-0.4s0.2-0.4,0.4-0.4h1.5c0.2,0,0.4,0.2,0.4,0.4
			S241.4,190.6,241.2,190.6z"/>
		<path class="st18" d="M241.2,194.1h-1.5c-0.2,0-0.4-0.2-0.4-0.4c0-0.2,0.2-0.4,0.4-0.4h1.5c0.2,0,0.4,0.2,0.4,0.4
			C241.6,193.9,241.4,194.1,241.2,194.1z"/>
		<path class="st18" d="M241.2,197.5h-1.5c-0.2,0-0.4-0.2-0.4-0.4c0-0.2,0.2-0.4,0.4-0.4h1.5c0.2,0,0.4,0.2,0.4,0.4
			C241.6,197.3,241.4,197.5,241.2,197.5z"/>
		<path class="st18" d="M241.2,200.9h-1.5c-0.2,0-0.4-0.2-0.4-0.4c0-0.2,0.2-0.4,0.4-0.4h1.5c0.2,0,0.4,0.2,0.4,0.4
			C241.6,200.7,241.4,200.9,241.2,200.9z"/>
		<path class="st18" d="M241.2,204.3h-1.5c-0.2,0-0.4-0.2-0.4-0.4s0.2-0.4,0.4-0.4h1.5c0.2,0,0.4,0.2,0.4,0.4
			S241.4,204.3,241.2,204.3z"/>
		<path class="st19" d="M268.1,204.3h-5.7c-0.2,0-0.4-0.2-0.4-0.4s0.2-0.4,0.4-0.4h5.7c0.2,0,0.4,0.2,0.4,0.4
			S268.3,204.3,268.1,204.3z"/>
		<path class="st20" d="M283.3,204.3h-14c-0.2,0-0.4-0.2-0.4-0.4s0.2-0.4,0.4-0.4h14c0.2,0,0.4,0.2,0.4,0.4S283.6,204.3,283.3,204.3
			z"/>
	</g>
	<g>
		<g>
			<path class="st13" d="M388.1,220.5c0,0,0.3,4.9-0.7,8.2c-1.7,5.5-6.5,6.1-6.5,9c0,0.1,30.2,0.1,30.2,0c0-2.8-4.6-3.7-6.1-8.8
				c-1.2-3.8-0.5-8.4-0.5-8.4H388.1z"/>
			<rect x="380.8" y="237.7" class="st16" width="30.2" height="1.3"/>
		</g>
		<g>
			<g>
				<path class="st3" d="M449.2,208.3c0,8.3-6.8,15-15,15h-76.6c-8.3,0-15-6.8-15-15v-42.9c0-8.3,6.8-15,15-15h76.6
					c8.3,0,15,6.8,15,15V208.3z"/>
			</g>
			<rect x="347.2" y="155.2" class="st17" width="97.3" height="56.9"/>
		</g>
		<circle class="st15" cx="395.9" cy="217.7" r="2.4"/>
	</g>
	<g>
		<path class="st18" d="M383.8,165.1h-6.2c-0.2,0-0.4-0.2-0.4-0.4s0.2-0.4,0.4-0.4h6.2c0.2,0,0.4,0.2,0.4,0.4S384,165.1,383.8,165.1
			z"/>
		<path class="st19" d="M399.9,165.1h-13.8c-0.2,0-0.4-0.2-0.4-0.4s0.2-0.4,0.4-0.4h13.8c0.2,0,0.4,0.2,0.4,0.4
			S400.2,165.1,399.9,165.1z"/>
		<path class="st18" d="M387.5,168h-9.9c-0.2,0-0.4-0.2-0.4-0.4c0-0.2,0.2-0.4,0.4-0.4h9.9c0.2,0,0.4,0.2,0.4,0.4
			C387.9,167.8,387.7,168,387.5,168z"/>
		<path class="st19" d="M404.8,168h-15c-0.2,0-0.4-0.2-0.4-0.4c0-0.2,0.2-0.4,0.4-0.4h15c0.2,0,0.4,0.2,0.4,0.4
			C405.2,167.8,405.1,168,404.8,168z"/>
		<path class="st19" d="M425.4,168h-17.6c-0.2,0-0.4-0.2-0.4-0.4c0-0.2,0.2-0.4,0.4-0.4h17.6c0.2,0,0.4,0.2,0.4,0.4
			C425.8,167.8,425.6,168,425.4,168z"/>
		<path class="st18" d="M388.2,171.2h-7.4c-0.2,0-0.4-0.2-0.4-0.4s0.2-0.4,0.4-0.4h7.4c0.2,0,0.4,0.2,0.4,0.4
			S388.5,171.2,388.2,171.2z"/>
		<path class="st19" d="M407.8,171.2h-17.3c-0.2,0-0.4-0.2-0.4-0.4s0.2-0.4,0.4-0.4h17.3c0.2,0,0.4,0.2,0.4,0.4
			S408,171.2,407.8,171.2z"/>
		<path class="st19" d="M425.3,171.2h-15.5c-0.2,0-0.4-0.2-0.4-0.4s0.2-0.4,0.4-0.4h15.5c0.2,0,0.4,0.2,0.4,0.4
			S425.5,171.2,425.3,171.2z"/>
		<path class="st18" d="M383.1,174.1h-2.3c-0.2,0-0.4-0.2-0.4-0.4s0.2-0.4,0.4-0.4h2.3c0.2,0,0.4,0.2,0.4,0.4
			S383.4,174.1,383.1,174.1z"/>
		<path class="st20" d="M399.9,174.1h-13.7c-0.2,0-0.4-0.2-0.4-0.4s0.2-0.4,0.4-0.4h13.7c0.2,0,0.4,0.2,0.4,0.4
			S400.2,174.1,399.9,174.1z"/>
		<path class="st19" d="M439,174.1h-8.8c-0.2,0-0.4-0.2-0.4-0.4s0.2-0.4,0.4-0.4h8.8c0.2,0,0.4,0.2,0.4,0.4S439.2,174.1,439,174.1z"
			/>
		<path class="st19" d="M428,174.1h-24.9c-0.2,0-0.4-0.2-0.4-0.4s0.2-0.4,0.4-0.4H428c0.2,0,0.4,0.2,0.4,0.4S428.2,174.1,428,174.1z
			"/>
		<path class="st18" d="M385.5,177.3h-4.7c-0.2,0-0.4-0.2-0.4-0.4c0-0.2,0.2-0.4,0.4-0.4h4.7c0.2,0,0.4,0.2,0.4,0.4
			C385.9,177.1,385.8,177.3,385.5,177.3z"/>
		<path class="st19" d="M403.5,177.3H388c-0.2,0-0.4-0.2-0.4-0.4c0-0.2,0.2-0.4,0.4-0.4h15.4c0.2,0,0.4,0.2,0.4,0.4
			C403.9,177.1,403.7,177.3,403.5,177.3z"/>
		<path class="st19" d="M436.4,177.3h-13.3c-0.2,0-0.4-0.2-0.4-0.4c0-0.2,0.2-0.4,0.4-0.4h13.3c0.2,0,0.4,0.2,0.4,0.4
			C436.8,177.1,436.6,177.3,436.4,177.3z"/>
		<path class="st20" d="M420.6,177.3h-14.5c-0.2,0-0.4-0.2-0.4-0.4c0-0.2,0.2-0.4,0.4-0.4h14.5c0.2,0,0.4,0.2,0.4,0.4
			C421.1,177.1,420.9,177.3,420.6,177.3z"/>
		<path class="st18" d="M387.9,180.6h-4.7c-0.2,0-0.4-0.2-0.4-0.4c0-0.2,0.2-0.4,0.4-0.4h4.7c0.2,0,0.4,0.2,0.4,0.4
			C388.3,180.4,388.1,180.6,387.9,180.6z"/>
		<path class="st19" d="M399.7,180.6h-10.1c-0.2,0-0.4-0.2-0.4-0.4c0-0.2,0.2-0.4,0.4-0.4h10.1c0.2,0,0.4,0.2,0.4,0.4
			C400.1,180.4,399.9,180.6,399.7,180.6z"/>
		<path class="st19" d="M412.2,180.6h-10.1c-0.2,0-0.4-0.2-0.4-0.4c0-0.2,0.2-0.4,0.4-0.4h10.1c0.2,0,0.4,0.2,0.4,0.4
			C412.6,180.4,412.4,180.6,412.2,180.6z"/>
		<path class="st18" d="M387.9,183.8h-4.7c-0.2,0-0.4-0.2-0.4-0.4s0.2-0.4,0.4-0.4h4.7c0.2,0,0.4,0.2,0.4,0.4
			S388.1,183.8,387.9,183.8z"/>
		<path class="st18" d="M361,165.1H352c-0.2,0-0.4-0.2-0.4-0.4s0.2-0.4,0.4-0.4h9.1c0.2,0,0.4,0.2,0.4,0.4S361.3,165.1,361,165.1z"
			/>
		<path class="st18" d="M366.3,168H352c-0.2,0-0.4-0.2-0.4-0.4c0-0.2,0.2-0.4,0.4-0.4h14.4c0.2,0,0.4,0.2,0.4,0.4
			C366.8,167.8,366.6,168,366.3,168z"/>
		<path class="st18" d="M367.4,171.2h-10.7c-0.2,0-0.4-0.2-0.4-0.4s0.2-0.4,0.4-0.4h10.7c0.2,0,0.4,0.2,0.4,0.4
			S367.7,171.2,367.4,171.2z"/>
		<path class="st18" d="M360,174.1h-3.3c-0.2,0-0.4-0.2-0.4-0.4s0.2-0.4,0.4-0.4h3.3c0.2,0,0.4,0.2,0.4,0.4S360.3,174.1,360,174.1z"
			/>
		<path class="st18" d="M363.5,177.3h-6.8c-0.2,0-0.4-0.2-0.4-0.4c0-0.2,0.2-0.4,0.4-0.4h6.8c0.2,0,0.4,0.2,0.4,0.4
			C363.9,177.1,363.7,177.3,363.5,177.3z"/>
		<path class="st18" d="M367,180.6h-6.8c-0.2,0-0.4-0.2-0.4-0.4c0-0.2,0.2-0.4,0.4-0.4h6.8c0.2,0,0.4,0.2,0.4,0.4
			C367.4,180.4,367.2,180.6,367,180.6z"/>
		<path class="st18" d="M367,183.8h-6.8c-0.2,0-0.4-0.2-0.4-0.4s0.2-0.4,0.4-0.4h6.8c0.2,0,0.4,0.2,0.4,0.4S367.2,183.8,367,183.8z"
			/>
		<path class="st20" d="M404.6,183.8h-14.9c-0.2,0-0.4-0.2-0.4-0.4s0.2-0.4,0.4-0.4h14.9c0.2,0,0.4,0.2,0.4,0.4
			S404.8,183.8,404.6,183.8z"/>
		<path class="st19" d="M438.2,183.8h-23.6c-0.2,0-0.4-0.2-0.4-0.4s0.2-0.4,0.4-0.4h23.6c0.2,0,0.4,0.2,0.4,0.4
			S438.4,183.8,438.2,183.8z"/>
		<path class="st19" d="M411.8,183.8h-4.9c-0.2,0-0.4-0.2-0.4-0.4s0.2-0.4,0.4-0.4h4.9c0.2,0,0.4,0.2,0.4,0.4S412,183.8,411.8,183.8
			z"/>
		<path class="st18" d="M387.9,187.1h-4.7c-0.2,0-0.4-0.2-0.4-0.4s0.2-0.4,0.4-0.4h4.7c0.2,0,0.4,0.2,0.4,0.4
			S388.1,187.1,387.9,187.1z"/>
		<path class="st19" d="M395.1,187.1h-5.5c-0.2,0-0.4-0.2-0.4-0.4s0.2-0.4,0.4-0.4h5.5c0.2,0,0.4,0.2,0.4,0.4
			S395.4,187.1,395.1,187.1z"/>
		<path class="st19" d="M422.3,187.1h-11.2c-0.2,0-0.4-0.2-0.4-0.4s0.2-0.4,0.4-0.4h11.2c0.2,0,0.4,0.2,0.4,0.4
			S422.5,187.1,422.3,187.1z"/>
		<path class="st19" d="M407.8,187.1h-10.3c-0.2,0-0.4-0.2-0.4-0.4s0.2-0.4,0.4-0.4h10.3c0.2,0,0.4,0.2,0.4,0.4
			S408.1,187.1,407.8,187.1z"/>
		<path class="st18" d="M393.7,190.3h-4.1c-0.2,0-0.4-0.2-0.4-0.4c0-0.2,0.2-0.4,0.4-0.4h4.1c0.2,0,0.4,0.2,0.4,0.4
			C394.1,190.1,393.9,190.3,393.7,190.3z"/>
		<path class="st19" d="M405.9,190.3h-10.1c-0.2,0-0.4-0.2-0.4-0.4c0-0.2,0.2-0.4,0.4-0.4h10.1c0.2,0,0.4,0.2,0.4,0.4
			C406.3,190.1,406.1,190.3,405.9,190.3z"/>
		<path class="st19" d="M437.8,190.3h-16.4c-0.2,0-0.4-0.2-0.4-0.4c0-0.2,0.2-0.4,0.4-0.4h16.4c0.2,0,0.4,0.2,0.4,0.4
			C438.2,190.1,438,190.3,437.8,190.3z"/>
		<path class="st19" d="M418.5,190.3h-10.3c-0.2,0-0.4-0.2-0.4-0.4c0-0.2,0.2-0.4,0.4-0.4h10.3c0.2,0,0.4,0.2,0.4,0.4
			C418.9,190.1,418.7,190.3,418.5,190.3z"/>
		<path class="st18" d="M392.6,193.6h-2.9c-0.2,0-0.4-0.2-0.4-0.4s0.2-0.4,0.4-0.4h2.9c0.2,0,0.4,0.2,0.4,0.4
			S392.8,193.6,392.6,193.6z"/>
		<path class="st20" d="M400.6,193.6h-6.8c-0.2,0-0.4-0.2-0.4-0.4s0.2-0.4,0.4-0.4h6.8c0.2,0,0.4,0.2,0.4,0.4
			S400.9,193.6,400.6,193.6z"/>
		<path class="st19" d="M424.5,193.6h-12.4c-0.2,0-0.4-0.2-0.4-0.4s0.2-0.4,0.4-0.4h12.4c0.2,0,0.4,0.2,0.4,0.4
			S424.8,193.6,424.5,193.6z"/>
		<path class="st19" d="M410.2,193.6h-7.1c-0.2,0-0.4-0.2-0.4-0.4s0.2-0.4,0.4-0.4h7.1c0.2,0,0.4,0.2,0.4,0.4
			S410.4,193.6,410.2,193.6z"/>
		<path class="st18" d="M394.2,196.8h-4.5c-0.2,0-0.4-0.2-0.4-0.4s0.2-0.4,0.4-0.4h4.5c0.2,0,0.4,0.2,0.4,0.4
			S394.4,196.8,394.2,196.8z"/>
		<path class="st19" d="M405.9,196.8h-10.1c-0.2,0-0.4-0.2-0.4-0.4s0.2-0.4,0.4-0.4h10.1c0.2,0,0.4,0.2,0.4,0.4
			S406.1,196.8,405.9,196.8z"/>
		<path class="st19" d="M422.3,196.8h-13.4c-0.2,0-0.4-0.2-0.4-0.4s0.2-0.4,0.4-0.4h13.4c0.2,0,0.4,0.2,0.4,0.4
			S422.5,196.8,422.3,196.8z"/>
		<path class="st18" d="M394.2,200.1h-4.5c-0.2,0-0.4-0.2-0.4-0.4c0-0.2,0.2-0.4,0.4-0.4h4.5c0.2,0,0.4,0.2,0.4,0.4
			C394.6,199.9,394.4,200.1,394.2,200.1z"/>
		<path class="st19" d="M405.9,200.1h-10.1c-0.2,0-0.4-0.2-0.4-0.4c0-0.2,0.2-0.4,0.4-0.4h10.1c0.2,0,0.4,0.2,0.4,0.4
			C406.3,199.9,406.1,200.1,405.9,200.1z"/>
		<path class="st19" d="M435.9,200.1h-15.6c-0.2,0-0.4-0.2-0.4-0.4c0-0.2,0.2-0.4,0.4-0.4h15.6c0.2,0,0.4,0.2,0.4,0.4
			C436.3,199.9,436.1,200.1,435.9,200.1z"/>
		<path class="st19" d="M417.7,200.1h-10.1c-0.2,0-0.4-0.2-0.4-0.4c0-0.2,0.2-0.4,0.4-0.4h10.1c0.2,0,0.4,0.2,0.4,0.4
			C418.1,199.9,417.9,200.1,417.7,200.1z"/>
		<path class="st18" d="M394.2,203.3h-4.5c-0.2,0-0.4-0.2-0.4-0.4s0.2-0.4,0.4-0.4h4.5c0.2,0,0.4,0.2,0.4,0.4
			S394.4,203.3,394.2,203.3z"/>
		<path class="st18" d="M373.6,165.1h-1.6c-0.2,0-0.4-0.2-0.4-0.4s0.2-0.4,0.4-0.4h1.6c0.2,0,0.4,0.2,0.4,0.4
			S373.8,165.1,373.6,165.1z"/>
		<path class="st18" d="M373.6,168h-1.6c-0.2,0-0.4-0.2-0.4-0.4c0-0.2,0.2-0.4,0.4-0.4h1.6c0.2,0,0.4,0.2,0.4,0.4
			C374,167.8,373.8,168,373.6,168z"/>
		<path class="st18" d="M373.6,171.2h-1.6c-0.2,0-0.4-0.2-0.4-0.4s0.2-0.4,0.4-0.4h1.6c0.2,0,0.4,0.2,0.4,0.4
			S373.8,171.2,373.6,171.2z"/>
		<path class="st18" d="M373.6,174.1h-1.6c-0.2,0-0.4-0.2-0.4-0.4s0.2-0.4,0.4-0.4h1.6c0.2,0,0.4,0.2,0.4,0.4
			S373.8,174.1,373.6,174.1z"/>
		<path class="st18" d="M373.6,177.3h-1.6c-0.2,0-0.4-0.2-0.4-0.4c0-0.2,0.2-0.4,0.4-0.4h1.6c0.2,0,0.4,0.2,0.4,0.4
			C374,177.1,373.8,177.3,373.6,177.3z"/>
		<path class="st18" d="M373.6,180.6h-1.6c-0.2,0-0.4-0.2-0.4-0.4c0-0.2,0.2-0.4,0.4-0.4h1.6c0.2,0,0.4,0.2,0.4,0.4
			C374,180.4,373.8,180.6,373.6,180.6z"/>
		<path class="st18" d="M373.6,183.8h-1.6c-0.2,0-0.4-0.2-0.4-0.4s0.2-0.4,0.4-0.4h1.6c0.2,0,0.4,0.2,0.4,0.4
			S373.8,183.8,373.6,183.8z"/>
		<path class="st18" d="M373.6,187.1h-1.6c-0.2,0-0.4-0.2-0.4-0.4s0.2-0.4,0.4-0.4h1.6c0.2,0,0.4,0.2,0.4,0.4
			S373.8,187.1,373.6,187.1z"/>
		<path class="st18" d="M373.6,190.3h-1.6c-0.2,0-0.4-0.2-0.4-0.4c0-0.2,0.2-0.4,0.4-0.4h1.6c0.2,0,0.4,0.2,0.4,0.4
			C374,190.1,373.8,190.3,373.6,190.3z"/>
		<path class="st18" d="M373.6,193.6h-1.6c-0.2,0-0.4-0.2-0.4-0.4s0.2-0.4,0.4-0.4h1.6c0.2,0,0.4,0.2,0.4,0.4
			S373.8,193.6,373.6,193.6z"/>
		<path class="st18" d="M373.6,196.8h-1.6c-0.2,0-0.4-0.2-0.4-0.4s0.2-0.4,0.4-0.4h1.6c0.2,0,0.4,0.2,0.4,0.4
			S373.8,196.8,373.6,196.8z"/>
		<path class="st18" d="M373.6,200.1h-1.6c-0.2,0-0.4-0.2-0.4-0.4c0-0.2,0.2-0.4,0.4-0.4h1.6c0.2,0,0.4,0.2,0.4,0.4
			C374,199.9,373.8,200.1,373.6,200.1z"/>
		<path class="st18" d="M373.6,203.3h-1.6c-0.2,0-0.4-0.2-0.4-0.4s0.2-0.4,0.4-0.4h1.6c0.2,0,0.4,0.2,0.4,0.4
			S373.8,203.3,373.6,203.3z"/>
		<path class="st19" d="M401.8,203.3h-6c-0.2,0-0.4-0.2-0.4-0.4s0.2-0.4,0.4-0.4h6c0.2,0,0.4,0.2,0.4,0.4S402,203.3,401.8,203.3z"/>
		<path class="st19" d="M430.5,203.3h-9.7c-0.2,0-0.4-0.2-0.4-0.4s0.2-0.4,0.4-0.4h9.7c0.2,0,0.4,0.2,0.4,0.4
			S430.7,203.3,430.5,203.3z"/>
		<path class="st20" d="M417.8,203.3h-12.4c-0.2,0-0.4-0.2-0.4-0.4s0.2-0.4,0.4-0.4h12.4c0.2,0,0.4,0.2,0.4,0.4
			S418,203.3,417.8,203.3z"/>
	</g>
	<g>
		<path class="st21" d="M302.6,240.2c-1.3,5.1-3.9,16.1-2.6,17.4c8.4,8,30.5-12,39.1-11.5c11,0.7,35.7,19,39.1,11.8
			c1.4-2.9-1.3-9.2-3.4-15.8C351,242,326.3,240.2,302.6,240.2z"/>
		<path class="st21" d="M330.1,210.8c0,0.8,0,5.2-0.9,6.1c-1.6,1.5-5.7,1.9-5.7,1.9c-0.1,0.9,6.6,4.2,15.2,4.2
			c6.7,0,14.7-2.2,14.7-4c0-0.1-4-0.2-5.6-2.8c-0.7-1-0.7-5.2-0.7-5.9c-1.8,1-4.5,2.8-8,2.8C334.3,213.1,331.9,211.5,330.1,210.8z"
			/>
		<path class="st21" d="M324.1,196.1c0.5,1.8,0,3.5-1.1,3.8s-2.4-0.9-2.9-2.7c-0.5-1.8,0-3.5,1.1-3.8
			C322.3,193.1,323.6,194.3,324.1,196.1z"/>
		<path class="st21" d="M352.5,196.1c-0.5,1.8,0,3.5,1.1,3.8s2.4-0.9,2.9-2.7c0.5-1.8,0-3.5-1.1-3.8
			C354.3,193.1,353,194.3,352.5,196.1z"/>
		<g>
			<path class="st22" d="M352.9,183.3c2.3-3.4,2.5-8.1,0.6-11.7c-1.3,1.9-3.7,2.7-6.1,2.9c-2.3,0.2-4.6-0.2-6.9,0
				c-1.2,0.1-2.4,0.4-3.5,0.9c-2,0-5.2,0.7-6.8,1.4c-5.8,2.5-9.3,8.1-9.3,17.6c0,10,8.1,13.9,8.7,18.1c0,0,4.3,1.6,8.2,1.6
				c5.9,0,9.7-1.6,9.7-1.6c0-5.5,7.7-8.5,8.4-18.1C356.2,189.8,354.9,186.5,352.9,183.3z"/>
		</g>
		<path class="st15" d="M375.4,242.5c0.8,5.4-74.9,6.9-73.9-0.3c1.5-10.6,5.3-19.7,21.8-23.4c1.5-0.3,4-0.9,4-0.9
			c1,1.4,6.9,2.5,10.7,2.6c4.6,0.1,9.6-0.6,12.3-2.2c0,0,2.1,0.5,2.9,0.6C370.9,222.2,373.7,231.3,375.4,242.5z"/>
		<g>
			<circle class="st14" cx="312.8" cy="331.8" r="2.6"/>
			<circle class="st14" cx="310.7" cy="344.2" r="2.6"/>
			<circle class="st14" cx="363.9" cy="330.9" r="2.6"/>
			<path class="st23" d="M381.8,285.6c0,15.5-22,25.2-43.8,25c-21.3-0.2-42.3-9.9-42.3-25c0-30.6,19.3-52.9,43-52.9
				S381.8,255,381.8,285.6z"/>
			<rect x="331.1" y="298.6" class="st10" width="15.3" height="14.5"/>
			<path class="st23" d="M372,309.2c0,5.5-13.5,8.1-33.2,8.1c-19.8,0-34.5-3.4-34.5-9c0-6.8,14.3-10.2,34.1-10.2
				C358.1,298.1,372,303.7,372,309.2z"/>
			<rect x="335" y="314.3" class="st23" width="7.7" height="20"/>
			<polygon class="st23" points="366.5,342.5 313.9,329.2 313.2,327.5 366.9,340.3 			"/>
			<polygon class="st23" points="310.7,343.3 310.2,341.2 363.2,327.2 363.6,328.8 			"/>
			<path class="st23" d="M313.6,327.5c-2.1-0.4-4.3,1.2-4.3,3.4c0,1.7,6.8,1.3,6.8,0.4C316.2,329.9,315.3,327.9,313.6,327.5z"/>
			<path class="st23" d="M311.5,340.3c-2.1-0.4-4.3,1.2-4.3,3.4c0,1.7,6.8,1.3,6.8,0.4C314.1,342.7,313.2,340.7,311.5,340.3z"/>
			<g>
				<circle class="st14" cx="367.3" cy="344.2" r="2.6"/>
				<path class="st23" d="M366.5,339.9c2.1-0.4,4.3,1.2,4.3,3.4c0,1.7-6.8,1.3-6.8,0.4C363.9,342.2,364.8,340.2,366.5,339.9z"/>
			</g>
			<path class="st23" d="M363.1,327.1c2.1-0.4,4.3,1.2,4.3,3.4c0,1.7-6.8,1.3-6.8,0.4C360.5,329.4,361.4,327.4,363.1,327.1z"/>
			<ellipse class="st10" cx="338.6" cy="335.4" rx="4" ry="2.3"/>
		</g>
		<path class="st24" d="M338.9,222.1c5.4,0,10.3-1.2,13.9-3.3c-0.9-0.2-2.4-0.5-2.4-0.5c-2.7,1.6-7.7,2.3-12.3,2.2
			c-3.8-0.1-9.7-1.1-10.7-2.6c0,0-1.5,0.3-2.9,0.6C328.1,220.7,333.2,222.1,338.9,222.1z"/>
	</g>
</g>
</svg>
