<?xml version="1.0" encoding="utf-8"?>
<!-- Generator: Adobe Illustrator 24.0.2, SVG Export Plug-In . SVG Version: 6.00 Build 0)  -->
<svg version="1.1" xmlns="http://www.w3.org/2000/svg" xmlns:xlink="http://www.w3.org/1999/xlink" x="0px" y="0px"
	 viewBox="0 0 613.3 378.7" style="enable-background:new 0 0 613.3 378.7;" xml:space="preserve">
<style type="text/css">
	.st0{fill:url(#SVGID_1_);}
	.st1{fill:url(#SVGID_2_);}
	.st2{fill:url(#SVGID_3_);}
	.st3{fill:url(#SVGID_4_);}
	.st4{fill:url(#SVGID_5_);}
	.st5{fill:url(#SVGID_6_);}
	.st6{fill:url(#SVGID_7_);}
	.st7{fill:url(#SVGID_8_);}
	.st8{fill:url(#SVGID_9_);}
	.st9{fill:url(#SVGID_10_);}
	.st10{fill:url(#SVGID_11_);}
	.st11{fill:url(#SVGID_12_);}
	.st12{fill:url(#SVGID_13_);}
	.st13{fill:url(#SVGID_14_);}
	.st14{fill:url(#SVGID_15_);}
	.st15{fill:url(#SVGID_16_);}
	.st16{fill:url(#SVGID_17_);}
	.st17{fill:url(#SVGID_18_);}
	.st18{fill:url(#SVGID_19_);}
	.st19{fill:url(#SVGID_20_);}
	.st20{fill:url(#SVGID_21_);}
	.st21{fill:url(#SVGID_22_);}
	.st22{fill:url(#SVGID_23_);}
	.st23{fill:url(#SVGID_24_);}
	.st24{fill:url(#SVGID_25_);}
	.st25{fill:url(#SVGID_26_);}
	.st26{fill:url(#SVGID_27_);}
	.st27{fill:url(#SVGID_28_);}
	.st28{fill:url(#SVGID_29_);}
	.st29{fill:url(#SVGID_30_);}
	.st30{fill:url(#SVGID_31_);}
	.st31{fill:url(#SVGID_32_);}
	.st32{fill:url(#SVGID_33_);}
	.st33{fill:url(#SVGID_34_);}
	.st34{fill:url(#SVGID_35_);}
	.st35{fill:url(#SVGID_36_);}
	.st36{fill:url(#SVGID_37_);}
	.st37{fill:url(#SVGID_38_);}
	.st38{fill:url(#SVGID_39_);}
	.st39{fill:url(#SVGID_40_);}
	.st40{fill:url(#SVGID_41_);}
	.st41{fill:url(#SVGID_42_);}
	.st42{fill:url(#SVGID_43_);}
	.st43{fill:url(#SVGID_44_);}
	.st44{fill:url(#SVGID_45_);}
	.st45{fill:url(#SVGID_46_);}
	.st46{fill:url(#SVGID_47_);}
	.st47{fill:#F0FAFC;}
	.st48{fill:#FFFFFF;}
	.st49{fill:#E3F7FD;}
	.st50{fill:#F48134;}
	.st51{opacity:0.1;}
	.st52{fill:#253444;}
	.st53{opacity:7.000000e-02;}
	.st54{fill:#202E3A;}
	.st55{fill:#2B2C2D;}
	.st56{fill:none;stroke:#FFFFFF;stroke-width:1.0869;stroke-linecap:round;stroke-miterlimit:10;}
	.st57{fill:#6C63FF;}
	.st58{fill:#281F17;}
	.st59{fill:#303030;}
	.st60{fill:#E2B283;}
	.st61{opacity:5.000000e-02;}
	.st62{fill:#BCBEC0;}
	.st63{fill:#414042;}
	.st64{fill:#E6E7E8;}
	.st65{fill:#F7C68F;}
	.st66{fill:#D1D3D4;}
	.st67{fill:none;stroke:#FFFFFF;stroke-width:1.0313;stroke-linecap:round;stroke-miterlimit:10;}
	.st68{fill:#3A3A3A;stroke:#E0C475;stroke-width:0.25;stroke-miterlimit:10;}
</style>
<g id="Camada_3">
	<g>
		<linearGradient id="SVGID_1_" gradientUnits="userSpaceOnUse" x1="459.3293" y1="196.11" x2="302.6827" y2="289.2513">
			<stop  offset="0" style="stop-color:#9973E9"/>
			<stop  offset="1" style="stop-color:#503DC6"/>
		</linearGradient>
		<path class="st0" d="M305.6,314.7c-2.6,0-5-0.8-6.9-2.7c-7.4-7.3-14.8-14.6-22.1-22.1c-3.9-4-3.6-10.1,0.5-14.3
			c3.7-3.8,10.1-4.1,14.1-0.3c5.8,5.5,11.3,11.2,16.9,16.8c1.7,1.7,3.4,3.3,5,5c3,3.3,3.7,7.2,2,11.2
			C313.5,312.6,310.1,314.7,305.6,314.7z"/>
		<linearGradient id="SVGID_2_" gradientUnits="userSpaceOnUse" x1="541.0862" y1="333.6094" x2="384.4391" y2="426.751">
			<stop  offset="0" style="stop-color:#9973E9"/>
			<stop  offset="1" style="stop-color:#503DC6"/>
		</linearGradient>
		<path class="st1" d="M550.6,311.4c-4.4-4.5-8.5-8.7-12.7-12.9c-3.4-3.4-7.6-4.7-12.2-3.1c-8.6,3-10.9,12.9-4.7,19.5
			c3.7,3.9,7.5,7.6,11.4,11.4c1.3,1.2,1.3,1.9,0,3.2c-3.8,3.6-7.5,7.4-11.2,11.2c-4.1,4.2-4.8,10.2-1.8,14.8
			c4.1,6.3,12.2,7.6,17.8,2.5c4.1-3.7,7.9-7.7,11.7-11.7c1.3-1.3,2.2-1.4,3.5,0c3.7,3.8,7.4,7.6,11.2,11.2c3,2.9,6.6,4.3,10.8,3.3
			c9.4-2.4,12.5-12.7,5.9-19.8c-3.5-3.8-7.2-7.5-11-11c-1.8-1.7-1.4-2.6,0.1-4.1c4-3.8,8-7.7,11.6-11.8c3.3-3.7,3.7-8.2,1.5-12.6
			c-2.3-4.6-6.2-6.7-11.4-6.6c-4,0.1-6.7,2.5-9.3,5.1C558.3,303.7,554.6,307.3,550.6,311.4z"/>
		<linearGradient id="SVGID_3_" gradientUnits="userSpaceOnUse" x1="520.7092" y1="299.3392" x2="364.0619" y2="392.4809">
			<stop  offset="0" style="stop-color:#9973E9"/>
			<stop  offset="1" style="stop-color:#503DC6"/>
		</linearGradient>
		<path class="st2" d="M559.4,281.5c0-4.9-3.6-8.7-8.4-8.7c-5,0-8.8,3.6-8.8,8.5c-0.1,4.8,3.8,8.7,8.6,8.7
			C555.5,290.1,559.4,286.3,559.4,281.5z"/>
		<linearGradient id="SVGID_4_" gradientUnits="userSpaceOnUse" x1="520.2631" y1="298.5887" x2="363.6161" y2="391.7301">
			<stop  offset="0" style="stop-color:#9973E9"/>
			<stop  offset="1" style="stop-color:#503DC6"/>
		</linearGradient>
		<path class="st3" d="M510.3,328.1c-0.2,3.9-2.2,7.2-6.2,9.1c-3.8,1.8-8.3,1-11.4-2c-7.2-7.1-14.3-14.2-21.4-21.4
			c-4.2-4.3-4.2-10.7,0-14.8c4.1-4.1,10.6-3.9,14.8,0.3c6.7,6.7,13.5,13.5,20.2,20.2C508.7,321.8,510.3,324.3,510.3,328.1z"/>
		<linearGradient id="SVGID_5_" gradientUnits="userSpaceOnUse" x1="522.3654" y1="302.124" x2="365.7186" y2="395.2654">
			<stop  offset="0" style="stop-color:#9973E9"/>
			<stop  offset="1" style="stop-color:#503DC6"/>
		</linearGradient>
		<path class="st4" d="M436,344.8c4.6,0,8.5,4,8.6,8.7c0,4.7-3.9,8.7-8.5,8.6c-4.9,0-8.8-3.9-8.9-8.6
			C427.1,348.9,431.3,344.8,436,344.8z"/>
		<linearGradient id="SVGID_6_" gradientUnits="userSpaceOnUse" x1="533.4951" y1="320.8425" x2="376.8481" y2="413.984">
			<stop  offset="0" style="stop-color:#9973E9"/>
			<stop  offset="1" style="stop-color:#503DC6"/>
		</linearGradient>
		<path class="st5" d="M487.2,353.5c0.1,4.7-3.8,8.6-8.5,8.7c-4.7,0.1-8.7-3.8-8.8-8.4c-0.1-4.7,3.8-8.9,8.6-8.9
			C483.3,344.7,487.1,348.6,487.2,353.5z"/>
		<linearGradient id="SVGID_7_" gradientUnits="userSpaceOnUse" x1="507.4167" y1="276.9835" x2="350.7695" y2="370.1251">
			<stop  offset="0" style="stop-color:#9973E9"/>
			<stop  offset="1" style="stop-color:#503DC6"/>
		</linearGradient>
		<path class="st6" d="M508.5,281.7c-0.1,4.8-4.1,8.6-9,8.4c-4.6-0.1-8.3-4.2-8.2-8.9c0.1-4.8,4-8.5,8.7-8.4
			C504.9,272.9,508.7,276.8,508.5,281.7z"/>
		<linearGradient id="SVGID_8_" gradientUnits="userSpaceOnUse" x1="517.8933" y1="294.6033" x2="361.2461" y2="387.7449">
			<stop  offset="0" style="stop-color:#9973E9"/>
			<stop  offset="1" style="stop-color:#503DC6"/>
		</linearGradient>
		<path class="st7" d="M457.5,339c-4.7-0.1-8.5-4-8.4-8.7c0.1-4.9,3.9-8.7,8.8-8.5c4.8,0.1,8.5,3.9,8.4,8.7
			C466.3,335.3,462.4,339.1,457.5,339z"/>
		<linearGradient id="SVGID_9_" gradientUnits="userSpaceOnUse" x1="501.0366" y1="266.2534" x2="344.3892" y2="359.3951">
			<stop  offset="0" style="stop-color:#9973E9"/>
			<stop  offset="1" style="stop-color:#503DC6"/>
		</linearGradient>
		<path class="st8" d="M427.6,305.7c0-4.1,3-7.2,7.1-7.2c4.2,0,7.3,3,7.3,7c0.1,4.1-3.2,7.4-7.2,7.4
			C430.8,312.9,427.7,309.7,427.6,305.7z"/>
		<linearGradient id="SVGID_10_" gradientUnits="userSpaceOnUse" x1="506.2277" y1="274.9836" x2="349.5809" y2="368.1249">
			<stop  offset="0" style="stop-color:#9973E9"/>
			<stop  offset="1" style="stop-color:#503DC6"/>
		</linearGradient>
		<path class="st9" d="M412.7,337.6c-4-0.1-7.3-3.5-7.1-7.3c0.2-4,3.7-7.3,7.6-7.2c3.9,0.2,7.1,3.7,6.9,7.5
			C420,334.7,416.7,337.7,412.7,337.6z"/>
		<linearGradient id="SVGID_11_" gradientUnits="userSpaceOnUse" x1="484.5585" y1="238.5404" x2="327.9121" y2="331.6815">
			<stop  offset="0" style="stop-color:#9973E9"/>
			<stop  offset="1" style="stop-color:#503DC6"/>
		</linearGradient>
		<path class="st10" d="M412.6,276.8c2.6,0.1,4.6,2.2,4.5,4.7c-0.1,2.5-2.4,4.7-4.8,4.6c-2.4-0.1-4.6-2.5-4.5-4.9
			C407.8,278.7,410,276.7,412.6,276.8z"/>
		<linearGradient id="SVGID_12_" gradientUnits="userSpaceOnUse" x1="461.0942" y1="199.0737" x2="304.4464" y2="292.2157">
			<stop  offset="0" style="stop-color:#9973E9"/>
			<stop  offset="1" style="stop-color:#503DC6"/>
		</linearGradient>
		<path class="st11" d="M235.7,330.1c-0.1,2.5,2,4.8,4.4,5c2.3,0.2,4.8-2.2,4.9-4.5c0.1-2.5-2-4.8-4.5-4.9
			C238,325.6,235.8,327.6,235.7,330.1z"/>
		<linearGradient id="SVGID_13_" gradientUnits="userSpaceOnUse" x1="496.2993" y1="258.2858" x2="339.6526" y2="351.4271">
			<stop  offset="0" style="stop-color:#9973E9"/>
			<stop  offset="1" style="stop-color:#503DC6"/>
		</linearGradient>
		<path class="st12" d="M368.9,319.5c4.2,0.1,7.4,2.1,9.2,5.9c2,4.3,1.2,8.5-2.2,12c-5.8,5.8-11.6,11.6-17.4,17.4
			c-1.3,1.3-2.6,2.7-4,4c-4.4,3.9-10.6,3.7-14.5-0.4c-4-4.1-3.9-10.5,0.2-14.7c6.9-6.9,13.8-13.8,20.7-20.7
			C363.1,320.8,365.7,319.3,368.9,319.5z"/>
		<linearGradient id="SVGID_14_" gradientUnits="userSpaceOnUse" x1="478.6245" y1="228.5598" x2="321.9775" y2="321.7013">
			<stop  offset="0" style="stop-color:#9973E9"/>
			<stop  offset="1" style="stop-color:#503DC6"/>
		</linearGradient>
		<path class="st13" d="M279.6,319.5c-4.2,0.1-7.4,2.1-9.2,5.9c-2,4.3-1.2,8.5,2.2,12c5.8,5.8,11.6,11.6,17.4,17.4
			c1.3,1.3,2.6,2.7,4,4c4.4,3.9,10.6,3.7,14.5-0.4c4-4.1,3.9-10.5-0.2-14.7c-6.9-6.9-13.8-13.8-20.7-20.7
			C285.4,320.8,282.9,319.3,279.6,319.5z"/>
		<linearGradient id="SVGID_15_" gradientUnits="userSpaceOnUse" x1="481.3396" y1="233.1268" x2="324.6928" y2="326.2682">
			<stop  offset="0" style="stop-color:#9973E9"/>
			<stop  offset="1" style="stop-color:#503DC6"/>
		</linearGradient>
		<path class="st14" d="M389.4,314.7c-2.3,0-4.6-1-6.5-2.9c-7.2-7.2-14.4-14.3-21.6-21.5c-3.9-4-3.8-10.5,0-14.3
			c3.9-4,10.3-4.4,14.3-0.6c7.5,7.2,14.8,14.6,22.1,22c3.1,3.2,3.8,7.3,1.9,11.4C397.6,312.6,394.4,314.8,389.4,314.7z"/>
		<linearGradient id="SVGID_16_" gradientUnits="userSpaceOnUse" x1="470.2448" y1="214.4385" x2="313.5982" y2="307.5798">
			<stop  offset="0" style="stop-color:#9973E9"/>
			<stop  offset="1" style="stop-color:#503DC6"/>
		</linearGradient>
		<path class="st15" d="M347.3,314.7c-2.6,0-5-0.8-6.9-2.7c-7.4-7.3-14.8-14.6-22.1-22.1c-3.9-4-3.6-10.1,0.5-14.3
			c3.7-3.8,10.1-4.1,14.1-0.3c5.8,5.5,11.3,11.2,16.9,16.8c1.7,1.7,3.4,3.3,5,5c3,3.3,3.7,7.2,2,11.2
			C355.2,312.6,351.9,314.7,347.3,314.7z"/>
		<linearGradient id="SVGID_17_" gradientUnits="userSpaceOnUse" x1="455.7176" y1="190.0368" x2="299.0714" y2="283.1779">
			<stop  offset="0" style="stop-color:#9973E9"/>
			<stop  offset="1" style="stop-color:#503DC6"/>
		</linearGradient>
		<path class="st16" d="M260.7,314.7c-4.7,0.1-8.7-3.7-8.9-8.4c-0.2-4.5,4-8.9,8.6-9c4.7-0.1,8.8,3.9,8.8,8.7
			C269.2,310.7,265.4,314.6,260.7,314.7z"/>
		<linearGradient id="SVGID_18_" gradientUnits="userSpaceOnUse" x1="482.858" y1="235.6813" x2="326.2106" y2="328.823">
			<stop  offset="0" style="stop-color:#9973E9"/>
			<stop  offset="1" style="stop-color:#503DC6"/>
		</linearGradient>
		<path class="st17" d="M324.1,321.8c4.6,0.2,8.4,4.2,8.2,8.9c-0.2,4.7-4.2,8.4-8.8,8.3c-4.8-0.1-8.5-4.1-8.4-9
			C315.1,325.2,319.1,321.6,324.1,321.8z"/>
		<linearGradient id="SVGID_19_" gradientUnits="userSpaceOnUse" x1="510.357" y1="281.9285" x2="353.7099" y2="375.0701">
			<stop  offset="0" style="stop-color:#9973E9"/>
			<stop  offset="1" style="stop-color:#503DC6"/>
		</linearGradient>
		<path class="st18" d="M397.2,353.3c0,4.1-3.2,7.4-7.2,7.4c-4,0-7.1-3.3-7.1-7.3c0-4,3-7.1,6.9-7.2
			C394.1,346.2,397.2,349.2,397.2,353.3z"/>
		<linearGradient id="SVGID_20_" gradientUnits="userSpaceOnUse" x1="476.8355" y1="225.5521" x2="320.1889" y2="318.6934">
			<stop  offset="0" style="stop-color:#9973E9"/>
			<stop  offset="1" style="stop-color:#503DC6"/>
		</linearGradient>
		<path class="st19" d="M261.6,360.7c-4,0-7.1-3.2-7.1-7.3c0-4.1,3.2-7.2,7.4-7.1c3.9,0.1,7,3.3,7,7.1
			C268.9,357.5,265.7,360.7,261.6,360.7z"/>
		<linearGradient id="SVGID_21_" gradientUnits="userSpaceOnUse" x1="461.0942" y1="199.0737" x2="304.4464" y2="292.2157">
			<stop  offset="0" style="stop-color:#9973E9"/>
			<stop  offset="1" style="stop-color:#503DC6"/>
		</linearGradient>
		<path class="st20" d="M235.7,330.1c0.1-2.6,2.3-4.5,4.9-4.4c2.5,0.1,4.6,2.4,4.5,4.9c-0.1,2.4-2.7,4.7-4.9,4.5
			C237.7,334.9,235.6,332.6,235.7,330.1z"/>
		<linearGradient id="SVGID_22_" gradientUnits="userSpaceOnUse" x1="496.2519" y1="258.206" x2="339.6044" y2="351.3477">
			<stop  offset="0" style="stop-color:#9973E9"/>
			<stop  offset="1" style="stop-color:#503DC6"/>
		</linearGradient>
		<path class="st21" d="M461.9,281.2c0.1,2.5-2.3,4.9-4.7,4.9c-2.3,0-4.5-2.2-4.6-4.5c-0.1-2.6,1.9-4.7,4.5-4.8
			C459.7,276.7,461.8,278.7,461.9,281.2z"/>
		<linearGradient id="SVGID_23_" gradientUnits="userSpaceOnUse" x1="439.6085" y1="162.9433" x2="282.9615" y2="256.0848">
			<stop  offset="0" style="stop-color:#9973E9"/>
			<stop  offset="1" style="stop-color:#503DC6"/>
		</linearGradient>
		<path class="st22" d="M245,281.2c0.1,2.5-2.3,4.9-4.7,4.9c-2.3,0-4.5-2.2-4.6-4.5c-0.1-2.6,1.9-4.7,4.5-4.8
			C242.8,276.7,245,278.7,245,281.2z"/>
		<linearGradient id="SVGID_24_" gradientUnits="userSpaceOnUse" x1="528.692" y1="312.7646" x2="372.0456" y2="405.9057">
			<stop  offset="0" style="stop-color:#9973E9"/>
			<stop  offset="1" style="stop-color:#503DC6"/>
		</linearGradient>
		<path class="st23" d="M581.5,276.8c2.6,0.1,4.6,2.2,4.5,4.7c-0.1,2.5-2.4,4.7-4.8,4.6c-2.4-0.1-4.6-2.5-4.5-4.9
			C576.8,278.7,578.9,276.7,581.5,276.8z"/>
	</g>
	<g>
		<linearGradient id="SVGID_25_" gradientUnits="userSpaceOnUse" x1="270.8742" y1="37.1936" x2="114.2276" y2="130.3349">
			<stop  offset="0" style="stop-color:#9973E9"/>
			<stop  offset="1" style="stop-color:#503DC6"/>
		</linearGradient>
		<path class="st24" d="M117.1,155.8c-2.6,0-5-0.8-6.9-2.7c-7.4-7.3-14.8-14.6-22.1-22.1c-3.9-4-3.6-10.1,0.5-14.3
			c3.7-3.8,10.1-4.1,14.1-0.3c5.8,5.5,11.3,11.2,16.9,16.8c1.7,1.7,3.4,3.3,5,5c3,3.3,3.7,7.2,2,11.2
			C125,153.7,121.7,155.8,117.1,155.8z"/>
		<linearGradient id="SVGID_26_" gradientUnits="userSpaceOnUse" x1="350.1974" y1="176.14" x2="208.4375" y2="260.4298">
			<stop  offset="0" style="stop-color:#9973E9"/>
			<stop  offset="1" style="stop-color:#503DC6"/>
		</linearGradient>
		<path class="st25" d="M337.3,136.5c-8.6,3-10.9,12.9-4.7,19.5c3.7,3.9,7.5,7.6,11.4,11.4c1.3,1.2,1.3,1.9,0,3.2
			c-3.8,3.6-7.5,7.4-11.2,11.2c-4.1,4.2-4.8,10.2-1.8,14.8c4.1,6.3,12.2,7.6,17.8,2.5c4.1-3.7,7.9-7.7,11.7-11.7
			c1.3-1.3,2.2-1.4,3.5,0c3.7,3.8,7.4,7.6,11.2,11.2c3,2.9,6.6,4.3,10.8,3.3c9.4-2.4,12.5-12.7,5.9-19.8c-3.5-3.8-7.2-7.5-11-11
			c-1.8-1.7-1.4-2.6,0.1-4.1c4-3.8,8-7.7,11.6-11.8"/>
		<linearGradient id="SVGID_27_" gradientUnits="userSpaceOnUse" x1="362.1848" y1="152.46" x2="362.1848" y2="152.46">
			<stop  offset="0" style="stop-color:#9973E9"/>
			<stop  offset="1" style="stop-color:#503DC6"/>
		</linearGradient>
		<path class="st26" d="M362.2,152.5"/>
		<linearGradient id="SVGID_28_" gradientUnits="userSpaceOnUse" x1="331.808" y1="139.6723" x2="175.161" y2="232.8138">
			<stop  offset="0" style="stop-color:#9973E9"/>
			<stop  offset="1" style="stop-color:#503DC6"/>
		</linearGradient>
		<path class="st27" d="M321.8,169.2c-0.2,3.9-2.2,7.2-6.2,9.1c-3.8,1.8-8.3,1-11.4-2c-7.2-7.1-14.3-14.2-21.4-21.4
			c-4.2-4.3-4.2-10.7,0-14.8c4.1-4.1,10.6-3.9,14.8,0.3c6.7,6.7,13.5,13.5,20.2,20.2C320.2,162.8,321.8,165.4,321.8,169.2z"/>
		<linearGradient id="SVGID_29_" gradientUnits="userSpaceOnUse" x1="333.9103" y1="143.2076" x2="177.2635" y2="236.3489">
			<stop  offset="0" style="stop-color:#9973E9"/>
			<stop  offset="1" style="stop-color:#503DC6"/>
		</linearGradient>
		<path class="st28" d="M247.5,185.9c4.6,0,8.5,4,8.6,8.7c0,4.7-3.9,8.7-8.5,8.6c-4.9,0-8.8-3.9-8.9-8.6
			C238.7,190,242.8,185.9,247.5,185.9z"/>
		<linearGradient id="SVGID_30_" gradientUnits="userSpaceOnUse" x1="345.0401" y1="161.9261" x2="188.393" y2="255.0676">
			<stop  offset="0" style="stop-color:#9973E9"/>
			<stop  offset="1" style="stop-color:#503DC6"/>
		</linearGradient>
		<path class="st29" d="M298.7,194.6c0.1,4.7-3.8,8.6-8.5,8.7c-4.7,0.1-8.7-3.8-8.8-8.4c-0.1-4.7,3.8-8.9,8.6-8.9
			C294.8,185.8,298.7,189.7,298.7,194.6z"/>
		<linearGradient id="SVGID_31_" gradientUnits="userSpaceOnUse" x1="318.9616" y1="118.0671" x2="162.3144" y2="211.2087">
			<stop  offset="0" style="stop-color:#9973E9"/>
			<stop  offset="1" style="stop-color:#503DC6"/>
		</linearGradient>
		<path class="st30" d="M320.1,122.8c-0.1,4.8-4.1,8.6-9,8.4c-4.6-0.1-8.3-4.2-8.2-8.9c0.1-4.8,4-8.5,8.7-8.4
			C316.5,114,320.2,117.9,320.1,122.8z"/>
		<linearGradient id="SVGID_32_" gradientUnits="userSpaceOnUse" x1="329.4382" y1="135.6869" x2="172.791" y2="228.8285">
			<stop  offset="0" style="stop-color:#9973E9"/>
			<stop  offset="1" style="stop-color:#503DC6"/>
		</linearGradient>
		<path class="st31" d="M269.1,180.1c-4.7-0.1-8.5-4-8.4-8.7c0.1-4.9,3.9-8.7,8.8-8.5c4.8,0.1,8.5,3.9,8.4,8.7
			C277.8,176.4,273.9,180.2,269.1,180.1z"/>
		<linearGradient id="SVGID_33_" gradientUnits="userSpaceOnUse" x1="312.5815" y1="107.337" x2="155.9341" y2="200.4787">
			<stop  offset="0" style="stop-color:#9973E9"/>
			<stop  offset="1" style="stop-color:#503DC6"/>
		</linearGradient>
		<path class="st32" d="M239.2,146.8c0-4.1,3-7.2,7.1-7.2c4.2,0,7.3,3,7.3,7c0.1,4.1-3.2,7.4-7.2,7.4
			C242.4,154,239.2,150.8,239.2,146.8z"/>
		<linearGradient id="SVGID_34_" gradientUnits="userSpaceOnUse" x1="317.7726" y1="116.0671" x2="161.1259" y2="209.2085">
			<stop  offset="0" style="stop-color:#9973E9"/>
			<stop  offset="1" style="stop-color:#503DC6"/>
		</linearGradient>
		<path class="st33" d="M224.3,178.7c-4-0.1-7.3-3.5-7.1-7.3c0.2-4,3.7-7.3,7.6-7.2c3.9,0.2,7.1,3.7,6.9,7.5
			C231.6,175.8,228.3,178.8,224.3,178.7z"/>
		<linearGradient id="SVGID_35_" gradientUnits="userSpaceOnUse" x1="296.1034" y1="79.624" x2="139.457" y2="172.7652">
			<stop  offset="0" style="stop-color:#9973E9"/>
			<stop  offset="1" style="stop-color:#503DC6"/>
		</linearGradient>
		<path class="st34" d="M224.1,117.9c2.6,0.1,4.6,2.2,4.5,4.7c-0.1,2.5-2.4,4.7-4.8,4.6c-2.4-0.1-4.6-2.5-4.5-4.9
			C219.4,119.8,221.5,117.8,224.1,117.9z"/>
		<linearGradient id="SVGID_36_" gradientUnits="userSpaceOnUse" x1="272.6392" y1="40.1573" x2="115.9914" y2="133.2993">
			<stop  offset="0" style="stop-color:#9973E9"/>
			<stop  offset="1" style="stop-color:#503DC6"/>
		</linearGradient>
		<path class="st35" d="M47.3,171.2c-0.1,2.5,2,4.8,4.4,5c2.3,0.2,4.8-2.2,4.9-4.5c0.1-2.5-2-4.8-4.5-4.9
			C49.5,166.7,47.4,168.7,47.3,171.2z"/>
		<linearGradient id="SVGID_37_" gradientUnits="userSpaceOnUse" x1="307.8442" y1="99.3694" x2="151.1976" y2="192.5107">
			<stop  offset="0" style="stop-color:#9973E9"/>
			<stop  offset="1" style="stop-color:#503DC6"/>
		</linearGradient>
		<path class="st36" d="M180.5,160.6c4.2,0.1,7.4,2.1,9.2,5.9c2,4.3,1.2,8.5-2.2,12c-5.8,5.8-11.6,11.6-17.4,17.4
			c-1.3,1.3-2.6,2.7-4,4c-4.4,3.9-10.6,3.7-14.5-0.4c-4-4.1-3.9-10.5,0.2-14.7c6.9-6.9,13.8-13.8,20.7-20.7
			C174.7,161.9,177.2,160.4,180.5,160.6z"/>
		<linearGradient id="SVGID_38_" gradientUnits="userSpaceOnUse" x1="290.1694" y1="69.6434" x2="133.5224" y2="162.7849">
			<stop  offset="0" style="stop-color:#9973E9"/>
			<stop  offset="1" style="stop-color:#503DC6"/>
		</linearGradient>
		<path class="st37" d="M91.2,160.6c-4.2,0.1-7.4,2.1-9.2,5.9c-2,4.3-1.2,8.5,2.2,12c5.8,5.8,11.6,11.6,17.4,17.4
			c1.3,1.3,2.6,2.7,4,4c4.4,3.9,10.6,3.7,14.5-0.4c4-4.1,3.9-10.5-0.2-14.7c-6.9-6.9-13.8-13.8-20.7-20.7
			C96.9,161.9,94.4,160.4,91.2,160.6z"/>
		<linearGradient id="SVGID_39_" gradientUnits="userSpaceOnUse" x1="292.8845" y1="74.2104" x2="136.2377" y2="167.3518">
			<stop  offset="0" style="stop-color:#9973E9"/>
			<stop  offset="1" style="stop-color:#503DC6"/>
		</linearGradient>
		<path class="st38" d="M200.9,155.7c-2.3,0-4.6-1-6.5-2.9c-7.2-7.2-14.4-14.3-21.6-21.5c-3.9-4-3.8-10.5,0-14.3
			c3.9-4,10.3-4.4,14.3-0.6c7.5,7.2,14.8,14.6,22.1,22c3.1,3.2,3.8,7.3,1.9,11.4C209.2,153.7,205.9,155.9,200.9,155.7z"/>
		<linearGradient id="SVGID_40_" gradientUnits="userSpaceOnUse" x1="281.7898" y1="55.5221" x2="125.1431" y2="148.6634">
			<stop  offset="0" style="stop-color:#9973E9"/>
			<stop  offset="1" style="stop-color:#503DC6"/>
		</linearGradient>
		<path class="st39" d="M158.8,155.8c-2.6,0-5-0.8-6.9-2.7c-7.4-7.3-14.8-14.6-22.1-22.1c-3.9-4-3.6-10.1,0.5-14.3
			c3.7-3.8,10.1-4.1,14.1-0.3c5.8,5.5,11.3,11.2,16.9,16.8c1.7,1.7,3.4,3.3,5,5c3,3.3,3.7,7.2,2,11.2
			C166.8,153.7,163.4,155.8,158.8,155.8z"/>
		<linearGradient id="SVGID_41_" gradientUnits="userSpaceOnUse" x1="267.2625" y1="31.1204" x2="110.6163" y2="124.2615">
			<stop  offset="0" style="stop-color:#9973E9"/>
			<stop  offset="1" style="stop-color:#503DC6"/>
		</linearGradient>
		<path class="st40" d="M72.3,155.8c-4.7,0.1-8.7-3.7-8.9-8.4c-0.2-4.5,4-8.9,8.6-9c4.7-0.1,8.8,3.9,8.8,8.7
			C80.8,151.8,77,155.7,72.3,155.8z"/>
		<linearGradient id="SVGID_42_" gradientUnits="userSpaceOnUse" x1="294.4029" y1="76.7649" x2="137.7555" y2="169.9066">
			<stop  offset="0" style="stop-color:#9973E9"/>
			<stop  offset="1" style="stop-color:#503DC6"/>
		</linearGradient>
		<path class="st41" d="M135.6,162.9c4.6,0.2,8.4,4.2,8.2,8.9c-0.2,4.7-4.2,8.4-8.8,8.3c-4.8-0.1-8.5-4.1-8.4-9
			C126.7,166.3,130.7,162.7,135.6,162.9z"/>
		<linearGradient id="SVGID_43_" gradientUnits="userSpaceOnUse" x1="321.902" y1="123.0121" x2="165.2548" y2="216.1537">
			<stop  offset="0" style="stop-color:#9973E9"/>
			<stop  offset="1" style="stop-color:#503DC6"/>
		</linearGradient>
		<path class="st42" d="M208.8,194.4c0,4.1-3.2,7.4-7.2,7.4c-4,0-7.1-3.3-7.1-7.3c0-4,3-7.1,6.9-7.2
			C205.6,187.3,208.8,190.3,208.8,194.4z"/>
		<linearGradient id="SVGID_44_" gradientUnits="userSpaceOnUse" x1="288.3804" y1="66.6357" x2="131.7339" y2="159.777">
			<stop  offset="0" style="stop-color:#9973E9"/>
			<stop  offset="1" style="stop-color:#503DC6"/>
		</linearGradient>
		<path class="st43" d="M73.1,201.8c-4,0-7.1-3.2-7.1-7.3c0-4.1,3.2-7.2,7.4-7.1c3.9,0.1,7,3.3,7,7.1
			C80.5,198.6,77.3,201.8,73.1,201.8z"/>
		<linearGradient id="SVGID_45_" gradientUnits="userSpaceOnUse" x1="272.6392" y1="40.1573" x2="115.9914" y2="133.2993">
			<stop  offset="0" style="stop-color:#9973E9"/>
			<stop  offset="1" style="stop-color:#503DC6"/>
		</linearGradient>
		<path class="st44" d="M47.3,171.2c0.1-2.6,2.3-4.5,4.9-4.4c2.5,0.1,4.6,2.4,4.5,4.9c-0.1,2.4-2.7,4.7-4.9,4.5
			C49.2,176,47.2,173.7,47.3,171.2z"/>
		<linearGradient id="SVGID_46_" gradientUnits="userSpaceOnUse" x1="307.7968" y1="99.2896" x2="151.1493" y2="192.4314">
			<stop  offset="0" style="stop-color:#9973E9"/>
			<stop  offset="1" style="stop-color:#503DC6"/>
		</linearGradient>
		<path class="st45" d="M273.5,122.3c0.1,2.5-2.3,4.9-4.7,4.9c-2.3,0-4.5-2.2-4.6-4.5c-0.1-2.6,1.9-4.7,4.5-4.8
			C271.2,117.8,273.4,119.8,273.5,122.3z"/>
		<linearGradient id="SVGID_47_" gradientUnits="userSpaceOnUse" x1="251.1534" y1="4.0269" x2="94.5065" y2="97.1684">
			<stop  offset="0" style="stop-color:#9973E9"/>
			<stop  offset="1" style="stop-color:#503DC6"/>
		</linearGradient>
		<path class="st46" d="M56.6,122.3c0.1,2.5-2.3,4.9-4.7,4.9c-2.3,0-4.5-2.2-4.6-4.5c-0.1-2.6,1.9-4.7,4.5-4.8
			C54.4,117.8,56.5,119.8,56.6,122.3z"/>
	</g>
</g>
<g id="background">
	<g>
		<g>
			<path class="st47" d="M583.7,264.5c0.8-2.6,1.3-5.4,1.3-8.2c0-14.9-12.1-26.9-26.9-26.9c-2.3,0-4.5,0.3-6.7,0.9
				c0.4-2.1,0.6-4.3,0.6-6.6c0-20.5-16.6-37.1-37.1-37.1c-4.6,0-8.9,0.8-13,2.3c-7.2-14-21.7-23.5-38.4-23.5
				c-12.3,0-23.4,5.2-31.3,13.5c-6.7-4.6-14.8-7.2-23.5-7.2c-16.1,0-30.1,9.2-37.1,22.5c-4.6-6.9-12.5-11.5-21.5-11.5
				c-11.6,0-21.4,7.6-24.7,18.2c-11.2-8-25.3-12.7-40.6-12.7c-7.7,0-15.2,1.2-22.1,3.4c0-0.1,0-0.1,0-0.2c0-12-9.7-21.6-21.6-21.6
				c-8.1,0-15.1,4.4-18.8,10.9c-1.5-21.9-19.7-39.2-42-39.2c-20.4,0-37.4,14.5-41.3,33.8c-0.3,0-0.5,0-0.8,0
				c-11.3,0-20.7,7.8-23.2,18.4c-5.6,3.4-10.7,7.4-15.3,12.1c-6.7-4.4-14.6-7-23.1-7c-23.4,0-42.4,19.3-43.5,43.5
				c-2.3-0.7-4.7-1.2-7.2-1.2C13.2,240.9,3,251.2,3,263.8c0,12.6,10.2,22.9,22.9,22.9c7.2,0,13.6-3.4,17.8-8.6
				c4.6,18.2,25.1,32,49.6,32.1c14.5,18.7,37.2,30.8,62.8,30.8c15.5,0,29.9-4.4,42.1-12.1c6.7,11.5,19.2,19.2,33.4,19.2
				c18.6,0,34.1-13.1,37.8-30.6c3.2,6.4,9.8,10.8,17.5,10.8c10.2,0,18.5-7.7,19.5-17.6c15.1,14.4,37.5,23.5,62.6,23.5
				c16.7,0,32.2-4,45.2-11c17.3,17.1,51,23.6,86.1,14.2c26.6-7.1,48-21.7,59.6-38.6c4.7,2.4,10.4,3.9,16.6,3.9
				c15.4,0,27.9-8.7,27.9-19.5C604.5,274.3,595.7,266.7,583.7,264.5z"/>
		</g>
	</g>
	<g>
		
			<ellipse transform="matrix(0.9798 -0.2002 0.2002 0.9798 -36.0217 85.9771)" class="st48" cx="407.1" cy="221.1" rx="27.4" ry="19.5"/>
		
			<ellipse transform="matrix(1.453424e-02 -0.9999 0.9999 1.453424e-02 148.9255 390.8742)" class="st48" cx="272.8" cy="119.9" rx="33.4" ry="33.7"/>
		<path class="st49" d="M245.8,123.9c0.3-18.5,15.6-33.2,34.1-32.9c5.4,0.1,10.5,1.4,15,3.8c-5.8-5.1-13.4-8.2-21.7-8.3
			c-18.6-0.3-33.9,14.5-34.1,32.9c-0.2,13.1,7.2,24.5,18.2,30.2C250.1,143.3,245.7,134.1,245.8,123.9z"/>
		
			<ellipse transform="matrix(1.462676e-02 -0.9999 0.9999 1.462676e-02 99.1856 378.0735)" class="st48" cx="241.4" cy="138.7" rx="19.8" ry="19.9"/>
		
			<ellipse transform="matrix(0.845 -0.5347 0.5347 0.845 -59.4697 146.1626)" class="st48" cx="222.4" cy="175.7" rx="38.2" ry="35.2"/>
		<path class="st49" d="M202.2,202.5c-10.4-16.4-4.4-38.9,13.4-50.2c6-3.8,12.5-5.8,19-6.2c3-0.2,3.4-4.4,0.6-5.2
			c-10.1-2.8-21.6-1.3-31.5,5c-17.8,11.3-23.8,33.7-13.4,50.2c4.4,7,11.1,11.8,18.7,14.1C206.3,208,204,205.5,202.2,202.5z"/>
		<path class="st48" d="M492.6,219.5c-1,0-2,0-2.9,0.2c-2.8-14.3-16.6-25.2-33.4-25.5c-17-0.2-31.2,10.5-34.2,25
			c-2.5,0.2-5.1,0.6-7.7,1.1c-6.7,1.4-12.8,3.7-17.9,6.5c-4.8-15.4-22.5-27.1-43.7-27.4c-13.4-0.2-25.5,4.1-33.9,11.2
			c-9.6-14.4-28.6-24.3-50.7-24.6c-11.3-0.2-21.8,2.2-30.8,6.4c-8.1-6.2-19.1-10.1-31.3-10.3c-25.1-0.4-45.8,15.2-46,34.8
			c-0.3,19.6,19.9,35.8,45,36.2c3.8,0.1,7.5-0.3,11-0.9c9.6,14.4,28.6,24.3,50.7,24.6c20.7,0.3,38.9-7.9,49.4-20.5
			c8.2,8.4,21.1,13.9,35.6,14.1c14.6,0.2,27.6-4.9,36.1-13.1c7.5,5.3,20.8,7.3,35,4.4c7.9-1.6,15-4.5,20.5-8.1
			c3.8,1.3,7.8,2.1,12.1,2.2c9.9,0.1,18.9-3.5,25.2-9.4c3.1,2.4,7.1,3.9,11.5,4c9.7,0.1,17.7-6.6,17.8-15.2
			C510.1,226.7,502.3,219.6,492.6,219.5z"/>
		<path class="st49" d="M497.4,241.6c-4.6-0.2-8.7-1.8-11.8-4.4c-6.7,6-16.1,9.5-26.3,9.1c-4.4-0.2-8.6-1-12.5-2.5
			c-5.8,3.6-13.1,6.4-21.4,7.9c-14.8,2.7-28.5,0.3-36.1-5.3c-8.9,8.3-22.5,13.3-37.6,12.8c-15-0.5-28.2-6.5-36.5-15.3
			c-11.1,12.8-30.2,20.9-51.5,20.1c-22.8-0.8-42.3-11.5-51.9-26.6c-3.7,0.6-7.5,0.8-11.4,0.7c-17.7-0.6-32.8-8.8-40.4-20.3
			c0.3,19.2,20.2,34.9,45,35.3c3.8,0.1,7.5-0.3,11-0.9c9.6,14.4,28.6,24.3,50.7,24.6c20.7,0.3,38.9-7.9,49.4-20.5
			c8.2,8.4,21.1,13.9,35.6,14.1c14.6,0.2,27.6-4.9,36.1-13.1c7.5,5.3,20.8,7.3,35,4.4c7.9-1.6,15-4.5,20.5-8.1
			c3.8,1.3,7.8,2.1,12.1,2.2c9.9,0.1,18.9-3.5,25.2-9.4c3.1,2.4,7.1,3.9,11.5,4c8.6,0.1,15.9-5.2,17.5-12.3
			C506.3,240.4,502.1,241.8,497.4,241.6z"/>
		
			<ellipse transform="matrix(1.469650e-02 -0.9999 0.9999 1.469650e-02 222.7029 616.8335)" class="st48" cx="424.3" cy="195.4" rx="21.9" ry="22.1"/>
		<path class="st49" d="M438.2,178.3c3.1,3.8,4.9,8.7,4.8,14c-0.2,12.1-10.2,21.8-22.4,21.6c-5.1-0.1-3.4,3.3,3.4,3.4
			c12.2,0.2,22.2-9.5,22.4-21.6C446.5,188.7,443.3,182.4,438.2,178.3z"/>
		
			<ellipse transform="matrix(1.472522e-02 -0.9999 0.9999 1.472522e-02 201.7179 555.9866)" class="st48" cx="383" cy="175.6" rx="37.7" ry="37.9"/>
		<path class="st49" d="M379.2,146.3c20.9,0.3,37.7,17.4,37.4,38.2c-0.1,4.3,4.2-0.7,4.3-8.3c0.3-20.8-16.4-37.9-37.4-38.2
			c-16.6-0.2-30.9,10.1-36.2,24.8C354.2,152.7,366,146.1,379.2,146.3z"/>
		
			<ellipse transform="matrix(1.464061e-02 -0.9999 0.9999 1.464061e-02 118.0173 475.9058)" class="st48" cx="300.5" cy="178.1" rx="56" ry="56.4"/>
		<path class="st49" d="M285.9,184.4c-16.5-0.5-31.4,4.8-41.4,13.7c-3.3,2.9-8.2,2.9-11.5,0c-13.9-12.2-43.1-16.2-26.3-15.6
			c9.6,0.3,18.3,3.1,25.2,7.6c3.1,2,7.3,1.8,10.2-0.6C262.7,172.8,295.4,184.8,285.9,184.4z"/>
		<path class="st49" d="M301.3,133.8c28.9,0.4,52.3,22.3,55.3,50.1c0.2-1.7,0.3-3.3,0.3-5.1c0.5-30.9-24.4-56.4-55.6-56.8
			c-25.8-0.4-47.8,16.5-54.9,40c-1.4,4.8,0.2,10.2,2.5,5C257.8,147.2,278,133.5,301.3,133.8z"/>
		<path class="st49" d="M311.7,126.1c5,0.1,9.9,0.8,14.5,2.1c-7.5-3.8-15.9-6-24.9-6.1"/>
		<path class="st49" d="M275.1,131.5l-1.3,4c-3.8,12.1,4.1,24.9,16.7,26.8l0,0l0,0c15.4,3.5,27.9,14.6,33.2,29.5l0,0
			c15,0,28.1,10.1,31.9,24.6l0.1,0.2c3.9,14.7,27.6,22.2,41.8,16.7l0,0l0.1-0.5c2-9.2,9.5-16.2,18.8-17.5l0,0l0,0
			c-20.8-0.7-38.8-14.5-44.7-34.4l-7.1-23.8l-61.7-25.2l-14.2-6.4L275.1,131.5z"/>
	</g>
</g>
<g id="people">
	<g>
		<path class="st50" d="M379.5,203.9c0,0,4.4,3.9,12.5,9.5c1.8,1.2,4,2.8,6.1,4.3c2.9,2,2.6,3.1,2,4.6c-0.2,0.6-0.6,1.1-0.9,1.5
			c-1.8,2.7-11.2,1.3-14.2,0c-3-1.3-12.3-7.1-12.2-9.1c0-1.1-0.6-6.1,1.5-9.7C376,202.2,379.5,203.9,379.5,203.9z"/>
		<path class="st48" d="M372.8,214.8c0,2,9.2,7.8,12.2,9.1c3,1.3,12.4,2.7,14.2,0c0.2-0.4,0.5-0.8,0.8-1.3
			c-1.8,1.6-5.7,2.7-13.9,0.5c-5.4-2.1-9.6-6.6-13.4-10.2C372.8,213.7,372.8,214.4,372.8,214.8z"/>
		<path class="st51" d="M390.7,224.6c-1.7-1.2-8.3-5.4-10.3-10.8c-1.5-4.1-1.1-4.1-1.1-4.1s-1.9-0.6-4.4,3.1
			c-0.4,0.7-1.1,0.9-2.1,0.7c0,0.6,0,1,0,1.2c0,2,9.2,7.8,12.2,9.1c1.3,0.6,3.8,1.1,6.4,1.4C391.2,225,391,224.8,390.7,224.6z"/>
		<path class="st52" d="M283.2,115.7l-1.7,14.5c-0.5,4.8,0.3,9.6,2.5,13.8l0,0c2.3,4.5,5.8,8.1,10.2,10.5l36.2,20.7l41.7,40.8
			c0,0,8.4,0,13-8.5c0,0-33.7-39.4-37.1-42.4L314.2,133l0.4-11.4L283.2,115.7z"/>
		<path class="st53" d="M379,214.1l-40.7-39.9c0,0-36.7-20-45.7-25.1c-9-5.1-9-24.7-9-24.7l-1.4-0.4l-0.7,6.2
			c-0.5,4.8,0.3,9.6,2.5,13.8l0,0c2.3,4.5,5.8,8.1,10.2,10.5l36.2,20.7l41.7,40.8C372.1,216.1,375.4,216.1,379,214.1z"/>
		<g>
			<path class="st54" d="M356.6,200.9L356.6,200.9l15.6,15.2c0,0,4.1,0,8.2-2.9l-1.4-12.8c-0.1-0.1-0.2-0.2-0.3-0.4
				c-5.8-6.8-14.5-16.8-21.1-24.4L356.6,200.9z"/>
			<polygon class="st54" points="334,151.8 314.2,133 332.7,151.2 			"/>
			<polygon class="st54" points="312.2,125.9 314.2,133 314.5,125 			"/>
		</g>
		<polygon class="st55" points="375.3,212.3 373.2,201.3 364.2,201.6 363.4,215.2 373.3,218.7 		"/>
		<g>
			<path class="st50" d="M375.4,209.7c0.7-0.2,1.4,0.4,1.4,1.2c-0.1,0.9-0.1,2.1,0.2,3.1c2.1,5.7,9.1,10.1,10.8,11.4
				c1.8,1.3,2.7,3.2,1.9,4.2c-0.8,1-1.5,5.1-19.9-4.1c-6-3-10.7-6-10.7-6s1.1-5.6,2.6-9.5c2.5,0.2,3.4,2.2,5.6,3.7
				c1.7,1.1,3.2,0.3,3.8-0.8C372.6,210.8,374.2,210,375.4,209.7z"/>
			<path class="st56" d="M374.8,217c1.4-0.2,3.1-1.2,3.1-1.2"/>
			<path class="st56" d="M376.9,218.4c1.3-0.2,2.1-0.7,2.2-0.8"/>
			<path class="st56" d="M378.7,219.8c1.3-0.2,1.6-0.6,1.6-0.6"/>
			<path class="st56" d="M380.5,221.1c0.7-0.2,1.2-0.6,1.2-0.6"/>
			<path class="st48" d="M389.7,229.6c-0.1,0.2-2,2.4-15.4-4c-8.5-4.1-11.8-6.7-14.6-8.2c-0.3,1.3-0.5,2.2-0.5,2.2s4.7,3,10.7,6
				C388.2,234.7,388.9,230.7,389.7,229.6z"/>
		</g>
		<path class="st52" d="M321.2,122.3l47.2,22.9c2.5,1.3,4.3,3.6,4.8,6.4l2.9,56.6c0,0-2.9,1.4-8.8,2.8c-3.7,0.9-7.4,0.6-7.4,0.6
			l-4-48.9l-23.2-11.7L314.2,133l-2-7.1L321.2,122.3z"/>
		<g class="st53">
			<path d="M359.8,160.7l-39.4-24l-2,0.3l14.3,14.1l23.2,11.7l4,48.9c0,0,3.7,0.2,7.4-0.6L359.8,160.7z"/>
		</g>
		<path class="st57" d="M295.9,51.8l18.7,4.6c6.6,0.8,16.6,6.2,15.5,20.6c-0.2,2.8-9,16.7-9,16.7l-0.8,13.6c0,0,5.2,16.6,5.1,16.6
			c0,0-7.8,2.3-12.7,7.6c-4,4.4-29.9,1.2-32.3-2.1c-0.5-0.6,1.4-12.4,0.8-15.2c-2.7-12.6-8.7-31.7-8.7-31.7l-1.6-0.8
			c0,0-0.5-14.2,0-16C272.6,60.1,283.7,52,295.9,51.8z"/>
		<path class="st53" d="M292.7,110.7c-1.5-38.9-4.4-31.9-4.4-31.9L289,86l-7.8,27.7c0,0.1,0,0.1,0,0.2c0.4,1,0.2,4.6-0.2,8.1
			c-0.2,2.1,0.9,4,2.7,5l12.2,6.4c7.3,0.7,14.9,0.4,16.9-1.8c1.2-1.3,2.5-2.4,3.9-3.3C304.5,118.9,294.8,112.4,292.7,110.7z"/>
		<path class="st58" d="M328.1,30.6c0,0,7.3-0.8,7.5-8.5c0.2-6.3-4.3-5.1-4.3-5.1s-1.9-0.3-4.4-2.9c-7-7.5-17.7-7.9-25.5-1.3
			c-7.8,6.6-3.7,26.2-4.6,30.6C304.6,55.2,328.1,30.6,328.1,30.6z"/>
		<path class="st59" d="M321.2,18.9c8,3.6,10-1.8,10-1.8s4.5-1.2,4.3,5.1c-0.2,7.6-7.5,8.5-7.5,8.5s-2.5,1.6-6.1,3.8L310,26.5
			C310,26.5,313.3,15.3,321.2,18.9z"/>
		<path class="st60" d="M320.7,28c-4-2.8-3.5-3.1-7.4-4.1c-4.9-1.2-8,15.2-8,15.2l-2.3-0.9c0,0,0.5-7.6,0.4-7.5
			c-2.8-3.4-5.9,2.3-3.6,5.9c-0.3,6.2-0.8,7.3-0.8,7.3l-5.4,9c-0.4,1.4,8.4,11.3,16.2,12.6c7.8,1.3,7-8.7,4.8-9.1
			c-1.4-0.3-2.5-1.3-2.7-2.7c0,0,0,0,0-0.1c0,0,0.1,0,0.1,0.1c2.2,1.2,4.2,1.5,5.8-0.5c0.9-1.1,5.5-7.3,6.1-8.5
			c1.4-2.4,4.2-14.1,4.2-14.1S326.6,32.1,320.7,28z"/>
		<g>
			<g class="st61">
				<path d="M316.2,59.8c-0.1-1.8-0.7-3.3-1.5-3.4c-1.4-0.3-2.5-1.3-2.7-2.7c0,0,0,0,0-0.1c0,0,0.1,0,0.1,0.1l-10.6-7.1
					C301.4,46.7,304.2,59.8,316.2,59.8z"/>
			</g>
			<path class="st61" d="M325.6,30.6L325.6,30.6c0,0-2.8,11.8-4.2,14.1c-0.7,1.1-5.6,8.8-6.5,9.9c1.1,0,2-0.4,2.9-1.4
				c0.9-1.1,5.5-7.3,6.1-8.5c1.4-2.4,4.2-14.1,4.2-14.1S327.5,31.2,325.6,30.6z"/>
		</g>
		<g>
			<polygon class="st62" points="296.7,139.4 323.5,155.3 362.5,138.7 335.3,124.4 			"/>
			<path class="st63" d="M312.8,144.8l12,7.1c0.3,0.2,0.6,0.2,0.8,0.1l30.5-12.5c0.8-0.3,0.8-1.4,0-1.7l-14.4-6.6
				c-0.2-0.1-0.5-0.1-0.8,0l-28.2,11.9C312.2,143.4,312.2,144.4,312.8,144.8z"/>
			<path class="st64" d="M323.5,155.3l-26.7-15.9l0,0c0,1.2,0.7,2.4,1.7,3l23.6,14.1c0.9,0.5,2,0.6,2.9,0.2l35.9-15.5
				c1-0.4,1.6-1.4,1.6-2.5L323.5,155.3z"/>
			<polygon class="st64" points="326.4,129.9 331.8,133.3 321.1,137.7 315.9,134.3 			"/>
			<path class="st65" d="M326.1,120.4l-2.8,6l1.4,5.8c0,0,1.8-0.1,1.4-2.4c-0.4-2.3,0.4-3.3,0.4-3.3l2.1,2.8
				c0.2,0.3,0.3,0.6,0.2,0.9c-0.1,0.9-0.4,2.8-0.5,3.8c-0.1,0.6,0.1,1.3,0.5,1.7c0.4,0.5,0.9,0.6,1.3,0.5c0.3-0.8,1.2-5.9,1.2-5.9
				l-0.4,5.5c-0.1,0.7,0.3,1.3,1,1.5l0.7,0.3l1-3.4l0.1,0c0.9,0,1.7-0.5,1.9-1.4l0.4-1.6l0.6-0.6c0.3-0.3,0.5-0.7,0.5-1.1l-0.1-3.1
				c0-0.5-0.2-1-0.5-1.4l-4.6-5.4L326.1,120.4z"/>
			<path class="st48" d="M323.5,155.3L323,155l16.9-29.4c0.4-0.6,1-1.1,1.7-1.3l32.4-10.5c0.5-0.1,1.1,0,1.6,0.3l0.2,0.2
				L323.5,155.3z"/>
			<path class="st66" d="M323.5,155.3l16.8-28.5c0.5-0.9,1.4-1.5,2.4-1.8l32.6-10.9c0.5-0.1,1,0.4,0.7,0.9l-13.4,23.6L323.5,155.3z"
				/>
			<g>
				<path class="st48" d="M355.3,132.9c-0.3,1.5-2,3.2-3.7,3.7c-1.7,0.5-2.8-0.3-2.5-1.8c0.3-1.5,2-3.2,3.7-3.7
					C354.5,130.5,355.6,131.3,355.3,132.9z"/>
			</g>
		</g>
		<path class="st65" d="M272.6,82.4c-0.1,8,5.8,27.7,6.6,30.4c0.5,1.7,1.1,4.2,1,5.9c0,1.5,0.8,2.9,2.1,3.7c1.4,0.9,4.8,4.7,9.1,6.4
			c8.9,3.4,19.4,4.9,19.4,4.9l4.3-4.4c0,0-19.8-12.2-22.8-15.7c-1.5-1.7-2-3.7-1.8-5.7c0.3-2.9-0.3-14.8-1.6-22.1
			C289,86,278.9,85.6,272.6,82.4z"/>
		<path class="st65" d="M324.5,80.8c0,0,2.3-1.5,5.7-3.8c0.6,4.8-0.2,8,0,13.6c0.4,4.5-0.5,6.8,0,11.4c3.3,6.7,2.1,19.3,2.1,19.3
			s-4.4,4.4-6.3,0c-2.5-6.1-5.7-14.1-5.7-14.1l0.8-13.6C321.2,93.7,324.5,86.2,324.5,80.8z"/>
		<path class="st61" d="M322.8,93.7c0,0,3.2-8.6,3.6-14.2c-1.2,0.8-1.9,1.2-1.9,1.2c0,5.4-3.3,12.9-3.3,12.9l-0.8,13.6
			c0,0,3.2,8,5.7,14.1c-1.4-6.2-4.1-14.1-4.1-14.1L322.8,93.7z"/>
		<path d="M314.8,54.7"/>
		<path class="st65" d="M315.1,129.4l10.2,4.2c0.7,0.3,1.3,0.8,1.6,1.5l2.4,5c0.1,0.2,0,0.4-0.3,0.5l0,0c-0.8,0.1-1.7-0.3-2.1-1
			l-1.8-2.9l-2.8-0.9l3.5,4.1l2.2,4.5c0.1,0.1,0,0.3-0.1,0.3l0,0c-0.9,0.4-1.9,0.1-2.5-0.6l0,0l-0.1,0c-0.9,0.3-1.9,0-2.5-0.8
			l-2-2.7l-1.8-1.1l2.8,4.6l0,0c-0.8,0.3-1.7,0.1-2.3-0.5l-2.7-2.9l-2.4-1c0,0,0,0-0.1,0c-2.7-1.1-4.6-3.5-5.2-6.4l-0.4-1.6
			L315.1,129.4z"/>
		<path class="st67" d="M381.5,214.4c3.1-1.4,4.5-3.9,4.9-5"/>
		<path class="st67" d="M384,215.5c2.8-1.6,3.9-3.6,4.4-4.7"/>
		<path class="st67" d="M386.4,216.4c2.5-1.8,2.9-2.5,3.9-4.1"/>
		<path class="st67" d="M389.2,216.7c1.6-1.2,2.3-2.3,2.8-2.9"/>
	</g>
	<path class="st60" d="M299.7,38.7c0,0-2.7,0.3-2.3-2.4c0,0,0.6-1.7,2.6-1.2c2,0.6,1.6,1.1,1.6,1.1s-0.9,1.7-0.9,1.8
		S299.7,38.7,299.7,38.7z"/>
	<circle class="st68" cx="299.3" cy="36.8" r="1.5"/>
</g>
</svg>
